<?xml version="1.0" encoding="utf-8"?>
<svg xmlns="http://www.w3.org/2000/svg" viewBox="0 0 30 30" fill="#000000"><path d="M 9.9160156 3 A 1.0001 1.0001 0 0 0 9.5058594 3.109375 L 7.5449219 4.109375 A 1.0001 1.0001 0 0 0 7 5 L 7 17 L 6.5 17 C 4.567 17 3 19.239 3 22 C 3 24.761 4.567 27 6.5 27 L 23.5 27 C 24.622708 27 25.541662 26.277091 26.115234 25.359375 C 26.668411 24.474294 26.970901 23.353587 26.992188 22.132812 A 1.0001 1.0001 0 0 0 27 22 L 27 4 A 1.0001 1.0001 0 0 0 25.552734 3.1054688 L 23.992188 3.8867188 L 22.353516 3.0996094 A 1.0001 1.0001 0 0 0 21.458984 3.1132812 L 19.988281 3.8789062 L 18.419922 3.1035156 A 1.0001 1.0001 0 0 0 17.525391 3.1074219 L 15.996094 3.8808594 L 14.4375 3.1054688 A 1.0001 1.0001 0 0 0 13.953125 3 A 1.0001 1.0001 0 0 0 13.542969 3.1054688 L 11.994141 3.8828125 L 10.400391 3.1015625 A 1.0001 1.0001 0 0 0 9.9160156 3 z M 9.96875 5.1171875 L 11.560547 5.8984375 A 1.0001 1.0001 0 0 0 12.449219 5.8945312 L 13.992188 5.1171875 L 15.554688 5.8945312 A 1.0001 1.0001 0 0 0 16.451172 5.8925781 L 17.982422 5.1171875 L 19.556641 5.8964844 A 1.0001 1.0001 0 0 0 20.462891 5.8867188 L 21.9375 5.1191406 L 23.566406 5.9003906 A 1.0001 1.0001 0 0 0 24.447266 5.8945312 L 25 5.6171875 L 25 17.46875 C 24.561259 17.178493 24.055792 17 23.5 17 L 9 17 L 9 5.6132812 L 9.96875 5.1171875 z M 12 9 A 1.0001 1.0001 0 1 0 12 11 L 16 11 A 1.0001 1.0001 0 1 0 16 9 L 12 9 z M 20 9 A 1.0001 1.0001 0 1 0 20 11 L 22 11 A 1.0001 1.0001 0 1 0 22 9 L 20 9 z M 12 13 A 1.0001 1.0001 0 1 0 12 15 L 14 15 A 1.0001 1.0001 0 1 0 14 13 L 12 13 z M 18 13 A 1.0001 1.0001 0 1 0 18 15 L 22 15 A 1.0001 1.0001 0 1 0 22 13 L 18 13 z M 23.5 19 C 23.758004 19 24.088672 19.171172 24.419922 19.701172 C 24.751172 20.231172 25 21.064318 25 22 C 25 22.935682 24.751172 23.768828 24.419922 24.298828 C 24.088672 24.828828 23.758004 25 23.5 25 C 23.241996 25 22.911328 24.828828 22.580078 24.298828 C 22.248828 23.768828 22 22.935682 22 22 C 22 21.064318 22.248828 20.231172 22.580078 19.701172 C 22.911328 19.171172 23.241996 19 23.5 19 z" fill="#000000"/></svg>
