<?xml version="1.0" encoding="utf-8"?>
<svg xmlns="http://www.w3.org/2000/svg" viewBox="0 0 128 128" fill="#000000"><path d="M28.2,83.1c-5.5,1.4-9.6,6.4-9.6,12.4c0,7.1,5.7,12.8,12.6,12.8s12.6-5.7,12.6-12.8c0-6-4.1-11-9.6-12.4V67H61v16.1 c-5.5,1.4-9.6,6.4-9.6,12.4c0,7.1,5.7,12.8,12.6,12.8c7,0,12.6-5.7,12.6-12.8c0-6-4.1-11-9.6-12.4V67h29.8c1.7,0,3-1.3,3-3V44.9 c5.5-1.4,9.6-6.4,9.6-12.4c0-7.1-5.7-12.8-12.6-12.8c-7,0-12.6,5.7-12.6,12.8c0,6,4.1,11,9.6,12.4V61H67V44.9 c5.5-1.4,9.6-6.4,9.6-12.4c0-7.1-5.7-12.8-12.6-12.8c-7,0-12.6,5.7-12.6,12.8c0,6,4.1,11,9.6,12.4V61H34.2V44.9 c5.5-1.4,9.6-6.4,9.6-12.4c0-7.1-5.7-12.8-12.6-12.8s-12.6,5.7-12.6,12.8c0,6,4.1,11,9.6,12.4V83.1z M70.6,95.5 c0,3.7-3,6.8-6.6,6.8c-3.7,0-6.6-3-6.6-6.8c0-3.7,3-6.8,6.6-6.8C67.7,88.7,70.6,91.8,70.6,95.5z M90.1,32.5c0-3.7,3-6.8,6.6-6.8 c3.7,0,6.6,3,6.6,6.8c0,3.7-3,6.8-6.6,6.8C93.1,39.3,90.1,36.2,90.1,32.5z M57.4,32.5c0-3.7,3-6.8,6.6-6.8c3.7,0,6.6,3,6.6,6.8 c0,3.7-3,6.8-6.6,6.8C60.3,39.3,57.4,36.2,57.4,32.5z M37.9,95.5c0,3.7-3,6.8-6.6,6.8s-6.6-3-6.6-6.8c0-3.7,3-6.8,6.6-6.8 S37.9,91.8,37.9,95.5z M24.6,32.5c0-3.7,3-6.8,6.6-6.8s6.6,3,6.6,6.8c0,3.7-3,6.8-6.6,6.8S24.6,36.2,24.6,32.5z" fill="#000000"/></svg>
