<?xml version="1.0" encoding="utf-8"?>
<svg xmlns="http://www.w3.org/2000/svg" viewBox="0 0 30 30" fill="#000000"><path d="M 9.9804688 2.9902344 A 1.0001 1.0001 0 0 0 9.2929688 3.2929688 L 5.2929688 7.2929688 A 1.0001 1.0001 0 1 0 6.7070312 8.7070312 L 10.707031 4.7070312 A 1.0001 1.0001 0 0 0 9.9804688 2.9902344 z M 15.828125 3 C 15.298125 3 14.789062 3.2109375 14.414062 3.5859375 L 5.5859375 12.414062 C 5.2109375 12.789062 5 13.298125 5 13.828125 L 5 25 C 5 26.105 5.895 27 7 27 L 23 27 C 24.105 27 25 26.105 25 25 L 25 7 C 25 4.791 23.209 3 21 3 L 15.828125 3 z M 17 6 L 21 6 C 21.552 6 22 6.448 22 7 C 22 7.552 21.552 8 21 8 L 17 8 C 16.448 8 16 7.552 16 7 C 16 6.448 16.448 6 17 6 z M 12.273438 11 C 20.106437 12.545 21.617609 17.736547 18.349609 19.935547 C 17.911609 17.018547 15.968797 14.395672 13.841797 13.513672 C 13.841797 13.513672 18.448141 18.903344 16.494141 23.277344 C 16.273141 23.772344 15.838125 24.129266 15.328125 23.947266 C 14.878125 23.786266 14.640922 23.295797 14.794922 22.841797 C 14.958922 22.355797 15.535078 21.017891 15.455078 20.462891 C 14.343078 21.382891 11 21.587531 11 16.644531 C 11 14.244531 12.273438 11 12.273438 11 z" fill="#000000"/></svg>
