<?xml version="1.0" encoding="utf-8"?>
<svg xmlns="http://www.w3.org/2000/svg" viewBox="0 0 30 30" fill="#000000"><path d="M 7 2 C 5.895 2 5 2.895 5 4 L 5 26 C 5 27.105 5.895 28 7 28 L 19.564453 28 C 19.560077 28.035073 19.552754 28.065995 19.548828 28.101562 A 1.0001 1.0001 0 0 0 20 30 L 20.332031 30 A 1.0001 1.0001 0 0 0 20.658203 30 L 28.332031 30 A 1.0001 1.0001 0 0 0 28.658203 30 L 29 30 A 1.0001 1.0001 0 0 0 29.451172 28.099609 C 29.237737 26.170433 28.355256 24.971517 27.546875 24 C 28.355535 23.028148 29.238126 21.828787 29.451172 19.898438 A 1.0001 1.0001 0 0 0 29 18 L 28.654297 18 A 1.0001 1.0001 0 0 0 28.484375 17.986328 A 1.0001 1.0001 0 0 0 28.339844 18 L 25 18 L 25 4 C 25 2.895 24.105 2 23 2 L 7 2 z M 10 8 C 10.552 8 11 8.448 11 9 C 11 9.552 10.552 10 10 10 C 9.448 10 9 9.552 9 9 C 9 8.448 9.448 8 10 8 z M 14 8 L 20 8 C 20.552 8 21 8.448 21 9 C 21 9.552 20.552 10 20 10 L 14 10 C 13.448 10 13 9.552 13 9 C 13 8.448 13.448 8 14 8 z M 10 12 C 10.552 12 11 12.448 11 13 C 11 13.552 10.552 14 10 14 C 9.448 14 9 13.552 9 13 C 9 12.448 9.448 12 10 12 z M 14 12 L 20 12 C 20.552 12 21 12.448 21 13 C 21 13.552 20.552 14 20 14 L 14 14 C 13.448 14 13 13.552 13 13 C 13 12.448 13.448 12 14 12 z M 10 16 C 10.552 16 11 16.448 11 17 C 11 17.552 10.552 18 10 18 C 9.448 18 9 17.552 9 17 C 9 16.448 9.448 16 10 16 z M 14 16 L 20 16 C 20.552 16 21 16.448 21 17 C 21 17.552 20.552 18 20 18 L 14 18 C 13.448 18 13 17.552 13 17 C 13 16.448 13.448 16 14 16 z M 10 20 C 10.552 20 11 20.448 11 21 C 11 21.552 10.552 22 10 22 C 9.448 22 9 21.552 9 21 C 9 20.448 9.448 20 10 20 z M 14 20 L 19.564453 20 C 19.659589 20.762524 19.857281 21.413574 20.115234 21.976562 C 20.075585 21.981349 20.040933 22 20 22 L 14 22 C 13.448 22 13 21.552 13 21 C 13 20.448 13.448 20 14 20 z M 21.572266 20 L 27.427734 20 C 27.204665 21.578133 26.446907 22.313335 25.554688 23.347656 L 24.992188 24 L 25.554688 24.652344 C 26.446907 25.686665 27.204665 26.421867 27.427734 28 L 26.710938 28 C 26.041048 27.144539 25.145653 26.429688 24.5 26.429688 C 23.854347 26.429688 22.958952 27.144539 22.289062 28 L 21.572266 28 C 21.795335 26.421867 22.553093 25.686665 23.445312 24.652344 L 24.007812 24 L 23.445312 23.347656 C 22.553093 22.313335 21.795335 21.578133 21.572266 20 z" fill="#000000"/></svg>
