<svg xmlns="http://www.w3.org/2000/svg" viewBox="0 0 100 100"><path fill="#c7ede6" d="M87.215,56.71C88.35,54.555,89,52.105,89,49.5c0-6.621-4.159-12.257-10.001-14.478 C78.999,35.015,79,35.008,79,35c0-11.598-9.402-21-21-21c-9.784,0-17.981,6.701-20.313,15.757C36.211,29.272,34.638,29,33,29 c-7.692,0-14.023,5.793-14.89,13.252C12.906,43.353,9,47.969,9,53.5C9,59.851,14.149,65,20.5,65c0.177,0,0.352-0.012,0.526-0.022 C21.022,65.153,21,65.324,21,65.5C21,76.822,30.178,86,41.5,86c6.437,0,12.175-2.972,15.934-7.614C59.612,80.611,62.64,82,66,82 c4.65,0,8.674-2.65,10.666-6.518C77.718,75.817,78.837,76,80,76c6.075,0,11-4.925,11-11C91,61.689,89.53,58.727,87.215,56.71z"/><path fill="#fff" d="M20.5 46h-2c-.276 0-.5-.224-.5-.5s.224-.5.5-.5h2c.276 0 .5.224.5.5S20.776 46 20.5 46zM17.5 54h-2c-.276 0-.5-.224-.5-.5s.224-.5.5-.5h2c.276 0 .5.224.5.5S17.776 54 17.5 54zM20.5 48h-5c-.276 0-.5-.224-.5-.5s.224-.5.5-.5h5c.276 0 .5.224.5.5S20.776 48 20.5 48zM25.5 50h-3c-.276 0-.5-.224-.5-.5s.224-.5.5-.5h3c.276 0 .5.224.5.5S25.776 50 25.5 50zM11.5 52h-2C9.224 52 9 51.776 9 51.5S9.224 51 9.5 51h2c.276 0 .5.224.5.5S11.776 52 11.5 52zM20.5 50h-1c-.276 0-.5-.224-.5-.5s.224-.5.5-.5h1c.276 0 .5.224.5.5S20.776 50 20.5 50zM14.5 52h-1c-.276 0-.5-.224-.5-.5s.224-.5.5-.5h1c.276 0 .5.224.5.5S14.776 52 14.5 52zM17.5 50h-10C7.224 50 7 49.776 7 49.5S7.224 49 7.5 49h10c.276 0 .5.224.5.5S17.776 50 17.5 50zM25.5 52h-9c-.276 0-.5-.224-.5-.5s.224-.5.5-.5h9c.276 0 .5.224.5.5S25.776 52 25.5 52z"/><g><path fill="#fdfcef" d="M51.374,58.547c0.078-0.351,0.126-0.672,0.126-1.047c0-2.761-2.239-5-5-5 c-1.656,0-3.113,0.815-4.022,2.055C42.25,51.726,39.887,49.5,37,49.5c-3.038,0-5.5,2.462-5.5,5.5c0,0.386,0.047,0.759,0.124,1.122 C31.007,55.733,30.283,55.5,29.5,55.5c-1.898,0-3.479,1.325-3.889,3.098C25.256,58.542,24.887,58.5,24.5,58.5c-2.761,0-5,2.239-5,5 s2.239,5,5,5s11,0,11,0h4c0,0,8.239,0,11,0s5-2.239,5-5C55.5,61.038,53.717,58.962,51.374,58.547z"/><path fill="#472b29" d="M50.5,69h-26c-3.033,0-5.5-2.467-5.5-5.5s2.467-5.5,5.5-5.5c0.24,0,0.484,0.014,0.75,0.044 C25.864,56.23,27.552,55,29.5,55c0.514,0,1.022,0.091,1.506,0.266C31.002,55.177,31,55.088,31,55c0-3.309,2.691-6,6-6 c2.737,0,5.102,1.885,5.792,4.452C43.798,52.52,45.103,52,46.5,52c3.033,0,5.5,2.467,5.5,5.5c0,0.223-0.015,0.437-0.047,0.665 C54.326,58.813,56,60.981,56,63.5C56,66.533,53.533,69,50.5,69z M24.5,59c-2.481,0-4.5,2.019-4.5,4.5c0,2.481,2.019,4.5,4.5,4.5h26 c2.481,0,4.5-2.019,4.5-4.5c0-2.204-1.562-4.08-3.714-4.461c-0.134-0.023-0.253-0.101-0.329-0.215 c-0.076-0.113-0.102-0.253-0.072-0.386C50.967,58.073,51,57.801,51,57.5c0-2.481-2.019-4.5-4.5-4.5 c-1.437,0-2.756,0.674-3.619,1.851c-0.124,0.169-0.339,0.242-0.54,0.185s-0.345-0.233-0.362-0.441C41.772,52.018,39.585,50,37,50 c-2.757,0-5,2.243-5,5c0,0.327,0.037,0.66,0.113,1.019c0.042,0.197-0.039,0.399-0.204,0.514c-0.164,0.116-0.382,0.121-0.552,0.013 C30.792,56.188,30.149,56,29.5,56c-1.634,0-3.033,1.115-3.402,2.711c-0.059,0.256-0.307,0.424-0.567,0.381 C25.14,59.029,24.813,59,24.5,59z"/><path fill="#472b29" d="M25.25 64C25.112 64 25 63.888 25 63.75c0-1.517 1.233-2.75 2.75-2.75.129 0 .259.011.398.034C28.536 59.825 29.65 59 30.937 59c.479 0 .944.115 1.363.335C32.872 57.926 34.221 57 35.75 57c.138 0 .25.112.25.25s-.112.25-.25.25c-1.414 0-2.65.917-3.078 2.28-.024.075-.082.135-.156.161-.076.025-.156.016-.223-.028-.402-.271-.871-.413-1.356-.413-1.135 0-2.109.774-2.368 1.883-.015.065-.056.122-.113.156-.056.036-.126.046-.19.03-.193-.047-.358-.069-.517-.069-1.241 0-2.25 1.009-2.25 2.25C25.5 63.888 25.388 64 25.25 64zM48.25 61C48.112 61 48 60.888 48 60.75c0-1.241 1.29-2.25 2.875-2.25.367 0 .799.085 1.081.165.133.038.21.176.173.309s-.178.21-.309.173C51.582 59.079 51.191 59 50.875 59c-1.31 0-2.375.785-2.375 1.75C48.5 60.888 48.388 61 48.25 61z"/></g><g><path fill="#fff" d="M88.5 45h-3c-.276 0-.5-.224-.5-.5s.224-.5.5-.5h3c.276 0 .5.224.5.5S88.776 45 88.5 45zM80.5 49h-1c-.276 0-.5-.224-.5-.5s.224-.5.5-.5h1c.276 0 .5.224.5.5S80.776 49 80.5 49zM83.5 49h-1c-.276 0-.5-.224-.5-.5s.224-.5.5-.5h1c.276 0 .5.224.5.5S83.776 49 83.5 49zM87.5 49h-2c-.276 0-.5-.224-.5-.5s.224-.5.5-.5h2c.276 0 .5.224.5.5S87.776 49 87.5 49zM86.5 51h-2c-.276 0-.5-.224-.5-.5s.224-.5.5-.5h2c.276 0 .5.224.5.5S86.776 51 86.5 51zM89.5 47h-13c-.276 0-.5-.224-.5-.5s.224-.5.5-.5h13c.276 0 .5.224.5.5S89.776 47 89.5 47z"/></g><g><path fill="#bd977c" d="M67,27H55.816c-0.413,1.163-1.512,2-2.816,2s-2.403-0.837-2.816-2H39c-1.657,0-3,1.343-3,3v38 c0,1.657,1.343,3,3,3h28c1.657,0,3-1.343,3-3V30C70,28.343,68.657,27,67,27z"/><path fill="#472b29" d="M39,26h10v1.4H39c-1.436,0-2.6,1.164-2.6,2.6v38c0,1.436,1.164,2.6,2.6,2.6h25V72H39 c-2.209,0-4-1.791-4-4V30C35,27.791,36.791,26,39,26z"/><path fill="#edf7f5" d="M67,67.625H39.375v-37.25H67V67.625z"/><path fill="#472b29" d="M66.625,30h-27.25C39.168,30,39,30.168,39,30.375v37.25C39,67.832,39.168,68,39.375,68h12.25 C51.832,68,52,67.832,52,67.625s-0.168-0.375-0.375-0.375H39.75v-36.5h26.5v4.875c0,0.207,0.168,0.375,0.375,0.375 S67,35.832,67,35.625v-5.25C67,30.168,66.832,30,66.625,30z"/><path fill="#472b29" d="M69.6,30v17.65c0.485,0.228,0.953,0.484,1.4,0.772V30c0-2.209-1.791-4-4-4H57v1.4h10 C68.436,27.4,69.6,28.564,69.6,30z"/><path fill="#472b29" d="M66.625 41c-.207 0-.375-.168-.375-.375v-2.25c0-.207.168-.375.375-.375S67 38.168 67 38.375v2.25C67 40.832 66.832 41 66.625 41zM66.625 44c-.207 0-.375-.168-.375-.375v-1.25c0-.207.168-.375.375-.375S67 42.168 67 42.375v1.25C67 43.832 66.832 44 66.625 44z"/><path fill="#e1e0d8" d="M57.45,26.5c0.019-0.166,0.05-0.329,0.05-0.5c0-2.485-2.015-4.5-4.5-4.5s-4.5,2.015-4.5,4.5 c0,0.171,0.032,0.334,0.05,0.5H44.5v3c0,1.105,0.895,2,2,2h13c1.105,0,2-0.895,2-2v-3H57.45z M53,27.625 c-0.897,0-1.625-0.728-1.625-1.625s0.728-1.625,1.625-1.625s1.625,0.728,1.625,1.625S53.897,27.625,53,27.625z"/><path fill="#472b29" d="M53,28c-1.103,0-2-0.897-2-2s0.897-2,2-2s2,0.897,2,2S54.103,28,53,28z M53,24.75 c-0.689,0-1.25,0.561-1.25,1.25s0.561,1.25,1.25,1.25s1.25-0.561,1.25-1.25S53.689,24.75,53,24.75z"/><path fill="#472b29" d="M59.5 32h-13c-1.378 0-2.5-1.122-2.5-2.5v-3c0-.276.224-.5.5-.5H48c0-2.757 2.243-5 5-5s5 2.243 5 5h3.5c.276 0 .5.224.5.5v3C62 30.878 60.878 32 59.5 32zM45 27v2.5c0 .827.673 1.5 1.5 1.5h13c.827 0 1.5-.673 1.5-1.5V27h-3.5c-.276 0-.5-.224-.5-.5V26c0-2.206-1.794-4-4-4s-4 1.794-4 4v.5c0 .276-.224.5-.5.5H45zM57.625 40.75h-8.25c-.207 0-.375-.168-.375-.375S49.168 40 49.375 40h8.25C57.832 40 58 40.168 58 40.375S57.832 40.75 57.625 40.75zM62.625 40.75h-3.25c-.207 0-.375-.168-.375-.375S59.168 40 59.375 40h3.25C62.832 40 63 40.168 63 40.375S62.832 40.75 62.625 40.75zM62.625 43h-13.25C49.168 43 49 42.832 49 42.625s.168-.375.375-.375h13.25c.207 0 .375.168.375.375S62.832 43 62.625 43zM54.25 56.75h-4.875c-.207 0-.375-.168-.375-.375S49.168 56 49.375 56h4.875c.207 0 .375.168.375.375S54.457 56.75 54.25 56.75zM53.625 59h-4.25C49.168 59 49 58.832 49 58.625s.168-.375.375-.375h4.25c.207 0 .375.168.375.375S53.832 59 53.625 59z"/><path fill="#fdfcef" d="M43.375 40.375H45.625V42.625H43.375z"/><path fill="#472b29" d="M45.625,43h-2.25C43.168,43,43,42.832,43,42.625v-2.25C43,40.168,43.168,40,43.375,40h2.25 C45.832,40,46,40.168,46,40.375v2.25C46,42.832,45.832,43,45.625,43z M43.75,42.25h1.5v-1.5h-1.5V42.25z"/><path fill="#fdfcef" d="M43.375 56.375H45.625V58.625H43.375z"/><path fill="#472b29" d="M45.625,59h-2.25C43.168,59,43,58.832,43,58.625v-2.25C43,56.168,43.168,56,43.375,56h2.25 C45.832,56,46,56.168,46,56.375v2.25C46,58.832,45.832,59,45.625,59z M43.75,58.25h1.5v-1.5h-1.5V58.25z"/><path fill="#fdfcef" d="M43.375 48.375H45.625V50.625H43.375z"/><path fill="#472b29" d="M45.625 51h-2.25C43.168 51 43 50.832 43 50.625v-2.25C43 48.168 43.168 48 43.375 48h2.25C45.832 48 46 48.168 46 48.375v2.25C46 50.832 45.832 51 45.625 51zM43.75 50.25h1.5v-1.5h-1.5V50.25zM62.625 48.75h-13.25c-.207 0-.375-.168-.375-.375S49.168 48 49.375 48h13.25C62.832 48 63 48.168 63 48.375S62.832 48.75 62.625 48.75zM58.375 51h-9C49.168 51 49 50.832 49 50.625s.168-.375.375-.375h9c.207 0 .375.168.375.375S58.582 51 58.375 51z"/></g><g><path fill="#8cd3d7" d="M74.5,58.5c0,3.04-1.36,5.76-3.5,7.6V50.9C73.14,52.74,74.5,55.46,74.5,58.5z"/><path fill="#91d5d9" d="M70,50.15v16.7c-1.58,1.04-3.47,1.65-5.5,1.65c-5.52,0-10-4.48-10-10s4.48-10,10-10 C66.53,48.5,68.42,49.11,70,50.15z"/><path fill="#6aa1a6" d="M57.625 56.75h-3.25c-.207 0-.375-.168-.375-.375S54.168 56 54.375 56h3.25C57.832 56 58 56.168 58 56.375S57.832 56.75 57.625 56.75zM62.625 56.75h-3.25c-.207 0-.375-.168-.375-.375S59.168 56 59.375 56h3.25C62.832 56 63 56.168 63 56.375S62.832 56.75 62.625 56.75zM62.625 51h-4.25C58.168 51 58 50.832 58 50.625s.168-.375.375-.375h4.25c.207 0 .375.168.375.375S62.832 51 62.625 51zM62.625 59h-8.25C54.168 59 54 58.832 54 58.625s.168-.375.375-.375h8.25c.207 0 .375.168.375.375S62.832 59 62.625 59z"/><path fill="#fdfcef" d="M64.5,46C57.596,46,52,51.596,52,58.5S57.596,71,64.5,71S77,65.404,77,58.5S71.404,46,64.5,46z M64.5,68c-5.247,0-9.5-4.253-9.5-9.5s4.253-9.5,9.5-9.5s9.5,4.253,9.5,9.5S69.747,68,64.5,68z"/><path fill="#6aa1a6" d="M71,50.9v15.19c-0.44,0.38-0.9,0.71-1.4,1V49.9C70.1,50.19,70.57,50.53,71,50.9z"/><path fill="#89bdbb" d="M67,48.836V68.18c0.93-0.24,1.8-0.61,2.6-1.09V49.9C68.801,49.426,67.925,49.073,67,48.836z"/><path fill="#6aa1a6" d="M67,52.38v15.8c-0.13,0.04-0.25,0.07-0.38,0.09c-0.12,0.03-0.24,0.05-0.37,0.07V52.38 c0-0.21,0.17-0.38,0.37-0.38C66.83,52,67,52.17,67,52.38z"/><path fill="#472b29" d="M64.5,46C71.393,46,77,51.607,77,58.5S71.393,71,64.5,71S52,65.393,52,58.5S57.607,46,64.5,46 L64.5,46z M64.5,45C57.044,45,51,51.044,51,58.5S57.044,72,64.5,72S78,65.956,78,58.5S71.956,45,64.5,45L64.5,45z"/><path fill="#472b29" d="M64.5,49c5.238,0,9.5,4.262,9.5,9.5S69.738,68,64.5,68S55,63.738,55,58.5S59.262,49,64.5,49L64.5,49 z M64.5,48C58.701,48,54,52.701,54,58.5S58.701,69,64.5,69S75,64.299,75,58.5S70.299,48,64.5,48L64.5,48z"/><path fill="#472b29" d="M51.878 68.5H56.121V69.5H51.878z" transform="rotate(-45.001 53.999 69)"/><path fill="#88ae45" d="M52.621,70.379c-1.172-1.172-3.071-1.172-4.243,0c-0.779,0.779-7.219,7.219-8,8 c-1.172,1.172-1.172,3.071,0,4.243s3.071,1.172,4.243,0c0.781-0.781,7.221-7.221,8-8C53.793,73.45,53.793,71.55,52.621,70.379z"/><path fill="#d1dc82" d="M52.621,74.621c1.172-1.172,1.172-3.071,0-4.243s-3.071-1.172-4.243,0L52.621,74.621L52.621,74.621z"/><path fill="#472b29" d="M49.999 69.5H50.999V75.499H49.999z" transform="rotate(-45.001 50.498 72.5)"/><path fill="#472b29" d="M43.875 78c-.053 0-.103-.034-.119-.087l-.75-2.375c-.021-.066.016-.136.082-.157.07-.021.137.016.157.082l.75 2.375c.021.066-.016.136-.082.157C43.9 77.998 43.887 78 43.875 78zM43.572 81c-.053 0-.103-.034-.119-.087l-1.381-4.375c-.021-.066.016-.136.082-.157.069-.021.137.017.157.082l1.381 4.375c.021.066-.016.136-.082.157C43.597 80.998 43.584 81 43.572 81zM43.111 83.498c-.053 0-.103-.034-.119-.087l-1.89-5.984c-.021-.066.016-.136.082-.157.07-.02.137.016.157.082l1.89 5.984c.021.066-.016.136-.082.157C43.136 83.496 43.124 83.498 43.111 83.498zM41.861 83.498c-.053 0-.103-.034-.119-.087l-1.543-4.887c-.021-.066.016-.136.082-.157.068-.02.136.016.157.082l1.543 4.887c.021.066-.016.136-.082.157C41.886 83.496 41.874 83.498 41.861 83.498z"/><path fill="#472b29" d="M42.5,84c-0.935,0-1.814-0.364-2.475-1.025C39.364,82.314,39,81.435,39,80.5 s0.364-1.814,1.025-2.475l8-8c1.32-1.322,3.626-1.323,4.949,0l0,0l0,0l0,0C53.636,70.687,54,71.565,54,72.5 s-0.364,1.814-1.025,2.475l-8,8C44.314,83.636,43.435,84,42.5,84z M50.5,70c-0.667,0-1.295,0.26-1.768,0.732l-8,8 C40.26,79.205,40,79.833,40,80.5s0.26,1.295,0.732,1.768c0.944,0.944,2.591,0.944,3.535,0l8-8C52.74,73.795,53,73.167,53,72.5 s-0.26-1.295-0.732-1.768l0,0C51.795,70.26,51.167,70,50.5,70z"/></g><g><path fill="#fdfcef" d="M78.5,76.5H83c1.933,0,3.5-1.567,3.5-3.5c0-1.814-1.385-3.288-3.152-3.465 C83.437,69.203,83.5,68.86,83.5,68.5c0-2.209-1.791-4-4-4c-1.266,0-2.382,0.6-3.115,1.518C75.936,64.007,74.147,62.5,72,62.5 c-2.485,0-4.5,2.015-4.5,4.5c0,0.104,0.024,0.202,0.031,0.304C66.995,66.809,66.286,66.5,65.5,66.5c-1.657,0-3,1.343-3,3 c0,0.127,0.022,0.247,0.037,0.37C62.071,69.641,61.554,69.5,61,69.5c-1.933,0-3.5,1.567-3.5,3.5s1.567,3.5,3.5,3.5s9.5,0,9.5,0V77 h8V76.5z"/><path fill="#472b29" d="M83,77h-4.5c-0.276,0-0.5-0.224-0.5-0.5s0.224-0.5,0.5-0.5H83c1.654,0,3-1.346,3-3 c0-1.538-1.162-2.813-2.702-2.967c-0.146-0.015-0.278-0.093-0.362-0.213c-0.083-0.121-0.109-0.272-0.071-0.414 C82.957,69.063,83,68.775,83,68.5c0-1.93-1.57-3.5-3.5-3.5c-1.056,0-2.049,0.485-2.724,1.331c-0.12,0.15-0.318,0.217-0.503,0.175 c-0.188-0.043-0.334-0.19-0.375-0.378C75.487,64.286,73.884,63,72,63c-2.206,0-4,1.794-4,4c0,0.038,0.006,0.074,0.011,0.11 c0.007,0.053,0.014,0.106,0.018,0.16c0.014,0.204-0.099,0.396-0.284,0.484c-0.184,0.088-0.405,0.056-0.555-0.084 C66.723,67.238,66.123,67,65.5,67c-1.378,0-2.5,1.122-2.5,2.5c0,0.074,0.011,0.145,0.021,0.215 c0.025,0.183-0.047,0.409-0.197,0.517c-0.15,0.108-0.342,0.168-0.508,0.086C61.887,70.107,61.444,70,61,70c-1.654,0-3,1.346-3,3 s1.346,3,3,3h9.5c0.276,0,0.5,0.224,0.5,0.5S70.777,77,70.5,77H61c-2.206,0-4-1.794-4-4s1.794-4,4-4 c0.343,0,0.684,0.046,1.019,0.139C62.2,67.378,63.692,66,65.5,66c0.538,0,1.063,0.126,1.541,0.363C67.354,63.906,69.459,62,72,62 c2.058,0,3.847,1.227,4.609,3.071C77.415,64.383,78.432,64,79.5,64c2.481,0,4.5,2.019,4.5,4.5c0,0.206-0.017,0.413-0.053,0.631 C85.722,69.558,87,71.134,87,73C87,75.206,85.206,77,83,77z"/><path fill="#472b29" d="M72.5 76A.5.5 0 1 0 72.5 77 .5.5 0 1 0 72.5 76zM75.5 77h-1c-.276 0-.5-.224-.5-.5s.224-.5.5-.5h1c.276 0 .5.224.5.5S75.776 77 75.5 77zM80.25 72C80.112 72 80 71.888 80 71.75c0-1.252 1.341-2.232 3.053-2.232.135 0 .714.039 1.037.163.129.049.193.194.144.323s-.193.194-.323.144c-.22-.084-.707-.129-.858-.129-1.408 0-2.553.777-2.553 1.732C80.5 71.888 80.388 72 80.25 72z"/></g></svg>