<?xml version="1.0" encoding="UTF-8"?>
<!--Generator: Apple Native CoreSVG 175-->
<!DOCTYPE svg
PUBLIC "-//W3C//DTD SVG 1.1//EN"
       "http://www.w3.org/Graphics/SVG/1.1/DTD/svg11.dtd">
<svg version="1.1" xmlns="http://www.w3.org/2000/svg" xmlns:xlink="http://www.w3.org/1999/xlink" width="3300" height="2200">
 <!--glyph: "uni1008CC.medium", point size: 100.0, font version: "17.0d12e1", template writer version: "65.1"-->
 <g id="Notes">
  <rect height="2200" id="artboard" style="fill:white;opacity:1" width="3300" x="0" y="0"/>
  <line style="fill:none;stroke:black;opacity:1;stroke-width:0.5;" x1="263" x2="3036" y1="292" y2="292"/>
  <text style="stroke:none;fill:black;font-family:sans-serif;font-size:13;font-weight:bold;" transform="matrix(1 0 0 1 263 322)">Weight/Scale Variations</text>
  <text style="stroke:none;fill:black;font-family:sans-serif;font-size:13;text-anchor:middle;" transform="matrix(1 0 0 1 559.711 322)">Ultralight</text>
  <text style="stroke:none;fill:black;font-family:sans-serif;font-size:13;text-anchor:middle;" transform="matrix(1 0 0 1 856.422 322)">Thin</text>
  <text style="stroke:none;fill:black;font-family:sans-serif;font-size:13;text-anchor:middle;" transform="matrix(1 0 0 1 1153.13 322)">Light</text>
  <text style="stroke:none;fill:black;font-family:sans-serif;font-size:13;text-anchor:middle;" transform="matrix(1 0 0 1 1449.84 322)">Regular</text>
  <text style="stroke:none;fill:black;font-family:sans-serif;font-size:13;text-anchor:middle;" transform="matrix(1 0 0 1 1746.56 322)">Medium</text>
  <text style="stroke:none;fill:black;font-family:sans-serif;font-size:13;text-anchor:middle;" transform="matrix(1 0 0 1 2043.27 322)">Semibold</text>
  <text style="stroke:none;fill:black;font-family:sans-serif;font-size:13;text-anchor:middle;" transform="matrix(1 0 0 1 2339.98 322)">Bold</text>
  <text style="stroke:none;fill:black;font-family:sans-serif;font-size:13;text-anchor:middle;" transform="matrix(1 0 0 1 2636.69 322)">Heavy</text>
  <text style="stroke:none;fill:black;font-family:sans-serif;font-size:13;text-anchor:middle;" transform="matrix(1 0 0 1 2933.4 322)">Black</text>
  <line style="fill:none;stroke:black;opacity:1;stroke-width:0.5;" x1="263" x2="3036" y1="1903" y2="1903"/>
  <g transform="matrix(1 0 0 1 263 1933)">
   <path d="M9.24805 0.830078Q10.8691 0.830078 12.2949 0.214844Q13.7207-0.400391 14.8096-1.49414Q15.8984-2.58789 16.5186-4.01367Q17.1387-5.43945 17.1387-7.05078Q17.1387-8.66211 16.5186-10.0879Q15.8984-11.5137 14.8047-12.6074Q13.7109-13.7012 12.2852-14.3164Q10.8594-14.9316 9.23828-14.9316Q7.62695-14.9316 6.20117-14.3164Q4.77539-13.7012 3.69141-12.6074Q2.60742-11.5137 1.9873-10.0879Q1.36719-8.66211 1.36719-7.05078Q1.36719-5.43945 1.9873-4.01367Q2.60742-2.58789 3.69629-1.49414Q4.78516-0.400391 6.21094 0.214844Q7.63672 0.830078 9.24805 0.830078ZM9.24805-0.654297Q7.91992-0.654297 6.7627-1.14746Q5.60547-1.64062 4.73145-2.51953Q3.85742-3.39844 3.36426-4.56055Q2.87109-5.72266 2.87109-7.05078Q2.87109-8.37891 3.35938-9.54102Q3.84766-10.7031 4.72168-11.582Q5.5957-12.4609 6.75293-12.9541Q7.91016-13.4473 9.23828-13.4473Q10.5762-13.4473 11.7334-12.9541Q12.8906-12.4609 13.7695-11.582Q14.6484-10.7031 15.1465-9.54102Q15.6445-8.37891 15.6445-7.05078Q15.6445-5.72266 15.1514-4.56055Q14.6582-3.39844 13.7842-2.51953Q12.9102-1.64062 11.748-1.14746Q10.5859-0.654297 9.24805-0.654297ZM5.6543-7.05078Q5.6543-6.72852 5.85938-6.52832Q6.06445-6.32812 6.40625-6.32812L8.51562-6.32812L8.51562-4.20898Q8.51562-3.88672 8.71094-3.67676Q8.90625-3.4668 9.23828-3.4668Q9.56055-3.4668 9.77051-3.67676Q9.98047-3.88672 9.98047-4.20898L9.98047-6.32812L12.0898-6.32812Q12.4219-6.32812 12.627-6.52832Q12.832-6.72852 12.832-7.05078Q12.832-7.38281 12.627-7.58789Q12.4219-7.79297 12.0898-7.79297L9.98047-7.79297L9.98047-9.90234Q9.98047-10.2344 9.77051-10.4443Q9.56055-10.6543 9.23828-10.6543Q8.90625-10.6543 8.71094-10.4443Q8.51562-10.2344 8.51562-9.90234L8.51562-7.79297L6.40625-7.79297Q6.06445-7.79297 5.85938-7.58789Q5.6543-7.38281 5.6543-7.05078Z"/>
  </g>
  <g transform="matrix(1 0 0 1 281.867 1933)">
   <path d="M11.709 2.91016Q13.75 2.91016 15.5518 2.12891Q17.3535 1.34766 18.7305-0.0292969Q20.1074-1.40625 20.8887-3.20801Q21.6699-5.00977 21.6699-7.05078Q21.6699-9.0918 20.8887-10.8936Q20.1074-12.6953 18.7305-14.0723Q17.3535-15.4492 15.5469-16.2305Q13.7402-17.0117 11.6992-17.0117Q9.6582-17.0117 7.85645-16.2305Q6.05469-15.4492 4.68262-14.0723Q3.31055-12.6953 2.5293-10.8936Q1.74805-9.0918 1.74805-7.05078Q1.74805-5.00977 2.5293-3.20801Q3.31055-1.40625 4.6875-0.0292969Q6.06445 1.34766 7.86621 2.12891Q9.66797 2.91016 11.709 2.91016ZM11.709 1.25Q9.98047 1.25 8.47656 0.605469Q6.97266-0.0390625 5.83496-1.17676Q4.69727-2.31445 4.05762-3.81836Q3.41797-5.32227 3.41797-7.05078Q3.41797-8.7793 4.05762-10.2832Q4.69727-11.7871 5.83008-12.9297Q6.96289-14.0723 8.4668-14.7119Q9.9707-15.3516 11.6992-15.3516Q13.4277-15.3516 14.9316-14.7119Q16.4355-14.0723 17.5781-12.9297Q18.7207-11.7871 19.3652-10.2832Q20.0098-8.7793 20.0098-7.05078Q20.0098-5.32227 19.3701-3.81836Q18.7305-2.31445 17.5928-1.17676Q16.4551-0.0390625 14.9463 0.605469Q13.4375 1.25 11.709 1.25ZM7.17773-7.05078Q7.17773-6.69922 7.41211-6.47461Q7.64648-6.25 8.01758-6.25L10.8887-6.25L10.8887-3.36914Q10.8887-2.99805 11.1133-2.76855Q11.3379-2.53906 11.6895-2.53906Q12.0605-2.53906 12.29-2.76855Q12.5195-2.99805 12.5195-3.36914L12.5195-6.25L15.4004-6.25Q15.7715-6.25 16.001-6.47461Q16.2305-6.69922 16.2305-7.05078Q16.2305-7.42188 16.001-7.65137Q15.7715-7.88086 15.4004-7.88086L12.5195-7.88086L12.5195-10.752Q12.5195-11.1328 12.29-11.3623Q12.0605-11.5918 11.6895-11.5918Q11.3379-11.5918 11.1133-11.3574Q10.8887-11.123 10.8887-10.752L10.8887-7.88086L8.01758-7.88086Q7.63672-7.88086 7.40723-7.65137Q7.17773-7.42188 7.17773-7.05078Z"/>
  </g>
  <g transform="matrix(1 0 0 1 305.646 1933)">
   <path d="M14.9707 5.66406Q17.0605 5.66406 18.96 5.01465Q20.8594 4.36523 22.4512 3.19336Q24.043 2.02148 25.2197 0.429688Q26.3965-1.16211 27.0459-3.06641Q27.6953-4.9707 27.6953-7.05078Q27.6953-9.14062 27.0459-11.04Q26.3965-12.9395 25.2197-14.5312Q24.043-16.123 22.4512-17.2998Q20.8594-18.4766 18.9551-19.126Q17.0508-19.7754 14.9609-19.7754Q12.8711-19.7754 10.9717-19.126Q9.07227-18.4766 7.48535-17.2998Q5.89844-16.123 4.72168-14.5312Q3.54492-12.9395 2.90039-11.04Q2.25586-9.14062 2.25586-7.05078Q2.25586-4.9707 2.90527-3.06641Q3.55469-1.16211 4.72656 0.429688Q5.89844 2.02148 7.49023 3.19336Q9.08203 4.36523 10.9814 5.01465Q12.8809 5.66406 14.9707 5.66406ZM14.9707 3.84766Q13.1641 3.84766 11.5283 3.2959Q9.89258 2.74414 8.53516 1.74805Q7.17773 0.751953 6.17676-0.610352Q5.17578-1.97266 4.62891-3.6084Q4.08203-5.24414 4.08203-7.05078Q4.08203-8.86719 4.62891-10.5029Q5.17578-12.1387 6.17188-13.501Q7.16797-14.8633 8.52539-15.8594Q9.88281-16.8555 11.5186-17.4023Q13.1543-17.9492 14.9609-17.9492Q16.7773-17.9492 18.4131-17.4023Q20.0488-16.8555 21.4111-15.8594Q22.7734-14.8633 23.7695-13.501Q24.7656-12.1387 25.3174-10.5029Q25.8691-8.86719 25.8691-7.05078Q25.8789-5.24414 25.332-3.6084Q24.7852-1.97266 23.7842-0.610352Q22.7832 0.751953 21.4209 1.74805Q20.0586 2.74414 18.4229 3.2959Q16.7871 3.84766 14.9707 3.84766ZM9.19922-7.05078Q9.19922-6.66992 9.45801-6.4209Q9.7168-6.17188 10.1172-6.17188L14.0625-6.17188L14.0625-2.2168Q14.0625-1.81641 14.3115-1.55762Q14.5605-1.29883 14.9512-1.29883Q15.3516-1.29883 15.6104-1.55273Q15.8691-1.80664 15.8691-2.2168L15.8691-6.17188L19.8242-6.17188Q20.2246-6.17188 20.4785-6.4209Q20.7324-6.66992 20.7324-7.05078Q20.7324-7.46094 20.4785-7.71484Q20.2246-7.96875 19.8242-7.96875L15.8691-7.96875L15.8691-11.9141Q15.8691-12.3242 15.6104-12.583Q15.3516-12.8418 14.9512-12.8418Q14.5605-12.8418 14.3115-12.583Q14.0625-12.3242 14.0625-11.9141L14.0625-7.96875L10.1172-7.96875Q9.70703-7.96875 9.45312-7.71484Q9.19922-7.46094 9.19922-7.05078Z"/>
  </g>
  <text style="stroke:none;fill:black;font-family:sans-serif;font-size:13;font-weight:bold;" transform="matrix(1 0 0 1 263 1953)">Design Variations</text>
  <text style="stroke:none;fill:black;font-family:sans-serif;font-size:13;" transform="matrix(1 0 0 1 263 1971)">Symbols are supported in up to nine weights and three scales.</text>
  <text style="stroke:none;fill:black;font-family:sans-serif;font-size:13;" transform="matrix(1 0 0 1 263 1989)">For optimal layout with text and other symbols, vertically align</text>
  <text style="stroke:none;fill:black;font-family:sans-serif;font-size:13;" transform="matrix(1 0 0 1 263 2007)">symbols with the adjacent text.</text>
  <line style="fill:none;stroke:#00AEEF;stroke-width:0.5;opacity:1.0;" x1="776" x2="776" y1="1919" y2="1933"/>
  <g transform="matrix(1 0 0 1 776 1933)">
   <path d="M3.31055 0.15625Q3.70117 0.15625 3.91602-0.00976562Q4.13086-0.175781 4.26758-0.585938L5.52734-4.0332L11.2891-4.0332L12.5488-0.585938Q12.6855-0.175781 12.9004-0.00976562Q13.1152 0.15625 13.4961 0.15625Q13.8867 0.15625 14.1162-0.0585938Q14.3457-0.273438 14.3457-0.644531Q14.3457-0.869141 14.2383-1.17188L9.6582-13.3691Q9.48242-13.8184 9.17969-14.043Q8.87695-14.2676 8.4082-14.2676Q7.5-14.2676 7.17773-13.3789L2.59766-1.16211Q2.49023-0.859375 2.49023-0.634766Q2.49023-0.263672 2.70996-0.0537109Q2.92969 0.15625 3.31055 0.15625ZM6.00586-5.51758L8.37891-12.0898L8.42773-12.0898L10.8008-5.51758Z"/>
  </g>
  <line style="fill:none;stroke:#00AEEF;stroke-width:0.5;opacity:1.0;" x1="793.197" x2="793.197" y1="1919" y2="1933"/>
  <text style="stroke:none;fill:black;font-family:sans-serif;font-size:13;font-weight:bold;" transform="matrix(1 0 0 1 776 1953)">Margins</text>
  <text style="stroke:none;fill:black;font-family:sans-serif;font-size:13;" transform="matrix(1 0 0 1 776 1971)">Leading and trailing margins on the left and right side of each symbol</text>
  <text style="stroke:none;fill:black;font-family:sans-serif;font-size:13;" transform="matrix(1 0 0 1 776 1989)">can be adjusted by modifying the x-location of the margin guidelines.</text>
  <text style="stroke:none;fill:black;font-family:sans-serif;font-size:13;" transform="matrix(1 0 0 1 776 2007)">Modifications are automatically applied proportionally to all</text>
  <text style="stroke:none;fill:black;font-family:sans-serif;font-size:13;" transform="matrix(1 0 0 1 776 2025)">scales and weights.</text>
  <g transform="matrix(1 0 0 1 1289 1933)">
   <path d="M2.8418 1.86523L4.54102 3.57422Q5.18555 4.22852 5.90332 4.17969Q6.62109 4.13086 7.31445 3.35938L18.0078-8.42773L17.041-9.4043L6.42578 2.27539Q6.16211 2.57812 5.89355 2.61719Q5.625 2.65625 5.27344 2.30469L4.10156 1.14258Q3.75 0.791016 3.79395 0.522461Q3.83789 0.253906 4.14062-0.0195312L15.6152-10.8203L14.6387-11.7871L3.04688-0.898438Q2.30469-0.214844 2.25098 0.498047Q2.19727 1.21094 2.8418 1.86523ZM9.25781-16.3281Q8.94531-16.0254 8.90625-15.6348Q8.86719-15.2441 9.04297-14.9512Q9.21875-14.6777 9.55566-14.541Q9.89258-14.4043 10.3809-14.5215Q11.4746-14.7754 12.5977-14.7314Q13.7207-14.6875 14.7949-13.9844L14.209-12.5293Q13.9551-11.9043 14.0674-11.4404Q14.1797-10.9766 14.5801-10.5664L16.875-8.25195Q17.2363-7.88086 17.5781-7.82227Q17.9199-7.76367 18.3398-7.8418L19.4043-8.03711L20.0684-7.36328L20.0293-6.80664Q20-6.43555 20.1221-6.12305Q20.2441-5.81055 20.6055-5.44922L21.3672-4.70703Q21.7285-4.3457 22.1533-4.33105Q22.5781-4.31641 22.9297-4.66797L25.8398-7.58789Q26.1914-7.93945 26.1816-8.35449Q26.1719-8.76953 25.8105-9.13086L25.0391-9.89258Q24.6875-10.2539 24.3799-10.3857Q24.0723-10.5176 23.7109-10.4883L23.1348-10.4395L22.4902-11.0742L22.7344-12.1973Q22.832-12.6172 22.6953-12.9834Q22.5586-13.3496 22.1191-13.7891L19.9219-15.9766Q18.6719-17.2168 17.2607-17.8369Q15.8496-18.457 14.4189-18.4814Q12.9883-18.5059 11.665-17.959Q10.3418-17.4121 9.25781-16.3281ZM10.752-15.957Q11.6602-16.6211 12.7002-16.9043Q13.7402-17.1875 14.8047-17.085Q15.8691-16.9824 16.8701-16.5137Q17.8711-16.0449 18.7012-15.2051L21.1328-12.793Q21.3086-12.6172 21.3525-12.4512Q21.3965-12.2852 21.3379-12.0312L21.0156-10.5469L22.5195-9.0625L23.5059-9.12109Q23.6914-9.13086 23.7891-9.09668Q23.8867-9.0625 24.0332-8.91602L24.6094-8.33984L22.168-5.89844L21.5918-6.47461Q21.4453-6.62109 21.4062-6.71875Q21.3672-6.81641 21.377-7.01172L21.4453-7.98828L19.9512-9.47266L18.4277-9.21875Q18.1836-9.16992 18.042-9.2041Q17.9004-9.23828 17.7148-9.41406L15.7129-11.416Q15.5176-11.5918 15.4932-11.7529Q15.4688-11.9141 15.5859-12.1875L16.4648-14.2773Q15.293-15.3711 13.8281-15.791Q12.3633-16.2109 10.8398-15.7617Q10.7227-15.7324 10.6885-15.8057Q10.6543-15.8789 10.752-15.957Z"/>
  </g>
  <text style="stroke:none;fill:black;font-family:sans-serif;font-size:13;font-weight:bold;" transform="matrix(1 0 0 1 1289 1953)">Exporting</text>
  <text style="stroke:none;fill:black;font-family:sans-serif;font-size:13;" transform="matrix(1 0 0 1 1289 1971)">Symbols should be outlined when exporting to ensure the</text>
  <text style="stroke:none;fill:black;font-family:sans-serif;font-size:13;" transform="matrix(1 0 0 1 1289 1989)">design is preserved when submitting to Xcode.</text>
  <text id="template-version" style="stroke:none;fill:black;font-family:sans-serif;font-size:13;text-anchor:end;" transform="matrix(1 0 0 1 3036 1933)">Template v.3.0</text>
  <text style="stroke:none;fill:black;font-family:sans-serif;font-size:13;text-anchor:end;" transform="matrix(1 0 0 1 3036 1951)">Requires Xcode 13 or greater</text>
  <text id="descriptive-name" style="stroke:none;fill:black;font-family:sans-serif;font-size:13;text-anchor:end;" transform="matrix(1 0 0 1 3036 1969)">Generated from gearshape.fill</text>
  <text style="stroke:none;fill:black;font-family:sans-serif;font-size:13;text-anchor:end;" transform="matrix(1 0 0 1 3036 1987)">Typeset at 100 points</text>
  <text style="stroke:none;fill:black;font-family:sans-serif;font-size:13;" transform="matrix(1 0 0 1 263 726)">Small</text>
  <text style="stroke:none;fill:black;font-family:sans-serif;font-size:13;" transform="matrix(1 0 0 1 263 1156)">Medium</text>
  <text style="stroke:none;fill:black;font-family:sans-serif;font-size:13;" transform="matrix(1 0 0 1 263 1586)">Large</text>
 </g>
 <g id="Guides">
  <g id="H-reference" style="fill:#27AAE1;stroke:none;" transform="matrix(1 0 0 1 339 696)">
   <path d="M0.993347 0L3.6377 0L29.3282-67.1326L30.0301-67.1326L30.0301-70.459L28.1227-70.459ZM11.6882-24.4797L46.9818-24.4797L46.2311-26.7288L12.4382-26.7288ZM55.1193 0L57.7637 0L30.6381-70.459L29.4327-70.459L29.4327-67.1326Z"/>
  </g>
  <line id="Baseline-S" style="fill:none;stroke:#27AAE1;opacity:1;stroke-width:0.5;" x1="263" x2="3036" y1="696" y2="696"/>
  <line id="Capline-S" style="fill:none;stroke:#27AAE1;opacity:1;stroke-width:0.5;" x1="263" x2="3036" y1="625.541" y2="625.541"/>
  <g id="H-reference" style="fill:#27AAE1;stroke:none;" transform="matrix(1 0 0 1 339 1126)">
   <path d="M0.993347 0L3.6377 0L29.3282-67.1326L30.0301-67.1326L30.0301-70.459L28.1227-70.459ZM11.6882-24.4797L46.9818-24.4797L46.2311-26.7288L12.4382-26.7288ZM55.1193 0L57.7637 0L30.6381-70.459L29.4327-70.459L29.4327-67.1326Z"/>
  </g>
  <line id="Baseline-M" style="fill:none;stroke:#27AAE1;opacity:1;stroke-width:0.5;" x1="263" x2="3036" y1="1126" y2="1126"/>
  <line id="Capline-M" style="fill:none;stroke:#27AAE1;opacity:1;stroke-width:0.5;" x1="263" x2="3036" y1="1055.54" y2="1055.54"/>
  <g id="H-reference" style="fill:#27AAE1;stroke:none;" transform="matrix(1 0 0 1 339 1556)">
   <path d="M0.993347 0L3.6377 0L29.3282-67.1326L30.0301-67.1326L30.0301-70.459L28.1227-70.459ZM11.6882-24.4797L46.9818-24.4797L46.2311-26.7288L12.4382-26.7288ZM55.1193 0L57.7637 0L30.6381-70.459L29.4327-70.459L29.4327-67.1326Z"/>
  </g>
  <line id="Baseline-L" style="fill:none;stroke:#27AAE1;opacity:1;stroke-width:0.5;" x1="263" x2="3036" y1="1556" y2="1556"/>
  <line id="Capline-L" style="fill:none;stroke:#27AAE1;opacity:1;stroke-width:0.5;" x1="263" x2="3036" y1="1485.54" y2="1485.54"/>
  <line id="left-margin-Ultralight-S" style="fill:none;stroke:#00AEEF;stroke-width:0.5;opacity:1.0;" x1="513.804" x2="513.804" y1="600.785" y2="720.121"/>
  <line id="right-margin-Ultralight-S" style="fill:none;stroke:#00AEEF;stroke-width:0.5;opacity:1.0;" x1="605.618" x2="605.618" y1="600.785" y2="720.121"/>
  <line id="left-margin-Thin-S" style="fill:none;stroke:#00AEEF;stroke-width:0.5;opacity:1.0;" x1="810.269" x2="810.269" y1="600.785" y2="720.121"/>
  <line id="right-margin-Thin-S" style="fill:none;stroke:#00AEEF;stroke-width:0.5;opacity:1.0;" x1="902.576" x2="902.576" y1="600.785" y2="720.121"/>
  <line id="left-margin-Light-S" style="fill:none;stroke:#00AEEF;stroke-width:0.5;opacity:1.0;" x1="1106.5" x2="1106.5" y1="600.785" y2="720.121"/>
  <line id="right-margin-Light-S" style="fill:none;stroke:#00AEEF;stroke-width:0.5;opacity:1.0;" x1="1199.77" x2="1199.77" y1="600.785" y2="720.121"/>
  <line id="left-margin-Regular-S" style="fill:none;stroke:#00AEEF;stroke-width:0.5;opacity:1.0;" x1="1402.85" x2="1402.85" y1="600.785" y2="720.121"/>
  <line id="right-margin-Regular-S" style="fill:none;stroke:#00AEEF;stroke-width:0.5;opacity:1.0;" x1="1496.84" x2="1496.84" y1="600.785" y2="720.121"/>
  <line id="left-margin-Medium-S" style="fill:none;stroke:#00AEEF;stroke-width:0.5;opacity:1.0;" x1="1698.87" x2="1698.87" y1="600.785" y2="720.121"/>
  <line id="right-margin-Medium-S" style="fill:none;stroke:#00AEEF;stroke-width:0.5;opacity:1.0;" x1="1794.24" x2="1794.24" y1="600.785" y2="720.121"/>
  <line id="left-margin-Semibold-S" style="fill:none;stroke:#00AEEF;stroke-width:0.5;opacity:1.0;" x1="1995.05" x2="1995.05" y1="600.785" y2="720.121"/>
  <line id="right-margin-Semibold-S" style="fill:none;stroke:#00AEEF;stroke-width:0.5;opacity:1.0;" x1="2091.48" x2="2091.48" y1="600.785" y2="720.121"/>
  <line id="left-margin-Bold-S" style="fill:none;stroke:#00AEEF;stroke-width:0.5;opacity:1.0;" x1="2291.06" x2="2291.06" y1="600.785" y2="720.121"/>
  <line id="right-margin-Bold-S" style="fill:none;stroke:#00AEEF;stroke-width:0.5;opacity:1.0;" x1="2388.89" x2="2388.89" y1="600.785" y2="720.121"/>
  <line id="left-margin-Heavy-S" style="fill:none;stroke:#00AEEF;stroke-width:0.5;opacity:1.0;" x1="2586.76" x2="2586.76" y1="600.785" y2="720.121"/>
  <line id="right-margin-Heavy-S" style="fill:none;stroke:#00AEEF;stroke-width:0.5;opacity:1.0;" x1="2686.61" x2="2686.61" y1="600.785" y2="720.121"/>
  <line id="left-margin-Black-S" style="fill:none;stroke:#00AEEF;stroke-width:0.5;opacity:1.0;" x1="2882.57" x2="2882.57" y1="600.785" y2="720.121"/>
  <line id="right-margin-Black-S" style="fill:none;stroke:#00AEEF;stroke-width:0.5;opacity:1.0;" x1="2984.23" x2="2984.23" y1="600.785" y2="720.121"/>
  <line id="left-margin-Ultralight-M" style="fill:none;stroke:#00AEEF;stroke-width:0.5;opacity:1.0;" x1="501.194" x2="501.194" y1="1030.79" y2="1150.12"/>
  <line id="right-margin-Ultralight-M" style="fill:none;stroke:#00AEEF;stroke-width:0.5;opacity:1.0;" x1="618.228" x2="618.228" y1="1030.79" y2="1150.12"/>
  <line id="left-margin-Thin-M" style="fill:none;stroke:#00AEEF;stroke-width:0.5;opacity:1.0;" x1="797.623" x2="797.623" y1="1030.79" y2="1150.12"/>
  <line id="right-margin-Thin-M" style="fill:none;stroke:#00AEEF;stroke-width:0.5;opacity:1.0;" x1="915.221" x2="915.221" y1="1030.79" y2="1150.12"/>
  <line id="left-margin-Light-M" style="fill:none;stroke:#00AEEF;stroke-width:0.5;opacity:1.0;" x1="1093.78" x2="1093.78" y1="1030.79" y2="1150.12"/>
  <line id="right-margin-Light-M" style="fill:none;stroke:#00AEEF;stroke-width:0.5;opacity:1.0;" x1="1212.48" x2="1212.48" y1="1030.79" y2="1150.12"/>
  <line id="left-margin-Regular-M" style="fill:none;stroke:#00AEEF;stroke-width:0.5;opacity:1.0;" x1="1390.08" x2="1390.08" y1="1030.79" y2="1150.12"/>
  <line id="right-margin-Regular-M" style="fill:none;stroke:#00AEEF;stroke-width:0.5;opacity:1.0;" x1="1509.61" x2="1509.61" y1="1030.79" y2="1150.12"/>
  <line id="left-margin-Medium-M" style="fill:none;stroke:#00AEEF;stroke-width:0.5;opacity:1.0;" x1="1685.94" x2="1685.94" y1="1030.79" y2="1150.12"/>
  <line id="right-margin-Medium-M" style="fill:none;stroke:#00AEEF;stroke-width:0.5;opacity:1.0;" x1="1807.17" x2="1807.17" y1="1030.79" y2="1150.12"/>
  <line id="left-margin-Semibold-M" style="fill:none;stroke:#00AEEF;stroke-width:0.5;opacity:1.0;" x1="1982" x2="1982" y1="1030.79" y2="1150.12"/>
  <line id="right-margin-Semibold-M" style="fill:none;stroke:#00AEEF;stroke-width:0.5;opacity:1.0;" x1="2104.53" x2="2104.53" y1="1030.79" y2="1150.12"/>
  <line id="left-margin-Bold-M" style="fill:none;stroke:#00AEEF;stroke-width:0.5;opacity:1.0;" x1="2277.86" x2="2277.86" y1="1030.79" y2="1150.12"/>
  <line id="right-margin-Bold-M" style="fill:none;stroke:#00AEEF;stroke-width:0.5;opacity:1.0;" x1="2402.1" x2="2402.1" y1="1030.79" y2="1150.12"/>
  <line id="left-margin-Heavy-M" style="fill:none;stroke:#00AEEF;stroke-width:0.5;opacity:1.0;" x1="2573.32" x2="2573.32" y1="1030.79" y2="1150.12"/>
  <line id="right-margin-Heavy-M" style="fill:none;stroke:#00AEEF;stroke-width:0.5;opacity:1.0;" x1="2700.05" x2="2700.05" y1="1030.79" y2="1150.12"/>
  <line id="left-margin-Black-M" style="fill:none;stroke:#00AEEF;stroke-width:0.5;opacity:1.0;" x1="2868.92" x2="2868.92" y1="1030.79" y2="1150.12"/>
  <line id="right-margin-Black-M" style="fill:none;stroke:#00AEEF;stroke-width:0.5;opacity:1.0;" x1="2997.88" x2="2997.88" y1="1030.79" y2="1150.12"/>
  <line id="left-margin-Ultralight-L" style="fill:none;stroke:#00AEEF;stroke-width:0.5;opacity:1.0;" x1="484.338" x2="484.338" y1="1460.79" y2="1580.12"/>
  <line id="right-margin-Ultralight-L" style="fill:none;stroke:#00AEEF;stroke-width:0.5;opacity:1.0;" x1="635.084" x2="635.084" y1="1460.79" y2="1580.12"/>
  <line id="left-margin-Thin-L" style="fill:none;stroke:#00AEEF;stroke-width:0.5;opacity:1.0;" x1="780.737" x2="780.737" y1="1460.79" y2="1580.12"/>
  <line id="right-margin-Thin-L" style="fill:none;stroke:#00AEEF;stroke-width:0.5;opacity:1.0;" x1="932.108" x2="932.108" y1="1460.79" y2="1580.12"/>
  <line id="left-margin-Light-L" style="fill:none;stroke:#00AEEF;stroke-width:0.5;opacity:1.0;" x1="1076.84" x2="1076.84" y1="1460.79" y2="1580.12"/>
  <line id="right-margin-Light-L" style="fill:none;stroke:#00AEEF;stroke-width:0.5;opacity:1.0;" x1="1229.43" x2="1229.43" y1="1460.79" y2="1580.12"/>
  <line id="left-margin-Regular-L" style="fill:none;stroke:#00AEEF;stroke-width:0.5;opacity:1.0;" x1="1373.09" x2="1373.09" y1="1460.79" y2="1580.12"/>
  <line id="right-margin-Regular-L" style="fill:none;stroke:#00AEEF;stroke-width:0.5;opacity:1.0;" x1="1526.6" x2="1526.6" y1="1460.79" y2="1580.12"/>
  <line id="left-margin-Medium-L" style="fill:none;stroke:#00AEEF;stroke-width:0.5;opacity:1.0;" x1="1668.85" x2="1668.85" y1="1460.79" y2="1580.12"/>
  <line id="right-margin-Medium-L" style="fill:none;stroke:#00AEEF;stroke-width:0.5;opacity:1.0;" x1="1824.26" x2="1824.26" y1="1460.79" y2="1580.12"/>
  <line id="left-margin-Semibold-L" style="fill:none;stroke:#00AEEF;stroke-width:0.5;opacity:1.0;" x1="1964.83" x2="1964.83" y1="1460.79" y2="1580.12"/>
  <line id="right-margin-Semibold-L" style="fill:none;stroke:#00AEEF;stroke-width:0.5;opacity:1.0;" x1="2121.7" x2="2121.7" y1="1460.79" y2="1580.12"/>
  <line id="left-margin-Bold-L" style="fill:none;stroke:#00AEEF;stroke-width:0.5;opacity:1.0;" x1="2260.58" x2="2260.58" y1="1460.79" y2="1580.12"/>
  <line id="right-margin-Bold-L" style="fill:none;stroke:#00AEEF;stroke-width:0.5;opacity:1.0;" x1="2419.37" x2="2419.37" y1="1460.79" y2="1580.12"/>
  <line id="left-margin-Heavy-L" style="fill:none;stroke:#00AEEF;stroke-width:0.5;opacity:1.0;" x1="2555.9" x2="2555.9" y1="1460.79" y2="1580.12"/>
  <line id="right-margin-Heavy-L" style="fill:none;stroke:#00AEEF;stroke-width:0.5;opacity:1.0;" x1="2717.48" x2="2717.48" y1="1460.79" y2="1580.12"/>
  <line id="left-margin-Black-L" style="fill:none;stroke:#00AEEF;stroke-width:0.5;opacity:1.0;" x1="2851.37" x2="2851.37" y1="1460.79" y2="1580.12"/>
  <line id="right-margin-Black-L" style="fill:none;stroke:#00AEEF;stroke-width:0.5;opacity:1.0;" x1="3015.43" x2="3015.43" y1="1460.79" y2="1580.12"/>
 </g>
 <g id="Symbols">
  <g id="Black-L" transform="matrix(1 0 0 1 2851.37 1556)">
   <path d="M76.416 35.4492L87.6953 35.4492Q91.6016 35.4492 94.4824 33.1787Q97.3633 30.9082 98.1934 27.0996L101.074 15.2344Q102.002 14.9414 102.881 14.5752Q103.76 14.209 104.59 13.8184L114.893 20.2148Q118.164 22.2168 121.826 21.8262Q125.488 21.4355 128.223 18.75L136.182 10.8398Q138.867 8.10547 139.233 4.32129Q139.6 0.537109 137.451-2.63672L131.201-12.8906Q131.592-13.6719 131.934-14.502Q132.275-15.332 132.52-16.1621L144.531-19.043Q148.291-19.873 150.537-22.7539Q152.783-25.6348 152.783-29.541L152.783-40.5762Q152.783-44.4824 150.537-47.3389Q148.291-50.1953 144.531-51.0742L132.715-53.9062Q132.373-54.834 132.031-55.6885Q131.689-56.543 131.299-57.2754L137.646-67.8223Q139.746-71.1426 139.38-74.8047Q139.014-78.4668 136.182-81.2012L128.125-89.1602Q125.342-91.6016 121.973-92.041Q118.604-92.4805 115.332-90.7227L104.59-84.1309Q103.76-84.5215 102.905-84.8877Q102.051-85.2539 101.123-85.5957L98.1934-97.6562Q97.3633-101.465 94.4824-103.711Q91.6016-105.957 87.6953-105.957L76.416-105.957Q72.4609-105.957 69.5801-103.687Q66.6992-101.416 65.8691-97.6074L63.0371-85.6934Q62.1094-85.4004 61.1816-85.0098Q60.2539-84.6191 59.4238-84.1797L48.7793-90.7227Q45.459-92.4805 42.0898-92.0654Q38.7207-91.6504 35.9375-89.1113L27.8809-81.2012Q25.0488-78.4668 24.707-74.8047Q24.3652-71.1426 26.4648-67.8223L32.7637-57.2754Q32.4219-56.543 32.0557-55.6885Q31.6895-54.834 31.3965-53.9062L19.5801-51.0742Q15.7715-50.1953 13.5254-47.3389Q11.2793-44.4824 11.2793-40.5762L11.2793-29.541Q11.2793-25.6348 13.5254-22.7539Q15.7715-19.873 19.5801-19.043L31.543-16.1621Q31.8359-15.332 32.1777-14.502Q32.5195-13.6719 32.8613-12.8906L26.6113-2.63672Q24.5117 0.537109 24.8535 4.32129Q25.1953 8.10547 27.9297 10.8398L35.8398 18.75Q38.5742 21.4355 42.2607 21.8262Q45.9473 22.2168 49.1699 20.2148L59.5215 13.8184Q60.3516 14.209 61.2305 14.5752Q62.1094 14.9414 63.0371 15.2344L65.8691 27.0996Q66.6992 30.9082 69.5801 33.1787Q72.4609 35.4492 76.416 35.4492ZM82.0312-13.8672Q76.1719-13.8672 71.3379-16.7725Q66.5039-19.6777 63.5986-24.5361Q60.6934-29.3945 60.6934-35.3027Q60.6934-41.1133 63.5986-45.9473Q66.5039-50.7812 71.3379-53.6621Q76.1719-56.543 82.0312-56.543Q87.8906-56.543 92.749-53.6621Q97.6074-50.7812 100.488-45.9473Q103.369-41.1133 103.369-35.3027Q103.369-29.3945 100.488-24.5361Q97.6074-19.6777 92.749-16.7725Q87.8906-13.8672 82.0312-13.8672Z"/>
  </g>
  <g id="Heavy-L" transform="matrix(1 0 0 1 2555.9 1556)">
   <path d="M75.1022 34.2278L86.5082 34.2278Q90.0917 34.2278 92.696 32.1648Q95.3003 30.1018 96.0609 26.5923L99.0227 14.3127Q100.135 13.9503 101.192 13.5151Q102.25 13.0798 103.242 12.6198L113.924 19.2467Q116.92 21.0991 120.236 20.7489Q123.552 20.3987 126.056 17.9321L134.096 9.9411Q136.562 7.43713 136.894 4.01611Q137.225 0.595093 135.25-2.33688L128.747-12.9601Q129.206-13.9252 129.617-14.9399Q130.028-15.9546 130.341-16.9685L142.757-19.9303Q146.228-20.6909 148.261-23.2952Q150.294-25.8995 150.294-29.483L150.294-40.6685Q150.294-44.2406 148.261-46.8204Q146.228-49.4003 142.757-50.2098L130.514-53.1456Q130.114-54.2694 129.697-55.3024Q129.281-56.3354 128.844-57.2296L135.423-68.1221Q137.349-71.154 137.029-74.4705Q136.709-77.787 134.119-80.291L125.981-88.3301Q123.441-90.5876 120.371-90.9809Q117.301-91.3742 114.295-89.7316L103.242-82.9323Q102.261-83.4038 101.223-83.8333Q100.184-84.2628 99.0601-84.6619L96.0609-97.126Q95.3003-100.635 92.696-102.679Q90.0917-104.724 86.5082-104.724L75.1022-104.724Q71.4813-104.724 68.8828-102.661Q66.2842-100.598 65.5121-97.0886L62.5877-84.7595Q61.4754-84.3979 60.3748-83.9497Q59.2743-83.5014 58.2832-82.9811L47.316-89.7316Q44.2719-91.3742 41.2025-91.0053Q38.1332-90.6364 35.5919-88.2935L27.4544-80.291Q24.8642-77.787 24.5628-74.4705Q24.2615-71.154 26.1879-68.1221L32.7293-57.2296Q32.3296-56.3354 31.8943-55.3024Q31.459-54.2694 31.0966-53.1456L18.8538-50.2098Q15.3564-49.4003 13.3179-46.8204Q11.2793-44.2406 11.2793-40.6685L11.2793-29.483Q11.2793-25.8995 13.3179-23.2952Q15.3564-20.6909 18.8538-19.9303L31.2317-16.9685Q31.5826-15.9546 31.9935-14.9399Q32.4043-13.9252 32.827-12.9601L26.3229-2.33688Q24.3851 0.595093 24.6979 4.01611Q25.0107 7.43713 27.5146 9.9411L35.5171 17.9321Q38.0096 20.3987 41.3445 20.7489Q44.6793 21.0991 47.6486 19.2467L58.3687 12.6198Q59.3605 13.0798 60.4179 13.5151Q61.4754 13.9503 62.5877 14.3127L65.5121 26.5923Q66.2842 30.1018 68.8828 32.1648Q71.4813 34.2278 75.1022 34.2278ZM80.7983-13.6253Q74.8695-13.6253 69.9722-16.5649Q65.0749-19.5045 62.1349-24.4205Q59.1949-29.3365 59.1949-35.3027Q59.1949-41.1827 62.1349-46.0743Q65.0749-50.9659 69.9722-53.8868Q74.8695-56.8077 80.7983-56.8077Q86.7264-56.8077 91.6367-53.8868Q96.5469-50.9659 99.4682-46.0743Q102.39-41.1827 102.39-35.3027Q102.39-29.3365 99.4682-24.4205Q96.5469-19.5045 91.6367-16.5649Q86.7264-13.6253 80.7983-13.6253Z"/>
  </g>
  <g id="Bold-L" transform="matrix(1 0 0 1 2260.58 1556)">
   <path d="M73.6328 32.8613L85.1807 32.8613Q88.4033 32.8613 90.6982 31.0303Q92.9932 29.1992 93.6768 26.0254L96.7285 13.2812Q98.0469 12.8418 99.3042 12.3291Q100.562 11.8164 101.733 11.2793L112.842 18.1641Q115.527 19.8486 118.457 19.5435Q121.387 19.2383 123.633 17.0166L131.763 8.93555Q133.984 6.68945 134.277 3.67432Q134.57 0.65918 132.788-2.00195L126.001-13.0371Q126.538-14.209 127.026-15.4297Q127.515-16.6504 127.905-17.8711L140.771-20.9229Q143.921-21.6064 145.715-23.9014Q147.51-26.1963 147.51-29.4189L147.51-40.7715Q147.51-43.9697 145.715-46.2402Q143.921-48.5107 140.771-49.2432L128.052-52.2949Q127.588-53.6377 127.087-54.8706Q126.587-56.1035 126.099-57.1777L132.935-68.457Q134.668-71.167 134.399-74.0967Q134.131-77.0264 131.812-79.2725L123.584-87.4023Q121.313-89.4531 118.579-89.7949Q115.845-90.1367 113.135-88.623L101.733-81.5918Q100.586-82.1533 99.3408-82.6538Q98.0957-83.1543 96.7529-83.6182L93.6768-96.5332Q92.9932-99.707 90.6982-101.526Q88.4033-103.345 85.1807-103.345L73.6328-103.345Q70.3857-103.345 68.103-101.514Q65.8203-99.6826 65.1123-96.5088L62.085-83.7158Q60.7666-83.2764 59.4727-82.7637Q58.1787-82.251 57.0068-81.6406L45.6787-88.623Q42.9443-90.1367 40.21-89.8193Q37.4756-89.502 35.2051-87.3779L26.9775-79.2725Q24.6582-77.0264 24.4019-74.0967Q24.1455-71.167 25.8789-68.457L32.6904-57.1777Q32.2266-56.1035 31.7139-54.8706Q31.2012-53.6377 30.7617-52.2949L18.042-49.2432Q14.8926-48.5107 13.0859-46.2402Q11.2793-43.9697 11.2793-40.7715L11.2793-29.4189Q11.2793-26.1963 13.0859-23.9014Q14.8926-21.6064 18.042-20.9229L30.8838-17.8711Q31.2988-16.6504 31.7871-15.4297Q32.2754-14.209 32.7881-13.0371L26.001-2.00195Q24.2432 0.65918 24.5239 3.67432Q24.8047 6.68945 27.0508 8.93555L35.1562 17.0166Q37.3779 19.2383 40.3198 19.5435Q43.2617 19.8486 45.9473 18.1641L57.0801 11.2793Q58.252 11.8164 59.5093 12.3291Q60.7666 12.8418 62.085 13.2812L65.1123 26.0254Q65.8203 29.1992 68.103 31.0303Q70.3857 32.8613 73.6328 32.8613ZM79.4189-13.3545Q73.4131-13.3545 68.4448-16.333Q63.4766-19.3115 60.498-24.292Q57.5195-29.2725 57.5195-35.3027Q57.5195-41.2598 60.498-46.2158Q63.4766-51.1719 68.4448-54.1382Q73.4131-57.1045 79.4189-57.1045Q85.4248-57.1045 90.3931-54.1382Q95.3613-51.1719 98.3276-46.2158Q101.294-41.2598 101.294-35.3027Q101.294-29.2725 98.3276-24.292Q95.3613-19.3115 90.3931-16.333Q85.4248-13.3545 79.4189-13.3545Z"/>
  </g>
  <g id="Semibold-L" transform="matrix(1 0 0 1 1964.83 1556)">
   <path d="M72.6196 31.9191L84.2651 31.9191Q87.2391 31.9191 89.3208 30.2483Q91.4024 28.5774 92.0326 25.634L95.1469 12.5702Q96.6072 12.0773 98.0022 11.5112Q99.3973 10.9451 100.694 10.3554L112.096 17.4179Q114.568 18.9865 117.231 18.7126Q119.894 18.4387 121.962 16.3857L130.154 8.24203Q132.207 6.17371 132.473 3.43857Q132.739 0.70343 131.091-1.77078L124.108-13.0905Q124.699-14.4043 125.24-15.7673Q125.782-17.1303 126.225-18.4929L139.403-21.6072Q142.33-22.2374 143.96-24.3191Q145.59-26.4008 145.59-29.3747L145.59-40.8424Q145.59-43.7828 143.96-45.8401Q142.33-47.8973 139.403-48.5764L126.354-51.7082Q125.846-53.2021 125.288-54.5727Q124.729-55.9433 124.206-57.1419L131.219-68.6882Q132.819-71.1761 132.586-73.8392Q132.353-76.5022 130.221-78.5706L121.931-86.7622Q119.847-88.6711 117.344-88.9774Q114.841-89.2838 112.335-87.8586L100.694-80.6679Q99.4308-81.2912 98.0434-81.8405Q96.656-82.3898 95.1622-82.8979L92.0326-96.1243Q91.4024-99.0669 89.3208-100.731Q87.2391-102.394 84.2651-102.394L72.6196-102.394Q69.6304-102.394 67.5655-100.723Q65.5006-99.0517 64.8369-96.109L61.7386-82.9956Q60.2776-82.5035 58.8505-81.9462Q57.4234-81.3889 56.1272-80.7167L44.5503-87.8586Q42.0288-89.2838 39.5256-89.0018Q37.0224-88.7199 34.9388-86.747L26.6487-78.5706Q24.5163-76.5022 24.2908-73.8392Q24.0654-71.1761 25.6653-68.6882L32.6637-57.1419Q32.1556-55.9433 31.5895-54.5727Q31.0234-53.2021 30.5305-51.7082L17.482-48.5764Q14.5729-47.8973 12.9261-45.8401Q11.2793-43.7828 11.2793-40.8424L11.2793-29.3747Q11.2793-26.4008 12.9261-24.3191Q14.5729-22.2374 17.482-21.6072L30.6435-18.4929Q31.1035-17.1303 31.6452-15.7673Q32.1869-14.4043 32.7614-13.0905L25.779-1.77078Q24.1455 0.70343 24.4041 3.43857Q24.6628 6.17371 26.7311 8.24203L34.9075 16.3857Q36.9423 18.4387 39.6133 18.7126Q42.2844 18.9865 44.7739 17.4179L56.1913 10.3554Q57.4875 10.9451 58.8825 11.5112Q60.2776 12.0773 61.7386 12.5702L64.8369 25.634Q65.5006 28.5774 67.5655 30.2483Q69.6304 31.9191 72.6196 31.9191ZM78.4683-13.1676Q72.4091-13.1676 67.392-16.1728Q62.3749-19.178 59.3697-24.2031Q56.3644-29.2282 56.3644-35.3027Q56.3644-41.3132 59.3697-46.3135Q62.3749-51.3138 67.392-54.3114Q72.4091-57.309 78.4683-57.309Q84.5276-57.309 89.5355-54.3114Q94.5435-51.3138 97.541-46.3135Q100.539-41.3132 100.539-35.3027Q100.539-29.2282 97.541-24.2031Q94.5435-19.178 89.5355-16.1728Q84.5276-13.1676 78.4683-13.1676Z"/>
  </g>
  <g id="Medium-L" transform="matrix(1 0 0 1 1668.85 1556)">
   <path d="M71.8513 31.205L83.5716 31.205Q86.3564 31.205 88.2763 29.6551Q90.1962 28.1052 90.786 25.338L93.9468 12.0316Q95.5154 11.4983 97.015 10.8917Q98.5146 10.2852 99.9054 9.65424L111.53 16.8518Q113.84 18.3327 116.301 18.0824Q118.761 17.8322 120.695 15.9073L128.934 7.71713Q130.859 5.78308 131.105 3.26004Q131.351 0.737 129.803-1.59607L122.673-13.131Q123.304-14.5531 123.886-16.0236Q124.467-17.4942 124.952-18.9651L138.365-22.126Q141.124-22.7158 142.629-24.6357Q144.135-26.5556 144.135-29.3411L144.135-40.8966Q144.135-43.6417 142.629-45.5372Q141.124-47.4327 138.365-48.0713L125.067-51.2634Q124.525-52.8717 123.923-54.3468Q123.322-55.822 122.771-57.1152L129.919-68.8629Q131.418-71.1823 131.212-73.6435Q131.006-76.1047 129.015-78.038L120.678-86.277Q118.736-88.0783 116.407-88.3575Q114.079-88.6368 111.729-87.2795L99.9054-79.9667Q98.555-80.6374 97.0596-81.2241Q95.5643-81.8108 93.956-82.3524L90.786-95.8145Q90.1962-98.5817 88.2763-100.127Q86.3564-101.673 83.5716-101.673L71.8513-101.673Q69.0575-101.673 67.1577-100.123Q65.258-98.5733 64.6278-95.8054L61.4754-82.4501Q59.9075-81.9168 58.379-81.3259Q56.8504-80.735 55.4596-80.0156L43.6943-87.2795Q41.3353-88.6368 39.0068-88.382Q36.6783-88.1271 34.7366-86.2686L26.3992-78.038Q24.408-76.1047 24.2065-73.6435Q24.0051-71.1823 25.5035-68.8629L32.6439-57.1152Q32.1014-55.822 31.4949-54.3468Q30.8884-52.8717 30.3558-51.2634L17.0578-48.0713Q14.3303-47.4327 12.8048-45.5372Q11.2793-43.6417 11.2793-40.8966L11.2793-29.3411Q11.2793-26.5556 12.8048-24.6357Q14.3303-22.7158 17.0578-22.126L30.4619-18.9651Q30.9547-17.4942 31.5369-16.0236Q32.119-14.5531 32.7415-13.131L25.6104-1.59607Q24.0715 0.737 24.313 3.26004Q24.5544 5.78308 26.4885 7.71713L34.7191 15.9073Q36.6119 17.8322 39.0774 18.0824Q41.5428 18.3327 43.885 16.8518L55.5176 9.65424Q56.9084 10.2852 58.408 10.8917Q59.9075 11.4983 61.4754 12.0316L64.6278 25.338Q65.258 28.1052 67.1577 29.6551Q69.0575 31.205 71.8513 31.205ZM77.7473-13.0264Q71.6476-13.0264 66.5932-16.0519Q61.5387-19.0773 58.5136-24.136Q55.4886-29.1946 55.4886-35.3027Q55.4886-41.3536 58.5136-46.3879Q61.5387-51.4221 66.5932-54.443Q71.6476-57.4638 77.7473-57.4638Q83.8463-57.4638 88.8851-54.443Q93.924-51.4221 96.9448-46.3879Q99.9657-41.3536 99.9657-35.3027Q99.9657-29.1946 96.9448-24.136Q93.924-19.0773 88.8851-16.0519Q83.8463-13.0264 77.7473-13.0264Z"/>
  </g>
  <g id="Regular-L" transform="matrix(1 0 0 1 1373.09 1556)">
   <path d="M70.8496 30.2734L82.666 30.2734Q85.2051 30.2734 86.9141 28.8818Q88.623 27.4902 89.1602 24.9512L92.3828 11.3281Q94.0918 10.7422 95.7275 10.083Q97.3633 9.42383 98.877 8.74023L110.791 16.1133Q112.891 17.4805 115.088 17.2607Q117.285 17.041 119.043 15.2832L127.344 7.03125Q129.102 5.27344 129.321 3.02734Q129.541 0.78125 128.125-1.36719L120.801-13.1836Q121.484-14.7461 122.119-16.3574Q122.754-17.9688 123.291-19.5801L137.012-22.8027Q139.551-23.3398 140.894-25.0488Q142.236-26.7578 142.236-29.2969L142.236-40.9668Q142.236-43.457 140.894-45.1416Q139.551-46.8262 137.012-47.4121L123.389-50.6836Q122.803-52.4414 122.144-54.0527Q121.484-55.6641 120.898-57.0801L128.223-69.0918Q129.59-71.1914 129.419-73.3887Q129.248-75.5859 127.441-77.3438L119.043-85.6445Q117.285-87.3047 115.186-87.5488Q113.086-87.793 110.938-86.5234L98.877-79.0527Q97.4121-79.7852 95.7764-80.4199Q94.1406-81.0547 92.3828-81.6406L89.1602-95.4102Q88.623-97.9492 86.9141-99.3408Q85.2051-100.732 82.666-100.732L70.8496-100.732Q68.3105-100.732 66.626-99.3408Q64.9414-97.9492 64.3555-95.4102L61.1328-81.7383Q59.4238-81.1523 57.7637-80.5176Q56.1035-79.8828 54.5898-79.1016L42.5781-86.5234Q40.4297-87.793 38.3301-87.5732Q36.2305-87.3535 34.4727-85.6445L26.0742-77.3438Q24.2676-75.5859 24.0967-73.3887Q23.9258-71.1914 25.293-69.0918L32.6172-57.0801Q32.0312-55.6641 31.3721-54.0527Q30.7129-52.4414 30.127-50.6836L16.5039-47.4121Q14.0137-46.8262 12.6465-45.1416Q11.2793-43.457 11.2793-40.9668L11.2793-29.2969Q11.2793-26.7578 12.6465-25.0488Q14.0137-23.3398 16.5039-22.8027L30.2246-19.5801Q30.7617-17.9688 31.3965-16.3574Q32.0312-14.7461 32.7148-13.1836L25.3906-1.36719Q23.9746 0.78125 24.1943 3.02734Q24.4141 5.27344 26.1719 7.03125L34.4727 15.2832Q36.1816 17.041 38.3789 17.2607Q40.5762 17.4805 42.7246 16.1133L54.6387 8.74023Q56.1523 9.42383 57.7881 10.083Q59.4238 10.7422 61.1328 11.3281L64.3555 24.9512Q64.9414 27.4902 66.626 28.8818Q68.3105 30.2734 70.8496 30.2734ZM76.8066-12.8418Q70.6543-12.8418 65.5518-15.8936Q60.4492-18.9453 57.3975-24.0479Q54.3457-29.1504 54.3457-35.3027Q54.3457-41.4062 57.3975-46.4844Q60.4492-51.5625 65.5518-54.6143Q70.6543-57.666 76.8066-57.666Q82.959-57.666 88.0371-54.6143Q93.1152-51.5625 96.167-46.4844Q99.2188-41.4062 99.2188-35.3027Q99.2188-29.1504 96.167-24.0479Q93.1152-18.9453 88.0371-15.8936Q82.959-12.8418 76.8066-12.8418Z"/>
  </g>
  <g id="Light-L" transform="matrix(1 0 0 1 1076.84 1556)">
   <path d="M70.2293 29.8195L82.3784 29.8195Q84.9777 29.8195 86.6943 28.405Q88.4109 26.9905 88.9938 24.3309L92.1257 11.01Q93.6531 10.4698 95.1374 9.88617Q96.6217 9.30252 98.0293 8.70972L109.671 15.9622Q111.877 17.4049 114.096 17.1852Q116.316 16.9655 118.135 15.1466L126.678 6.63757Q128.526 4.81949 128.746 2.56577Q128.966 0.312042 127.489-1.9577L120.256-13.5017Q120.864-14.9582 121.431-16.4257Q121.997-17.8932 122.519-19.368L135.892-22.4998Q138.552-23.0827 139.933-24.7993Q141.313-26.516 141.313-29.1306L141.313-41.1789Q141.313-43.7599 139.933-45.4594Q138.552-47.1588 135.892-47.7753L122.572-50.9407Q122.031-52.5017 121.447-53.9692Q120.864-55.4367 120.323-56.8077L127.557-68.4715Q128.999-70.7069 128.806-72.9343Q128.613-75.1617 126.73-76.9806L118.135-85.508Q116.316-87.2742 114.164-87.5107Q112.011-87.7472 109.757-86.3571L98.0293-79.0375Q96.6553-79.6791 95.1633-80.2383Q93.6714-80.7976 92.1257-81.353L88.9938-94.7594Q88.4109-97.4197 86.6943-98.8338Q84.9777-100.248 82.3784-100.248L70.2293-100.248Q67.614-100.248 65.9145-98.8338Q64.2151-97.4197 63.5986-94.7594L60.4668-81.4056Q58.9241-80.8647 57.4306-80.3055Q55.9372-79.7462 54.5143-79.071L42.82-86.3571Q40.5663-87.7472 38.406-87.5275Q36.2457-87.3077 34.4269-85.508L25.8324-76.9806Q23.9647-75.1617 23.7713-72.9343Q23.5779-70.7069 25.0206-68.4715L32.254-56.8077Q31.6986-55.4367 31.1226-53.9692Q30.5466-52.5017 29.9904-50.9407L16.716-47.7753Q14.0739-47.1588 12.6766-45.4594Q11.2793-43.7599 11.2793-41.1789L11.2793-29.1306Q11.2793-26.516 12.6766-24.7993Q14.0739-23.0827 16.716-22.4998L30.0583-19.368Q30.5801-17.8932 31.1394-16.4257Q31.6986-14.9582 32.3059-13.5017L25.0725-1.9577Q23.5962 0.312042 23.8235 2.56577Q24.0509 4.81949 25.8995 6.63757L34.4269 15.1466Q36.2274 16.9655 38.4396 17.1852Q40.6517 17.4049 42.9062 15.9622L54.5479 8.70972Q55.9708 9.30252 57.4474 9.88617Q58.9241 10.4698 60.4668 11.01L63.5986 24.3309Q64.2151 26.9905 65.9145 28.405Q67.614 29.8195 70.2293 29.8195ZM76.368-12.5999Q70.1546-12.5999 64.999-15.6818Q59.8434-18.7637 56.7539-23.9193Q53.6644-29.0749 53.6644-35.2875Q53.6644-41.4368 56.7539-46.5679Q59.8434-51.6991 65.0066-54.781Q70.1698-57.8629 76.368-57.8629Q82.5653-57.8629 87.6965-54.781Q92.8276-51.6991 95.9095-46.5679Q98.9914-41.4368 98.9914-35.2875Q98.9914-29.0749 95.9095-23.9193Q92.8276-18.7637 87.6965-15.6818Q82.5653-12.5999 76.368-12.5999Z"/>
  </g>
  <g id="Thin-L" transform="matrix(1 0 0 1 780.737 1556)">
   <path d="M69.4084 29.2191L81.9984 29.2191Q84.6779 29.2191 86.4044 27.7744Q88.131 26.3298 88.7733 23.51L91.7854 10.5896Q93.0725 10.1097 94.3565 9.62601Q95.6406 9.1423 96.9086 8.67004L108.189 15.7616Q110.535 17.305 112.785 17.0853Q115.035 16.8655 116.933 14.9666L125.797 6.11725Q127.766 4.21906 127.985 1.95541Q128.205-0.308228 126.649-2.73819L119.535-13.9221Q120.043-15.2382 120.52-16.5157Q120.996-17.7933 121.498-19.088L134.41-22.0993Q137.231-22.7425 138.661-24.469Q140.092-26.1955 140.092-28.9101L140.092-41.4589Q140.092-44.1605 138.661-45.8801Q137.231-47.5998 134.41-48.2559L121.49-51.281Q121.01-52.5818 120.527-53.8593Q120.043-55.1369 119.563-56.4476L126.676-67.6506Q128.219-70.0668 127.995-72.3343Q127.772-74.6017 125.789-76.4999L116.933-85.3279Q115.035-87.2345 112.812-87.4611Q110.59-87.6877 108.195-86.1366L96.9086-79.0176Q95.6543-79.5387 94.3527-79.998Q93.0511-80.4573 91.7854-80.9731L88.7733-93.8988Q88.131-96.7186 86.4044-98.1632Q84.6779-99.6078 81.9984-99.6078L69.4084-99.6078Q66.6931-99.6078 64.9734-98.1632Q63.2538-96.7186 62.5977-93.8988L59.5863-80.9647Q58.2634-80.4848 56.9901-80.0255Q55.7167-79.5662 54.4144-79.0314L43.1404-86.1366Q40.7463-87.6877 38.5059-87.468Q36.2656-87.2482 34.3674-85.3279L25.5119-76.4999Q23.5641-74.6017 23.3406-72.3343Q23.1171-70.0668 24.6605-67.6506L31.7734-56.4476Q31.2576-55.1369 30.7919-53.8593Q30.3261-52.5818 29.8103-51.281L16.996-48.2559Q14.1541-47.5998 12.7167-45.8801Q11.2793-44.1605 11.2793-41.4589L11.2793-28.9101Q11.2793-26.1955 12.7167-24.469Q14.1541-22.7425 16.996-22.0993L29.8378-19.088Q30.3398-17.7933 30.7987-16.5157Q31.2576-15.2382 31.7657-13.9221L24.6521-2.73819Q23.0957-0.308228 23.333 1.95541Q23.5703 4.21906 25.5394 6.11725L34.3674 14.9666Q36.2869 16.8655 38.5193 17.0853Q40.7516 17.305 43.1465 15.7616L54.4281 8.67004Q55.7304 9.1423 56.9969 9.62601Q58.2634 10.1097 59.5863 10.5896L62.5977 23.51Q63.2538 26.3298 64.9734 27.7744Q66.6931 29.2191 69.4084 29.2191ZM75.7874-12.2795Q69.4939-12.2795 64.2685-15.4015Q59.0431-18.5234 55.9032-23.7492Q52.7634-28.9749 52.7634-35.2676Q52.7634-41.4764 55.9032-46.6778Q59.0431-51.8791 64.2864-55.0011Q69.5297-58.123 75.7874-58.123Q82.045-58.123 87.2463-55.0011Q92.4477-51.8791 95.5696-46.6778Q98.6916-41.4764 98.6916-35.2676Q98.6916-28.9749 95.5696-23.7492Q92.4477-18.5234 87.2463-15.4015Q82.045-12.2795 75.7874-12.2795Z"/>
  </g>
  <g id="Ultralight-L" transform="matrix(1 0 0 1 484.338 1556)">
   <path d="M68.988 28.9108L81.8031 28.9108Q84.5238 28.9108 86.2556 27.4513Q87.9875 25.9918 88.6604 23.0896L91.6107 10.3745Q92.775 9.92508 93.9568 9.49287Q95.1385 9.06067 96.3341 8.64944L107.431 15.6593Q109.848 17.2531 112.114 17.0334Q114.379 16.8137 116.319 14.8743L125.346 5.85022Q127.376 3.91083 127.596 1.64223Q127.815-0.626373 126.218-3.13797L119.166-14.1373Q119.623-15.3816 120.053-16.5615Q120.483-17.7414 120.975-18.9445L133.652-21.8948Q136.554-22.5677 138.01-24.2996Q139.466-26.0315 139.466-28.7971L139.466-41.6023Q139.466-44.3649 138.01-46.0949Q136.554-47.8249 133.652-48.5016L120.937-51.4557Q120.487-52.623 120.055-53.8029Q119.623-54.9828 119.173-56.263L126.225-67.2302Q127.819-69.738 127.58-72.0261Q127.341-74.3141 125.307-76.2543L116.319-85.2356Q114.379-87.2139 112.12-87.4352Q109.862-87.6564 107.395-86.0237L96.3341-79.007Q95.1416-79.467 93.9373-79.8748Q92.733-80.2826 91.6107-80.7777L88.6604-93.4578Q87.9875-96.36 86.2556-97.8195Q84.5238-99.279 81.8031-99.279L68.988-99.279Q66.2216-99.279 64.4917-97.8195Q62.7617-96.36 62.085-93.4578L59.1347-80.7396Q57.9254-80.2895 56.7646-79.8817Q55.6038-79.4739 54.3625-79.0108L43.3044-86.0237Q40.8386-87.6564 38.5574-87.4367Q36.2762-87.2169 34.3361-85.2356L25.3479-76.2543Q23.3597-74.3141 23.1205-72.0261Q22.8813-69.738 24.4759-67.2302L31.5277-56.263Q31.0326-54.9828 30.6229-53.8029Q30.2132-52.623 29.718-51.4557L17.1394-48.5016Q14.1953-47.8249 12.7373-46.0949Q11.2793-44.3649 11.2793-41.6023L11.2793-28.7971Q11.2793-26.0315 12.7373-24.2996Q14.1953-22.5677 17.1394-21.8948L29.7249-18.9445Q30.217-17.7414 30.6248-16.5615Q31.0326-15.3816 31.4888-14.1373L24.437-3.13797Q22.8394-0.626373 23.082 1.64223Q23.3246 3.91083 25.3548 5.85022L34.3361 14.8743Q36.3182 16.8137 38.5609 17.0334Q40.8035 17.2531 43.2693 15.6593L54.3663 8.64944Q55.6076 9.06067 56.7665 9.49287Q57.9254 9.92508 59.1347 10.3745L62.085 23.0896Q62.7617 25.9918 64.4917 27.4513Q66.2216 28.9108 68.988 28.9108ZM75.4898-12.1155Q69.1559-12.1155 63.8943-15.258Q58.6327-18.4006 55.4676-23.6618Q52.3026-28.923 52.3026-35.257Q52.3026-41.497 55.4676-46.7342Q58.6327-51.9714 63.9168-55.114Q69.2009-58.2565 75.4898-58.2565Q81.778-58.2565 87.0152-55.114Q92.2523-51.9714 95.3949-46.7342Q98.5374-41.497 98.5374-35.257Q98.5374-28.923 95.3949-23.6618Q92.2523-18.4006 87.0152-15.258Q81.778-12.1155 75.4898-12.1155Z"/>
  </g>
  <g id="Black-M" transform="matrix(1 0 0 1 2868.92 1126)">
   <path d="M60.1074 20.4102L68.8477 20.4102Q72.2168 20.4102 74.6826 18.4814Q77.1484 16.5527 77.8809 13.3301L79.9805 4.58984Q80.5176 4.39453 80.9814 4.19922Q81.4453 4.00391 81.8848 3.80859L89.502 8.49609Q92.2852 10.2051 95.4346 9.8877Q98.584 9.57031 100.928 7.27539L107.08 1.12305Q109.424-1.2207 109.717-4.46777Q110.01-7.71484 108.203-10.4492L103.613-17.9688Q103.809-18.4082 103.979-18.8232Q104.15-19.2383 104.297-19.7266L113.135-21.8262Q116.357-22.5098 118.286-25Q120.215-27.4902 120.215-30.8594L120.215-39.3555Q120.215-42.6758 118.286-45.166Q116.357-47.6562 113.135-48.3887L104.443-50.4395Q104.248-50.9277 104.077-51.3916Q103.906-51.8555 103.662-52.2461L108.35-60.0098Q110.107-62.8906 109.814-66.04Q109.521-69.1895 107.08-71.4844L100.781-77.7344Q98.4863-79.7852 95.5566-80.1514Q92.627-80.5176 89.8438-79.0527L81.8848-74.1211Q81.4453-74.3652 80.9814-74.5605Q80.5176-74.7559 80.0293-74.9512L77.8809-83.8379Q77.1484-87.0605 74.6826-89.0137Q72.2168-90.9668 68.8477-90.9668L60.1074-90.9668Q56.7383-90.9668 54.2725-89.0137Q51.8066-87.0605 51.123-83.7891L48.9746-75.0488Q48.4863-74.8535 47.9736-74.6338Q47.4609-74.4141 47.0215-74.2188L39.1113-79.0527Q36.2793-80.5176 33.3984-80.1758Q30.5176-79.834 28.125-77.6367L21.875-71.4844Q19.4824-69.1895 19.165-66.04Q18.8477-62.8906 20.6543-60.0098L25.293-52.2461Q25.0977-51.8555 24.9023-51.3916Q24.707-50.9277 24.5605-50.4395L15.8691-48.3887Q12.5977-47.6562 10.6689-45.166Q8.74023-42.6758 8.74023-39.3555L8.74023-30.8594Q8.74023-27.4902 10.6689-25Q12.5977-22.5098 15.8691-21.8262L24.6582-19.7266Q24.8047-19.2383 25-18.8232Q25.1953-18.4082 25.3418-17.9688L20.752-10.4492Q18.9453-7.71484 19.2627-4.46777Q19.5801-1.2207 21.9238 1.12305L28.0762 7.27539Q30.4199 9.57031 33.5693 9.8877Q36.7188 10.2051 39.502 8.49609L47.0703 3.80859Q47.5098 4.00391 47.998 4.19922Q48.4863 4.39453 48.9746 4.58984L51.123 13.3301Q51.8066 16.5527 54.2725 18.4814Q56.7383 20.4102 60.1074 20.4102ZM64.502-18.7988Q59.9609-18.7988 56.25-21.0205Q52.5391-23.2422 50.3174-26.9775Q48.0957-30.7129 48.0957-35.2539Q48.0957-39.7461 50.3174-43.457Q52.5391-47.168 56.25-49.3896Q59.9609-51.6113 64.502-51.6113Q68.9941-51.6113 72.7051-49.3896Q76.416-47.168 78.6377-43.457Q80.8594-39.7461 80.8594-35.2539Q80.8594-30.7129 78.6377-26.9775Q76.416-23.2422 72.7051-21.0205Q68.9941-18.7988 64.502-18.7988Z"/>
  </g>
  <g id="Heavy-M" transform="matrix(1 0 0 1 2573.32 1126)">
   <path d="M58.9668 19.3153L67.7643 19.3153Q70.7878 19.3153 72.9828 17.5941Q75.1778 15.873 75.8293 12.9616L78.0327 3.74832Q78.7773 3.48434 79.4544 3.20816Q80.1315 2.93198 80.7556 2.64435L88.7993 7.58591Q91.2941 9.1217 94.0979 8.84476Q96.9017 8.56781 99.0028 6.5033L105.19 0.328064Q107.291-1.77383 107.556-4.66957Q107.82-7.56531 106.187-10.0227L101.32-17.9688Q101.619-18.6043 101.87-19.2326Q102.122-19.8608 102.338-20.5444L111.648-22.76Q114.548-23.3742 116.269-25.5878Q117.991-27.8015 117.991-30.825L117.991-39.4012Q117.991-42.3759 116.269-44.5896Q114.548-46.8033 111.648-47.4548L102.473-49.633Q102.208-50.3632 101.945-51.0288Q101.682-51.6945 101.38-52.269L106.321-60.4362Q107.906-63.0058 107.654-65.8096Q107.401-68.6134 105.213-70.6779L98.8914-76.9394Q96.8155-78.7941 94.2085-79.1256Q91.6016-79.4571 89.0945-78.1189L80.7556-72.9568Q80.143-73.2933 79.4716-73.5695Q78.8002-73.8457 78.0701-74.1096L75.8293-83.4694Q75.1778-86.3693 72.9828-88.1149Q70.7878-89.8605 67.7643-89.8605L58.9668-89.8605Q55.9433-89.8605 53.7483-88.1149Q51.5533-86.3693 50.927-83.432L48.6862-74.2073Q47.979-73.9433 47.2591-73.6427Q46.5393-73.3421 45.9152-73.0431L37.6366-78.1189Q35.0922-79.4571 32.5169-79.15Q29.9416-78.8429 27.7908-76.8646L21.5179-70.6779Q19.3672-68.6134 19.0903-65.8096Q18.8133-63.0058 20.4468-60.4362L25.3387-52.269Q25.0748-51.6945 24.7929-51.0288Q24.511-50.3632 24.2958-49.633L15.1199-47.4548Q12.1712-46.8033 10.4557-44.5896Q8.74023-42.3759 8.74023-39.4012L8.74023-30.825Q8.74023-27.8015 10.4557-25.5878Q12.1712-23.3742 15.1199-22.76L24.3935-20.5444Q24.5972-19.8608 24.8734-19.2326Q25.1495-18.6043 25.3998-17.9688L20.5444-10.0227Q18.911-7.56531 19.1936-4.66957Q19.4763-1.77383 21.5782 0.328064L27.7534 6.5033Q29.8553 8.56781 32.6591 8.84476Q35.463 9.1217 37.9692 7.58591L45.9641 2.64435Q46.5881 2.93198 47.2836 3.20816Q47.979 3.48434 48.6862 3.74832L50.927 12.9616Q51.5533 15.873 53.7483 17.5941Q55.9433 19.3153 58.9668 19.3153ZM63.3842-18.6142Q58.7967-18.6142 55.0339-20.8649Q51.2711-23.1155 49.0265-26.897Q46.7819-30.6786 46.7819-35.2654Q46.7819-39.8155 49.0326-43.5665Q51.2833-47.3175 55.04-49.5682Q58.7967-51.8188 63.3842-51.8188Q67.9337-51.8188 71.6965-49.5682Q75.4593-47.3175 77.7042-43.5665Q79.9492-39.8155 79.9492-35.2654Q79.9492-30.6786 77.7042-26.897Q75.4593-23.1155 71.6965-20.8649Q67.9337-18.6142 63.3842-18.6142Z"/>
  </g>
  <g id="Bold-M" transform="matrix(1 0 0 1 2277.86 1126)">
   <path d="M57.6904 18.0908L66.5527 18.0908Q69.1895 18.0908 71.0815 16.6016Q72.9736 15.1123 73.5352 12.5488L75.8545 2.80762Q76.8311 2.46582 77.7466 2.09961Q78.6621 1.7334 79.4922 1.34277L88.0127 6.56738Q90.1855 7.91016 92.6025 7.67822Q95.0195 7.44629 96.8506 5.63965L103.076-0.561523Q104.907-2.39258 105.139-4.89502Q105.371-7.39746 103.931-9.5459L98.7549-17.9688Q99.1699-18.8232 99.5117-19.6899Q99.8535-20.5566 100.146-21.46L109.985-23.8037Q112.524-24.3408 114.014-26.2451Q115.503-28.1494 115.503-30.7861L115.503-39.4531Q115.503-42.041 114.014-43.9453Q112.524-45.8496 109.985-46.4111L100.269-48.7305Q99.9268-49.7314 99.5605-50.6226Q99.1943-51.5137 98.8281-52.2949L104.053-60.9131Q105.444-63.1348 105.237-65.5518Q105.029-67.9688 103.125-69.7754L96.7773-76.0498Q94.9463-77.6855 92.7002-77.9785Q90.4541-78.2715 88.2568-77.0752L79.4922-71.6553Q78.6865-72.0947 77.7832-72.4609Q76.8799-72.8271 75.8789-73.1689L73.5352-83.0566Q72.9736-85.5957 71.0815-87.1094Q69.1895-88.623 66.5527-88.623L57.6904-88.623Q55.0537-88.623 53.1616-87.1094Q51.2695-85.5957 50.708-83.0322L48.3643-73.2666Q47.4121-72.9248 46.46-72.5342Q45.5078-72.1436 44.6777-71.7285L35.9863-77.0752Q33.7646-78.2715 31.5308-78.0029Q29.2969-77.7344 27.417-76.001L21.1182-69.7754Q19.2383-67.9688 19.0063-65.5518Q18.7744-63.1348 20.2148-60.9131L25.3906-52.2949Q25.0488-51.5137 24.6704-50.6226Q24.292-49.7314 23.999-48.7305L14.2822-46.4111Q11.6943-45.8496 10.2173-43.9453Q8.74023-42.041 8.74023-39.4531L8.74023-30.7861Q8.74023-28.1494 10.2173-26.2451Q11.6943-24.3408 14.2822-23.8037L24.0967-21.46Q24.3652-20.5566 24.7314-19.6899Q25.0977-18.8232 25.4639-17.9688L20.3125-9.5459Q18.8721-7.39746 19.1162-4.89502Q19.3604-2.39258 21.1914-0.561523L27.3926 5.63965Q29.2236 7.44629 31.6406 7.67822Q34.0576 7.91016 36.2549 6.56738L44.7266 1.34277Q45.5566 1.7334 46.4844 2.09961Q47.4121 2.46582 48.3643 2.80762L50.708 12.5488Q51.2695 15.1123 53.1616 16.6016Q55.0537 18.0908 57.6904 18.0908ZM62.1338-18.4082Q57.4951-18.4082 53.6743-20.6909Q49.8535-22.9736 47.583-26.8066Q45.3125-30.6396 45.3125-35.2783Q45.3125-39.8926 47.5952-43.689Q49.8779-47.4854 53.6865-49.7681Q57.4951-52.0508 62.1338-52.0508Q66.748-52.0508 70.5688-49.7681Q74.3896-47.4854 76.6602-43.689Q78.9307-39.8926 78.9307-35.2783Q78.9307-30.6396 76.6602-26.8066Q74.3896-22.9736 70.5688-20.6909Q66.748-18.4082 62.1338-18.4082Z"/>
  </g>
  <g id="Semibold-M" transform="matrix(1 0 0 1 1982 1126)">
   <path d="M56.8108 17.2462L65.7173 17.2462Q68.0878 17.2462 69.7708 15.9172Q71.4539 14.5882 71.9536 12.2643L74.3523 2.15912Q75.489 1.76392 76.569 1.33553Q77.6489 0.907135 78.6209 0.445557L87.4702 5.86548Q89.4211 7.07474 91.5714 6.87408Q93.7218 6.67343 95.3667 5.04456L101.619-1.17493Q103.263-2.81906 103.473-5.05066Q103.683-7.28226 102.376-9.21707L96.9864-17.9688Q97.4815-18.9743 97.8855-20.0054Q98.2895-21.0365 98.6359-22.0909L108.839-24.5239Q111.129-25.0076 112.458-26.6987Q113.788-28.3897 113.788-30.7594L113.788-39.489Q113.788-41.8098 112.458-43.5009Q111.129-45.192 108.839-45.6909L98.7488-48.1087Q98.3536-49.2958 97.9164-50.3426Q97.4792-51.3893 97.0688-52.3125L102.489-61.2419Q103.747-63.2233 103.571-65.374Q103.394-67.5247 101.685-69.1536L95.3201-75.4364Q93.6577-76.9211 91.6603-77.1873Q89.6629-77.4536 87.6793-76.355L78.6209-70.7581Q77.6825-71.2685 76.619-71.6969Q75.5554-72.1252 74.3683-72.5204L71.9536-82.7721Q71.4539-85.0624 69.7708-86.4162Q68.0878-87.7701 65.7173-87.7701L56.8108-87.7701Q54.4403-87.7701 52.7573-86.4162Q51.0742-85.0624 50.5569-82.7568L48.1422-72.6181Q47.0207-72.2229 45.9087-71.7701Q44.7968-71.3173 43.8248-70.8221L34.8488-76.355Q32.8491-77.4536 30.851-77.2118Q28.8528-76.9699 27.1591-75.4059L20.8427-69.1536Q19.1498-67.5247 18.9487-65.374Q18.7477-63.2233 20.0546-61.2419L25.4265-52.3125Q25.0313-51.3893 24.5861-50.3426Q24.1409-49.2958 23.7946-48.1087L13.7047-45.6909Q11.3655-45.192 10.0529-43.5009Q8.74023-41.8098 8.74023-39.489L8.74023-30.7594Q8.74023-28.3897 10.0529-26.6987Q11.3655-25.0076 13.7047-24.5239L23.8922-22.0909Q24.205-21.0365 24.6334-20.0054Q25.0618-18.9743 25.5081-17.9688L20.1523-9.21707Q18.8454-7.28226 19.0628-5.05066Q19.2802-2.81906 20.9251-1.17493L27.1439 5.04456Q28.788 6.67343 30.9383 6.87408Q33.0887 7.07474 35.0731 5.86548L43.8736 0.445557Q44.8456 0.907135 45.9332 1.33553Q47.0207 1.76392 48.1422 2.15912L50.5569 12.2643Q51.0742 14.5882 52.7573 15.9172Q54.4403 17.2462 56.8108 17.2462ZM61.2717-18.2663Q56.5979-18.2663 52.737-20.5711Q48.8762-22.876 46.5878-26.7445Q44.2993-30.6129 44.2993-35.2875Q44.2993-39.946 46.6042-43.7733Q48.909-47.6006 52.7534-49.9058Q56.5979-52.211 61.2717-52.211Q65.9302-52.211 69.791-49.9058Q73.6519-47.6006 75.9403-43.7733Q78.2288-39.946 78.2288-35.2875Q78.2288-30.6129 75.9403-26.7445Q73.6519-22.876 69.791-20.5711Q65.9302-18.2663 61.2717-18.2663Z"/>
  </g>
  <g id="Medium-M" transform="matrix(1 0 0 1 1685.94 1126)">
   <path d="M56.1432 16.6061L65.0841 16.6061Q67.2516 16.6061 68.7767 15.3984Q70.3018 14.1907 70.7535 12.0491L73.214 1.66702Q74.4713 1.23138 75.676 0.755692Q76.8806 0.279999 77.961-0.235748L87.0598 5.33295Q88.842 6.4415 90.7902 6.26411Q92.7383 6.08673 94.2413 4.5929L100.513-1.63956Q102.016-3.14255 102.209-5.16853Q102.402-7.19452 101.196-8.96759L95.6451-17.9688Q96.2013-19.0887 96.6522-20.2446Q97.1031-21.4005 97.4899-22.5693L107.97-25.0694Q110.072-25.5127 111.279-27.042Q112.487-28.5713 112.487-30.7396L112.487-39.5157Q112.487-41.6351 111.279-43.1641Q110.072-44.693 107.97-45.1454L97.5967-47.6364Q97.1611-48.9655 96.6698-50.1301Q96.1784-51.2947 95.7344-52.3262L101.302-61.4914Q102.46-63.2912 102.307-65.2393Q102.155-67.1875 100.594-68.6813L94.2146-74.9718Q92.6804-76.342 90.8718-76.5881Q89.0633-76.8341 87.2414-75.8095L77.961-70.0768Q76.9211-70.6413 75.7362-71.117Q74.5514-71.5927 73.2224-72.0284L70.7535-82.5569Q70.3018-84.6581 68.7767-85.8906Q67.2516-87.1231 65.0841-87.1231L56.1432-87.1231Q53.9757-87.1231 52.4506-85.8906Q50.9254-84.6581 50.4425-82.5478L47.9736-72.126Q46.7247-71.6904 45.4914-71.1903Q44.2581-70.6902 43.1778-70.1347L33.9867-75.8095Q32.1556-76.8341 30.3356-76.6125Q28.5156-76.3908 26.9638-74.9542L20.6337-68.6813Q19.0819-67.1875 18.9049-65.2393Q18.7279-63.2912 19.9333-61.4914L25.4532-52.3262Q25.0175-51.2947 24.522-50.1301Q24.0265-48.9655 23.6397-47.6364L13.2668-45.1454Q11.116-44.693 9.92813-43.1641Q8.74023-41.6351 8.74023-39.5157L8.74023-30.7396Q8.74023-28.5713 9.92813-27.042Q11.116-25.5127 13.2668-25.0694L23.7373-22.5693Q24.0837-21.4005 24.5594-20.2446Q25.0351-19.0887 25.5417-17.9688L20.031-8.96759Q18.8255-7.19452 19.0228-5.16853Q19.22-3.14255 20.723-1.63956L26.9554 4.5929Q28.4576 6.08673 30.4062 6.26411Q32.3547 6.4415 34.1766 5.33295L43.2266-0.235748Q44.3069 0.279999 45.5158 0.755692Q46.7247 1.23138 47.9736 1.66702L50.4425 12.0491Q50.9254 14.1907 52.4506 15.3984Q53.9757 16.6061 56.1432 16.6061ZM60.6178-18.158Q55.9166-18.158 52.0256-20.48Q48.1346-22.802 45.8328-26.6975Q43.531-30.5931 43.531-35.2936Q43.531-39.9864 45.853-43.8374Q48.175-47.6883 52.0458-50.0103Q55.9166-52.3323 60.6178-52.3323Q65.3107-52.3323 69.2017-50.0103Q73.0927-47.6883 75.3944-43.8374Q77.6962-39.9864 77.6962-35.2936Q77.6962-30.5931 75.3944-26.6975Q73.0927-22.802 69.2017-20.48Q65.3107-18.158 60.6178-18.158Z"/>
  </g>
  <g id="Regular-M" transform="matrix(1 0 0 1 1390.08 1126)">
   <path d="M55.2734 15.7715L64.2578 15.7715Q66.1621 15.7715 67.4805 14.7217Q68.7988 13.6719 69.1895 11.7676L71.7285 1.02539Q73.1445 0.537109 74.5117 0Q75.8789-0.537109 77.0996-1.12305L86.5234 4.63867Q88.0859 5.61523 89.7705 5.46875Q91.4551 5.32227 92.7734 4.00391L99.0723-2.24609Q100.391-3.56445 100.562-5.32227Q100.732-7.08008 99.6582-8.64258L93.8965-17.9688Q94.5312-19.2383 95.0439-20.5566Q95.5566-21.875 95.9961-23.1934L106.836-25.7812Q108.691-26.1719 109.741-27.4902Q110.791-28.8086 110.791-30.7129L110.791-39.5508Q110.791-41.4062 109.741-42.7246Q108.691-44.043 106.836-44.4336L96.0938-47.0215Q95.6055-48.5352 95.0439-49.8535Q94.4824-51.1719 93.9941-52.3438L99.7559-61.8164Q100.781-63.3789 100.659-65.0635Q100.537-66.748 99.1699-68.0664L92.7734-74.3652Q91.4062-75.5859 89.8438-75.8057Q88.2812-76.0254 86.6699-75.0977L77.0996-69.1895Q75.9277-69.8242 74.585-70.3613Q73.2422-70.8984 71.7285-71.3867L69.1895-82.2754Q68.7988-84.1309 67.4805-85.2051Q66.1621-86.2793 64.2578-86.2793L55.2734-86.2793Q53.3691-86.2793 52.0508-85.2051Q50.7324-84.1309 50.293-82.2754L47.7539-71.4844Q46.3379-70.9961 44.9463-70.4346Q43.5547-69.873 42.334-69.2383L32.8613-75.0977Q31.25-76.0254 29.6631-75.8301Q28.0762-75.6348 26.709-74.3652L20.3613-68.0664Q18.9941-66.748 18.8477-65.0635Q18.7012-63.3789 19.7754-61.8164L25.4883-52.3438Q25-51.1719 24.4385-49.8535Q23.877-48.5352 23.4375-47.0215L12.6953-44.4336Q10.791-44.043 9.76562-42.7246Q8.74023-41.4062 8.74023-39.5508L8.74023-30.7129Q8.74023-28.8086 9.76562-27.4902Q10.791-26.1719 12.6953-25.7812L23.5352-23.1934Q23.9258-21.875 24.4629-20.5566Q25-19.2383 25.5859-17.9688L19.873-8.64258Q18.7988-7.08008 18.9697-5.32227Q19.1406-3.56445 20.459-2.24609L26.709 4.00391Q28.0273 5.32227 29.7119 5.46875Q31.3965 5.61523 33.0078 4.63867L42.3828-1.12305Q43.6035-0.537109 44.9707 0Q46.3379 0.537109 47.7539 1.02539L50.293 11.7676Q50.7324 13.6719 52.0508 14.7217Q53.3691 15.7715 55.2734 15.7715ZM59.7656-18.0176Q55.0293-18.0176 51.0986-20.3613Q47.168-22.7051 44.8486-26.6357Q42.5293-30.5664 42.5293-35.3027Q42.5293-40.0391 44.873-43.9209Q47.2168-47.8027 51.123-50.1465Q55.0293-52.4902 59.7656-52.4902Q64.502-52.4902 68.4326-50.1465Q72.3633-47.8027 74.6826-43.9209Q77.002-40.0391 77.002-35.3027Q77.002-30.5664 74.6826-26.6357Q72.3633-22.7051 68.4326-20.3613Q64.502-18.0176 59.7656-18.0176Z"/>
  </g>
  <g id="Light-M" transform="matrix(1 0 0 1 1093.78 1126)">
   <path d="M54.7134 15.3778L63.9854 15.3778Q65.9653 15.3778 67.2913 14.3055Q68.6172 13.2332 69.0384 11.2076L71.5012 0.753021Q72.7509 0.295258 73.9819-0.17395Q75.2129-0.643158 76.3428-1.15356L85.5095 4.50211Q87.178 5.56946 88.8775 5.41573Q90.5769 5.26199 91.9563 3.8826L98.4665-2.59399Q99.8611-3.97339 100.039-5.7312Q100.217-7.48901 99.0982-9.17206L93.4273-18.2564Q93.9713-19.4199 94.4233-20.6173Q94.8753-21.8147 95.2995-23.0118L105.822-25.5089Q107.813-25.9445 108.886-27.2705Q109.959-28.5965 109.959-30.5618L109.959-39.7476Q109.959-41.6786 108.886-43.0046Q107.813-44.3306 105.822-44.7662L95.3674-47.2633Q94.9089-48.5954 94.4233-49.7852Q93.9377-50.975 93.4944-52.0866L99.1501-61.2717Q100.252-62.9402 100.107-64.6549Q99.9619-66.3696 98.5344-67.7338L91.9563-74.2439Q90.5434-75.5707 88.9202-75.7679Q87.2971-75.9651 85.6102-74.9466L76.3428-69.1742Q75.2464-69.7334 74.0322-70.2023Q72.818-70.6711 71.5012-71.1143L69.0384-81.6696Q68.6172-83.6617 67.2913-84.7511Q65.9653-85.8406 63.9854-85.8406L54.7134-85.8406Q52.7336-85.8406 51.4076-84.7511Q50.0816-83.6617 49.6269-81.6696L47.1634-71.1815Q45.8992-70.739 44.6514-70.2454Q43.4036-69.7517 42.2737-69.2078L33.0734-74.9466Q31.3713-75.9651 29.7314-75.7771Q28.0914-75.589 26.6785-74.2439L20.134-67.7338Q18.7065-66.3696 18.5524-64.6549Q18.3983-62.9402 19.5183-61.2717L25.1556-52.0866Q24.7124-50.975 24.2191-49.7852Q23.7259-48.5954 23.3162-47.2633L12.8769-44.7662Q10.8513-44.3306 9.79576-43.0046Q8.74023-41.6786 8.74023-39.7476L8.74023-30.5618Q8.74023-28.5965 9.79576-27.2705Q10.8513-25.9445 12.8769-25.5089L23.3841-23.0118Q23.7595-21.8147 24.2359-20.6173Q24.7124-19.4199 25.2228-18.2564L19.5854-9.17206Q18.4662-7.48901 18.6371-5.7312Q18.808-3.97339 20.2019-2.59399L26.6785 3.8826Q28.0579 5.26199 29.7649 5.41573Q31.472 5.56946 33.1741 4.50211L42.3073-1.15356Q43.4372-0.643158 44.6682-0.17395Q45.8992 0.295258 47.1634 0.753021L49.6269 11.2076Q50.0816 13.2332 51.4076 14.3055Q52.7336 15.3778 54.7134 15.3778ZM59.3719-17.8055Q54.5753-17.8055 50.5993-20.1797Q46.6232-22.554 44.2661-26.5301Q41.909-30.5061 41.909-35.2875Q41.909-40.0543 44.2905-43.9892Q46.6721-47.924 50.6313-50.2979Q54.5906-52.6718 59.3719-52.6718Q64.1541-52.6718 68.1225-50.2979Q72.0909-47.924 74.448-43.9892Q76.8051-40.0543 76.8051-35.2875Q76.8051-30.5061 74.448-26.5301Q72.0909-22.554 68.1225-20.1797Q64.1541-17.8055 59.3719-17.8055Z"/>
  </g>
  <g id="Thin-M" transform="matrix(1 0 0 1 797.623 1126)">
   <path d="M53.9726 14.8575L63.6253 14.8575Q65.7051 14.8575 67.041 13.755Q68.3769 12.6526 68.8377 10.4668L71.2013 0.392914Q72.2305-0.025177 73.2815-0.404358Q74.3324-0.783539 75.3418-1.19324L84.1682 4.32205Q85.9764 5.50995 87.6961 5.34592Q89.4157 5.18188 90.8752 3.72238L97.6662-3.05481Q99.16-4.51355 99.3484-6.27136Q99.5369-8.02917 98.3574-9.8732L92.807-18.6363Q93.2304-19.6602 93.6024-20.6974Q93.9743-21.7346 94.3787-22.7715L104.481-25.1488Q106.652-25.6447 107.755-26.9806Q108.858-28.3165 108.858-30.3612L108.858-40.0078Q108.858-42.0387 107.755-43.3746Q106.652-44.7105 104.481-45.2072L94.4061-47.5838Q93.988-48.6755 93.6024-49.6952Q93.2167-50.7149 92.8337-51.7464L98.3498-60.5507Q99.5506-62.3596 99.3759-64.1144Q99.2012-65.8691 97.6936-67.2928L90.8752-74.0837Q89.4028-75.5508 87.6995-75.7179Q85.9962-75.885 84.2094-74.7459L75.3418-69.1544Q74.3454-69.6136 73.3017-69.9924Q72.258-70.3712 71.2013-70.7542L68.8377-80.8693Q68.3769-83.0414 67.041-84.1507Q65.7051-85.26 63.6253-85.26L53.9726-85.26Q51.8929-85.26 50.5569-84.1507Q49.221-83.0414 48.7465-80.8693L46.3829-70.7809Q45.3186-70.3987 44.2608-69.9951Q43.203-69.5915 42.1936-69.1681L33.3534-74.7459Q31.5315-75.885 29.8214-75.7072Q28.1113-75.5295 26.6388-74.0837L19.8341-67.2928Q18.3266-65.8691 18.1622-64.1144Q17.9977-62.3596 19.178-60.5507L24.7147-51.7464Q24.3324-50.7149 23.9288-49.6952Q23.5252-48.6755 23.156-47.5838L13.1172-45.2072Q10.9314-44.7105 9.83582-43.3746Q8.74023-42.0387 8.74023-40.0078L8.74023-30.3612Q8.74023-28.3165 9.83582-26.9806Q10.9314-25.6447 13.1172-25.1488L23.1834-22.7715Q23.539-21.7346 23.9357-20.6974Q24.3324-19.6602 24.7421-18.6363L19.2055-9.8732Q18.0252-8.02917 18.1961-6.27136Q18.367-4.51355 19.8616-3.05481L26.6388 3.72238Q28.0975 5.18188 29.8347 5.34592Q31.572 5.50995 33.3946 4.32205L42.2073-1.19324Q43.2167-0.783539 44.2677-0.404358Q45.3186-0.025177 46.3829 0.392914L48.7465 10.4668Q49.221 12.6526 50.5569 13.755Q51.8929 14.8575 53.9726 14.8575ZM58.8516-17.5255Q53.9749-17.5255 49.9386-19.9394Q45.9023-22.3534 43.4952-26.3897Q41.0881-30.426 41.0881-35.2676Q41.0881-40.0742 43.5196-44.0792Q45.9511-48.0843 49.9805-50.4982Q54.01-52.9121 58.8516-52.9121Q63.6932-52.9121 67.712-50.4982Q71.7308-48.0843 74.1379-44.0792Q76.545-40.0742 76.545-35.2676Q76.545-30.426 74.1379-26.3897Q71.7308-22.3534 67.712-19.9394Q63.6932-17.5255 58.8516-17.5255Z"/>
  </g>
  <g id="Ultralight-M" transform="matrix(1 0 0 1 501.194 1126)">
   <path d="M53.5934 14.5905L63.4407 14.5905Q65.5716 14.5905 66.9128 13.4727Q68.2541 12.355 68.7355 10.0876L71.0472 0.208282Q71.9635-0.189209 72.9221-0.522232Q73.8808-0.855255 74.8291-1.21384L83.4808 4.22974Q85.3615 5.47867 87.0914 5.30968Q88.8214 5.14069 90.3214 3.64075L97.2557-3.29056Q98.8014-4.7905 98.9948-6.54831Q99.1882-8.30612 97.9782-10.2318L92.4889-18.8316Q92.8513-19.783 93.1824-20.7382Q93.5135-21.6934 93.9072-22.6486L103.793-24.9641Q106.058-25.4906 107.175-26.8318Q108.293-28.1731 108.293-30.2589L108.293-40.1413Q108.293-42.2234 107.175-43.5646Q106.058-44.9059 103.793-45.4323L93.914-47.7478Q93.5165-48.7167 93.182-49.649Q92.8474-50.5814 92.4957-51.5717L97.9393-60.1814Q99.192-62.0621 99.0017-63.8374Q98.8113-65.6128 97.2626-67.0677L90.3214-74.0021Q88.8176-75.5402 87.0735-75.692Q85.3294-75.8438 83.4915-74.6437L74.8291-69.1437Q73.8846-69.5518 72.9275-69.8845Q71.9704-70.2171 71.0472-70.5696L68.7355-80.4588Q68.2541-82.7232 66.9128-83.8428Q65.5716-84.9625 63.4407-84.9625L53.5934-84.9625Q51.4618-84.9625 50.1209-83.8428Q48.7801-82.7232 48.2948-80.4588L45.9831-70.5765Q45.0211-70.224 44.0609-69.8669Q43.1007-69.5099 42.1524-69.1475L33.4969-74.6437Q31.6132-75.8438 29.8676-75.671Q28.1219-75.4982 26.6182-74.0021L19.68-67.0677Q18.1313-65.6128 17.9623-63.8374Q17.7933-62.0621 19.0033-60.1814L24.4896-51.5717Q24.1371-50.5814 23.7801-49.649Q23.423-48.7167 23.0743-47.7478L13.2401-45.4323Q10.9726-44.9059 9.85641-43.5646Q8.74023-42.2234 8.74023-40.1413L8.74023-30.2589Q8.74023-28.1731 9.85641-26.8318Q10.9726-25.4906 13.2401-24.9641L23.0812-22.6486Q23.4261-21.6934 23.7816-20.7382Q24.1371-19.783 24.4965-18.8316L19.0102-10.2318Q17.8001-8.30612 17.971-6.54831Q18.1419-4.7905 19.6869-3.29056L26.6182 3.64075Q28.1181 5.14069 29.871 5.30968Q31.6238 5.47867 33.5075 4.22974L42.1555-1.21384Q43.1038-0.855255 44.0624-0.522232Q45.0211-0.189209 45.9831 0.208282L48.2948 10.0876Q48.7801 12.355 50.1209 13.4727Q51.4618 14.5905 53.5934 14.5905ZM58.5846-17.382Q53.6667-17.382 49.5998-19.8166Q45.533-22.2511 43.1004-26.318Q40.6677-30.3848 40.6677-35.257Q40.6677-40.0848 43.1248-44.1254Q45.5818-48.1659 49.6471-50.6004Q53.7125-53.035 58.5846-53.035Q63.4575-53.035 67.5018-50.6004Q71.5462-48.1659 73.9788-44.1254Q76.4114-40.0848 76.4114-35.257Q76.4114-30.3848 73.9788-26.318Q71.5462-22.2511 67.5018-19.8166Q63.4575-17.382 58.5846-17.382Z"/>
  </g>
  <g id="Black-S" transform="matrix(1 0 0 1 2882.57 696)">
   <path d="M47.4121 8.69141L54.248 8.69141Q56.9824 8.69141 59.0088 7.10449Q61.0352 5.51758 61.6211 2.88086L63.2324-3.80859Q63.5742-3.90625 63.8672-4.05273Q64.1602-4.19922 64.4531-4.29688L70.2637-0.683594Q72.5586 0.683594 75.1221 0.415039Q77.6855 0.146484 79.5898-1.70898L84.4238-6.54297Q86.3281-8.44727 86.5723-11.084Q86.8164-13.7207 85.3516-15.9668L81.8359-21.7285Q81.9336-21.9727 82.0557-22.2412Q82.1777-22.5098 82.2754-22.8027L89.0137-24.4141Q91.6504-25 93.2373-27.0264Q94.8242-29.0527 94.8242-31.7871L94.8242-38.4766Q94.8242-41.2109 93.2373-43.2129Q91.6504-45.2148 89.0137-45.8496L82.373-47.4121Q82.2754-47.7051 82.1533-47.998Q82.0312-48.291 81.8848-48.5352L85.4492-54.4922Q86.9141-56.8359 86.6699-59.4238Q86.4258-62.0117 84.4238-63.8672L79.4922-68.75Q77.5879-70.459 75.2197-70.752Q72.8516-71.0449 70.5566-69.8242L64.4531-66.0645Q64.1602-66.2109 63.8672-66.333Q63.5742-66.4551 63.2812-66.6016L61.6211-73.3887Q61.0352-76.0254 59.0088-77.6123Q56.9824-79.1992 54.248-79.1992L47.4121-79.1992Q44.6777-79.1992 42.6514-77.6123Q40.625-76.0254 40.0391-73.3398L38.4277-66.6504Q38.0859-66.5527 37.7686-66.4062Q37.4512-66.2598 37.1582-66.1133L31.1035-69.8242Q26.2207-72.4121 22.1191-68.7012L17.2363-63.8672Q15.2832-62.0117 15.0146-59.4238Q14.7461-56.8359 16.2109-54.4922L19.7754-48.5352Q19.6289-48.291 19.5068-47.998Q19.3848-47.7051 19.2871-47.4121L12.6465-45.8496Q10.0098-45.2148 8.42285-43.2129Q6.83594-41.2109 6.83594-38.4766L6.83594-31.7871Q6.83594-29.0527 8.42285-27.0264Q10.0098-25 12.6465-24.4141L19.3848-22.8027Q19.4824-22.5098 19.6045-22.2412Q19.7266-21.9727 19.8242-21.7285L16.3086-15.9668Q14.8438-13.7207 15.0879-11.084Q15.332-8.44727 17.2363-6.54297L22.0703-1.70898Q23.9746 0.146484 26.5625 0.415039Q29.1504 0.683594 31.3965-0.683594L37.207-4.29688Q37.5-4.19922 37.793-4.05273Q38.0859-3.90625 38.4277-3.80859L40.0391 2.88086Q40.625 5.51758 42.6514 7.10449Q44.6777 8.69141 47.4121 8.69141ZM50.8301-22.4121Q47.3145-22.4121 44.4092-24.1455Q41.5039-25.8789 39.7705-28.8086Q38.0371-31.7383 38.0371-35.2539Q38.0371-38.7695 39.7705-41.6504Q41.5039-44.5312 44.4092-46.2646Q47.3145-47.998 50.8301-47.998Q54.3457-47.998 57.251-46.2646Q60.1562-44.5312 61.8896-41.6504Q63.623-38.7695 63.623-35.2539Q63.623-31.7383 61.8896-28.8086Q60.1562-25.8789 57.251-24.1455Q54.3457-22.4121 50.8301-22.4121Z"/>
  </g>
  <g id="Heavy-S" transform="matrix(1 0 0 1 2586.76 696)">
   <path d="M46.5019 7.80411L53.3493 7.80411Q55.7838 7.80411 57.5741 6.39572Q59.3643 4.98734 59.8923 2.63901L61.5959-4.48837Q62.1452-4.65546 62.6343-4.87671Q63.1233-5.09796 63.5887-5.28793L69.7914-1.44424Q71.8208-0.226593 74.0906-0.460815Q76.3603-0.695038 78.0457-2.34299L82.8796-7.17697Q84.5764-8.87375 84.7916-11.2049Q85.0067-13.5361 83.6922-15.5403L79.9347-21.6942Q80.1361-22.1222 80.3329-22.5868Q80.5298-23.0515 80.6847-23.5291L87.8731-25.2441Q90.2214-25.7607 91.618-27.5509Q93.0145-29.3411 93.0145-31.7871L93.0145-38.488Q93.0145-40.9111 91.618-42.6826Q90.2214-44.4542 87.8731-45.0081L80.7823-46.6972Q80.616-47.2092 80.4073-47.6982Q80.1987-48.1873 79.995-48.5809L83.7898-54.9187Q85.0929-56.9969 84.8835-59.2796Q84.6741-61.5623 82.9025-63.2217L77.9709-68.0931Q76.2741-69.6175 74.1825-69.8761Q72.0909-70.1347 70.0493-69.0521L63.5887-65.0734Q63.1348-65.3008 62.6457-65.5033Q62.1567-65.7059 61.6333-65.9103L59.8923-73.1468Q59.3643-75.4951 57.5741-76.9035Q55.7838-78.3119 53.3493-78.3119L46.5019-78.3119Q44.0666-78.3119 42.2768-76.9035Q40.4869-75.4951 39.9696-73.1094L38.2545-65.9706Q37.7174-65.8035 37.204-65.5823Q36.6905-65.361 36.2244-65.1222L29.8126-69.0521Q25.4829-71.3516 21.8422-68.0557L16.9479-63.2217Q15.2138-61.5623 14.9857-59.2796Q14.7575-56.9969 16.0614-54.9187L19.8563-48.5809Q19.6518-48.1873 19.4492-47.6982Q19.2467-47.2092 19.0796-46.6972L11.9896-45.0081Q9.64127-44.4542 8.2386-42.6826Q6.83594-40.9111 6.83594-38.488L6.83594-31.7871Q6.83594-29.3411 8.2386-27.5509Q9.64127-25.7607 11.9896-25.2441L19.1772-23.5291Q19.3214-23.0515 19.524-22.5868Q19.7266-22.1222 19.9165-21.6942L16.1591-15.5403Q14.8438-13.5361 15.065-11.2049Q15.2863-8.87375 16.9716-7.17697L21.8056-2.34299Q23.4909-0.695038 25.779-0.460815Q28.067-0.226593 30.0713-1.44424L36.2732-5.28793Q36.7279-5.09796 37.2227-4.87671Q37.7174-4.65546 38.2545-4.48837L39.9696 2.63901Q40.4869 4.98734 42.2768 6.39572Q44.0666 7.80411 46.5019 7.80411ZM49.9313-22.274Q46.3692-22.274 43.4296-24.0303Q40.49-25.7866 38.739-28.7453Q36.9881-31.7039 36.9881-35.2654Q36.9881-38.8153 38.739-41.7309Q40.49-44.6465 43.4296-46.4027Q46.3692-48.159 49.9313-48.159Q53.4813-48.159 56.4213-46.4027Q59.3613-44.6465 61.1118-41.7309Q62.8624-38.8153 62.8624-35.2654Q62.8624-31.7039 61.1118-28.7453Q59.3613-25.7866 56.4213-24.0303Q53.4813-22.274 49.9313-22.274Z"/>
  </g>
  <g id="Bold-S" transform="matrix(1 0 0 1 2291.06 696)">
   <path d="M45.4834 6.81152L52.3438 6.81152Q54.4434 6.81152 55.9692 5.60303Q57.4951 4.39453 57.959 2.36816L59.7656-5.24902Q60.5469-5.49316 61.2549-5.79834Q61.9629-6.10352 62.6221-6.39648L69.2627-2.29492Q70.9961-1.24512 72.937-1.44043Q74.8779-1.63574 76.3184-3.05176L81.1523-7.88574Q82.6172-9.35059 82.8003-11.3403Q82.9834-13.3301 81.8359-15.0635L77.8076-21.6553Q78.125-22.29 78.4058-22.9736Q78.6865-23.6572 78.9062-24.3408L86.5967-26.1719Q88.623-26.6113 89.8071-28.1372Q90.9912-29.6631 90.9912-31.7871L90.9912-38.501Q90.9912-40.5762 89.8071-42.0898Q88.623-43.6035 86.5967-44.0674L79.0039-45.8984Q78.7598-46.6553 78.4546-47.3633Q78.1494-48.0713 77.8809-48.6328L81.9336-55.3955Q83.0566-57.1777 82.8857-59.1187Q82.7148-61.0596 81.2012-62.5L76.2695-67.3584Q74.8047-68.6768 73.0225-68.8965Q71.2402-69.1162 69.4824-68.1885L62.6221-63.9648Q61.9873-64.2822 61.2793-64.5752Q60.5713-64.8682 59.79-65.1367L57.959-72.876Q57.4951-74.9023 55.9692-76.1108Q54.4434-77.3193 52.3438-77.3193L45.4834-77.3193Q43.3838-77.3193 41.8579-76.1108Q40.332-74.9023 39.8926-72.8516L38.0615-65.21Q37.3047-64.9658 36.5723-64.6606Q35.8398-64.3555 35.1807-64.0137L28.3691-68.1885Q24.6582-70.166 21.5332-67.334L16.626-62.5Q15.1367-61.0596 14.9536-59.1187Q14.7705-57.1777 15.8936-55.3955L19.9463-48.6328Q19.6777-48.0713 19.3848-47.3633Q19.0918-46.6553 18.8477-45.8984L11.2549-44.0674Q9.22852-43.6035 8.03223-42.0898Q6.83594-40.5762 6.83594-38.501L6.83594-31.7871Q6.83594-29.6631 8.03223-28.1372Q9.22852-26.6113 11.2549-26.1719L18.9453-24.3408Q19.1406-23.6572 19.4336-22.9736Q19.7266-22.29 20.0195-21.6553L15.9912-15.0635Q14.8438-13.3301 15.0391-11.3403Q15.2344-9.35059 16.6748-7.88574L21.5088-3.05176Q22.9492-1.63574 24.9023-1.44043Q26.8555-1.24512 28.5889-2.29492L35.2295-6.39648Q35.8643-6.10352 36.5845-5.79834Q37.3047-5.49316 38.0615-5.24902L39.8926 2.36816Q40.332 4.39453 41.8579 5.60303Q43.3838 6.81152 45.4834 6.81152ZM48.9258-22.1191Q45.3125-22.1191 42.334-23.9014Q39.3555-25.6836 37.5854-28.6743Q35.8154-31.665 35.8154-35.2783Q35.8154-38.8672 37.5854-41.8213Q39.3555-44.7754 42.334-46.5576Q45.3125-48.3398 48.9258-48.3398Q52.5146-48.3398 55.4932-46.5576Q58.4717-44.7754 60.2417-41.8213Q62.0117-38.8672 62.0117-35.2783Q62.0117-31.665 60.2417-28.6743Q58.4717-25.6836 55.4932-23.9014Q52.5146-22.1191 48.9258-22.1191Z"/>
  </g>
  <g id="Semibold-S" transform="matrix(1 0 0 1 1995.05 696)">
   <path d="M44.7815 6.12717L51.6502 6.12717Q53.5194 6.12717 54.863 5.05638Q56.2065 3.9856 56.6261 2.18124L58.5037-5.77316Q59.4452-6.07071 60.3043-6.43387Q61.1633-6.79703 61.9553-7.16095L68.898-2.88162Q70.4277-1.94702 72.1416-2.11563Q73.8556-2.28424 75.1274-3.5408L79.9614-8.37479Q81.266-9.67941 81.427-11.4338Q81.588-13.1882 80.5565-14.7346L76.3412-21.6286Q76.7387-22.4052 77.0771-23.2399Q77.4155-24.0746 77.6802-24.9008L85.717-26.812Q87.5214-27.198 88.5586-28.5416Q89.5958-29.8851 89.5958-31.7871L89.5958-38.5101Q89.5958-40.345 88.5586-41.6809Q87.5214-43.0168 85.717-43.4189L77.7779-45.3476Q77.4803-46.273 77.1084-47.1321Q76.7365-47.9912 76.4236-48.6687L80.6541-55.7243Q81.6528-57.3021 81.5083-59.0076Q81.3637-60.7132 80.0278-62.0026L75.0961-66.8518Q73.7915-68.0283 72.2225-68.2213Q70.6535-68.4143 69.091-67.5934L61.9553-63.2004Q61.1961-63.5803 60.3371-63.9355Q59.478-64.2906 58.519-64.6034L56.6261-72.6891Q56.2065-74.4934 54.863-75.5642Q53.5194-76.635 51.6502-76.635L44.7815-76.635Q42.9131-76.635 41.5691-75.5642Q40.2252-74.4934 39.8392-72.6738L37.928-64.6858Q37.0201-64.3883 36.1366-64.0251Q35.2531-63.662 34.4604-63.2492L27.3735-67.5934Q24.0898-69.3481 21.3196-66.8365L16.404-62.0026Q15.0833-60.7132 14.9315-59.0076Q14.7797-57.3021 15.7784-55.7243L20.0089-48.6687Q19.6953-47.9912 19.3401-47.1321Q18.985-46.273 18.6874-45.3476L10.7483-43.4189Q8.94394-43.0168 7.88994-41.6809Q6.83594-40.345 6.83594-38.5101L6.83594-31.7871Q6.83594-29.8851 7.88994-28.5416Q8.94394-27.198 10.7483-26.812L18.7851-24.9008Q19.0163-24.0746 19.3714-23.2399Q19.7266-22.4052 20.0905-21.6286L15.876-14.7346Q14.8438-13.1882 15.0211-11.4338Q15.1985-9.67941 16.4703-8.37479L21.3043-3.5408Q22.5761-2.28424 24.2981-2.11563Q26.0201-1.94702 27.5665-2.88162L34.5093-7.16095Q35.2692-6.79703 36.1446-6.43387Q37.0201-6.07071 37.928-5.77316L39.8392 2.18124Q40.2252 3.9856 41.5691 5.05638Q42.9131 6.12717 44.7815 6.12717ZM48.2323-22.0123Q44.5839-22.0123 41.5787-23.8125Q38.5735-25.6126 36.7901-28.6255Q35.0067-31.6383 35.0067-35.2875Q35.0067-38.903 36.7901-41.8835Q38.5735-44.8639 41.5787-46.664Q44.5839-48.4642 48.2323-48.4642Q51.8478-48.4642 54.8531-46.664Q57.8583-44.8639 59.6416-41.8835Q61.425-38.903 61.425-35.2875Q61.425-31.6383 59.6416-28.6255Q57.8583-25.6126 54.8531-23.8125Q51.8478-22.0123 48.2323-22.0123Z"/>
  </g>
  <g id="Medium-S" transform="matrix(1 0 0 1 1698.87 696)">
   <path d="M44.249 5.60837L51.1253 5.60837Q52.8183 5.60837 54.0237 4.64211Q55.2292 3.67584 55.6152 2.0401L57.547-6.17065Q58.609-6.50864 59.5829-6.91528Q60.5568-7.32193 61.4502-7.74002L68.6218-3.32642Q69.9959-2.47955 71.5385-2.62794Q73.0812-2.77634 74.2249-3.91083L79.0588-8.74481Q80.2422-9.92889 80.3864-11.5044Q80.5305-13.0798 79.586-14.4852L75.2296-21.6087Q75.6874-22.493 76.0696-23.4425Q76.4519-24.3919 76.7502-25.325L85.0494-27.2972Q86.6852-27.6428 87.6118-28.8483Q88.5384-30.0537 88.5384-31.7871L88.5384-38.5162Q88.5384-40.1703 87.6118-41.3712Q86.6852-42.572 85.0494-42.9268L76.8478-44.9295Q76.5099-45.9831 76.0876-46.957Q75.6653-47.9309 75.3181-48.6954L79.6837-55.9738Q80.5878-57.3967 80.4638-58.9233Q80.3398-60.45 79.1389-61.6249L74.2073-66.468Q73.0232-67.5362 71.616-67.709Q70.2087-67.8818 68.795-67.1417L61.4502-62.6213Q60.5965-63.0478 59.623-63.4502Q58.6494-63.8527 57.5554-64.1991L55.6152-72.5479Q55.2292-74.1837 54.0237-75.1499Q52.8183-76.1162 51.1253-76.1162L44.249-76.1162Q42.556-76.1162 41.3502-75.1499Q40.1443-74.1837 39.7987-72.5388L37.8273-64.2883Q36.805-63.9503 35.8067-63.5437Q34.8083-63.1371 33.9149-62.6701L26.619-67.1417Q23.658-68.7286 21.1578-66.4589L16.2354-61.6249Q15.0429-60.45 14.9143-58.9233Q14.7858-57.3967 15.6906-55.9738L20.0554-48.6954Q19.709-47.9309 19.3066-46.957Q18.9041-45.9831 18.5661-44.9295L10.3645-42.9268Q8.72879-42.572 7.78236-41.3712Q6.83594-40.1703 6.83594-38.5162L6.83594-31.7871Q6.83594-30.0537 7.78236-28.8483Q8.72879-27.6428 10.3645-27.2972L18.6638-25.325Q18.9217-24.3919 19.3241-23.4425Q19.7266-22.493 20.1447-21.6087L15.7883-14.4852Q14.8438-13.0798 15.0078-11.5044Q15.1718-9.92889 16.3155-8.74481L21.1494-3.91083Q22.2931-2.77634 23.84-2.62794Q25.3868-2.47955 26.7921-3.32642L33.9638-7.74002Q34.8175-7.32193 35.8112-6.91528Q36.805-6.50864 37.8273-6.17065L39.7987 2.0401Q40.1443 3.67584 41.3502 4.64211Q42.556 5.60837 44.249 5.60837ZM47.7074-21.9315Q44.0315-21.9315 41.0061-23.745Q37.9807-25.5585 36.187-28.5885Q34.3933-31.6185 34.3933-35.2936Q34.3933-38.9297 36.187-41.9308Q37.9807-44.9318 41.0061-46.7453Q44.0315-48.5588 47.7074-48.5588Q51.3428-48.5588 54.3682-46.7453Q57.3936-44.9318 59.1869-41.9308Q60.9802-38.9297 60.9802-35.2936Q60.9802-31.6185 59.1869-28.5885Q57.3936-25.5585 54.3682-23.745Q51.3428-21.9315 47.7074-21.9315Z"/>
  </g>
  <g id="Regular-S" transform="matrix(1 0 0 1 1402.85 696)">
   <path d="M43.5547 4.93164L50.4395 4.93164Q51.9043 4.93164 52.9297 4.10156Q53.9551 3.27148 54.2969 1.85547L56.2988-6.68945Q57.5195-7.08008 58.6426-7.54395Q59.7656-8.00781 60.791-8.49609L68.2617-3.90625Q69.4336-3.17383 70.752-3.2959Q72.0703-3.41797 73.0469-4.39453L77.8809-9.22852Q78.9062-10.2539 79.0283-11.5967Q79.1504-12.9395 78.3203-14.1602L73.7793-21.582Q74.3164-22.6074 74.7559-23.7061Q75.1953-24.8047 75.5371-25.8789L84.1797-27.9297Q85.5957-28.2227 86.377-29.248Q87.1582-30.2734 87.1582-31.7871L87.1582-38.5254Q87.1582-39.9414 86.377-40.9668Q85.5957-41.9922 84.1797-42.2852L75.6348-44.3848Q75.2441-45.6055 74.7559-46.7285Q74.2676-47.8516 73.877-48.7305L78.418-56.2988Q79.1992-57.5195 79.1016-58.8135Q79.0039-60.1074 77.9785-61.1328L73.0469-65.9668Q72.0215-66.8945 70.8252-67.041Q69.6289-67.1875 68.4082-66.5527L60.791-61.8652Q59.8145-62.3535 58.6914-62.8174Q57.5684-63.2812 56.2988-63.6719L54.2969-72.3633Q53.9551-73.7793 52.9297-74.6094Q51.9043-75.4395 50.4395-75.4395L43.5547-75.4395Q42.0898-75.4395 41.0645-74.6094Q40.0391-73.7793 39.7461-72.3633L37.6953-63.7695Q36.5234-63.3789 35.376-62.915Q34.2285-62.4512 33.2031-61.9141L25.6348-66.5527Q23.0957-67.9199 20.9473-65.9668L16.0156-61.1328Q14.9902-60.1074 14.8926-58.8135Q14.7949-57.5195 15.5762-56.2988L20.1172-48.7305Q19.7266-47.8516 19.2627-46.7285Q18.7988-45.6055 18.4082-44.3848L9.86328-42.2852Q8.44727-41.9922 7.6416-40.9668Q6.83594-39.9414 6.83594-38.5254L6.83594-31.7871Q6.83594-30.2734 7.6416-29.248Q8.44727-28.2227 9.86328-27.9297L18.5059-25.8789Q18.7988-24.8047 19.2627-23.7061Q19.7266-22.6074 20.2148-21.582L15.6738-14.1602Q14.8438-12.9395 14.9902-11.5967Q15.1367-10.2539 16.1133-9.22852L20.9473-4.39453Q21.9238-3.41797 23.2422-3.2959Q24.5605-3.17383 25.7812-3.90625L33.252-8.49609Q34.2285-8.00781 35.376-7.54395Q36.5234-7.08008 37.6953-6.68945L39.7461 1.85547Q40.0391 3.27148 41.0645 4.10156Q42.0898 4.93164 43.5547 4.93164ZM47.0215-21.8262Q43.3105-21.8262 40.2588-23.6572Q37.207-25.4883 35.4004-28.54Q33.5938-31.5918 33.5938-35.3027Q33.5938-38.9648 35.4004-41.9922Q37.207-45.0195 40.2588-46.8506Q43.3105-48.6816 47.0215-48.6816Q50.6836-48.6816 53.7354-46.8506Q56.7871-45.0195 58.5938-41.9922Q60.4004-38.9648 60.4004-35.3027Q60.4004-31.5918 58.5938-28.54Q56.7871-25.4883 53.7354-23.6572Q50.6836-21.8262 47.0215-21.8262Z"/>
  </g>
  <g id="Light-S" transform="matrix(1 0 0 1 1106.5 696)">
   <path d="M43.055 4.56848L50.2121 4.56848Q51.7227 4.56848 52.7634 3.72314Q53.804 2.87781 54.1603 1.35574L56.102-6.9313Q57.1716-7.29218 58.1734-7.69539Q59.1751-8.0986 60.1097-8.52661L67.3683-4.02756Q68.631-3.2341 69.9646-3.35617Q71.2982-3.47824 72.3358-4.51584L77.3514-9.5314Q78.437-10.6171 78.5667-11.9675Q78.6964-13.3179 77.8206-14.6294L73.3551-21.8239Q73.8167-22.7737 74.2031-23.7591Q74.5895-24.7444 74.9168-25.7278L83.2863-27.7023Q84.8083-28.0258 85.6201-29.0588Q86.4319-30.0919 86.4319-31.6505L86.4319-38.6917Q86.4319-40.1833 85.6201-41.2163Q84.8083-42.2493 83.2863-42.5728L74.984-44.5816Q74.6239-45.6657 74.2035-46.6679Q73.7831-47.67 73.423-48.5184L77.8885-55.8144Q78.73-57.1259 78.6171-58.4503Q78.5042-59.7748 77.4185-60.8452L72.3358-65.8607Q71.2646-66.864 70.0153-67.0029Q68.766-67.1417 67.4698-66.4162L60.1097-61.85Q59.2087-62.278 58.1993-62.6812Q57.1899-63.0844 56.102-63.4445L54.1603-71.8338Q53.804-73.3551 52.7634-74.2004Q51.7227-75.0458 50.2121-75.0458L43.055-75.0458Q41.5298-75.0458 40.4968-74.2004Q39.4638-73.3551 39.1403-71.8338L37.1658-63.5124Q36.1298-63.1516 35.1109-62.7483Q34.0919-62.3451 33.1429-61.8835L25.8163-66.4162Q23.1415-67.9504 20.9167-65.8607L15.834-60.8452Q14.7484-59.7748 14.6355-58.4503Q14.5226-57.1259 15.3641-55.8144L19.8296-48.5184Q19.4695-47.67 19.0659-46.6679Q18.6623-45.6657 18.3022-44.5816L10.0143-42.5728Q8.49304-42.2493 7.66449-41.2163Q6.83594-40.1833 6.83594-38.6917L6.83594-31.6505Q6.83594-30.0919 7.66449-29.0588Q8.49304-28.0258 10.0143-27.7023L18.3693-25.7278Q18.6623-24.7444 19.0659-23.7591Q19.4695-22.7737 19.8967-21.8239L15.432-14.6294Q14.5561-13.3179 14.7026-11.9675Q14.8491-10.6171 15.9012-9.5314L20.9167-4.51584Q21.9543-3.47824 23.2876-3.35617Q24.6208-3.2341 25.9178-4.02756L33.1764-8.52661Q34.0919-8.0986 35.1109-7.69539Q36.1298-7.29218 37.1658-6.9313L39.1403 1.35574Q39.4638 2.87781 40.4968 3.72314Q41.5298 4.56848 43.055 4.56848ZM46.6583-21.6446Q42.9169-21.6446 39.8197-23.4982Q36.7226-25.3517 34.8858-28.4416Q33.049-31.5315 33.049-35.2875Q33.049-38.9954 34.8934-42.0605Q36.7378-45.1256 39.8273-46.9791Q42.9169-48.8327 46.6583-48.8327Q50.3807-48.8327 53.4702-46.9791Q56.5598-45.1256 58.3969-42.0605Q60.2341-38.9954 60.2341-35.2875Q60.2341-31.5315 58.3969-28.4416Q56.5598-25.3517 53.4702-23.4982Q50.3807-21.6446 46.6583-21.6446Z"/>
  </g>
  <g id="Thin-S" transform="matrix(1 0 0 1 810.269 696)">
   <path d="M42.3943 4.08783L49.9123 4.08783Q51.4824 4.08783 52.5429 3.22266Q53.6034 2.35748 53.9803 0.695038L55.8418-7.25174Q56.7108-7.57217 57.5527-7.89528Q58.3946-8.21838 59.2087-8.56628L66.1873-4.18777Q67.5705-3.31421 68.924-3.43628Q70.2774-3.55835 71.3943-4.67606L76.6502-9.93195Q77.8168-11.0977 77.9564-12.458Q78.096-13.8184 77.1599-15.2496L72.7951-22.1443Q73.156-22.9942 73.4726-23.8293Q73.7892-24.6643 74.0959-25.5272L82.1053-27.4025Q83.7677-27.7657 84.6191-28.8086Q85.4706-29.8515 85.4706-31.4705L85.4706-38.9122Q85.4706-40.5037 84.6191-41.5466Q83.7677-42.5896 82.1053-42.9527L74.1234-44.8418Q73.8029-45.7458 73.473-46.5878Q73.143-47.4297 72.8226-48.2384L77.1873-55.1743Q78.1097-56.6055 77.9766-57.9697Q77.8435-59.3338 76.6777-60.4652L71.3943-65.7204Q70.2637-66.8243 68.9445-66.9533Q67.6254-67.0822 66.2285-66.2361L59.2087-61.8301Q58.4084-62.178 57.5489-62.5011Q56.6895-62.8242 55.8418-63.1447L53.9803-71.1327Q53.6034-72.7951 52.5429-73.6603Q51.4824-74.5255 49.9123-74.5255L42.3943-74.5255Q40.789-74.5255 39.7461-73.6603Q38.7032-72.7951 38.34-71.1327L36.4647-63.1721Q35.6094-62.8517 34.7607-62.5282Q33.9119-62.2047 33.0627-61.8439L26.0567-66.2361Q23.201-67.9901 20.8771-65.7204L15.5937-60.4652Q14.4279-59.3338 14.2952-57.9697Q14.1624-56.6055 15.0841-55.1743L19.4496-48.2384Q19.1292-47.4297 18.8057-46.5878Q18.4822-45.7458 18.1618-44.8418L10.215-42.9527Q8.55255-42.5896 7.69424-41.5466Q6.83594-40.5037 6.83594-38.9122L6.83594-31.4705Q6.83594-29.8515 7.69424-28.8086Q8.55255-27.7657 10.215-27.4025L18.1892-25.5272Q18.4822-24.6643 18.8057-23.8293Q19.1292-22.9942 19.4763-22.1443L15.1115-15.2496Q14.1762-13.8184 14.3227-12.458Q14.4691-11.0977 15.6212-9.93195L20.8771-4.67606Q21.994-3.55835 23.3475-3.43628Q24.7009-3.31421 26.0979-4.18777L33.0765-8.56628Q33.9119-8.21838 34.7607-7.89528Q35.6094-7.57217 36.4647-7.25174L38.34 0.695038Q38.7032 2.35748 39.7461 3.22266Q40.789 4.08783 42.3943 4.08783ZM46.1777-21.4043Q42.3965-21.4043 39.2395-23.288Q36.0825-25.1717 34.2052-28.3115Q32.328-31.4514 32.328-35.2676Q32.328-39.035 34.2228-42.1505Q36.1176-45.266 39.257-47.1497Q42.3965-49.0334 46.1777-49.0334Q49.9802-49.0334 53.12-47.1497Q56.2599-45.266 58.1367-42.1505Q60.0136-39.035 60.0136-35.2676Q60.0136-31.4514 58.1367-28.3115Q56.2599-25.1717 53.12-23.288Q49.9802-21.4043 46.1777-21.4043Z"/>
  </g>
  <g id="Ultralight-S" transform="matrix(1 0 0 1 513.804 696)">
   <path d="M42.0563 3.84216L49.7581 3.84216Q51.3596 3.84216 52.4303 2.96631Q53.5011 2.09045 53.8879 0.357056L55.7083-7.41577Q56.4751-7.71561 57.235-7.99789Q57.9948-8.28018 58.7479-8.58688L65.5823-4.26941Q67.0265-3.35541 68.3907-3.47748Q69.7548-3.59955 70.9129-4.75769L76.2917-10.1364Q77.4986-11.3434 77.6432-12.709Q77.7878-14.0747 76.8219-15.5678L72.5075-22.3083Q72.818-23.1071 73.0984-23.8651Q73.3788-24.6231 73.6755-25.425L81.5002-27.2484Q83.2344-27.6321 84.1064-28.6804Q84.9785-29.7287 84.9785-31.3782L84.9785-39.0251Q84.9785-40.6677 84.1064-41.716Q83.2344-42.7643 81.5002-43.148L73.6824-44.9753Q73.3826-45.787 73.0984-46.5469Q72.8142-47.3068 72.5143-48.0949L76.8288-54.8454Q77.7916-56.3385 77.6485-57.7236Q77.5055-59.1087 76.2985-60.2699L70.9129-65.6487Q69.751-66.8037 68.3956-66.9273Q67.0403-67.0509 65.593-66.1438L58.7479-61.8195Q57.9979-62.1262 57.2155-62.4084Q56.4331-62.6907 55.7083-62.9906L53.8879-70.7741Q53.5011-72.5075 52.4303-73.3829Q51.3596-74.2584 49.7581-74.2584L42.0563-74.2584Q40.4099-74.2584 39.3616-73.3829Q38.3133-72.5075 37.9295-70.7741L36.1061-62.9974Q35.3424-62.6976 34.581-62.4153Q33.8196-62.133 33.0215-61.8233L26.1795-66.1438Q23.2323-68.0107 20.8565-65.6487L15.4709-60.2699Q14.2639-59.1087 14.1209-57.7236Q13.9778-56.3385 14.9406-54.8454L19.2543-48.0949Q18.9545-47.3068 18.6722-46.5469Q18.3899-45.787 18.0901-44.9753L10.3172-43.148Q8.58383-42.7643 7.70988-41.716Q6.83594-40.6677 6.83594-39.0251L6.83594-31.3782Q6.83594-29.7287 7.70988-28.6804Q8.58383-27.6321 10.3172-27.2484L18.0969-25.425Q18.3899-24.6231 18.6722-23.8651Q18.9545-23.1071 19.2612-22.3083L14.9475-15.5678Q13.9809-14.0747 14.1273-12.709Q14.2738-11.3434 15.4778-10.1364L20.8565-4.75769Q22.0146-3.59955 23.3784-3.47748Q24.7421-3.35541 26.1902-4.26941L33.0246-8.58688Q33.8196-8.28018 34.581-7.99789Q35.3424-7.71561 36.1061-7.41577L37.9295 0.357056Q38.3133 2.09045 39.3616 2.96631Q40.4099 3.84216 42.0563 3.84216ZM45.932-21.2814Q42.1295-21.2814 38.9416-23.1804Q35.7536-25.0793 33.8562-28.2448Q31.9588-31.4102 31.9588-35.257Q31.9588-39.0556 33.8791-42.1967Q35.7994-45.3377 38.9645-47.2366Q42.1295-49.1356 45.932-49.1356Q49.7757-49.1356 52.9408-47.2366Q56.1058-45.3377 58.0032-42.1967Q59.9007-39.0556 59.9007-35.257Q59.9007-31.4102 58.0032-28.2448Q56.1058-25.0793 52.9408-23.1804Q49.7757-21.2814 45.932-21.2814Z"/>
  </g>
 </g>
</svg>
