<?xml version="1.0" encoding="UTF-8"?>
<!--Generator: Apple Native CoreSVG 175-->
<!DOCTYPE svg
PUBLIC "-//W3C//DTD SVG 1.1//EN"
       "http://www.w3.org/Graphics/SVG/1.1/DTD/svg11.dtd">
<svg version="1.1" xmlns="http://www.w3.org/2000/svg" xmlns:xlink="http://www.w3.org/1999/xlink" width="3300" height="2200">
 <!--glyph: "uni100492.medium", point size: 100.0, font version: "17.0d12e1", template writer version: "65.1"-->
 <style>.hierarchical-0:secondary {fill:#4D4D4D}
.hierarchical-1:primary {fill:#212121}

.SFSymbolsPreview212121 {fill:#212121;opacity:1.0}
.SFSymbolsPreview4D4D4D {fill:#4D4D4D;opacity:1.0}
</style>
 <g id="Notes">
  <rect height="2200" id="artboard" style="fill:white;opacity:1" width="3300" x="0" y="0"/>
  <line style="fill:none;stroke:black;opacity:1;stroke-width:0.5;" x1="263" x2="3036" y1="292" y2="292"/>
  <text style="stroke:none;fill:black;font-family:sans-serif;font-size:13;font-weight:bold;" transform="matrix(1 0 0 1 263 322)">Weight/Scale Variations</text>
  <text style="stroke:none;fill:black;font-family:sans-serif;font-size:13;text-anchor:middle;" transform="matrix(1 0 0 1 559.711 322)">Ultralight</text>
  <text style="stroke:none;fill:black;font-family:sans-serif;font-size:13;text-anchor:middle;" transform="matrix(1 0 0 1 856.422 322)">Thin</text>
  <text style="stroke:none;fill:black;font-family:sans-serif;font-size:13;text-anchor:middle;" transform="matrix(1 0 0 1 1153.13 322)">Light</text>
  <text style="stroke:none;fill:black;font-family:sans-serif;font-size:13;text-anchor:middle;" transform="matrix(1 0 0 1 1449.84 322)">Regular</text>
  <text style="stroke:none;fill:black;font-family:sans-serif;font-size:13;text-anchor:middle;" transform="matrix(1 0 0 1 1746.56 322)">Medium</text>
  <text style="stroke:none;fill:black;font-family:sans-serif;font-size:13;text-anchor:middle;" transform="matrix(1 0 0 1 2043.27 322)">Semibold</text>
  <text style="stroke:none;fill:black;font-family:sans-serif;font-size:13;text-anchor:middle;" transform="matrix(1 0 0 1 2339.98 322)">Bold</text>
  <text style="stroke:none;fill:black;font-family:sans-serif;font-size:13;text-anchor:middle;" transform="matrix(1 0 0 1 2636.69 322)">Heavy</text>
  <text style="stroke:none;fill:black;font-family:sans-serif;font-size:13;text-anchor:middle;" transform="matrix(1 0 0 1 2933.4 322)">Black</text>
  <line style="fill:none;stroke:black;opacity:1;stroke-width:0.5;" x1="263" x2="3036" y1="1903" y2="1903"/>
  <g transform="matrix(1 0 0 1 263 1933)">
   <path d="M9.24805 0.830078Q10.8691 0.830078 12.2949 0.214844Q13.7207-0.400391 14.8096-1.49414Q15.8984-2.58789 16.5186-4.01367Q17.1387-5.43945 17.1387-7.05078Q17.1387-8.66211 16.5186-10.0879Q15.8984-11.5137 14.8047-12.6074Q13.7109-13.7012 12.2852-14.3164Q10.8594-14.9316 9.23828-14.9316Q7.62695-14.9316 6.20117-14.3164Q4.77539-13.7012 3.69141-12.6074Q2.60742-11.5137 1.9873-10.0879Q1.36719-8.66211 1.36719-7.05078Q1.36719-5.43945 1.9873-4.01367Q2.60742-2.58789 3.69629-1.49414Q4.78516-0.400391 6.21094 0.214844Q7.63672 0.830078 9.24805 0.830078ZM9.24805-0.654297Q7.91992-0.654297 6.7627-1.14746Q5.60547-1.64062 4.73145-2.51953Q3.85742-3.39844 3.36426-4.56055Q2.87109-5.72266 2.87109-7.05078Q2.87109-8.37891 3.35938-9.54102Q3.84766-10.7031 4.72168-11.582Q5.5957-12.4609 6.75293-12.9541Q7.91016-13.4473 9.23828-13.4473Q10.5762-13.4473 11.7334-12.9541Q12.8906-12.4609 13.7695-11.582Q14.6484-10.7031 15.1465-9.54102Q15.6445-8.37891 15.6445-7.05078Q15.6445-5.72266 15.1514-4.56055Q14.6582-3.39844 13.7842-2.51953Q12.9102-1.64062 11.748-1.14746Q10.5859-0.654297 9.24805-0.654297ZM5.6543-7.05078Q5.6543-6.72852 5.85938-6.52832Q6.06445-6.32812 6.40625-6.32812L8.51562-6.32812L8.51562-4.20898Q8.51562-3.88672 8.71094-3.67676Q8.90625-3.4668 9.23828-3.4668Q9.56055-3.4668 9.77051-3.67676Q9.98047-3.88672 9.98047-4.20898L9.98047-6.32812L12.0898-6.32812Q12.4219-6.32812 12.627-6.52832Q12.832-6.72852 12.832-7.05078Q12.832-7.38281 12.627-7.58789Q12.4219-7.79297 12.0898-7.79297L9.98047-7.79297L9.98047-9.90234Q9.98047-10.2344 9.77051-10.4443Q9.56055-10.6543 9.23828-10.6543Q8.90625-10.6543 8.71094-10.4443Q8.51562-10.2344 8.51562-9.90234L8.51562-7.79297L6.40625-7.79297Q6.06445-7.79297 5.85938-7.58789Q5.6543-7.38281 5.6543-7.05078Z"/>
  </g>
  <g transform="matrix(1 0 0 1 281.867 1933)">
   <path d="M11.709 2.91016Q13.75 2.91016 15.5518 2.12891Q17.3535 1.34766 18.7305-0.0292969Q20.1074-1.40625 20.8887-3.20801Q21.6699-5.00977 21.6699-7.05078Q21.6699-9.0918 20.8887-10.8936Q20.1074-12.6953 18.7305-14.0723Q17.3535-15.4492 15.5469-16.2305Q13.7402-17.0117 11.6992-17.0117Q9.6582-17.0117 7.85645-16.2305Q6.05469-15.4492 4.68262-14.0723Q3.31055-12.6953 2.5293-10.8936Q1.74805-9.0918 1.74805-7.05078Q1.74805-5.00977 2.5293-3.20801Q3.31055-1.40625 4.6875-0.0292969Q6.06445 1.34766 7.86621 2.12891Q9.66797 2.91016 11.709 2.91016ZM11.709 1.25Q9.98047 1.25 8.47656 0.605469Q6.97266-0.0390625 5.83496-1.17676Q4.69727-2.31445 4.05762-3.81836Q3.41797-5.32227 3.41797-7.05078Q3.41797-8.7793 4.05762-10.2832Q4.69727-11.7871 5.83008-12.9297Q6.96289-14.0723 8.4668-14.7119Q9.9707-15.3516 11.6992-15.3516Q13.4277-15.3516 14.9316-14.7119Q16.4355-14.0723 17.5781-12.9297Q18.7207-11.7871 19.3652-10.2832Q20.0098-8.7793 20.0098-7.05078Q20.0098-5.32227 19.3701-3.81836Q18.7305-2.31445 17.5928-1.17676Q16.4551-0.0390625 14.9463 0.605469Q13.4375 1.25 11.709 1.25ZM7.17773-7.05078Q7.17773-6.69922 7.41211-6.47461Q7.64648-6.25 8.01758-6.25L10.8887-6.25L10.8887-3.36914Q10.8887-2.99805 11.1133-2.76855Q11.3379-2.53906 11.6895-2.53906Q12.0605-2.53906 12.29-2.76855Q12.5195-2.99805 12.5195-3.36914L12.5195-6.25L15.4004-6.25Q15.7715-6.25 16.001-6.47461Q16.2305-6.69922 16.2305-7.05078Q16.2305-7.42188 16.001-7.65137Q15.7715-7.88086 15.4004-7.88086L12.5195-7.88086L12.5195-10.752Q12.5195-11.1328 12.29-11.3623Q12.0605-11.5918 11.6895-11.5918Q11.3379-11.5918 11.1133-11.3574Q10.8887-11.123 10.8887-10.752L10.8887-7.88086L8.01758-7.88086Q7.63672-7.88086 7.40723-7.65137Q7.17773-7.42188 7.17773-7.05078Z"/>
  </g>
  <g transform="matrix(1 0 0 1 305.646 1933)">
   <path d="M14.9707 5.66406Q17.0605 5.66406 18.96 5.01465Q20.8594 4.36523 22.4512 3.19336Q24.043 2.02148 25.2197 0.429688Q26.3965-1.16211 27.0459-3.06641Q27.6953-4.9707 27.6953-7.05078Q27.6953-9.14062 27.0459-11.04Q26.3965-12.9395 25.2197-14.5312Q24.043-16.123 22.4512-17.2998Q20.8594-18.4766 18.9551-19.126Q17.0508-19.7754 14.9609-19.7754Q12.8711-19.7754 10.9717-19.126Q9.07227-18.4766 7.48535-17.2998Q5.89844-16.123 4.72168-14.5312Q3.54492-12.9395 2.90039-11.04Q2.25586-9.14062 2.25586-7.05078Q2.25586-4.9707 2.90527-3.06641Q3.55469-1.16211 4.72656 0.429688Q5.89844 2.02148 7.49023 3.19336Q9.08203 4.36523 10.9814 5.01465Q12.8809 5.66406 14.9707 5.66406ZM14.9707 3.84766Q13.1641 3.84766 11.5283 3.2959Q9.89258 2.74414 8.53516 1.74805Q7.17773 0.751953 6.17676-0.610352Q5.17578-1.97266 4.62891-3.6084Q4.08203-5.24414 4.08203-7.05078Q4.08203-8.86719 4.62891-10.5029Q5.17578-12.1387 6.17188-13.501Q7.16797-14.8633 8.52539-15.8594Q9.88281-16.8555 11.5186-17.4023Q13.1543-17.9492 14.9609-17.9492Q16.7773-17.9492 18.4131-17.4023Q20.0488-16.8555 21.4111-15.8594Q22.7734-14.8633 23.7695-13.501Q24.7656-12.1387 25.3174-10.5029Q25.8691-8.86719 25.8691-7.05078Q25.8789-5.24414 25.332-3.6084Q24.7852-1.97266 23.7842-0.610352Q22.7832 0.751953 21.4209 1.74805Q20.0586 2.74414 18.4229 3.2959Q16.7871 3.84766 14.9707 3.84766ZM9.19922-7.05078Q9.19922-6.66992 9.45801-6.4209Q9.7168-6.17188 10.1172-6.17188L14.0625-6.17188L14.0625-2.2168Q14.0625-1.81641 14.3115-1.55762Q14.5605-1.29883 14.9512-1.29883Q15.3516-1.29883 15.6104-1.55273Q15.8691-1.80664 15.8691-2.2168L15.8691-6.17188L19.8242-6.17188Q20.2246-6.17188 20.4785-6.4209Q20.7324-6.66992 20.7324-7.05078Q20.7324-7.46094 20.4785-7.71484Q20.2246-7.96875 19.8242-7.96875L15.8691-7.96875L15.8691-11.9141Q15.8691-12.3242 15.6104-12.583Q15.3516-12.8418 14.9512-12.8418Q14.5605-12.8418 14.3115-12.583Q14.0625-12.3242 14.0625-11.9141L14.0625-7.96875L10.1172-7.96875Q9.70703-7.96875 9.45312-7.71484Q9.19922-7.46094 9.19922-7.05078Z"/>
  </g>
  <text style="stroke:none;fill:black;font-family:sans-serif;font-size:13;font-weight:bold;" transform="matrix(1 0 0 1 263 1953)">Design Variations</text>
  <text style="stroke:none;fill:black;font-family:sans-serif;font-size:13;" transform="matrix(1 0 0 1 263 1971)">Symbols are supported in up to nine weights and three scales.</text>
  <text style="stroke:none;fill:black;font-family:sans-serif;font-size:13;" transform="matrix(1 0 0 1 263 1989)">For optimal layout with text and other symbols, vertically align</text>
  <text style="stroke:none;fill:black;font-family:sans-serif;font-size:13;" transform="matrix(1 0 0 1 263 2007)">symbols with the adjacent text.</text>
  <line style="fill:none;stroke:#00AEEF;stroke-width:0.5;opacity:1.0;" x1="776" x2="776" y1="1919" y2="1933"/>
  <g transform="matrix(1 0 0 1 776 1933)">
   <path d="M3.31055 0.15625Q3.70117 0.15625 3.91602-0.00976562Q4.13086-0.175781 4.26758-0.585938L5.52734-4.0332L11.2891-4.0332L12.5488-0.585938Q12.6855-0.175781 12.9004-0.00976562Q13.1152 0.15625 13.4961 0.15625Q13.8867 0.15625 14.1162-0.0585938Q14.3457-0.273438 14.3457-0.644531Q14.3457-0.869141 14.2383-1.17188L9.6582-13.3691Q9.48242-13.8184 9.17969-14.043Q8.87695-14.2676 8.4082-14.2676Q7.5-14.2676 7.17773-13.3789L2.59766-1.16211Q2.49023-0.859375 2.49023-0.634766Q2.49023-0.263672 2.70996-0.0537109Q2.92969 0.15625 3.31055 0.15625ZM6.00586-5.51758L8.37891-12.0898L8.42773-12.0898L10.8008-5.51758Z"/>
  </g>
  <line style="fill:none;stroke:#00AEEF;stroke-width:0.5;opacity:1.0;" x1="793.197" x2="793.197" y1="1919" y2="1933"/>
  <text style="stroke:none;fill:black;font-family:sans-serif;font-size:13;font-weight:bold;" transform="matrix(1 0 0 1 776 1953)">Margins</text>
  <text style="stroke:none;fill:black;font-family:sans-serif;font-size:13;" transform="matrix(1 0 0 1 776 1971)">Leading and trailing margins on the left and right side of each symbol</text>
  <text style="stroke:none;fill:black;font-family:sans-serif;font-size:13;" transform="matrix(1 0 0 1 776 1989)">can be adjusted by modifying the x-location of the margin guidelines.</text>
  <text style="stroke:none;fill:black;font-family:sans-serif;font-size:13;" transform="matrix(1 0 0 1 776 2007)">Modifications are automatically applied proportionally to all</text>
  <text style="stroke:none;fill:black;font-family:sans-serif;font-size:13;" transform="matrix(1 0 0 1 776 2025)">scales and weights.</text>
  <g transform="matrix(1 0 0 1 1289 1933)">
   <path d="M2.8418 1.86523L4.54102 3.57422Q5.18555 4.22852 5.90332 4.17969Q6.62109 4.13086 7.31445 3.35938L18.0078-8.42773L17.041-9.4043L6.42578 2.27539Q6.16211 2.57812 5.89355 2.61719Q5.625 2.65625 5.27344 2.30469L4.10156 1.14258Q3.75 0.791016 3.79395 0.522461Q3.83789 0.253906 4.14062-0.0195312L15.6152-10.8203L14.6387-11.7871L3.04688-0.898438Q2.30469-0.214844 2.25098 0.498047Q2.19727 1.21094 2.8418 1.86523ZM9.25781-16.3281Q8.94531-16.0254 8.90625-15.6348Q8.86719-15.2441 9.04297-14.9512Q9.21875-14.6777 9.55566-14.541Q9.89258-14.4043 10.3809-14.5215Q11.4746-14.7754 12.5977-14.7314Q13.7207-14.6875 14.7949-13.9844L14.209-12.5293Q13.9551-11.9043 14.0674-11.4404Q14.1797-10.9766 14.5801-10.5664L16.875-8.25195Q17.2363-7.88086 17.5781-7.82227Q17.9199-7.76367 18.3398-7.8418L19.4043-8.03711L20.0684-7.36328L20.0293-6.80664Q20-6.43555 20.1221-6.12305Q20.2441-5.81055 20.6055-5.44922L21.3672-4.70703Q21.7285-4.3457 22.1533-4.33105Q22.5781-4.31641 22.9297-4.66797L25.8398-7.58789Q26.1914-7.93945 26.1816-8.35449Q26.1719-8.76953 25.8105-9.13086L25.0391-9.89258Q24.6875-10.2539 24.3799-10.3857Q24.0723-10.5176 23.7109-10.4883L23.1348-10.4395L22.4902-11.0742L22.7344-12.1973Q22.832-12.6172 22.6953-12.9834Q22.5586-13.3496 22.1191-13.7891L19.9219-15.9766Q18.6719-17.2168 17.2607-17.8369Q15.8496-18.457 14.4189-18.4814Q12.9883-18.5059 11.665-17.959Q10.3418-17.4121 9.25781-16.3281ZM10.752-15.957Q11.6602-16.6211 12.7002-16.9043Q13.7402-17.1875 14.8047-17.085Q15.8691-16.9824 16.8701-16.5137Q17.8711-16.0449 18.7012-15.2051L21.1328-12.793Q21.3086-12.6172 21.3525-12.4512Q21.3965-12.2852 21.3379-12.0312L21.0156-10.5469L22.5195-9.0625L23.5059-9.12109Q23.6914-9.13086 23.7891-9.09668Q23.8867-9.0625 24.0332-8.91602L24.6094-8.33984L22.168-5.89844L21.5918-6.47461Q21.4453-6.62109 21.4062-6.71875Q21.3672-6.81641 21.377-7.01172L21.4453-7.98828L19.9512-9.47266L18.4277-9.21875Q18.1836-9.16992 18.042-9.2041Q17.9004-9.23828 17.7148-9.41406L15.7129-11.416Q15.5176-11.5918 15.4932-11.7529Q15.4688-11.9141 15.5859-12.1875L16.4648-14.2773Q15.293-15.3711 13.8281-15.791Q12.3633-16.2109 10.8398-15.7617Q10.7227-15.7324 10.6885-15.8057Q10.6543-15.8789 10.752-15.957Z"/>
  </g>
  <text style="stroke:none;fill:black;font-family:sans-serif;font-size:13;font-weight:bold;" transform="matrix(1 0 0 1 1289 1953)">Exporting</text>
  <text style="stroke:none;fill:black;font-family:sans-serif;font-size:13;" transform="matrix(1 0 0 1 1289 1971)">Symbols should be outlined when exporting to ensure the</text>
  <text style="stroke:none;fill:black;font-family:sans-serif;font-size:13;" transform="matrix(1 0 0 1 1289 1989)">design is preserved when submitting to Xcode.</text>
  <text id="template-version" style="stroke:none;fill:black;font-family:sans-serif;font-size:13;text-anchor:end;" transform="matrix(1 0 0 1 3036 1933)">Template v.3.0</text>
  <text style="stroke:none;fill:black;font-family:sans-serif;font-size:13;text-anchor:end;" transform="matrix(1 0 0 1 3036 1951)">Requires Xcode 13 or greater</text>
  <text id="descriptive-name" style="stroke:none;fill:black;font-family:sans-serif;font-size:13;text-anchor:end;" transform="matrix(1 0 0 1 3036 1969)">Generated from magnifyingglass.circle</text>
  <text style="stroke:none;fill:black;font-family:sans-serif;font-size:13;text-anchor:end;" transform="matrix(1 0 0 1 3036 1987)">Typeset at 100 points</text>
  <text style="stroke:none;fill:black;font-family:sans-serif;font-size:13;" transform="matrix(1 0 0 1 263 726)">Small</text>
  <text style="stroke:none;fill:black;font-family:sans-serif;font-size:13;" transform="matrix(1 0 0 1 263 1156)">Medium</text>
  <text style="stroke:none;fill:black;font-family:sans-serif;font-size:13;" transform="matrix(1 0 0 1 263 1586)">Large</text>
 </g>
 <g id="Guides">
  <g id="H-reference" style="fill:#27AAE1;stroke:none;" transform="matrix(1 0 0 1 339 696)">
   <path d="M0.993347 0L3.6377 0L29.3282-67.1326L30.0301-67.1326L30.0301-70.459L28.1227-70.459ZM11.6882-24.4797L46.9818-24.4797L46.2311-26.7288L12.4382-26.7288ZM55.1193 0L57.7637 0L30.6381-70.459L29.4327-70.459L29.4327-67.1326Z"/>
  </g>
  <line id="Baseline-S" style="fill:none;stroke:#27AAE1;opacity:1;stroke-width:0.5;" x1="263" x2="3036" y1="696" y2="696"/>
  <line id="Capline-S" style="fill:none;stroke:#27AAE1;opacity:1;stroke-width:0.5;" x1="263" x2="3036" y1="625.541" y2="625.541"/>
  <g id="H-reference" style="fill:#27AAE1;stroke:none;" transform="matrix(1 0 0 1 339 1126)">
   <path d="M0.993347 0L3.6377 0L29.3282-67.1326L30.0301-67.1326L30.0301-70.459L28.1227-70.459ZM11.6882-24.4797L46.9818-24.4797L46.2311-26.7288L12.4382-26.7288ZM55.1193 0L57.7637 0L30.6381-70.459L29.4327-70.459L29.4327-67.1326Z"/>
  </g>
  <line id="Baseline-M" style="fill:none;stroke:#27AAE1;opacity:1;stroke-width:0.5;" x1="263" x2="3036" y1="1126" y2="1126"/>
  <line id="Capline-M" style="fill:none;stroke:#27AAE1;opacity:1;stroke-width:0.5;" x1="263" x2="3036" y1="1055.54" y2="1055.54"/>
  <g id="H-reference" style="fill:#27AAE1;stroke:none;" transform="matrix(1 0 0 1 339 1556)">
   <path d="M0.993347 0L3.6377 0L29.3282-67.1326L30.0301-67.1326L30.0301-70.459L28.1227-70.459ZM11.6882-24.4797L46.9818-24.4797L46.2311-26.7288L12.4382-26.7288ZM55.1193 0L57.7637 0L30.6381-70.459L29.4327-70.459L29.4327-67.1326Z"/>
  </g>
  <line id="Baseline-L" style="fill:none;stroke:#27AAE1;opacity:1;stroke-width:0.5;" x1="263" x2="3036" y1="1556" y2="1556"/>
  <line id="Capline-L" style="fill:none;stroke:#27AAE1;opacity:1;stroke-width:0.5;" x1="263" x2="3036" y1="1485.54" y2="1485.54"/>
  <line id="left-margin-Ultralight-S" style="fill:none;stroke:#00AEEF;stroke-width:0.5;opacity:1.0;" x1="515.649" x2="515.649" y1="600.785" y2="720.121"/>
  <line id="right-margin-Ultralight-S" style="fill:none;stroke:#00AEEF;stroke-width:0.5;opacity:1.0;" x1="603.773" x2="603.773" y1="600.785" y2="720.121"/>
  <line id="left-margin-Thin-S" style="fill:none;stroke:#00AEEF;stroke-width:0.5;opacity:1.0;" x1="811.863" x2="811.863" y1="600.785" y2="720.121"/>
  <line id="right-margin-Thin-S" style="fill:none;stroke:#00AEEF;stroke-width:0.5;opacity:1.0;" x1="900.982" x2="900.982" y1="600.785" y2="720.121"/>
  <line id="left-margin-Light-S" style="fill:none;stroke:#00AEEF;stroke-width:0.5;opacity:1.0;" x1="1107.6" x2="1107.6" y1="600.785" y2="720.121"/>
  <line id="right-margin-Light-S" style="fill:none;stroke:#00AEEF;stroke-width:0.5;opacity:1.0;" x1="1198.66" x2="1198.66" y1="600.785" y2="720.121"/>
  <line id="left-margin-Regular-S" style="fill:none;stroke:#00AEEF;stroke-width:0.5;opacity:1.0;" x1="1403.58" x2="1403.58" y1="600.785" y2="720.121"/>
  <line id="right-margin-Regular-S" style="fill:none;stroke:#00AEEF;stroke-width:0.5;opacity:1.0;" x1="1496.11" x2="1496.11" y1="600.785" y2="720.121"/>
  <line id="left-margin-Medium-S" style="fill:none;stroke:#00AEEF;stroke-width:0.5;opacity:1.0;" x1="1699.83" x2="1699.83" y1="600.785" y2="720.121"/>
  <line id="right-margin-Medium-S" style="fill:none;stroke:#00AEEF;stroke-width:0.5;opacity:1.0;" x1="1793.28" x2="1793.28" y1="600.785" y2="720.121"/>
  <line id="left-margin-Semibold-S" style="fill:none;stroke:#00AEEF;stroke-width:0.5;opacity:1.0;" x1="1996.19" x2="1996.19" y1="600.785" y2="720.121"/>
  <line id="right-margin-Semibold-S" style="fill:none;stroke:#00AEEF;stroke-width:0.5;opacity:1.0;" x1="2090.35" x2="2090.35" y1="600.785" y2="720.121"/>
  <line id="left-margin-Bold-S" style="fill:none;stroke:#00AEEF;stroke-width:0.5;opacity:1.0;" x1="2292.43" x2="2292.43" y1="600.785" y2="720.121"/>
  <line id="right-margin-Bold-S" style="fill:none;stroke:#00AEEF;stroke-width:0.5;opacity:1.0;" x1="2387.52" x2="2387.52" y1="600.785" y2="720.121"/>
  <line id="left-margin-Heavy-S" style="fill:none;stroke:#00AEEF;stroke-width:0.5;opacity:1.0;" x1="2588.47" x2="2588.47" y1="600.785" y2="720.121"/>
  <line id="right-margin-Heavy-S" style="fill:none;stroke:#00AEEF;stroke-width:0.5;opacity:1.0;" x1="2684.91" x2="2684.91" y1="600.785" y2="720.121"/>
  <line id="left-margin-Black-S" style="fill:none;stroke:#00AEEF;stroke-width:0.5;opacity:1.0;" x1="2884.57" x2="2884.57" y1="600.785" y2="720.121"/>
  <line id="right-margin-Black-S" style="fill:none;stroke:#00AEEF;stroke-width:0.5;opacity:1.0;" x1="2982.23" x2="2982.23" y1="600.785" y2="720.121"/>
  <line id="left-margin-Ultralight-M" style="fill:none;stroke:#00AEEF;stroke-width:0.5;opacity:1.0;" x1="503.641" x2="503.641" y1="1030.79" y2="1150.12"/>
  <line id="right-margin-Ultralight-M" style="fill:none;stroke:#00AEEF;stroke-width:0.5;opacity:1.0;" x1="615.781" x2="615.781" y1="1030.79" y2="1150.12"/>
  <line id="left-margin-Thin-M" style="fill:none;stroke:#00AEEF;stroke-width:0.5;opacity:1.0;" x1="799.793" x2="799.793" y1="1030.79" y2="1150.12"/>
  <line id="right-margin-Thin-M" style="fill:none;stroke:#00AEEF;stroke-width:0.5;opacity:1.0;" x1="913.051" x2="913.051" y1="1030.79" y2="1150.12"/>
  <line id="left-margin-Light-M" style="fill:none;stroke:#00AEEF;stroke-width:0.5;opacity:1.0;" x1="1095.41" x2="1095.41" y1="1030.79" y2="1150.12"/>
  <line id="right-margin-Light-M" style="fill:none;stroke:#00AEEF;stroke-width:0.5;opacity:1.0;" x1="1210.85" x2="1210.85" y1="1030.79" y2="1150.12"/>
  <line id="left-margin-Regular-M" style="fill:none;stroke:#00AEEF;stroke-width:0.5;opacity:1.0;" x1="1391.3" x2="1391.3" y1="1030.79" y2="1150.12"/>
  <line id="right-margin-Regular-M" style="fill:none;stroke:#00AEEF;stroke-width:0.5;opacity:1.0;" x1="1508.39" x2="1508.39" y1="1030.79" y2="1150.12"/>
  <line id="left-margin-Medium-M" style="fill:none;stroke:#00AEEF;stroke-width:0.5;opacity:1.0;" x1="1687.37" x2="1687.37" y1="1030.79" y2="1150.12"/>
  <line id="right-margin-Medium-M" style="fill:none;stroke:#00AEEF;stroke-width:0.5;opacity:1.0;" x1="1805.74" x2="1805.74" y1="1030.79" y2="1150.12"/>
  <line id="left-margin-Semibold-M" style="fill:none;stroke:#00AEEF;stroke-width:0.5;opacity:1.0;" x1="1983.6" x2="1983.6" y1="1030.79" y2="1150.12"/>
  <line id="right-margin-Semibold-M" style="fill:none;stroke:#00AEEF;stroke-width:0.5;opacity:1.0;" x1="2102.94" x2="2102.94" y1="1030.79" y2="1150.12"/>
  <line id="left-margin-Bold-M" style="fill:none;stroke:#00AEEF;stroke-width:0.5;opacity:1.0;" x1="2279.66" x2="2279.66" y1="1030.79" y2="1150.12"/>
  <line id="right-margin-Bold-M" style="fill:none;stroke:#00AEEF;stroke-width:0.5;opacity:1.0;" x1="2400.29" x2="2400.29" y1="1030.79" y2="1150.12"/>
  <line id="left-margin-Heavy-M" style="fill:none;stroke:#00AEEF;stroke-width:0.5;opacity:1.0;" x1="2575.44" x2="2575.44" y1="1030.79" y2="1150.12"/>
  <line id="right-margin-Heavy-M" style="fill:none;stroke:#00AEEF;stroke-width:0.5;opacity:1.0;" x1="2697.94" x2="2697.94" y1="1030.79" y2="1150.12"/>
  <line id="left-margin-Black-M" style="fill:none;stroke:#00AEEF;stroke-width:0.5;opacity:1.0;" x1="2871.32" x2="2871.32" y1="1030.79" y2="1150.12"/>
  <line id="right-margin-Black-M" style="fill:none;stroke:#00AEEF;stroke-width:0.5;opacity:1.0;" x1="2995.48" x2="2995.48" y1="1030.79" y2="1150.12"/>
  <line id="left-margin-Ultralight-L" style="fill:none;stroke:#00AEEF;stroke-width:0.5;opacity:1.0;" x1="487.603" x2="487.603" y1="1460.79" y2="1580.12"/>
  <line id="right-margin-Ultralight-L" style="fill:none;stroke:#00AEEF;stroke-width:0.5;opacity:1.0;" x1="631.819" x2="631.819" y1="1460.79" y2="1580.12"/>
  <line id="left-margin-Thin-L" style="fill:none;stroke:#00AEEF;stroke-width:0.5;opacity:1.0;" x1="783.689" x2="783.689" y1="1460.79" y2="1580.12"/>
  <line id="right-margin-Thin-L" style="fill:none;stroke:#00AEEF;stroke-width:0.5;opacity:1.0;" x1="929.156" x2="929.156" y1="1460.79" y2="1580.12"/>
  <line id="left-margin-Light-L" style="fill:none;stroke:#00AEEF;stroke-width:0.5;opacity:1.0;" x1="1079.18" x2="1079.18" y1="1460.79" y2="1580.12"/>
  <line id="right-margin-Light-L" style="fill:none;stroke:#00AEEF;stroke-width:0.5;opacity:1.0;" x1="1227.09" x2="1227.09" y1="1460.79" y2="1580.12"/>
  <line id="left-margin-Regular-L" style="fill:none;stroke:#00AEEF;stroke-width:0.5;opacity:1.0;" x1="1374.97" x2="1374.97" y1="1460.79" y2="1580.12"/>
  <line id="right-margin-Regular-L" style="fill:none;stroke:#00AEEF;stroke-width:0.5;opacity:1.0;" x1="1524.72" x2="1524.72" y1="1460.79" y2="1580.12"/>
  <line id="left-margin-Medium-L" style="fill:none;stroke:#00AEEF;stroke-width:0.5;opacity:1.0;" x1="1670.87" x2="1670.87" y1="1460.79" y2="1580.12"/>
  <line id="right-margin-Medium-L" style="fill:none;stroke:#00AEEF;stroke-width:0.5;opacity:1.0;" x1="1822.24" x2="1822.24" y1="1460.79" y2="1580.12"/>
  <line id="left-margin-Semibold-L" style="fill:none;stroke:#00AEEF;stroke-width:0.5;opacity:1.0;" x1="1966.97" x2="1966.97" y1="1460.79" y2="1580.12"/>
  <line id="right-margin-Semibold-L" style="fill:none;stroke:#00AEEF;stroke-width:0.5;opacity:1.0;" x1="2119.57" x2="2119.57" y1="1460.79" y2="1580.12"/>
  <line id="left-margin-Bold-L" style="fill:none;stroke:#00AEEF;stroke-width:0.5;opacity:1.0;" x1="2262.87" x2="2262.87" y1="1460.79" y2="1580.12"/>
  <line id="right-margin-Bold-L" style="fill:none;stroke:#00AEEF;stroke-width:0.5;opacity:1.0;" x1="2417.09" x2="2417.09" y1="1460.79" y2="1580.12"/>
  <line id="left-margin-Heavy-L" style="fill:none;stroke:#00AEEF;stroke-width:0.5;opacity:1.0;" x1="2558.4" x2="2558.4" y1="1460.79" y2="1580.12"/>
  <line id="right-margin-Heavy-L" style="fill:none;stroke:#00AEEF;stroke-width:0.5;opacity:1.0;" x1="2714.98" x2="2714.98" y1="1460.79" y2="1580.12"/>
  <line id="left-margin-Black-L" style="fill:none;stroke:#00AEEF;stroke-width:0.5;opacity:1.0;" x1="2854.05" x2="2854.05" y1="1460.79" y2="1580.12"/>
  <line id="right-margin-Black-L" style="fill:none;stroke:#00AEEF;stroke-width:0.5;opacity:1.0;" x1="3012.75" x2="3012.75" y1="1460.79" y2="1580.12"/>
 </g>
 <g id="Symbols">
  <g id="Black-L" transform="matrix(1 0 0 1 2854.05 1556)">
   <path class="hierarchical-0:secondary SFSymbolsPreview4D4D4D" d="M79.3457 32.8613Q90.5762 32.8613 100.757 29.3945Q110.938 25.9277 119.458 19.6777Q127.979 13.4277 134.229 4.90723Q140.479-3.61328 143.945-13.7939Q147.412-23.9746 147.412-35.2051Q147.412-46.4355 143.945-56.6162Q140.479-66.7969 134.204-75.3174Q127.93-83.8379 119.434-90.1123Q110.938-96.3867 100.732-99.8291Q90.5273-103.271 79.2969-103.271Q68.1152-103.271 57.9102-99.8291Q47.7051-96.3867 39.209-90.1123Q30.7129-83.8379 24.4385-75.3174Q18.1641-66.7969 14.7217-56.6162Q11.2793-46.4355 11.2793-35.2051Q11.2793-23.9746 14.7217-13.7939Q18.1641-3.61328 24.4385 4.90723Q30.7129 13.4277 39.2334 19.6777Q47.7539 25.9277 57.9346 29.3945Q68.1152 32.8613 79.3457 32.8613ZM79.3457 12.4023Q71.4355 12.4023 64.2822 10.0098Q57.1289 7.61719 51.1963 3.24707Q45.2637-1.12305 40.8936-7.08008Q36.5234-13.0371 34.1309-20.166Q31.7383-27.2949 31.7383-35.2051Q31.7383-43.1152 34.1309-50.2686Q36.5234-57.4219 40.8936-63.3545Q45.2637-69.2871 51.1963-73.6572Q57.1289-78.0273 64.2578-80.4199Q71.3867-82.8125 79.2969-82.8125Q87.207-82.8125 94.3604-80.4199Q101.514-78.0273 107.471-73.6572Q113.428-69.2871 117.798-63.3545Q122.168-57.4219 124.561-50.2686Q126.953-43.1152 126.953-35.2051Q126.953-27.2949 124.561-20.166Q122.168-13.0371 117.798-7.08008Q113.428-1.12305 107.495 3.24707Q101.562 7.61719 94.4092 10.0098Q87.2559 12.4023 79.3457 12.4023Z"/>
   <path class="hierarchical-1:primary SFSymbolsPreview212121" d="M73.6816-14.7949Q79.1016-14.7949 83.8623-16.8457Q88.623-18.8965 92.2363-22.5098Q95.8496-26.123 97.9004-30.8838Q99.9512-35.6445 99.9512-41.0645Q99.9512-46.4844 97.9004-51.2451Q95.8496-56.0059 92.2363-59.6436Q88.623-63.2812 83.8623-65.332Q79.1016-67.3828 73.6816-67.3828Q68.2617-67.3828 63.501-65.332Q58.7402-63.2812 55.127-59.6436Q51.5137-56.0059 49.4385-51.2451Q47.3633-46.4844 47.3633-41.0645Q47.3633-35.6934 49.4385-30.9082Q51.5137-26.123 55.127-22.5098Q58.7402-18.8965 63.501-16.8457Q68.2617-14.7949 73.6816-14.7949ZM73.6816-26.8555Q69.7754-26.8555 66.5527-28.7842Q63.3301-30.7129 61.4014-33.9355Q59.4727-37.1582 59.4727-41.0645Q59.4727-44.9707 61.4014-48.1934Q63.3301-51.416 66.5527-53.3203Q69.7754-55.2246 73.6816-55.2246Q77.5879-55.2246 80.8105-53.3203Q84.0332-51.416 85.9375-48.2178Q87.8418-45.0195 87.8418-41.0645Q87.8418-37.1582 85.9375-33.9355Q84.0332-30.7129 80.8105-28.7842Q77.5879-26.8555 73.6816-26.8555ZM103.076-3.125Q106.543-3.125 108.838-5.46875Q111.133-7.8125 111.133-11.3281Q111.133-12.8906 110.571-14.3555Q110.01-15.8203 108.74-17.041L92.627-33.2031L80.8594-21.7285L97.0703-5.56641Q99.6094-3.125 103.076-3.125Z"/>
  </g>
  <g id="Heavy-L" transform="matrix(1 0 0 1 2558.4 1556)">
   <path class="hierarchical-0:secondary SFSymbolsPreview4D4D4D" d="M78.2715 31.7871Q89.3555 31.7871 99.3652 28.3691Q109.375 24.9512 117.749 18.7988Q126.123 12.6465 132.3 4.24805Q138.477-4.15039 141.895-14.1602Q145.312-24.1699 145.312-35.2051Q145.312-46.2402 141.895-56.2744Q138.477-66.3086 132.3-74.6826Q126.123-83.0566 117.749-89.2578Q109.375-95.459 99.3408-98.8525Q89.3066-102.246 78.2227-102.246Q67.2363-102.246 57.2021-98.8525Q47.168-95.459 38.7939-89.2578Q30.4199-83.0566 24.2432-74.6826Q18.0664-66.3086 14.6729-56.2744Q11.2793-46.2402 11.2793-35.2051Q11.2793-24.1699 14.6729-14.1602Q18.0664-4.15039 24.2432 4.24805Q30.4199 12.6465 38.8184 18.7988Q47.2168 24.9512 57.2266 28.3691Q67.2363 31.7871 78.2715 31.7871ZM78.2715 14.0137Q70.1172 14.0137 62.7197 11.5479Q55.3223 9.08203 49.1943 4.56543Q43.0664 0.0488281 38.5498-6.12793Q34.0332-12.3047 31.543-19.6777Q29.0527-27.0508 29.0527-35.2051Q29.0527-43.4082 31.543-50.8057Q34.0332-58.2031 38.5254-64.3311Q43.0176-70.459 49.1699-74.9756Q55.3223-79.4922 62.6953-81.9824Q70.0684-84.4727 78.2227-84.4727Q86.4258-84.4727 93.8232-81.9824Q101.221-79.4922 107.373-74.9756Q113.525-70.459 118.042-64.3311Q122.559-58.2031 125.049-50.8057Q127.539-43.4082 127.539-35.2051Q127.539-27.0508 125.049-19.6777Q122.559-12.3047 118.042-6.12793Q113.525 0.0488281 107.397 4.56543Q101.27 9.08203 93.8721 11.5479Q86.4746 14.0137 78.2715 14.0137Z"/>
   <path class="hierarchical-1:primary SFSymbolsPreview212121" d="M72.3145-15.2344Q77.7344-15.2344 82.4707-17.2852Q87.207-19.3359 90.8203-22.9248Q94.4336-26.5137 96.4844-31.2744Q98.5352-36.0352 98.5352-41.4062Q98.5352-46.8262 96.4844-51.5869Q94.4336-56.3477 90.8203-59.9609Q87.207-63.5742 82.4707-65.625Q77.7344-67.6758 72.3145-67.6758Q66.9434-67.6758 62.1826-65.625Q57.4219-63.5742 53.833-59.9365Q50.2441-56.2988 48.1689-51.5625Q46.0938-46.8262 46.0938-41.4062Q46.0938-36.084 48.1689-31.2988Q50.2441-26.5137 53.833-22.9248Q57.4219-19.3359 62.1826-17.2852Q66.9434-15.2344 72.3145-15.2344ZM72.3145-26.2207Q68.1641-26.2207 64.6973-28.2715Q61.2305-30.3223 59.1553-33.7891Q57.0801-37.2559 57.0801-41.4551Q57.0801-45.6055 59.1553-49.0723Q61.2305-52.5391 64.6973-54.5898Q68.1641-56.6406 72.3145-56.6406Q76.5137-56.6406 79.9561-54.5898Q83.3984-52.5391 85.4492-49.0967Q87.5-45.6543 87.5-41.4551Q87.5-37.2559 85.4492-33.7891Q83.3984-30.3223 79.9561-28.2715Q76.5137-26.2207 72.3145-26.2207ZM103.076-2.92969Q106.201-2.92969 108.252-5.05371Q110.303-7.17773 110.303-10.3027Q110.303-11.7676 109.766-13.0859Q109.229-14.4043 108.105-15.4785L91.0156-32.6172L80.4199-22.3633L97.5586-5.22461Q99.9023-2.92969 103.076-2.92969Z"/>
  </g>
  <g id="Bold-L" transform="matrix(1 0 0 1 2262.87 1556)">
   <path class="hierarchical-0:secondary SFSymbolsPreview4D4D4D" d="M77.0996 30.6152Q87.9395 30.6152 97.7783 27.2461Q107.617 23.877 115.869 17.8223Q124.121 11.7676 130.176 3.51562Q136.23-4.73633 139.6-14.5752Q142.969-24.4141 142.969-35.2539Q142.969-46.0938 139.6-55.9326Q136.23-65.7715 130.151-73.999Q124.072-82.2266 115.845-88.3057Q107.617-94.3848 97.7539-97.7295Q87.8906-101.074 77.0508-101.074Q66.2598-101.074 56.3965-97.7295Q46.5332-94.3848 38.3301-88.3057Q30.127-82.2266 24.0479-73.999Q17.9688-65.7715 14.624-55.9326Q11.2793-46.0938 11.2793-35.2539Q11.2793-24.4141 14.624-14.5752Q17.9688-4.73633 24.0479 3.51562Q30.127 11.7676 38.3545 17.8223Q46.582 23.877 56.4209 27.2461Q66.2598 30.6152 77.0996 30.6152ZM77.0996 15.8203Q68.6523 15.8203 60.9863 13.2568Q53.3203 10.6934 46.9482 6.00586Q40.5762 1.31836 35.8887-5.07812Q31.2012-11.4746 28.6377-19.1162Q26.0742-26.7578 26.0742-35.2539Q26.0742-43.75 28.6377-51.416Q31.2012-59.082 35.8887-65.4541Q40.5762-71.8262 46.9238-76.4893Q53.2715-81.1523 60.9375-83.7158Q68.6035-86.2793 77.0508-86.2793Q85.5469-86.2793 93.2129-83.7158Q100.879-81.1523 107.275-76.4893Q113.672-71.8262 118.335-65.4541Q122.998-59.082 125.586-51.416Q128.174-43.75 128.174-35.2539Q128.174-26.7578 125.61-19.1162Q123.047-11.4746 118.359-5.07812Q113.672 1.31836 107.3 6.00586Q100.928 10.6934 93.2617 13.2568Q85.5957 15.8203 77.0996 15.8203Z"/>
   <path class="hierarchical-1:primary SFSymbolsPreview212121" d="M70.752-15.7227Q76.1719-15.7227 80.9082-17.7734Q85.6445-19.8242 89.2334-23.4131Q92.8223-27.002 94.8486-31.7139Q96.875-36.4258 96.875-41.8457Q96.875-47.2168 94.8486-51.9531Q92.8223-56.6895 89.2334-60.3027Q85.6445-63.916 80.9082-65.9424Q76.1719-67.9688 70.752-67.9688Q65.3809-67.9688 60.6689-65.9424Q55.957-63.916 52.3438-60.3027Q48.7305-56.6895 46.6797-51.9531Q44.6289-47.2168 44.6289-41.8457Q44.6289-36.4746 46.6797-31.7383Q48.7305-27.002 52.3438-23.4131Q55.957-19.8242 60.6689-17.7734Q65.3809-15.7227 70.752-15.7227ZM70.8008-25.4883Q66.3086-25.4883 62.5732-27.71Q58.8379-29.9316 56.6162-33.6426Q54.3945-37.3535 54.3945-41.8457Q54.3945-46.3379 56.6162-50.0488Q58.8379-53.7598 62.5732-55.9814Q66.3086-58.2031 70.8008-58.2031Q75.293-58.2031 79.0039-55.9814Q82.7148-53.7598 84.9121-50.0732Q87.1094-46.3867 87.1094-41.8457Q87.1094-37.3535 84.9121-33.6426Q82.7148-29.9316 79.0039-27.71Q75.293-25.4883 70.8008-25.4883ZM103.076-2.7832Q105.811-2.7832 107.593-4.61426Q109.375-6.44531 109.375-9.22852Q109.375-10.498 108.862-11.6455Q108.35-12.793 107.373-13.7695L89.209-31.9824L79.834-23.0469L98.0957-4.88281Q100.146-2.7832 103.076-2.7832Z"/>
  </g>
  <g id="Semibold-L" transform="matrix(1 0 0 1 1966.97 1556)">
   <path class="hierarchical-0:secondary SFSymbolsPreview4D4D4D" d="M76.2695 29.7852Q86.9629 29.7852 96.6797 26.4648Q106.396 23.1445 114.551 17.1631Q122.705 11.1816 128.687 3.02734Q134.668-5.12695 137.988-14.8438Q141.309-24.5605 141.309-35.2539Q141.309-45.9473 137.988-55.6641Q134.668-65.3809 128.662-73.5107Q122.656-81.6406 114.526-87.6465Q106.396-93.6523 96.6553-96.9727Q86.9141-100.293 76.2207-100.293Q65.5273-100.293 55.8105-96.9727Q46.0938-93.6523 37.9883-87.6465Q29.8828-81.6406 23.877-73.5107Q17.8711-65.3809 14.5752-55.6641Q11.2793-45.9473 11.2793-35.2539Q11.2793-24.5605 14.5996-14.8438Q17.9199-5.12695 23.9014 3.02734Q29.8828 11.1816 38.0127 17.1631Q46.1426 23.1445 55.8594 26.4648Q65.5762 29.7852 76.2695 29.7852ZM76.2695 17.041Q67.627 17.041 59.7656 14.4043Q51.9043 11.7676 45.3857 6.98242Q38.8672 2.19727 34.0576-4.3457Q29.248-10.8887 26.6357-18.7256Q24.0234-26.5625 24.0234-35.2539Q24.0234-43.9453 26.6357-51.8066Q29.248-59.668 34.0332-66.1865Q38.8184-72.7051 45.3369-77.4902Q51.8555-82.2754 59.7168-84.9121Q67.5781-87.5488 76.2207-87.5488Q84.9609-87.5488 92.7979-84.9121Q100.635-82.2754 107.178-77.4902Q113.721-72.7051 118.506-66.1865Q123.291-59.668 125.928-51.8066Q128.564-43.9453 128.564-35.2539Q128.613-26.5625 126.001-18.7256Q123.389-10.8887 118.579-4.3457Q113.77 2.19727 107.227 6.98242Q100.684 11.7676 92.8467 14.4043Q85.0098 17.041 76.2695 17.041Z"/>
   <path class="hierarchical-1:primary SFSymbolsPreview212121" d="M69.7266-16.0645Q75.0977-16.0645 79.8096-18.0908Q84.5215-20.1172 88.1104-23.7061Q91.6992-27.2949 93.7256-32.0068Q95.752-36.7188 95.752-42.0898Q95.752-47.4609 93.7256-52.1973Q91.6992-56.9336 88.1104-60.5225Q84.5215-64.1113 79.8096-66.1377Q75.0977-68.1641 69.7266-68.1641Q64.3555-68.1641 59.6436-66.1377Q54.9316-64.1113 51.3428-60.498Q47.7539-56.8848 45.7031-52.1729Q43.6523-47.4609 43.6523-42.0898Q43.6523-36.7676 45.7031-32.0312Q47.7539-27.2949 51.3428-23.7061Q54.9316-20.1172 59.6436-18.0908Q64.3555-16.0645 69.7266-16.0645ZM69.7266-24.9512Q65.0391-24.9512 61.1328-27.2705Q57.2266-29.5898 54.9072-33.4961Q52.5879-37.4023 52.5879-42.1387Q52.5879-46.8262 54.9072-50.708Q57.2266-54.5898 61.1328-56.9336Q65.0391-59.2773 69.7266-59.2773Q74.4629-59.2773 78.3447-56.9336Q82.2266-54.5898 84.5459-50.7324Q86.8652-46.875 86.8652-42.1387Q86.8652-37.4023 84.5459-33.4961Q82.2266-29.5898 78.3447-27.2705Q74.4629-24.9512 69.7266-24.9512ZM103.076-2.63672Q105.518-2.63672 107.129-4.27246Q108.74-5.9082 108.74-8.44727Q108.74-9.57031 108.252-10.6201Q107.764-11.6699 106.885-12.5977L87.9883-31.543L79.4922-23.5352L98.4375-4.58984Q100.342-2.63672 103.076-2.63672Z"/>
  </g>
  <g id="Medium-L" transform="matrix(1 0 0 1 1670.87 1556)">
   <path class="hierarchical-0:secondary SFSymbolsPreview4D4D4D" d="M75.6836 29.1504Q86.2305 29.1504 95.8496 25.8545Q105.469 22.5586 113.55 16.626Q121.631 10.6934 127.563 2.63672Q133.496-5.41992 136.792-15.0635Q140.088-24.707 140.088-35.2539Q140.088-45.8496 136.792-55.4688Q133.496-65.0879 127.539-73.1445Q121.582-81.2012 113.525-87.1582Q105.469-93.1152 95.8252-96.3867Q86.1816-99.6582 75.6348-99.6582Q65.0391-99.6582 55.4199-96.3867Q45.8008-93.1152 37.7441-87.1582Q29.6875-81.2012 23.7549-73.1445Q17.8223-65.0879 14.5508-55.4688Q11.2793-45.8496 11.2793-35.2539Q11.2793-24.707 14.5508-15.0635Q17.8223-5.41992 23.7549 2.63672Q29.6875 10.6934 37.7686 16.626Q45.8496 22.5586 55.4688 25.8545Q65.0879 29.1504 75.6836 29.1504ZM75.6836 18.0176Q66.8457 18.0176 58.8379 15.332Q50.8301 12.6465 44.2139 7.76367Q37.5977 2.88086 32.6904-3.78418Q27.7832-10.4492 25.1221-18.4326Q22.4609-26.416 22.4609-35.2539Q22.4609-44.1406 25.1221-52.124Q27.7832-60.1074 32.666-66.748Q37.5488-73.3887 44.165-78.2715Q50.7812-83.1543 58.7891-85.8154Q66.7969-88.4766 75.6348-88.4766Q84.4727-88.4766 92.4805-85.8154Q100.488-83.1543 107.129-78.2715Q113.77-73.3887 118.652-66.748Q123.535-60.1074 126.221-52.124Q128.906-44.1406 128.906-35.2539Q128.955-26.416 126.294-18.4326Q123.633-10.4492 118.726-3.78418Q113.818 2.88086 107.178 7.76367Q100.537 12.6465 92.5293 15.332Q84.5215 18.0176 75.6836 18.0176Z"/>
   <path class="hierarchical-1:primary SFSymbolsPreview212121" d="M68.8477-16.3086Q74.2676-16.3086 78.9795-18.335Q83.6914-20.3613 87.2559-23.9502Q90.8203-27.5391 92.8711-32.2266Q94.9219-36.9141 94.9219-42.2852Q94.9219-47.7051 92.8711-52.417Q90.8203-57.1289 87.2559-60.7178Q83.6914-64.3066 78.9795-66.333Q74.2676-68.3594 68.8477-68.3594Q63.5254-68.3594 58.8379-66.333Q54.1504-64.3066 50.5371-60.6934Q46.9238-57.0801 44.8975-52.3682Q42.8711-47.6562 42.8711-42.2852Q42.8711-36.9629 44.8975-32.251Q46.9238-27.5391 50.5371-23.9502Q54.1504-20.3613 58.8379-18.335Q63.5254-16.3086 68.8477-16.3086ZM68.8965-24.5605Q64.0625-24.5605 60.0098-26.9775Q55.957-29.3945 53.54-33.4473Q51.123-37.5 51.123-42.334Q51.123-47.2168 53.54-51.2451Q55.957-55.2734 60.0098-57.666Q64.0625-60.0586 68.8965-60.0586Q73.7793-60.0586 77.8076-57.666Q81.8359-55.2734 84.2285-51.2451Q86.6211-47.2168 86.6211-42.334Q86.6211-37.5 84.2285-33.4473Q81.8359-29.3945 77.8076-26.9775Q73.7793-24.5605 68.8965-24.5605ZM103.027-2.53906Q105.273-2.53906 106.738-4.02832Q108.203-5.51758 108.203-7.86133Q108.203-8.93555 107.739-9.8877Q107.275-10.8398 106.494-11.6699L87.0117-31.2012L79.1504-23.877L98.6816-4.39453Q100.488-2.53906 103.027-2.53906Z"/>
  </g>
  <g id="Regular-L" transform="matrix(1 0 0 1 1374.97 1556)">
   <path class="hierarchical-0:secondary SFSymbolsPreview4D4D4D" d="M74.8535 28.3203Q85.3027 28.3203 94.7998 25.0732Q104.297 21.8262 112.256 15.9668Q120.215 10.1074 126.099 2.14844Q131.982-5.81055 135.229-15.332Q138.477-24.8535 138.477-35.2539Q138.477-45.7031 135.229-55.2002Q131.982-64.6973 126.099-72.6562Q120.215-80.6152 112.256-86.499Q104.297-92.3828 94.7754-95.6299Q85.2539-98.877 74.8047-98.877Q64.3555-98.877 54.8584-95.6299Q45.3613-92.3828 37.4268-86.499Q29.4922-80.6152 23.6084-72.6562Q17.7246-64.6973 14.502-55.2002Q11.2793-45.7031 11.2793-35.2539Q11.2793-24.8535 14.5264-15.332Q17.7734-5.81055 23.6328 2.14844Q29.4922 10.1074 37.4512 15.9668Q45.4102 21.8262 54.9072 25.0732Q64.4043 28.3203 74.8535 28.3203ZM74.8535 19.2383Q65.8203 19.2383 57.6416 16.4795Q49.4629 13.7207 42.6758 8.74023Q35.8887 3.75977 30.8838-3.05176Q25.8789-9.86328 23.1445-18.042Q20.4102-26.2207 20.4102-35.2539Q20.4102-44.3359 23.1445-52.5146Q25.8789-60.6934 30.8594-67.5049Q35.8398-74.3164 42.627-79.2969Q49.4141-84.2773 57.5928-87.0117Q65.7715-89.7461 74.8047-89.7461Q83.8867-89.7461 92.0654-87.0117Q100.244-84.2773 107.056-79.2969Q113.867-74.3164 118.848-67.5049Q123.828-60.6934 126.587-52.5146Q129.346-44.3359 129.346-35.2539Q129.395-26.2207 126.66-18.042Q123.926-9.86328 118.921-3.05176Q113.916 3.75977 107.104 8.74023Q100.293 13.7207 92.1143 16.4795Q83.9355 19.2383 74.8535 19.2383Z"/>
   <path class="hierarchical-1:primary SFSymbolsPreview212121" d="M67.8223-16.6504Q73.1934-16.6504 77.9053-18.6768Q82.6172-20.7031 86.1816-24.2676Q89.7461-27.832 91.7725-32.5195Q93.7988-37.207 93.7988-42.5781Q93.7988-47.9492 91.7725-52.6611Q89.7461-57.373 86.1816-60.9375Q82.6172-64.502 77.9053-66.5283Q73.1934-68.5547 67.8223-68.5547Q62.5-68.5547 57.8125-66.5283Q53.125-64.502 49.5361-60.9131Q45.9473-57.3242 43.9209-52.6123Q41.8945-47.9004 41.8945-42.5781Q41.8945-37.2559 43.9209-32.5439Q45.9473-27.832 49.5361-24.2676Q53.125-20.7031 57.8125-18.6768Q62.5-16.6504 67.8223-16.6504ZM67.8711-24.0723Q62.793-24.0723 58.5693-26.5869Q54.3457-29.1016 51.8311-33.3252Q49.3164-37.5488 49.3164-42.627Q49.3164-47.7051 51.8311-51.9043Q54.3457-56.1035 58.5693-58.6182Q62.793-61.1328 67.8711-61.1328Q72.9492-61.1328 77.1484-58.6182Q81.3477-56.1035 83.8623-51.9043Q86.377-47.7051 86.377-42.627Q86.377-37.5488 83.8623-33.3252Q81.3477-29.1016 77.1484-26.5869Q72.9492-24.0723 67.8711-24.0723ZM103.027-2.39258Q105.029-2.39258 106.299-3.71094Q107.568-5.0293 107.568-7.08008Q107.568-8.05664 107.129-8.91113Q106.689-9.76562 106.006-10.498L85.791-30.7617L78.8086-24.3652L99.0723-4.15039Q100.684-2.39258 103.027-2.39258Z"/>
  </g>
  <g id="Light-L" transform="matrix(1 0 0 1 1079.18 1556)">
   <path class="hierarchical-0:secondary SFSymbolsPreview4D4D4D" d="M73.9258 27.3926Q84.2285 27.3926 93.6035 24.1943Q102.979 20.9961 110.815 15.2344Q118.652 9.47266 124.438 1.63574Q130.225-6.20117 133.423-15.5762Q136.621-24.9512 136.621-35.2539Q136.621-45.5566 133.423-54.9316Q130.225-64.3066 124.438-72.1436Q118.652-79.9805 110.815-85.7666Q102.979-91.5527 93.6035-94.751Q84.2285-97.9492 73.877-97.9492Q63.5742-97.9492 54.2236-94.751Q44.873-91.5527 37.0361-85.7666Q29.1992-79.9805 23.4131-72.1436Q17.627-64.3066 14.4531-54.9316Q11.2793-45.5566 11.2793-35.2539Q11.2793-24.9512 14.4775-15.5762Q17.6758-6.20117 23.4375 1.63574Q29.1992 9.47266 37.0361 15.2344Q44.873 20.9961 54.248 24.1943Q63.623 27.3926 73.9258 27.3926ZM73.9258 20.5078Q64.6973 20.5078 56.3232 17.6758Q47.9492 14.8438 40.9912 9.74121Q34.0332 4.63867 28.9307-2.31934Q23.8281-9.27734 21.0205-17.6514Q18.2129-26.0254 18.2129-35.2539Q18.2129-44.5312 21.0205-52.8809Q23.8281-61.2305 28.9307-68.2129Q34.0332-75.1953 40.9912-80.2979Q47.9492-85.4004 56.2988-88.208Q64.6484-91.0156 73.877-91.0156Q83.1543-91.0156 91.5283-88.208Q99.9023-85.4004 106.86-80.2979Q113.818-75.1953 118.945-68.2129Q124.072-61.2305 126.88-52.8809Q129.688-44.5312 129.688-35.2539Q129.736-26.0254 126.929-17.6514Q124.121-9.27734 118.994-2.31934Q113.867 4.63867 106.909 9.74121Q99.9512 14.8438 91.5771 17.6758Q83.2031 20.5078 73.9258 20.5078Z"/>
   <path class="hierarchical-1:primary SFSymbolsPreview212121" d="M66.748-17.1387Q72.0215-17.1387 76.6846-19.1162Q81.3477-21.0938 84.8633-24.6094Q88.3789-28.125 90.3564-32.7393Q92.334-37.3535 92.334-42.6758Q92.334-47.9492 90.3564-52.6123Q88.3789-57.2754 84.8633-60.791Q81.3477-64.3066 76.6846-66.3086Q72.0215-68.3105 66.748-68.3105Q61.4746-68.3105 56.8604-66.3086Q52.2461-64.3066 48.7061-60.7666Q45.166-57.2266 43.1641-52.5879Q41.1621-47.9492 41.1621-42.6758Q41.1621-37.4023 43.1641-32.7637Q45.166-28.125 48.7061-24.6094Q52.2461-21.0938 56.8604-19.1162Q61.4746-17.1387 66.748-17.1387ZM66.7969-22.9492Q61.377-22.9492 56.8848-25.6348Q52.3926-28.3203 49.707-32.8125Q47.0215-37.3047 47.0215-42.7246Q47.0215-48.1934 49.707-52.6611Q52.3926-57.1289 56.8848-59.8145Q61.377-62.5 66.7969-62.5Q72.2656-62.5 76.7334-59.8145Q81.2012-57.1289 83.8623-52.6611Q86.5234-48.1934 86.5234-42.7246Q86.5234-37.3047 83.8623-32.8125Q81.2012-28.3203 76.7334-25.6348Q72.2656-22.9492 66.7969-22.9492ZM102.832-2.44141Q104.492-2.44141 105.493-3.51562Q106.494-4.58984 106.494-6.20117Q106.494-7.08008 106.128-7.73926Q105.762-8.39844 105.176-9.08203L84.6191-29.6875L79.0527-24.5117L99.5605-3.95508Q100.928-2.44141 102.832-2.44141Z"/>
  </g>
  <g id="Thin-L" transform="matrix(1 0 0 1 783.689 1556)">
   <path class="hierarchical-0:secondary SFSymbolsPreview4D4D4D" d="M72.7051 26.1719Q82.8613 26.1719 92.041 23.0469Q101.221 19.9219 108.911 14.2822Q116.602 8.64258 122.266 0.952148Q127.93-6.73828 131.055-15.9424Q134.18-25.1465 134.18-35.2539Q134.18-45.4102 131.055-54.5898Q127.93-63.7695 122.29-71.46Q116.65-79.1504 108.936-84.8145Q101.221-90.4785 92.0166-93.6035Q82.8125-96.7285 72.7051-96.7285Q62.5488-96.7285 53.3691-93.6035Q44.1895-90.4785 36.499-84.8145Q28.8086-79.1504 23.1689-71.46Q17.5293-63.7695 14.4043-54.5898Q11.2793-45.4102 11.2793-35.2539Q11.2793-25.1465 14.4043-15.9424Q17.5293-6.73828 23.1689 0.952148Q28.8086 8.64258 36.5234 14.2822Q44.2383 19.9219 53.418 23.0469Q62.5977 26.1719 72.7051 26.1719ZM72.7051 22.168Q63.2324 22.168 54.6143 19.2627Q45.9961 16.3574 38.8184 11.084Q31.6406 5.81055 26.3428-1.36719Q21.0449-8.54492 18.1641-17.1631Q15.2832-25.7812 15.2832-35.2539Q15.2832-44.7754 18.1641-53.3936Q21.0449-62.0117 26.3428-69.1895Q31.6406-76.3672 38.8184-81.6406Q45.9961-86.9141 54.5898-89.8193Q63.1836-92.7246 72.7051-92.7246Q82.2266-92.7246 90.8203-89.8193Q99.4141-86.9141 106.616-81.6406Q113.818-76.3672 119.092-69.1895Q124.365-62.0117 127.271-53.3936Q130.176-44.7754 130.176-35.2539Q130.176-25.7812 127.271-17.1631Q124.365-8.54492 119.092-1.36719Q113.818 5.81055 106.641 11.084Q99.4629 16.3574 90.8447 19.2627Q82.2266 22.168 72.7051 22.168Z"/>
   <path class="hierarchical-1:primary SFSymbolsPreview212121" d="M65.332-17.7246Q70.5566-17.7246 75.0977-19.6777Q79.6387-21.6309 83.1055-25.0732Q86.5723-28.5156 88.5254-33.0566Q90.4785-37.5977 90.4785-42.7734Q90.4785-47.998 88.5254-52.5635Q86.5723-57.1289 83.1055-60.5957Q79.6387-64.0625 75.0977-66.0156Q70.5566-67.9688 65.332-67.9688Q60.1562-67.9688 55.6152-66.0156Q51.0742-64.0625 47.6074-60.5957Q44.1406-57.1289 42.1875-52.5391Q40.2344-47.9492 40.2344-42.7734Q40.2344-37.5977 42.1875-33.0566Q44.1406-28.5156 47.6074-25.0732Q51.0742-21.6309 55.6152-19.6777Q60.1562-17.7246 65.332-17.7246ZM65.4297-21.4844Q59.5703-21.4844 54.7119-24.3896Q49.8535-27.2949 46.9238-32.1289Q43.9941-36.9629 43.9941-42.8711Q43.9941-48.7793 46.9238-53.6377Q49.8535-58.4961 54.7119-61.4014Q59.5703-64.3066 65.4297-64.3066Q71.3379-64.3066 76.1963-61.4014Q81.0547-58.4961 83.9111-53.6377Q86.7676-48.7793 86.7676-42.8711Q86.7676-36.9629 83.9111-32.1289Q81.0547-27.2949 76.1963-24.3896Q71.3379-21.4844 65.4297-21.4844ZM102.588-2.53906Q103.809-2.53906 104.492-3.24707Q105.176-3.95508 105.176-5.0293Q105.176-5.71289 104.883-6.17676Q104.59-6.64062 104.15-7.17773L83.1543-28.2227L79.3945-24.6582L100.293-3.66211Q101.318-2.53906 102.588-2.53906Z"/>
  </g>
  <g id="Ultralight-L" transform="matrix(1 0 0 1 487.603 1556)">
   <path class="hierarchical-0:secondary SFSymbolsPreview4D4D4D" d="M72.0703 25.5371Q82.1289 25.5371 91.2354 22.4609Q100.342 19.3848 107.935 13.7939Q115.527 8.20312 121.143 0.585938Q126.758-7.03125 129.858-16.1133Q132.959-25.1953 132.959-35.2539Q132.959-45.3125 129.858-54.4189Q126.758-63.5254 121.167-71.1182Q115.576-78.7109 107.959-84.3262Q100.342-89.9414 91.2354-93.0176Q82.1289-96.0938 72.0703-96.0938Q62.0605-96.0938 52.9541-93.0176Q43.8477-89.9414 36.2305-84.3262Q28.6133-78.7109 23.0225-71.1182Q17.4316-63.5254 14.3555-54.4189Q11.2793-45.3125 11.2793-35.2539Q11.2793-25.1953 14.3555-16.1133Q17.4316-7.03125 23.0225 0.585938Q28.6133 8.20312 36.2305 13.7939Q43.8477 19.3848 52.9541 22.4609Q62.0605 25.5371 72.0703 25.5371ZM72.0703 23.0469Q62.4512 23.0469 53.7109 20.0928Q44.9707 17.1387 37.6709 11.792Q30.3711 6.44531 25.0244-0.854492Q19.6777-8.1543 16.7236-16.8945Q13.7695-25.6348 13.7695-35.2539Q13.7695-44.9219 16.7236-53.6377Q19.6777-62.3535 25.0244-69.6533Q30.3711-76.9531 37.6953-82.3242Q45.0195-87.6953 53.7354-90.6494Q62.4512-93.6035 72.0703-93.6035Q81.7383-93.6035 90.4785-90.6494Q99.2188-87.6953 106.494-82.3242Q113.77-76.9531 119.141-69.6533Q124.512-62.3535 127.466-53.6377Q130.42-44.9219 130.42-35.2539Q130.371-25.6348 127.441-16.8945Q124.512-8.1543 119.141-0.854492Q113.77 6.44531 106.494 11.792Q99.2188 17.1387 90.4785 20.0928Q81.7383 23.0469 72.0703 23.0469Z"/>
   <path class="hierarchical-1:primary SFSymbolsPreview212121" d="M64.6484-18.0664Q69.7754-18.0664 74.292-19.9951Q78.8086-21.9238 82.2266-25.3418Q85.6445-28.7598 87.5732-33.2275Q89.502-37.6953 89.502-42.8711Q89.502-47.998 87.5732-52.5146Q85.6445-57.0312 82.2266-60.4736Q78.8086-63.916 74.292-65.8691Q69.7754-67.8223 64.6484-67.8223Q59.4727-67.8223 54.9805-65.8691Q50.4883-63.916 47.0459-60.4736Q43.6035-57.0312 41.6748-52.5146Q39.7461-47.998 39.7461-42.8711Q39.7461-37.6953 41.6748-33.2275Q43.6035-28.7598 47.0459-25.3418Q50.4883-21.9238 54.9805-19.9951Q59.4727-18.0664 64.6484-18.0664ZM64.7461-20.752Q58.6426-20.752 53.5889-23.7549Q48.5352-26.7578 45.4834-31.7871Q42.4316-36.8164 42.4316-42.9688Q42.4316-49.1211 45.4834-54.1504Q48.5352-59.1797 53.5889-62.207Q58.6426-65.2344 64.7461-65.2344Q70.8984-65.2344 75.9277-62.207Q80.957-59.1797 83.9355-54.1504Q86.9141-49.1211 86.9141-42.9688Q86.9141-36.8164 83.9355-31.7871Q80.957-26.7578 75.9277-23.7549Q70.8984-20.752 64.7461-20.752ZM102.49-2.58789Q103.467-2.58789 103.955-3.125Q104.443-3.66211 104.443-4.39453Q104.443-5.07812 104.199-5.39551Q103.955-5.71289 103.564-6.20117L82.373-27.4902L79.5898-24.7559L100.635-3.51562Q101.465-2.58789 102.49-2.58789Z"/>
  </g>
  <g id="Black-M" transform="matrix(1 0 0 1 2871.32 1126)">
   <path class="hierarchical-0:secondary SFSymbolsPreview4D4D4D" d="M62.0605 18.1152Q73.0957 18.1152 82.7637 13.9648Q92.4316 9.81445 99.7559 2.46582Q107.08-4.88281 111.255-14.5264Q115.43-24.1699 115.43-35.2051Q115.43-46.2402 111.255-55.8838Q107.08-65.5273 99.7559-72.876Q92.4316-80.2246 82.7637-84.375Q73.0957-88.5254 62.0605-88.5254Q51.0742-88.5254 41.4062-84.375Q31.7383-80.2246 24.3896-72.876Q17.041-65.5273 12.8906-55.8838Q8.74023-46.2402 8.74023-35.2051Q8.74023-24.1699 12.8906-14.5264Q17.041-4.88281 24.3896 2.46582Q31.7383 9.81445 41.4062 13.9648Q51.0742 18.1152 62.0605 18.1152ZM62.0605 0.732422Q54.6387 0.732422 48.1201-2.05078Q41.6016-4.83398 36.6455-9.76562Q31.6895-14.6973 28.9062-21.2158Q26.123-27.7344 26.123-35.2051Q26.123-42.6758 28.9062-49.1943Q31.6895-55.7129 36.6455-60.6445Q41.6016-65.5762 48.1201-68.3594Q54.6387-71.1426 62.0605-71.1426Q69.5312-71.1426 76.0498-68.3594Q82.5684-65.5762 87.5-60.6445Q92.4316-55.7129 95.2393-49.1943Q98.0469-42.6758 98.0469-35.2051Q98.0469-27.7344 95.2393-21.2158Q92.4316-14.6973 87.5-9.76562Q82.5684-4.83398 76.0498-2.05078Q69.5312 0.732422 62.0605 0.732422Z"/>
   <path class="hierarchical-1:primary SFSymbolsPreview212121" d="M57.959-19.1406Q63.5254-19.1406 68.1396-21.8994Q72.7539-24.6582 75.5127-29.2725Q78.2715-33.8867 78.2715-39.502Q78.2715-45.0684 75.5127-49.6826Q72.7539-54.2969 68.1396-57.0557Q63.5254-59.8145 57.959-59.8145Q52.3926-59.8145 47.7539-57.0557Q43.1152-54.2969 40.3564-49.6826Q37.5977-45.0684 37.5977-39.502Q37.5977-33.9355 40.3564-29.2969Q43.1152-24.6582 47.7539-21.8994Q52.3926-19.1406 57.959-19.1406ZM57.959-28.9551Q55.0293-28.9551 52.6367-30.3711Q50.2441-31.7871 48.8037-34.1553Q47.3633-36.5234 47.3633-39.502Q47.3633-42.4316 48.8037-44.7998Q50.2441-47.168 52.6367-48.584Q55.0293-50 57.959-50Q60.8398-50 63.2324-48.584Q65.625-47.168 67.0654-44.7998Q68.5059-42.4316 68.5059-39.502Q68.5059-36.5234 67.0654-34.1553Q65.625-31.7871 63.2324-30.3711Q60.8398-28.9551 57.959-28.9551ZM79.8828-10.498Q82.7148-10.498 84.6436-12.4268Q86.5723-14.3555 86.5723-17.2363Q86.5723-18.5059 86.1084-19.7266Q85.6445-20.9473 84.6191-21.9727L72.8027-33.7891L63.1836-24.2676L75.0488-12.4512Q77.0996-10.498 79.8828-10.498Z"/>
  </g>
  <g id="Heavy-M" transform="matrix(1 0 0 1 2575.44 1126)">
   <path class="hierarchical-0:secondary SFSymbolsPreview4D4D4D" d="M61.2305 17.2852Q72.0703 17.2852 81.5918 13.1836Q91.1133 9.08203 98.3154 1.85547Q105.518-5.37109 109.644-14.8682Q113.77-24.3652 113.77-35.2051Q113.77-46.0449 109.644-55.542Q105.518-65.0391 98.3154-72.29Q91.1133-79.541 81.5918-83.6182Q72.0703-87.6953 61.2305-87.6953Q50.4395-87.6953 40.918-83.6182Q31.3965-79.541 24.1699-72.29Q16.9434-65.0391 12.8418-55.542Q8.74023-46.0449 8.74023-35.2051Q8.74023-24.3652 12.8418-14.8682Q16.9434-5.37109 24.1699 1.85547Q31.3965 9.08203 40.918 13.1836Q50.4395 17.2852 61.2305 17.2852ZM61.2305 2.05078Q53.5156 2.05078 46.7529-0.854492Q39.9902-3.75977 34.8633-8.8623Q29.7363-13.9648 26.8555-20.7275Q23.9746-27.4902 23.9746-35.2051Q23.9746-42.9688 26.8555-49.7314Q29.7363-56.4941 34.8633-61.5967Q39.9902-66.6992 46.7529-69.5801Q53.5156-72.4609 61.2305-72.4609Q68.9453-72.4609 75.708-69.5801Q82.4707-66.6992 87.5977-61.5967Q92.7246-56.4941 95.6299-49.7314Q98.5352-42.9688 98.5352-35.2051Q98.5352-27.4902 95.6299-20.7275Q92.7246-13.9648 87.6221-8.8623Q82.5195-3.75977 75.7568-0.854492Q68.9941 2.05078 61.2305 2.05078Z"/>
   <path class="hierarchical-1:primary SFSymbolsPreview212121" d="M56.8359-19.4824Q62.4023-19.4824 67.0166-22.2412Q71.6309-25 74.3896-29.6143Q77.1484-34.2285 77.1484-39.8438Q77.1484-45.4102 74.3896-50.0244Q71.6309-54.6387 67.0166-57.3975Q62.4023-60.1562 56.8359-60.1562Q51.2695-60.1562 46.6309-57.3975Q41.9922-54.6387 39.2334-50.0244Q36.4746-45.4102 36.4746-39.8438Q36.4746-34.2773 39.2334-29.6387Q41.9922-25 46.6309-22.2412Q51.2695-19.4824 56.8359-19.4824ZM56.8359-28.5645Q53.7109-28.5645 51.1475-30.0781Q48.584-31.5918 47.0459-34.1309Q45.5078-36.6699 45.5078-39.8438Q45.5078-42.9688 47.0459-45.5078Q48.584-48.0469 51.1475-49.5605Q53.7109-51.0742 56.8359-51.0742Q59.9121-51.0742 62.4756-49.5605Q65.0391-48.0469 66.5771-45.5078Q68.1152-42.9688 68.1152-39.8438Q68.1152-36.6699 66.5771-34.1309Q65.0391-31.5918 62.4756-30.0781Q59.9121-28.5645 56.8359-28.5645ZM79.8828-10.3027Q82.4707-10.3027 84.2041-12.0605Q85.9375-13.8184 85.9375-16.4551Q85.9375-17.627 85.498-18.75Q85.0586-19.873 84.1309-20.752L71.4844-33.4473L62.6465-24.8535L75.3906-12.1582Q77.2949-10.3027 79.8828-10.3027Z"/>
  </g>
  <g id="Bold-M" transform="matrix(1 0 0 1 2279.66 1126)">
   <path class="hierarchical-0:secondary SFSymbolsPreview4D4D4D" d="M60.3027 16.3574Q70.9473 16.3574 80.2734 12.3291Q89.5996 8.30078 96.7041 1.17188Q103.809-5.95703 107.861-15.2832Q111.914-24.6094 111.914-35.2539Q111.914-45.8496 107.861-55.1758Q103.809-64.502 96.7041-71.6309Q89.5996-78.7598 80.249-82.7881Q70.8984-86.8164 60.3027-86.8164Q49.707-86.8164 40.3564-82.7881Q31.0059-78.7598 23.9014-71.6309Q16.7969-64.502 12.7686-55.1758Q8.74023-45.8496 8.74023-35.2539Q8.74023-24.6094 12.7686-15.2832Q16.7969-5.95703 23.9258 1.17188Q31.0547 8.30078 40.3809 12.3291Q49.707 16.3574 60.3027 16.3574ZM60.3027 3.51562Q52.2949 3.51562 45.2637 0.488281Q38.2324-2.53906 32.9102-7.83691Q27.5879-13.1348 24.6094-20.166Q21.6309-27.1973 21.6309-35.2539Q21.6309-43.3105 24.6094-50.3174Q27.5879-57.3242 32.9102-62.6465Q38.2324-67.9688 45.2393-70.9717Q52.2461-73.9746 60.3027-73.9746Q68.3594-73.9746 75.3662-70.9717Q82.373-67.9688 87.6953-62.6465Q93.0176-57.3242 96.0449-50.3174Q99.0723-43.3105 99.0723-35.2539Q99.0723-27.1973 96.0693-20.166Q93.0664-13.1348 87.7441-7.83691Q82.4219-2.53906 75.3906 0.488281Q68.3594 3.51562 60.3027 3.51562Z"/>
   <path class="hierarchical-1:primary SFSymbolsPreview212121" d="M55.6152-19.873Q61.1816-19.873 65.7959-22.6318Q70.4102-25.3906 73.1689-29.9805Q75.9277-34.5703 75.9277-40.1855Q75.9277-45.8008 73.1689-50.415Q70.4102-55.0293 65.7959-57.7637Q61.1816-60.498 55.6152-60.498Q50.0488-60.498 45.4102-57.7393Q40.7715-54.9805 38.0127-50.3662Q35.2539-45.752 35.2539-40.1855Q35.2539-34.6191 38.0127-30.0049Q40.7715-25.3906 45.4102-22.6318Q50.0488-19.873 55.6152-19.873ZM55.6152-28.0762Q52.2949-28.0762 49.5361-29.7363Q46.7773-31.3965 45.1172-34.1309Q43.457-36.8652 43.457-40.1855Q43.457-43.5547 45.1172-46.2891Q46.7773-49.0234 49.5361-50.6592Q52.2949-52.2949 55.6152-52.2949Q58.9355-52.2949 61.6699-50.6592Q64.4043-49.0234 66.04-46.2891Q67.6758-43.5547 67.6758-40.1855Q67.6758-36.8652 66.04-34.1309Q64.4043-31.3965 61.6699-29.7363Q58.9355-28.0762 55.6152-28.0762ZM79.9316-10.1562Q82.2266-10.1562 83.7646-11.6943Q85.3027-13.2324 85.3027-15.5762Q85.3027-16.6504 84.8633-17.6514Q84.4238-18.6523 83.6426-19.4336L70.0195-33.1055L62.1094-25.5371L75.7812-11.8652Q77.5391-10.1562 79.9316-10.1562Z"/>
  </g>
  <g id="Semibold-M" transform="matrix(1 0 0 1 1983.6 1126)">
   <path class="hierarchical-0:secondary SFSymbolsPreview4D4D4D" d="M59.668 15.6738Q70.1172 15.6738 79.3457 11.6943Q88.5742 7.71484 95.6055 0.683594Q102.637-6.34766 106.616-15.5518Q110.596-24.7559 110.596-35.2539Q110.596-45.7031 106.616-54.9072Q102.637-64.1113 95.6055-71.1426Q88.5742-78.1738 79.3457-82.1777Q70.1172-86.1816 59.6191-86.1816Q49.1699-86.1816 39.9658-82.1777Q30.7617-78.1738 23.7305-71.1426Q16.6992-64.1113 12.7197-54.9072Q8.74023-45.7031 8.74023-35.2539Q8.74023-24.7559 12.7197-15.5518Q16.6992-6.34766 23.7305 0.683594Q30.7617 7.71484 39.9902 11.6943Q49.2188 15.6738 59.668 15.6738ZM59.668 4.49219Q51.416 4.49219 44.2139 1.41602Q37.0117-1.66016 31.543-7.10449Q26.0742-12.5488 23.0225-19.751Q19.9707-26.9531 19.9707-35.2539Q19.9707-43.5059 23.0225-50.708Q26.0742-57.9102 31.5186-63.3789Q36.9629-68.8477 44.165-71.8994Q51.3672-74.9512 59.6191-74.9512Q67.9199-74.9512 75.1221-71.8994Q82.3242-68.8477 87.7686-63.3789Q93.2129-57.9102 96.3135-50.708Q99.4141-43.5059 99.4141-35.2539Q99.4141-26.9531 96.3379-19.751Q93.2617-12.5488 87.8174-7.10449Q82.373-1.66016 75.1465 1.41602Q67.9199 4.49219 59.668 4.49219Z"/>
   <path class="hierarchical-1:primary SFSymbolsPreview212121" d="M54.7363-20.1172Q60.3516-20.1172 64.9414-22.876Q69.5312-25.6348 72.29-30.2246Q75.0488-34.8145 75.0488-40.4297Q75.0488-46.0449 72.29-50.6592Q69.5312-55.2734 64.9414-58.0078Q60.3516-60.7422 54.7363-60.7422Q49.1699-60.7422 44.5557-57.9834Q39.9414-55.2246 37.1826-50.6104Q34.4238-45.9961 34.4238-40.4297Q34.4238-34.8633 37.1826-30.249Q39.9414-25.6348 44.5557-22.876Q49.1699-20.1172 54.7363-20.1172ZM54.7363-27.7344Q51.2695-27.7344 48.3887-29.4678Q45.5078-31.2012 43.7744-34.082Q42.041-36.9629 42.041-40.4297Q42.041-43.9453 43.7744-46.8018Q45.5078-49.6582 48.3887-51.3672Q51.2695-53.0762 54.7363-53.0762Q58.252-53.0762 61.1084-51.3672Q63.9648-49.6582 65.6738-46.8018Q67.3828-43.9453 67.3828-40.4297Q67.3828-36.9629 65.6738-34.082Q63.9648-31.2012 61.1084-29.4678Q58.252-27.7344 54.7363-27.7344ZM79.9805-10.0098Q82.0801-10.0098 83.4473-11.4014Q84.8145-12.793 84.8145-14.9902Q84.8145-15.918 84.3994-16.8457Q83.9844-17.7734 83.3008-18.5059L68.9941-32.8613L61.7188-25.9766L76.0742-11.6211Q77.6855-10.0098 79.9805-10.0098Z"/>
  </g>
  <g id="Medium-M" transform="matrix(1 0 0 1 1687.37 1126)">
   <path class="hierarchical-0:secondary SFSymbolsPreview4D4D4D" d="M59.1797 15.1855Q69.5312 15.1855 78.6621 11.2305Q87.793 7.27539 94.751 0.317383Q101.709-6.64062 105.664-15.7715Q109.619-24.9023 109.619-35.2539Q109.619-45.6055 105.664-54.7363Q101.709-63.8672 94.751-70.8252Q87.793-77.7832 78.6377-81.7383Q69.4824-85.6934 59.1309-85.6934Q48.7793-85.6934 39.6484-81.7383Q30.5176-77.7832 23.584-70.8252Q16.6504-63.8672 12.6953-54.7363Q8.74023-45.6055 8.74023-35.2539Q8.74023-24.9023 12.6953-15.7715Q16.6504-6.64062 23.6084 0.317383Q30.5664 7.27539 39.6973 11.2305Q48.8281 15.1855 59.1797 15.1855ZM59.1797 5.27344Q50.7324 5.27344 43.4082 2.12402Q36.084-1.02539 30.5176-6.5918Q24.9512-12.1582 21.8262-19.4824Q18.7012-26.8066 18.7012-35.2539Q18.7012-43.7012 21.8262-51.0254Q24.9512-58.3496 30.4932-63.916Q36.0352-69.4824 43.3838-72.6074Q50.7324-75.7324 59.1309-75.7324Q67.5781-75.7324 74.9023-72.6074Q82.2266-69.4824 87.8174-63.916Q93.4082-58.3496 96.5576-51.0254Q99.707-43.7012 99.707-35.2539Q99.707-26.8066 96.582-19.4824Q93.457-12.1582 87.8906-6.5918Q82.3242-1.02539 74.9756 2.12402Q67.627 5.27344 59.1797 5.27344Z"/>
   <path class="hierarchical-1:primary SFSymbolsPreview212121" d="M54.0527-20.3125Q59.668-20.3125 64.2578-23.0713Q68.8477-25.8301 71.6064-30.4199Q74.3652-35.0098 74.3652-40.625Q74.3652-46.2402 71.6064-50.8545Q68.8477-55.4688 64.2578-58.2031Q59.668-60.9375 54.0527-60.9375Q48.4863-60.9375 43.8721-58.1787Q39.2578-55.4199 36.499-50.8057Q33.7402-46.1914 33.7402-40.625Q33.7402-35.0586 36.499-30.4443Q39.2578-25.8301 43.8721-23.0713Q48.4863-20.3125 54.0527-20.3125ZM54.0527-27.4902Q50.4883-27.4902 47.4854-29.2969Q44.4824-31.1035 42.7246-34.082Q40.9668-37.0605 40.9668-40.625Q40.9668-44.2383 42.7246-47.2168Q44.4824-50.1953 47.4854-51.9531Q50.4883-53.7109 54.0527-53.7109Q57.666-53.7109 60.6445-51.9531Q63.623-50.1953 65.3809-47.2168Q67.1387-44.2383 67.1387-40.625Q67.1387-37.0605 65.3809-34.082Q63.623-31.1035 60.6445-29.2969Q57.666-27.4902 54.0527-27.4902ZM79.9316-9.91211Q81.8848-9.91211 83.1543-11.1816Q84.4238-12.4512 84.4238-14.502Q84.4238-15.4297 84.0332-16.2842Q83.6426-17.1387 82.959-17.8223L68.1641-32.666L61.377-26.3184L76.2207-11.4258Q77.7832-9.91211 79.9316-9.91211Z"/>
  </g>
  <g id="Regular-M" transform="matrix(1 0 0 1 1391.3 1126)">
   <path class="hierarchical-0:secondary SFSymbolsPreview4D4D4D" d="M58.5449 14.5508Q68.75 14.5508 77.7588 10.6445Q86.7676 6.73828 93.6523-0.146484Q100.537-7.03125 104.443-16.04Q108.35-25.0488 108.35-35.2539Q108.35-45.459 104.443-54.4678Q100.537-63.4766 93.6523-70.3613Q86.7676-77.2461 77.7344-81.1523Q68.7012-85.0586 58.4961-85.0586Q48.291-85.0586 39.2822-81.1523Q30.2734-77.2461 23.4131-70.3613Q16.5527-63.4766 12.6465-54.4678Q8.74023-45.459 8.74023-35.2539Q8.74023-25.0488 12.6465-16.04Q16.5527-7.03125 23.4375-0.146484Q30.3223 6.73828 39.3311 10.6445Q48.3398 14.5508 58.5449 14.5508ZM58.5449 6.25Q49.9023 6.25 42.3828 3.02734Q34.8633-0.195312 29.1748-5.88379Q23.4863-11.5723 20.2881-19.0918Q17.0898-26.6113 17.0898-35.2539Q17.0898-43.8965 20.2881-51.416Q23.4863-58.9355 29.1504-64.6484Q34.8145-70.3613 42.334-73.5596Q49.8535-76.7578 58.4961-76.7578Q67.1387-76.7578 74.6582-73.5596Q82.1777-70.3613 87.8906-64.6484Q93.6035-58.9355 96.8262-51.416Q100.049-43.8965 100.049-35.2539Q100.049-26.6113 96.8506-19.0918Q93.6523-11.5723 87.9639-5.88379Q82.2754-0.195312 74.7314 3.02734Q67.1875 6.25 58.5449 6.25Z"/>
   <path class="hierarchical-1:primary SFSymbolsPreview212121" d="M53.2227-20.5566Q58.8379-20.5566 63.4277-23.3154Q68.0176-26.0742 70.7764-30.6641Q73.5352-35.2539 73.5352-40.8691Q73.5352-46.4844 70.7764-51.0986Q68.0176-55.7129 63.4277-58.4473Q58.8379-61.1816 53.2227-61.1816Q47.6562-61.1816 43.042-58.4229Q38.4277-55.6641 35.6689-51.0498Q32.9102-46.4355 32.9102-40.8691Q32.9102-35.3027 35.6689-30.6885Q38.4277-26.0742 43.042-23.3154Q47.6562-20.5566 53.2227-20.5566ZM53.2227-27.1973Q49.5117-27.1973 46.3867-29.0771Q43.2617-30.957 41.4062-34.0576Q39.5508-37.1582 39.5508-40.8691Q39.5508-44.6289 41.4062-47.7295Q43.2617-50.8301 46.3867-52.6855Q49.5117-54.541 53.2227-54.541Q56.9824-54.541 60.083-52.6855Q63.1836-50.8301 65.0146-47.7295Q66.8457-44.6289 66.8457-40.8691Q66.8457-37.1582 65.0146-34.0576Q63.1836-30.957 60.083-29.0771Q56.9824-27.1973 53.2227-27.1973ZM79.9805-9.76562Q81.7383-9.76562 82.8613-10.9131Q83.9844-12.0605 83.9844-13.916Q83.9844-14.7461 83.5938-15.5273Q83.2031-16.3086 82.6172-16.8945L67.1875-32.4219L60.9863-26.7578L76.5137-11.2305Q77.9297-9.76562 79.9805-9.76562Z"/>
  </g>
  <g id="Light-M" transform="matrix(1 0 0 1 1095.41 1126)">
   <path class="hierarchical-0:secondary SFSymbolsPreview4D4D4D" d="M57.7148 13.7207Q67.7734 13.7207 76.6357 9.8877Q85.498 6.05469 92.2607-0.708008Q99.0234-7.4707 102.856-16.333Q106.689-25.1953 106.689-35.2539Q106.689-45.3125 102.856-54.1748Q99.0234-63.0371 92.2607-69.7998Q85.498-76.5625 76.6113-80.3955Q67.7246-84.2285 57.666-84.2285Q47.6074-84.2285 38.7451-80.3955Q29.8828-76.5625 23.1445-69.7998Q16.4062-63.0371 12.5732-54.1748Q8.74023-45.3125 8.74023-35.2539Q8.74023-25.1953 12.5732-16.333Q16.4062-7.4707 23.1689-0.708008Q29.9316 6.05469 38.7939 9.8877Q47.6562 13.7207 57.7148 13.7207ZM57.7148 7.37305Q48.877 7.37305 41.1377 4.07715Q33.3984 0.78125 27.5391-5.07812Q21.6797-10.9375 18.3838-18.6768Q15.0879-26.416 15.0879-35.2539Q15.0879-44.0918 18.3838-51.8311Q21.6797-59.5703 27.5391-65.4541Q33.3984-71.3379 41.1133-74.6338Q48.8281-77.9297 57.666-77.9297Q66.5527-77.9297 74.2676-74.6338Q81.9824-71.3379 87.8662-65.4541Q93.75-59.5703 97.0703-51.8311Q100.391-44.0918 100.391-35.2539Q100.391-26.416 97.0703-18.6768Q93.75-10.9375 87.915-5.07812Q82.0801 0.78125 74.3408 4.07715Q66.6016 7.37305 57.7148 7.37305Z"/>
   <path class="hierarchical-1:primary SFSymbolsPreview212121" d="M52.2461-20.9961Q57.8125-20.9961 62.3291-23.7061Q66.8457-26.416 69.5557-30.9326Q72.2656-35.4492 72.2656-40.9668Q72.2656-46.4844 69.5557-51.0254Q66.8457-55.5664 62.3291-58.2764Q57.8125-60.9863 52.2461-60.9863Q46.7773-60.9863 42.2363-58.252Q37.6953-55.5176 34.9854-50.9766Q32.2754-46.4355 32.2754-40.9668Q32.2754-35.4492 34.9854-30.9326Q37.6953-26.416 42.2363-23.7061Q46.7773-20.9961 52.2461-20.9961ZM52.2949-26.2207Q48.291-26.2207 44.8975-28.2227Q41.5039-30.2246 39.502-33.5938Q37.5-36.9629 37.5-40.9668Q37.5-45.0684 39.502-48.4131Q41.5039-51.7578 44.8975-53.7598Q48.291-55.7617 52.2949-55.7617Q56.3477-55.7617 59.7168-53.7598Q63.0859-51.7578 65.0635-48.4131Q67.041-45.0684 67.041-40.9668Q67.041-36.9629 65.0635-33.5938Q63.0859-30.2246 59.7168-28.2227Q56.3477-26.2207 52.2949-26.2207ZM79.834-9.81445Q81.25-9.81445 82.1533-10.7422Q83.0566-11.6699 83.0566-13.1348Q83.0566-13.8184 82.7393-14.4531Q82.4219-15.0879 81.8848-15.5762L66.1621-31.4453L61.2305-26.8555L77.002-11.0352Q78.1738-9.81445 79.834-9.81445Z"/>
  </g>
  <g id="Thin-M" transform="matrix(1 0 0 1 799.793 1126)">
   <path class="hierarchical-0:secondary SFSymbolsPreview4D4D4D" d="M56.5918 12.5977Q66.5039 12.5977 75.1709 8.88672Q83.8379 5.17578 90.4297-1.44043Q97.0215-8.05664 100.781-16.7236Q104.541-25.3906 104.541-35.2539Q104.541-45.1172 100.781-53.7842Q97.0215-62.4512 90.4297-69.0674Q83.8379-75.6836 75.1709-79.3945Q66.5039-83.1055 56.5918-83.1055Q46.7285-83.1055 38.0615-79.3945Q29.3945-75.6836 22.8271-69.0674Q16.2598-62.4512 12.5-53.7842Q8.74023-45.1172 8.74023-35.2539Q8.74023-25.3906 12.4756-16.7236Q16.2109-8.05664 22.8027-1.44043Q29.3945 5.17578 38.0859 8.88672Q46.7773 12.5977 56.5918 12.5977ZM56.5918 8.88672Q47.4609 8.88672 39.4775 5.44434Q31.4941 2.00195 25.415-4.05273Q19.3359-10.1074 15.918-18.1152Q12.5-26.123 12.5-35.2539Q12.5-44.3848 15.918-52.3926Q19.3359-60.4004 25.415-66.4795Q31.4941-72.5586 39.4775-76.001Q47.4609-79.4434 56.5918-79.4434Q65.7715-79.4434 73.7549-76.001Q81.7383-72.5586 87.8174-66.4795Q93.8965-60.4004 97.3389-52.3926Q100.781-44.3848 100.781-35.2539Q100.781-26.123 97.3633-18.1152Q93.9453-10.1074 87.8662-4.05273Q81.7871 2.00195 73.7793 5.44434Q65.7715 8.88672 56.5918 8.88672Z"/>
   <path class="hierarchical-1:primary SFSymbolsPreview212121" d="M50.9766-21.5332Q56.3965-21.5332 60.8154-24.1699Q65.2344-26.8066 67.8955-31.25Q70.5566-35.6934 70.5566-41.0645Q70.5566-46.4355 67.8955-50.9033Q65.2344-55.3711 60.8154-58.0322Q56.3965-60.6934 50.9766-60.6934Q45.5566-60.6934 41.1377-58.0322Q36.7188-55.3711 34.0576-50.9033Q31.3965-46.4355 31.3965-41.0645Q31.3965-35.6934 34.0576-31.25Q36.7188-26.8066 41.1377-24.1699Q45.5566-21.5332 50.9766-21.5332ZM51.0254-24.9023Q46.582-24.9023 42.8711-27.0996Q39.1602-29.2969 36.9629-32.9834Q34.7656-36.6699 34.7656-41.1133Q34.7656-45.6055 36.9629-49.292Q39.1602-52.9785 42.8711-55.1758Q46.582-57.373 51.0254-57.373Q55.5176-57.373 59.1797-55.1758Q62.8418-52.9785 65.0391-49.292Q67.2363-45.6055 67.2363-41.1133Q67.2363-36.6699 65.0391-32.9834Q62.8418-29.2969 59.1797-27.0996Q55.5176-24.9023 51.0254-24.9023ZM79.5898-9.86328Q80.6152-9.86328 81.2012-10.498Q81.7871-11.1328 81.7871-12.1094Q81.7871-12.6465 81.543-13.0615Q81.2988-13.4766 80.9082-13.8672L64.7949-30.127L61.4746-27.0508L77.5879-10.791Q78.4668-9.86328 79.5898-9.86328Z"/>
  </g>
  <g id="Ultralight-M" transform="matrix(1 0 0 1 503.641 1126)">
   <path class="hierarchical-0:secondary SFSymbolsPreview4D4D4D" d="M56.0547 12.0605Q65.8203 12.0605 74.3896 8.37402Q82.959 4.6875 89.4775-1.83105Q95.9961-8.34961 99.707-16.9189Q103.418-25.4883 103.418-35.2539Q103.418-45.0195 99.707-53.5889Q95.9961-62.1582 89.4775-68.6768Q82.959-75.1953 74.3896-78.8818Q65.8203-82.5684 56.0547-82.5684Q46.2891-82.5684 37.7197-78.8818Q29.1504-75.1953 22.6562-68.6768Q16.1621-62.1582 12.4512-53.5889Q8.74023-45.0195 8.74023-35.2539Q8.74023-25.4883 12.4268-16.9189Q16.1133-8.34961 22.6318-1.83105Q29.1504 4.6875 37.7197 8.37402Q46.2891 12.0605 56.0547 12.0605ZM56.0547 9.66797Q46.7773 9.66797 38.6475 6.17676Q30.5176 2.68555 24.3164-3.49121Q18.1152-9.66797 14.624-17.8223Q11.1328-25.9766 11.1328-35.2539Q11.1328-44.5312 14.624-52.6855Q18.1152-60.8398 24.3164-67.041Q30.5176-73.2422 38.6475-76.7334Q46.7773-80.2246 56.0547-80.2246Q65.3809-80.2246 73.5107-76.7334Q81.6406-73.2422 87.8174-67.041Q93.9941-60.8398 97.5098-52.6855Q101.025-44.5312 101.025-35.2539Q101.025-25.9766 97.5098-17.8223Q93.9941-9.66797 87.8174-3.49121Q81.6406 2.68555 73.5107 6.17676Q65.3809 9.66797 56.0547 9.66797Z"/>
   <path class="hierarchical-1:primary SFSymbolsPreview212121" d="M50.293-21.8262Q55.6641-21.8262 60.0586-24.4385Q64.4531-27.0508 67.0654-31.4209Q69.6777-35.791 69.6777-41.1621Q69.6777-46.4355 67.0654-50.8545Q64.4531-55.2734 60.0586-57.9102Q55.6641-60.5469 50.293-60.5469Q44.9707-60.5469 40.5762-57.9102Q36.1816-55.2734 33.5693-50.8545Q30.957-46.4355 30.957-41.1621Q30.957-35.791 33.5693-31.4209Q36.1816-27.0508 40.5762-24.4385Q44.9707-21.8262 50.293-21.8262ZM50.3906-24.2676Q45.752-24.2676 41.8701-26.5381Q37.9883-28.8086 35.6934-32.666Q33.3984-36.5234 33.3984-41.2109Q33.3984-45.8984 35.6934-49.7559Q37.9883-53.6133 41.8701-55.9082Q45.752-58.2031 50.3906-58.2031Q55.0781-58.2031 58.9355-55.9082Q62.793-53.6133 65.0635-49.7559Q67.334-45.8984 67.334-41.2109Q67.334-36.5234 65.0635-32.666Q62.793-28.8086 58.9355-26.5381Q55.0781-24.2676 50.3906-24.2676ZM79.4922-9.91211Q80.2734-9.91211 80.7129-10.376Q81.1523-10.8398 81.1523-11.5723Q81.1523-12.0117 80.957-12.3291Q80.7617-12.6465 80.4199-12.9883L64.1113-29.4922L61.6211-27.0996L77.8809-10.6934Q78.6133-9.91211 79.4922-9.91211Z"/>
  </g>
  <g id="Black-S" transform="matrix(1 0 0 1 2884.57 696)">
   <path class="hierarchical-0:secondary SFSymbolsPreview4D4D4D" d="M48.8281 6.78711Q57.5195 6.78711 65.1123 3.51562Q72.7051 0.244141 78.4912-5.54199Q84.2773-11.3281 87.5488-18.9209Q90.8203-26.5137 90.8203-35.2051Q90.8203-43.8965 87.5488-51.4893Q84.2773-59.082 78.4912-64.8682Q72.7051-70.6543 65.1123-73.9258Q57.5195-77.1973 48.8281-77.1973Q40.1367-77.1973 32.5439-73.9258Q24.9512-70.6543 19.165-64.8682Q13.3789-59.082 10.1074-51.4893Q6.83594-43.8965 6.83594-35.2051Q6.83594-26.5137 10.1074-18.9209Q13.3789-11.3281 19.165-5.54199Q24.9512 0.244141 32.5439 3.51562Q40.1367 6.78711 48.8281 6.78711ZM48.8281-7.37305Q43.0664-7.37305 38.0127-9.5459Q32.959-11.7188 29.1504-15.5273Q25.3418-19.3359 23.1689-24.3896Q20.9961-29.4434 20.9961-35.2051Q20.9961-40.9668 23.1689-46.0205Q25.3418-51.0742 29.1504-54.8828Q32.959-58.6914 38.0127-60.8643Q43.0664-63.0371 48.8281-63.0371Q54.5898-63.0371 59.6436-60.8643Q64.6973-58.6914 68.5059-54.8828Q72.3145-51.0742 74.4873-46.0205Q76.6602-40.9668 76.6602-35.2051Q76.6602-29.4434 74.4873-24.3896Q72.3145-19.3359 68.5059-15.5273Q64.6973-11.7188 59.6436-9.5459Q54.5898-7.37305 48.8281-7.37305Z"/>
   <path class="hierarchical-1:primary SFSymbolsPreview212121" d="M45.6543-22.5586Q50.0488-22.5586 53.6621-24.707Q57.2754-26.8555 59.4238-30.4932Q61.5723-34.1309 61.5723-38.4766Q61.5723-42.8223 59.4238-46.4355Q57.2754-50.0488 53.6621-52.2217Q50.0488-54.3945 45.6543-54.3945Q41.3086-54.3945 37.6953-52.2217Q34.082-50.0488 31.9092-46.4355Q29.7363-42.8223 29.7363-38.4766Q29.7363-34.1309 31.9092-30.4932Q34.082-26.8555 37.6953-24.707Q41.3086-22.5586 45.6543-22.5586ZM45.6543-30.3711Q43.457-30.3711 41.6016-31.4453Q39.7461-32.5195 38.6475-34.375Q37.5488-36.2305 37.5488-38.4766Q37.5488-40.7227 38.6475-42.5537Q39.7461-44.3848 41.6016-45.459Q43.457-46.5332 45.6543-46.5332Q47.9004-46.5332 49.7314-45.459Q51.5625-44.3848 52.6611-42.5537Q53.7598-40.7227 53.7598-38.4766Q53.7598-36.2305 52.6611-34.375Q51.5625-32.5195 49.7314-31.4453Q47.9004-30.3711 45.6543-30.3711ZM62.5488-15.918Q64.8438-15.918 66.3818-17.4805Q67.9199-19.043 67.9199-21.3379Q67.9199-22.3633 67.5537-23.3398Q67.1875-24.3164 66.3574-25.1465L57.373-34.1309L49.6582-26.4648L58.6914-17.4805Q60.3516-15.918 62.5488-15.918Z"/>
  </g>
  <g id="Heavy-S" transform="matrix(1 0 0 1 2588.47 696)">
   <path class="hierarchical-0:secondary SFSymbolsPreview4D4D4D" d="M48.1934 6.15234Q56.7871 6.15234 64.2578 2.92969Q71.7285-0.292969 77.4414-6.00586Q83.1543-11.7188 86.377-19.1895Q89.5996-26.6602 89.5996-35.2051Q89.5996-43.75 86.377-51.2451Q83.1543-58.7402 77.4414-64.4531Q71.7285-70.166 64.2334-73.3887Q56.7383-76.6113 48.1934-76.6113Q39.6484-76.6113 32.1777-73.3887Q24.707-70.166 18.9941-64.4531Q13.2812-58.7402 10.0586-51.2451Q6.83594-43.75 6.83594-35.2051Q6.83594-26.6602 10.0586-19.1895Q13.2812-11.7188 18.9941-6.00586Q24.707-0.292969 32.2021 2.92969Q39.6973 6.15234 48.1934 6.15234ZM48.1934-6.39648Q42.2363-6.39648 37.0117-8.64258Q31.7871-10.8887 27.8564-14.8438Q23.9258-18.7988 21.6797-24.0234Q19.4336-29.248 19.4336-35.2051Q19.4336-41.1621 21.6553-46.4111Q23.877-51.6602 27.832-55.5908Q31.7871-59.5215 37.0117-61.7676Q42.2363-64.0137 48.1934-64.0137Q54.1992-64.0137 59.4238-61.7676Q64.6484-59.5215 68.5791-55.5908Q72.5098-51.6602 74.7803-46.4111Q77.0508-41.1621 77.0508-35.2051Q77.0508-29.248 74.8047-24.0234Q72.5586-18.7988 68.6035-14.8438Q64.6484-10.8887 59.4238-8.64258Q54.1992-6.39648 48.1934-6.39648Z"/>
   <path class="hierarchical-1:primary SFSymbolsPreview212121" d="M44.8242-22.8027Q49.2188-22.8027 52.832-24.9512Q56.4453-27.0996 58.5938-30.7373Q60.7422-34.375 60.7422-38.7207Q60.7422-43.1152 58.5938-46.7285Q56.4453-50.3418 52.832-52.5146Q49.2188-54.6875 44.8242-54.6875Q40.4297-54.6875 36.8164-52.5146Q33.2031-50.3418 31.0303-46.7285Q28.8574-43.1152 28.8574-38.7207Q28.8574-34.375 31.0303-30.7373Q33.2031-27.0996 36.8164-24.9512Q40.4297-22.8027 44.8242-22.8027ZM44.8242-30.1758Q42.4805-30.1758 40.5029-31.3232Q38.5254-32.4707 37.3779-34.4238Q36.2305-36.377 36.2305-38.7207Q36.2305-41.1133 37.3779-43.0664Q38.5254-45.0195 40.5029-46.167Q42.4805-47.3145 44.8242-47.3145Q47.168-47.3145 49.1211-46.167Q51.0742-45.0195 52.2461-43.0664Q53.418-41.1133 53.418-38.7207Q53.418-36.377 52.2461-34.4238Q51.0742-32.4707 49.1211-31.3232Q47.168-30.1758 44.8242-30.1758ZM62.5977-15.7715Q64.6973-15.7715 66.0889-17.2119Q67.4805-18.6523 67.4805-20.752Q67.4805-21.7285 67.1387-22.6318Q66.7969-23.5352 66.0645-24.2676L56.3477-33.9844L49.1699-26.9531L58.9355-17.2363Q60.4492-15.7715 62.5977-15.7715Z"/>
  </g>
  <g id="Bold-S" transform="matrix(1 0 0 1 2292.43 696)">
   <path class="hierarchical-0:secondary SFSymbolsPreview4D4D4D" d="M47.5586 5.46875Q55.957 5.46875 63.3057 2.29492Q70.6543-0.878906 76.2695-6.51855Q81.8848-12.1582 85.083-19.5068Q88.2812-26.8555 88.2812-35.2539Q88.2812-43.6035 85.083-50.9766Q81.8848-58.3496 76.2695-63.9648Q70.6543-69.5801 63.2812-72.7539Q55.9082-75.9277 47.5098-75.9277Q39.1602-75.9277 31.7871-72.7539Q24.4141-69.5801 18.8232-63.9648Q13.2324-58.3496 10.0342-50.9766Q6.83594-43.6035 6.83594-35.2539Q6.83594-26.8555 10.0342-19.5068Q13.2324-12.1582 18.8477-6.51855Q24.4629-0.878906 31.8115 2.29492Q39.1602 5.46875 47.5586 5.46875ZM47.5586-5.32227Q41.3574-5.32227 35.9375-7.6416Q30.5176-9.96094 26.416-14.0625Q22.3145-18.1641 19.9951-23.6084Q17.6758-29.0527 17.6758-35.2539Q17.6758-41.4551 19.9951-46.875Q22.3145-52.2949 26.3916-56.3965Q30.4688-60.498 35.8887-62.8174Q41.3086-65.1367 47.5098-65.1367Q53.7598-65.1367 59.1797-62.8174Q64.5996-60.498 68.7012-56.3965Q72.8027-52.2949 75.1221-46.875Q77.4414-41.4551 77.4414-35.2539Q77.4414-29.0527 75.1221-23.6084Q72.8027-18.1641 68.7256-14.0625Q64.6484-9.96094 59.2041-7.6416Q53.7598-5.32227 47.5586-5.32227Z"/>
   <path class="hierarchical-1:primary SFSymbolsPreview212121" d="M43.9453-23.0469Q48.3398-23.0469 51.9775-25.2197Q55.6152-27.3926 57.7637-31.0303Q59.9121-34.668 59.9121-39.0625Q59.9121-43.457 57.7637-47.0703Q55.6152-50.6836 51.9775-52.8564Q48.3398-55.0293 43.9453-55.0293Q39.5508-55.0293 35.9131-52.8564Q32.2754-50.6836 30.1025-47.0459Q27.9297-43.4082 27.9297-39.0625Q27.9297-34.668 30.1025-31.0303Q32.2754-27.3926 35.9131-25.2197Q39.5508-23.0469 43.9453-23.0469ZM43.9453-29.9316Q41.4551-29.9316 39.3555-31.1523Q37.2559-32.373 36.0352-34.4482Q34.8145-36.5234 34.8145-39.0625Q34.8145-41.5527 36.0352-43.6279Q37.2559-45.7031 39.3555-46.9238Q41.4551-48.1445 43.9453-48.1445Q46.4355-48.1445 48.5107-46.9238Q50.5859-45.7031 51.8311-43.6279Q53.0762-41.5527 53.0762-39.0625Q53.0762-36.5234 51.8311-34.4482Q50.5859-32.373 48.5107-31.1523Q46.4355-29.9316 43.9453-29.9316ZM62.6953-15.5762Q64.5996-15.5762 65.8447-16.8701Q67.0898-18.1641 67.0898-20.1172Q67.0898-20.9961 66.748-21.8262Q66.4062-22.6562 65.7715-23.3398L55.2734-33.8379L48.6816-27.4902L59.2285-16.9922Q60.6445-15.5762 62.6953-15.5762Z"/>
  </g>
  <g id="Semibold-S" transform="matrix(1 0 0 1 1996.19 696)">
   <path class="hierarchical-0:secondary SFSymbolsPreview4D4D4D" d="M47.0703 4.98047Q55.3711 4.98047 62.6465 1.85547Q69.9219-1.26953 75.4639-6.86035Q81.0059-12.4512 84.1553-19.7266Q87.3047-27.002 87.3047-35.2539Q87.3047-43.5059 84.1553-50.7812Q81.0059-58.0566 75.4395-63.623Q69.873-69.1895 62.5977-72.3389Q55.3223-75.4883 47.0215-75.4883Q38.7695-75.4883 31.4941-72.3389Q24.2188-69.1895 18.6768-63.623Q13.1348-58.0566 9.98535-50.7812Q6.83594-43.5059 6.83594-35.2539Q6.83594-27.002 9.98535-19.7266Q13.1348-12.4512 18.7012-6.86035Q24.2676-1.26953 31.543 1.85547Q38.8184 4.98047 47.0703 4.98047ZM47.0703-4.58984Q40.7227-4.58984 35.1562-6.95801Q29.5898-9.32617 25.3906-13.5254Q21.1914-17.7246 18.8232-23.291Q16.4551-28.8574 16.4551-35.2539Q16.4551-41.6016 18.8232-47.168Q21.1914-52.7344 25.3662-56.9336Q29.541-61.1328 35.1074-63.5254Q40.6738-65.918 47.0215-65.918Q53.418-65.918 58.9844-63.5254Q64.5508-61.1328 68.75-56.9336Q72.9492-52.7344 75.3418-47.168Q77.7344-41.6016 77.7344-35.2539Q77.7344-28.8574 75.3662-23.291Q72.998-17.7246 68.7988-13.5254Q64.5996-9.32617 59.0332-6.95801Q53.4668-4.58984 47.0703-4.58984Z"/>
   <path class="hierarchical-1:primary SFSymbolsPreview212121" d="M43.2617-23.2422Q47.7051-23.2422 51.3184-25.3906Q54.9316-27.5391 57.1045-31.2012Q59.2773-34.8633 59.2773-39.2578Q59.2773-43.6523 57.1045-47.29Q54.9316-50.9277 51.3184-53.1006Q47.7051-55.2734 43.2617-55.2734Q38.8672-55.2734 35.2295-53.1006Q31.5918-50.9277 29.4189-47.2656Q27.2461-43.6035 27.2461-39.2578Q27.2461-34.8633 29.4189-31.2256Q31.5918-27.5879 35.2295-25.415Q38.8672-23.2422 43.2617-23.2422ZM43.2617-29.7363Q40.6738-29.7363 38.501-31.0303Q36.3281-32.3242 35.0342-34.4727Q33.7402-36.6211 33.7402-39.2578Q33.7402-41.8457 35.0342-43.9941Q36.3281-46.1426 38.501-47.4365Q40.6738-48.7305 43.2617-48.7305Q45.8984-48.7305 48.0469-47.4609Q50.1953-46.1914 51.4893-44.0186Q52.7832-41.8457 52.7832-39.2578Q52.7832-36.6211 51.4893-34.4727Q50.1953-32.3242 48.0469-31.0303Q45.8984-29.7363 43.2617-29.7363ZM62.6953-15.4297Q64.4531-15.4297 65.6006-16.626Q66.748-17.8223 66.748-19.6777Q66.748-20.5078 66.4307-21.2891Q66.1133-22.0703 65.4785-22.6562L54.4922-33.6914L48.291-27.8809L59.375-16.7969Q60.7422-15.4297 62.6953-15.4297Z"/>
  </g>
  <g id="Medium-S" transform="matrix(1 0 0 1 1699.83 696)">
   <path class="hierarchical-0:secondary SFSymbolsPreview4D4D4D" d="M46.7285 4.63867Q54.9316 4.63867 62.1338 1.51367Q69.3359-1.61133 74.8535-7.12891Q80.3711-12.6465 83.4961-19.8486Q86.6211-27.0508 86.6211-35.2539Q86.6211-43.4082 83.4961-50.6348Q80.3711-57.8613 74.8291-63.3789Q69.2871-68.8965 62.085-71.9971Q54.8828-75.0977 46.6797-75.0977Q38.4766-75.0977 31.2744-71.9971Q24.0723-68.8965 18.5791-63.3789Q13.0859-57.8613 9.96094-50.6348Q6.83594-43.4082 6.83594-35.2539Q6.83594-27.0508 9.96094-19.8486Q13.0859-12.6465 18.6035-7.12891Q24.1211-1.61133 31.3232 1.51367Q38.5254 4.63867 46.7285 4.63867ZM46.7285-4.00391Q40.2344-4.00391 34.5703-6.4209Q28.9062-8.83789 24.6338-13.1348Q20.3613-17.4316 17.9443-23.0957Q15.5273-28.7598 15.5273-35.2539Q15.5273-41.748 17.9199-47.4121Q20.3125-53.0762 24.585-57.373Q28.8574-61.6699 34.5215-64.0869Q40.1855-66.5039 46.6797-66.5039Q53.1738-66.5039 58.8379-64.0869Q64.502-61.6699 68.7988-57.373Q73.0957-53.0762 75.5127-47.4121Q77.9297-41.748 77.9297-35.2539Q77.9297-28.7598 75.5127-23.0957Q73.0957-17.4316 68.8477-13.1348Q64.5996-8.83789 58.9111-6.4209Q53.2227-4.00391 46.7285-4.00391Z"/>
   <path class="hierarchical-1:primary SFSymbolsPreview212121" d="M42.7246-23.3398Q47.168-23.3398 50.8057-25.5127Q54.4434-27.6855 56.6162-31.3477Q58.7891-35.0098 58.7891-39.4043Q58.7891-43.8477 56.6162-47.4609Q54.4434-51.0742 50.8057-53.2471Q47.168-55.4199 42.7246-55.4199Q38.3789-55.4199 34.7168-53.2471Q31.0547-51.0742 28.8818-47.4365Q26.709-43.7988 26.709-39.4043Q26.709-35.0098 28.8818-31.3721Q31.0547-27.7344 34.7168-25.5371Q38.3789-23.3398 42.7246-23.3398ZM42.7246-29.5898Q40.0879-29.5898 37.8418-30.9326Q35.5957-32.2754 34.2773-34.4971Q32.959-36.7188 32.959-39.4043Q32.959-42.0898 34.2773-44.2871Q35.5957-46.4844 37.8418-47.8271Q40.0879-49.1699 42.7246-49.1699Q45.4102-49.1699 47.6318-47.8516Q49.8535-46.5332 51.1963-44.3115Q52.5391-42.0898 52.5391-39.4043Q52.5391-36.7188 51.1963-34.4971Q49.8535-32.2754 47.6318-30.9326Q45.4102-29.5898 42.7246-29.5898ZM62.6953-15.3809Q64.3555-15.3809 65.4297-16.4795Q66.5039-17.5781 66.5039-19.3359Q66.5039-20.1172 66.1621-20.8496Q65.8203-21.582 65.2832-22.1191L53.8574-33.5938L47.998-28.125L59.5215-16.6992Q60.791-15.3809 62.6953-15.3809Z"/>
  </g>
  <g id="Regular-S" transform="matrix(1 0 0 1 1403.58 696)">
   <path class="hierarchical-0:secondary SFSymbolsPreview4D4D4D" d="M46.2402 4.15039Q54.3457 4.15039 61.4746 1.07422Q68.6035-2.00195 74.0479-7.4707Q79.4922-12.9395 82.5928-20.0684Q85.6934-27.1973 85.6934-35.2539Q85.6934-43.3105 82.5928-50.4395Q79.4922-57.5684 74.0234-63.0371Q68.5547-68.5059 61.4258-71.582Q54.2969-74.6582 46.1914-74.6582Q38.1348-74.6582 31.0059-71.582Q23.877-68.5059 18.457-63.0371Q13.0371-57.5684 9.93652-50.4395Q6.83594-43.3105 6.83594-35.2539Q6.83594-27.1973 9.93652-20.0684Q13.0371-12.9395 18.4814-7.4707Q23.9258-2.00195 31.0547 1.07422Q38.1836 4.15039 46.2402 4.15039ZM46.2402-3.27148Q39.5996-3.27148 33.8135-5.7373Q28.0273-8.20312 23.6572-12.5977Q19.2871-16.9922 16.8213-22.8027Q14.3555-28.6133 14.3555-35.2539Q14.3555-41.8945 16.7969-47.7051Q19.2383-53.5156 23.6084-57.9102Q27.9785-62.3047 33.7646-64.7705Q39.5508-67.2363 46.1914-67.2363Q52.8809-67.2363 58.667-64.7705Q64.4531-62.3047 68.8477-57.9102Q73.2422-53.5156 75.7324-47.7051Q78.2227-41.8945 78.2227-35.2539Q78.2227-28.6133 75.7568-22.8027Q73.291-16.9922 68.9209-12.5977Q64.5508-8.20312 58.7402-5.7373Q52.9297-3.27148 46.2402-3.27148Z"/>
   <path class="hierarchical-1:primary SFSymbolsPreview212121" d="M42.1387-23.5352Q46.582-23.5352 50.2197-25.708Q53.8574-27.8809 56.0303-31.543Q58.2031-35.2051 58.2031-39.5996Q58.2031-44.043 56.0303-47.6807Q53.8574-51.3184 50.2197-53.4912Q46.582-55.6641 42.1387-55.6641Q37.7441-55.6641 34.082-53.4912Q30.4199-51.3184 28.2471-47.6562Q26.0742-43.9941 26.0742-39.5996Q26.0742-35.2051 28.2471-31.5674Q30.4199-27.9297 34.082-25.7324Q37.7441-23.5352 42.1387-23.5352ZM42.1387-29.4434Q39.3555-29.4434 37.0361-30.835Q34.7168-32.2266 33.3496-34.5215Q31.9824-36.8164 31.9824-39.5996Q31.9824-42.3828 33.3496-44.6777Q34.7168-46.9727 37.0361-48.3643Q39.3555-49.7559 42.1387-49.7559Q44.9219-49.7559 47.2168-48.3887Q49.5117-47.0215 50.9033-44.7021Q52.2949-42.3828 52.2949-39.5996Q52.2949-36.8164 50.9033-34.5215Q49.5117-32.2266 47.2168-30.835Q44.9219-29.4434 42.1387-29.4434ZM62.7441-15.2344Q64.2578-15.2344 65.2344-16.2598Q66.2109-17.2852 66.2109-18.8965Q66.2109-19.6289 65.8936-20.3125Q65.5762-20.9961 65.0879-21.4844L53.125-33.4961L47.6562-28.5156L59.7168-16.5039Q60.8887-15.2344 62.7441-15.2344Z"/>
  </g>
  <g id="Light-S" transform="matrix(1 0 0 1 1107.6 696)">
   <path class="hierarchical-0:secondary SFSymbolsPreview4D4D4D" d="M45.5078 3.41797Q53.4668 3.41797 60.4736 0.415039Q67.4805-2.58789 72.8271-7.95898Q78.1738-13.3301 81.2012-20.3125Q84.2285-27.2949 84.2285-35.2539Q84.2285-43.2129 81.2012-50.1953Q78.1738-57.1777 72.8027-62.5488Q67.4316-67.9199 60.4492-70.9229Q53.4668-73.9258 45.459-73.9258Q37.5488-73.9258 30.542-70.9229Q23.5352-67.9199 18.2129-62.5488Q12.8906-57.1777 9.86328-50.1953Q6.83594-43.2129 6.83594-35.2539Q6.83594-27.2949 9.86328-20.3125Q12.8906-13.3301 18.2373-7.95898Q23.584-2.58789 30.5908 0.415039Q37.5977 3.41797 45.5078 3.41797ZM45.5078-2.29492Q38.6719-2.29492 32.6904-4.83398Q26.709-7.37305 22.1924-11.9141Q17.6758-16.4551 15.1367-22.4365Q12.5977-28.418 12.5977-35.2539Q12.5977-42.0898 15.1367-48.0713Q17.6758-54.0527 22.1924-58.5938Q26.709-63.1348 32.666-65.6738Q38.623-68.2129 45.459-68.2129Q52.3438-68.2129 58.3252-65.6738Q64.3066-63.1348 68.8232-58.5938Q73.3398-54.0527 75.9277-48.0713Q78.5156-42.0898 78.5156-35.2539Q78.5156-28.418 75.9521-22.4365Q73.3887-16.4551 68.8721-11.9141Q64.3555-7.37305 58.374-4.83398Q52.3926-2.29492 45.5078-2.29492Z"/>
   <path class="hierarchical-1:primary SFSymbolsPreview212121" d="M41.2598-23.9258Q45.6543-23.9258 49.2188-26.0498Q52.7832-28.1738 54.9316-31.7627Q57.0801-35.3516 57.0801-39.6973Q57.0801-44.043 54.9316-47.6318Q52.7832-51.2207 49.2188-53.3447Q45.6543-55.4688 41.2598-55.4688Q36.9629-55.4688 33.3496-53.3447Q29.7363-51.2207 27.6123-47.6074Q25.4883-43.9941 25.4883-39.6973Q25.4883-35.3516 27.6123-31.7871Q29.7363-28.2227 33.3496-26.0742Q36.9629-23.9258 41.2598-23.9258ZM41.3086-28.5645Q38.2324-28.5645 35.6934-30.0781Q33.1543-31.5918 31.6406-34.1064Q30.127-36.6211 30.127-39.6973Q30.127-42.7734 31.6406-45.2881Q33.1543-47.8027 35.6934-49.3164Q38.2324-50.8301 41.3086-50.8301Q44.3359-50.8301 46.875-49.3408Q49.4141-47.8516 50.9277-45.3125Q52.4414-42.7734 52.4414-39.6973Q52.4414-36.6211 50.9277-34.1064Q49.4141-31.5918 46.875-30.0781Q44.3359-28.5645 41.3086-28.5645ZM62.5977-15.2832Q63.8184-15.2832 64.5996-16.1133Q65.3809-16.9434 65.3809-18.2129Q65.3809-18.8477 65.1123-19.3848Q64.8438-19.9219 64.4043-20.3125L52.1973-32.6172L47.8027-28.6133L60.1074-16.3574Q61.084-15.2832 62.5977-15.2832Z"/>
  </g>
  <g id="Thin-S" transform="matrix(1 0 0 1 811.863 696)">
   <path class="hierarchical-0:secondary SFSymbolsPreview4D4D4D" d="M44.5312 2.44141Q52.3438 2.44141 59.1553-0.488281Q65.9668-3.41797 71.1914-8.64258Q76.416-13.8672 79.3457-20.6787Q82.2754-27.4902 82.2754-35.2539Q82.2754-43.0176 79.3457-49.8291Q76.416-56.6406 71.1914-61.8652Q65.9668-67.0898 59.1553-70.0195Q52.3438-72.9492 44.5312-72.9492Q36.7676-72.9492 29.9316-70.0195Q23.0957-67.0898 17.9199-61.8652Q12.7441-56.6406 9.79004-49.8291Q6.83594-43.0176 6.83594-35.2539Q6.83594-27.4902 9.79004-20.6787Q12.7441-13.8672 17.9199-8.64258Q23.0957-3.41797 29.9316-0.488281Q36.7676 2.44141 44.5312 2.44141ZM44.5312-0.927734Q37.4512-0.927734 31.2256-3.58887Q25-6.25 20.2881-10.9619Q15.5762-15.6738 12.915-21.9238Q10.2539-28.1738 10.2539-35.2539Q10.2539-42.334 12.915-48.584Q15.5762-54.834 20.2881-59.5459Q25-64.2578 31.2256-66.9189Q37.4512-69.5801 44.5312-69.5801Q51.6602-69.5801 57.8857-66.9189Q64.1113-64.2578 68.8232-59.5459Q73.5352-54.834 76.1963-48.584Q78.8574-42.334 78.8574-35.2539Q78.8574-28.1738 76.1963-21.9238Q73.5352-15.6738 68.8232-10.9619Q64.1113-6.25 57.8857-3.58887Q51.6602-0.927734 44.5312-0.927734Z"/>
   <path class="hierarchical-1:primary SFSymbolsPreview212121" d="M40.1855-24.4141Q44.4336-24.4141 47.9248-26.4893Q51.416-28.5645 53.4912-32.0557Q55.5664-35.5469 55.5664-39.7949Q55.5664-43.9941 53.4912-47.5098Q51.416-51.0254 47.9248-53.125Q44.4336-55.2246 40.1855-55.2246Q35.9375-55.2246 32.4219-53.125Q28.9062-51.0254 26.8311-47.5342Q24.7559-44.043 24.7559-39.7949Q24.7559-35.5469 26.8311-32.0557Q28.9062-28.5645 32.4219-26.4893Q35.9375-24.4141 40.1855-24.4141ZM40.2344-27.3926Q36.8164-27.3926 33.9844-29.0771Q31.1523-30.7617 29.4434-33.5693Q27.7344-36.377 27.7344-39.7949Q27.7344-43.2617 29.4434-46.0938Q31.1523-48.9258 33.9844-50.6104Q36.8164-52.2949 40.2344-52.2949Q43.6523-52.2949 46.46-50.6104Q49.2676-48.9258 50.9521-46.0938Q52.6367-43.2617 52.6367-39.7949Q52.6367-36.377 50.9521-33.5693Q49.2676-30.7617 46.46-29.0771Q43.6523-27.3926 40.2344-27.3926ZM62.4023-15.332Q63.2812-15.332 63.7939-15.8936Q64.3066-16.4551 64.3066-17.2852Q64.3066-17.7734 64.1113-18.1152Q63.916-18.457 63.5742-18.7988L51.0254-31.4941L48.0957-28.7598L60.6445-16.1621Q61.377-15.332 62.4023-15.332Z"/>
  </g>
  <g id="Ultralight-S" transform="matrix(1 0 0 1 515.649 696)">
   <path class="hierarchical-0:secondary SFSymbolsPreview4D4D4D" d="M44.043 1.95312Q51.7578 1.95312 58.4717-0.927734Q65.1855-3.80859 70.3369-8.95996Q75.4883-14.1113 78.3936-20.8252Q81.2988-27.5391 81.2988-35.2539Q81.2988-42.9688 78.3936-49.6826Q75.4883-56.3965 70.3369-61.5479Q65.1855-66.6992 58.4717-69.5801Q51.7578-72.4609 44.043-72.4609Q36.377-72.4609 29.6387-69.5801Q22.9004-66.6992 17.7734-61.5479Q12.6465-56.3965 9.74121-49.6826Q6.83594-42.9688 6.83594-35.2539Q6.83594-27.5391 9.74121-20.8252Q12.6465-14.1113 17.7734-8.95996Q22.9004-3.80859 29.6387-0.927734Q36.377 1.95312 44.043 1.95312ZM44.043-0.292969Q36.8164-0.292969 30.4688-3.00293Q24.1211-5.71289 19.3115-10.5225Q14.502-15.332 11.7676-21.6797Q9.0332-28.0273 9.0332-35.2539Q9.0332-42.4805 11.7676-48.8281Q14.502-55.1758 19.3115-59.9854Q24.1211-64.7949 30.4688-67.5049Q36.8164-70.2148 44.043-70.2148Q51.2695-70.2148 57.6416-67.5049Q64.0137-64.7949 68.7988-59.9854Q73.584-55.1758 76.3184-48.8281Q79.0527-42.4805 79.0527-35.2539Q79.0527-28.0273 76.3428-21.6797Q73.6328-15.332 68.8232-10.5225Q64.0137-5.71289 57.666-3.00293Q51.3184-0.292969 44.043-0.292969Z"/>
   <path class="hierarchical-1:primary SFSymbolsPreview212121" d="M39.5996-24.6582Q43.7988-24.6582 47.2412-26.709Q50.6836-28.7598 52.7588-32.2021Q54.834-35.6445 54.834-39.8438Q54.834-43.9941 52.7588-47.4854Q50.6836-50.9766 47.2412-53.0518Q43.7988-55.127 39.5996-55.127Q35.4004-55.127 31.9336-53.0518Q28.4668-50.9766 26.416-47.5098Q24.3652-44.043 24.3652-39.8438Q24.3652-35.6445 26.416-32.2021Q28.4668-28.7598 31.9336-26.709Q35.4004-24.6582 39.5996-24.6582ZM39.6484-26.8066Q36.0352-26.8066 33.0566-28.5889Q30.0781-30.3711 28.2959-33.3252Q26.5137-36.2793 26.5137-39.8926Q26.5137-43.5059 28.2959-46.4844Q30.0781-49.4629 33.0566-51.2451Q36.0352-53.0273 39.6484-53.0273Q43.2617-53.0273 46.2402-51.2451Q49.2188-49.4629 50.9766-46.4844Q52.7344-43.5059 52.7344-39.8926Q52.7344-36.2793 50.9766-33.3252Q49.2188-30.3711 46.2402-28.5889Q43.2617-26.8066 39.6484-26.8066ZM62.3047-15.3809Q62.9883-15.3809 63.3789-15.7959Q63.7695-16.2109 63.7695-16.7969Q63.7695-17.2363 63.5986-17.4805Q63.4277-17.7246 63.1348-18.0176L50.4395-30.9082L48.1934-28.8574L60.9375-16.0645Q61.5234-15.3809 62.3047-15.3809Z"/>
  </g>
 </g>
</svg>
