<?xml version="1.0" encoding="utf-8"?>
<svg xmlns="http://www.w3.org/2000/svg" viewBox="0 0 30 30" fill="#000000"><path d="M 11 0 C 8.791 0 7 1.791 7 4 C 7 6.209 8.791 8 11 8 C 12.476729 8 13.752382 7.190604 14.445312 6 L 17 6 L 18 5 L 19 6 L 20 5 L 21 6 L 22 6 L 23 5 L 23 3 L 22 2 L 14.445312 2 C 13.752382 0.80939602 12.476729 0 11 0 z M 10 3 C 10.552 3 11 3.448 11 4 C 11 4.552 10.552 5 10 5 C 9.448 5 9 4.552 9 4 C 9 3.448 9.448 3 10 3 z M 10.806641 10 C 9.5261854 10 8.3796272 10.821636 7.9667969 12.033203 L 6.6992188 15.748047 C 5.6852264 16.237132 5 17.262761 5 18.441406 L 5 22.5 L 5 23.5 L 5 24.5 C 5 25.328 5.672 26 6.5 26 C 7.328 26 8 25.328 8 24.5 L 8 23.763672 C 9.7373695 23.883533 12.118813 24 15 24 C 17.881187 24 20.26263 23.883533 22 23.763672 L 22 24.5 C 22 25.328 22.672 26 23.5 26 C 24.328 26 25 25.328 25 24.5 L 25 23.5 L 25 22.5 L 25 18.441406 C 25 17.262761 24.314774 16.237132 23.300781 15.748047 L 22.033203 12.033203 C 21.620373 10.821636 20.473814 10 19.193359 10 L 10.806641 10 z M 10.806641 12 L 19.193359 12 C 19.624905 12 20.001455 12.269302 20.140625 12.677734 L 21.03125 15.294922 C 19.503613 15.129667 17.510682 15 15 15 C 12.489318 15 10.496387 15.129667 8.96875 15.294922 L 9.859375 12.677734 C 9.9985447 12.269302 10.375095 12 10.806641 12 z M 8.5 18 C 9.328 18 10 18.672 10 19.5 C 10 20.328 9.328 21 8.5 21 C 7.672 21 7 20.328 7 19.5 C 7 18.672 7.672 18 8.5 18 z M 21.5 18 C 22.328 18 23 18.672 23 19.5 C 23 20.328 22.328 21 21.5 21 C 20.672 21 20 20.328 20 19.5 C 20 18.672 20.672 18 21.5 18 z" fill="#000000"/></svg>
