<?xml version="1.0" encoding="utf-8"?>
<svg xmlns="http://www.w3.org/2000/svg" viewBox="0 0 24 24" fill="#000000"><path d="M 7 2 C 5.346 2 4 3.346 4 5 L 4 20 L 3 20 A 1.0001 1.0001 0 1 0 3 22 L 17 22 A 1.0001 1.0001 0 1 0 17 20 L 16 20 L 16 18 L 18 18 C 19.64497 18 21 16.64497 21 15 L 21 7.5859375 L 18.707031 5.2929688 A 1.0001 1.0001 0 0 0 17.990234 4.9902344 A 1.0001 1.0001 0 0 0 17.292969 6.7070312 L 18 7.4140625 L 18 9 C 18 9.552 18.448 10 19 10 L 19 15 C 19 15.56503 18.56503 16 18 16 L 16 16 L 16 5 C 16 3.346 14.654 2 13 2 L 7 2 z M 7 4 L 13 4 C 13.552 4 14 4.448 14 5 L 14 8 C 14 8.552 13.552 9 13 9 L 7 9 C 6.448 9 6 8.552 6 8 L 6 5 C 6 4.448 6.448 4 7 4 z" fill="#000000"/></svg>
