<?xml version="1.0" encoding="UTF-8"?>
<!--Generator: Apple Native CoreSVG 175-->
<!DOCTYPE svg
PUBLIC "-//W3C//DTD SVG 1.1//EN"
       "http://www.w3.org/Graphics/SVG/1.1/DTD/svg11.dtd">
<svg version="1.1" xmlns="http://www.w3.org/2000/svg" xmlns:xlink="http://www.w3.org/1999/xlink" width="3300" height="2200">
 <!--glyph: "uni100493.medium", point size: 100.0, font version: "17.0d12e1", template writer version: "65.1"-->
 <style>.multicolor-0:tintColor {fill:#007AFF;opacity:1.0}
.multicolor-1:white {fill:#FFFFFF;opacity:1.0}

.hierarchical-0:tertiary {fill:#8E8E8E}
.hierarchical-1:primary {fill:#212121}

.SFSymbolsPreview007AFF {fill:#007AFF;opacity:1.0}
.SFSymbolsPreviewFFFFFF {fill:#FFFFFF;opacity:1.0}
</style>
 <g id="Notes">
  <rect height="2200" id="artboard" style="fill:white;opacity:1" width="3300" x="0" y="0"/>
  <line style="fill:none;stroke:black;opacity:1;stroke-width:0.5;" x1="263" x2="3036" y1="292" y2="292"/>
  <text style="stroke:none;fill:black;font-family:sans-serif;font-size:13;font-weight:bold;" transform="matrix(1 0 0 1 263 322)">Weight/Scale Variations</text>
  <text style="stroke:none;fill:black;font-family:sans-serif;font-size:13;text-anchor:middle;" transform="matrix(1 0 0 1 559.711 322)">Ultralight</text>
  <text style="stroke:none;fill:black;font-family:sans-serif;font-size:13;text-anchor:middle;" transform="matrix(1 0 0 1 856.422 322)">Thin</text>
  <text style="stroke:none;fill:black;font-family:sans-serif;font-size:13;text-anchor:middle;" transform="matrix(1 0 0 1 1153.13 322)">Light</text>
  <text style="stroke:none;fill:black;font-family:sans-serif;font-size:13;text-anchor:middle;" transform="matrix(1 0 0 1 1449.84 322)">Regular</text>
  <text style="stroke:none;fill:black;font-family:sans-serif;font-size:13;text-anchor:middle;" transform="matrix(1 0 0 1 1746.56 322)">Medium</text>
  <text style="stroke:none;fill:black;font-family:sans-serif;font-size:13;text-anchor:middle;" transform="matrix(1 0 0 1 2043.27 322)">Semibold</text>
  <text style="stroke:none;fill:black;font-family:sans-serif;font-size:13;text-anchor:middle;" transform="matrix(1 0 0 1 2339.98 322)">Bold</text>
  <text style="stroke:none;fill:black;font-family:sans-serif;font-size:13;text-anchor:middle;" transform="matrix(1 0 0 1 2636.69 322)">Heavy</text>
  <text style="stroke:none;fill:black;font-family:sans-serif;font-size:13;text-anchor:middle;" transform="matrix(1 0 0 1 2933.4 322)">Black</text>
  <line style="fill:none;stroke:black;opacity:1;stroke-width:0.5;" x1="263" x2="3036" y1="1903" y2="1903"/>
  <g transform="matrix(1 0 0 1 263 1933)">
   <path d="M9.24805 0.830078Q10.8691 0.830078 12.2949 0.214844Q13.7207-0.400391 14.8096-1.49414Q15.8984-2.58789 16.5186-4.01367Q17.1387-5.43945 17.1387-7.05078Q17.1387-8.66211 16.5186-10.0879Q15.8984-11.5137 14.8047-12.6074Q13.7109-13.7012 12.2852-14.3164Q10.8594-14.9316 9.23828-14.9316Q7.62695-14.9316 6.20117-14.3164Q4.77539-13.7012 3.69141-12.6074Q2.60742-11.5137 1.9873-10.0879Q1.36719-8.66211 1.36719-7.05078Q1.36719-5.43945 1.9873-4.01367Q2.60742-2.58789 3.69629-1.49414Q4.78516-0.400391 6.21094 0.214844Q7.63672 0.830078 9.24805 0.830078ZM9.24805-0.654297Q7.91992-0.654297 6.7627-1.14746Q5.60547-1.64062 4.73145-2.51953Q3.85742-3.39844 3.36426-4.56055Q2.87109-5.72266 2.87109-7.05078Q2.87109-8.37891 3.35938-9.54102Q3.84766-10.7031 4.72168-11.582Q5.5957-12.4609 6.75293-12.9541Q7.91016-13.4473 9.23828-13.4473Q10.5762-13.4473 11.7334-12.9541Q12.8906-12.4609 13.7695-11.582Q14.6484-10.7031 15.1465-9.54102Q15.6445-8.37891 15.6445-7.05078Q15.6445-5.72266 15.1514-4.56055Q14.6582-3.39844 13.7842-2.51953Q12.9102-1.64062 11.748-1.14746Q10.5859-0.654297 9.24805-0.654297ZM5.6543-7.05078Q5.6543-6.72852 5.85938-6.52832Q6.06445-6.32812 6.40625-6.32812L8.51562-6.32812L8.51562-4.20898Q8.51562-3.88672 8.71094-3.67676Q8.90625-3.4668 9.23828-3.4668Q9.56055-3.4668 9.77051-3.67676Q9.98047-3.88672 9.98047-4.20898L9.98047-6.32812L12.0898-6.32812Q12.4219-6.32812 12.627-6.52832Q12.832-6.72852 12.832-7.05078Q12.832-7.38281 12.627-7.58789Q12.4219-7.79297 12.0898-7.79297L9.98047-7.79297L9.98047-9.90234Q9.98047-10.2344 9.77051-10.4443Q9.56055-10.6543 9.23828-10.6543Q8.90625-10.6543 8.71094-10.4443Q8.51562-10.2344 8.51562-9.90234L8.51562-7.79297L6.40625-7.79297Q6.06445-7.79297 5.85938-7.58789Q5.6543-7.38281 5.6543-7.05078Z"/>
  </g>
  <g transform="matrix(1 0 0 1 281.867 1933)">
   <path d="M11.709 2.91016Q13.75 2.91016 15.5518 2.12891Q17.3535 1.34766 18.7305-0.0292969Q20.1074-1.40625 20.8887-3.20801Q21.6699-5.00977 21.6699-7.05078Q21.6699-9.0918 20.8887-10.8936Q20.1074-12.6953 18.7305-14.0723Q17.3535-15.4492 15.5469-16.2305Q13.7402-17.0117 11.6992-17.0117Q9.6582-17.0117 7.85645-16.2305Q6.05469-15.4492 4.68262-14.0723Q3.31055-12.6953 2.5293-10.8936Q1.74805-9.0918 1.74805-7.05078Q1.74805-5.00977 2.5293-3.20801Q3.31055-1.40625 4.6875-0.0292969Q6.06445 1.34766 7.86621 2.12891Q9.66797 2.91016 11.709 2.91016ZM11.709 1.25Q9.98047 1.25 8.47656 0.605469Q6.97266-0.0390625 5.83496-1.17676Q4.69727-2.31445 4.05762-3.81836Q3.41797-5.32227 3.41797-7.05078Q3.41797-8.7793 4.05762-10.2832Q4.69727-11.7871 5.83008-12.9297Q6.96289-14.0723 8.4668-14.7119Q9.9707-15.3516 11.6992-15.3516Q13.4277-15.3516 14.9316-14.7119Q16.4355-14.0723 17.5781-12.9297Q18.7207-11.7871 19.3652-10.2832Q20.0098-8.7793 20.0098-7.05078Q20.0098-5.32227 19.3701-3.81836Q18.7305-2.31445 17.5928-1.17676Q16.4551-0.0390625 14.9463 0.605469Q13.4375 1.25 11.709 1.25ZM7.17773-7.05078Q7.17773-6.69922 7.41211-6.47461Q7.64648-6.25 8.01758-6.25L10.8887-6.25L10.8887-3.36914Q10.8887-2.99805 11.1133-2.76855Q11.3379-2.53906 11.6895-2.53906Q12.0605-2.53906 12.29-2.76855Q12.5195-2.99805 12.5195-3.36914L12.5195-6.25L15.4004-6.25Q15.7715-6.25 16.001-6.47461Q16.2305-6.69922 16.2305-7.05078Q16.2305-7.42188 16.001-7.65137Q15.7715-7.88086 15.4004-7.88086L12.5195-7.88086L12.5195-10.752Q12.5195-11.1328 12.29-11.3623Q12.0605-11.5918 11.6895-11.5918Q11.3379-11.5918 11.1133-11.3574Q10.8887-11.123 10.8887-10.752L10.8887-7.88086L8.01758-7.88086Q7.63672-7.88086 7.40723-7.65137Q7.17773-7.42188 7.17773-7.05078Z"/>
  </g>
  <g transform="matrix(1 0 0 1 305.646 1933)">
   <path d="M14.9707 5.66406Q17.0605 5.66406 18.96 5.01465Q20.8594 4.36523 22.4512 3.19336Q24.043 2.02148 25.2197 0.429688Q26.3965-1.16211 27.0459-3.06641Q27.6953-4.9707 27.6953-7.05078Q27.6953-9.14062 27.0459-11.04Q26.3965-12.9395 25.2197-14.5312Q24.043-16.123 22.4512-17.2998Q20.8594-18.4766 18.9551-19.126Q17.0508-19.7754 14.9609-19.7754Q12.8711-19.7754 10.9717-19.126Q9.07227-18.4766 7.48535-17.2998Q5.89844-16.123 4.72168-14.5312Q3.54492-12.9395 2.90039-11.04Q2.25586-9.14062 2.25586-7.05078Q2.25586-4.9707 2.90527-3.06641Q3.55469-1.16211 4.72656 0.429688Q5.89844 2.02148 7.49023 3.19336Q9.08203 4.36523 10.9814 5.01465Q12.8809 5.66406 14.9707 5.66406ZM14.9707 3.84766Q13.1641 3.84766 11.5283 3.2959Q9.89258 2.74414 8.53516 1.74805Q7.17773 0.751953 6.17676-0.610352Q5.17578-1.97266 4.62891-3.6084Q4.08203-5.24414 4.08203-7.05078Q4.08203-8.86719 4.62891-10.5029Q5.17578-12.1387 6.17188-13.501Q7.16797-14.8633 8.52539-15.8594Q9.88281-16.8555 11.5186-17.4023Q13.1543-17.9492 14.9609-17.9492Q16.7773-17.9492 18.4131-17.4023Q20.0488-16.8555 21.4111-15.8594Q22.7734-14.8633 23.7695-13.501Q24.7656-12.1387 25.3174-10.5029Q25.8691-8.86719 25.8691-7.05078Q25.8789-5.24414 25.332-3.6084Q24.7852-1.97266 23.7842-0.610352Q22.7832 0.751953 21.4209 1.74805Q20.0586 2.74414 18.4229 3.2959Q16.7871 3.84766 14.9707 3.84766ZM9.19922-7.05078Q9.19922-6.66992 9.45801-6.4209Q9.7168-6.17188 10.1172-6.17188L14.0625-6.17188L14.0625-2.2168Q14.0625-1.81641 14.3115-1.55762Q14.5605-1.29883 14.9512-1.29883Q15.3516-1.29883 15.6104-1.55273Q15.8691-1.80664 15.8691-2.2168L15.8691-6.17188L19.8242-6.17188Q20.2246-6.17188 20.4785-6.4209Q20.7324-6.66992 20.7324-7.05078Q20.7324-7.46094 20.4785-7.71484Q20.2246-7.96875 19.8242-7.96875L15.8691-7.96875L15.8691-11.9141Q15.8691-12.3242 15.6104-12.583Q15.3516-12.8418 14.9512-12.8418Q14.5605-12.8418 14.3115-12.583Q14.0625-12.3242 14.0625-11.9141L14.0625-7.96875L10.1172-7.96875Q9.70703-7.96875 9.45312-7.71484Q9.19922-7.46094 9.19922-7.05078Z"/>
  </g>
  <text style="stroke:none;fill:black;font-family:sans-serif;font-size:13;font-weight:bold;" transform="matrix(1 0 0 1 263 1953)">Design Variations</text>
  <text style="stroke:none;fill:black;font-family:sans-serif;font-size:13;" transform="matrix(1 0 0 1 263 1971)">Symbols are supported in up to nine weights and three scales.</text>
  <text style="stroke:none;fill:black;font-family:sans-serif;font-size:13;" transform="matrix(1 0 0 1 263 1989)">For optimal layout with text and other symbols, vertically align</text>
  <text style="stroke:none;fill:black;font-family:sans-serif;font-size:13;" transform="matrix(1 0 0 1 263 2007)">symbols with the adjacent text.</text>
  <line style="fill:none;stroke:#00AEEF;stroke-width:0.5;opacity:1.0;" x1="776" x2="776" y1="1919" y2="1933"/>
  <g transform="matrix(1 0 0 1 776 1933)">
   <path d="M3.31055 0.15625Q3.70117 0.15625 3.91602-0.00976562Q4.13086-0.175781 4.26758-0.585938L5.52734-4.0332L11.2891-4.0332L12.5488-0.585938Q12.6855-0.175781 12.9004-0.00976562Q13.1152 0.15625 13.4961 0.15625Q13.8867 0.15625 14.1162-0.0585938Q14.3457-0.273438 14.3457-0.644531Q14.3457-0.869141 14.2383-1.17188L9.6582-13.3691Q9.48242-13.8184 9.17969-14.043Q8.87695-14.2676 8.4082-14.2676Q7.5-14.2676 7.17773-13.3789L2.59766-1.16211Q2.49023-0.859375 2.49023-0.634766Q2.49023-0.263672 2.70996-0.0537109Q2.92969 0.15625 3.31055 0.15625ZM6.00586-5.51758L8.37891-12.0898L8.42773-12.0898L10.8008-5.51758Z"/>
  </g>
  <line style="fill:none;stroke:#00AEEF;stroke-width:0.5;opacity:1.0;" x1="793.197" x2="793.197" y1="1919" y2="1933"/>
  <text style="stroke:none;fill:black;font-family:sans-serif;font-size:13;font-weight:bold;" transform="matrix(1 0 0 1 776 1953)">Margins</text>
  <text style="stroke:none;fill:black;font-family:sans-serif;font-size:13;" transform="matrix(1 0 0 1 776 1971)">Leading and trailing margins on the left and right side of each symbol</text>
  <text style="stroke:none;fill:black;font-family:sans-serif;font-size:13;" transform="matrix(1 0 0 1 776 1989)">can be adjusted by modifying the x-location of the margin guidelines.</text>
  <text style="stroke:none;fill:black;font-family:sans-serif;font-size:13;" transform="matrix(1 0 0 1 776 2007)">Modifications are automatically applied proportionally to all</text>
  <text style="stroke:none;fill:black;font-family:sans-serif;font-size:13;" transform="matrix(1 0 0 1 776 2025)">scales and weights.</text>
  <g transform="matrix(1 0 0 1 1289 1933)">
   <path d="M2.8418 1.86523L4.54102 3.57422Q5.18555 4.22852 5.90332 4.17969Q6.62109 4.13086 7.31445 3.35938L18.0078-8.42773L17.041-9.4043L6.42578 2.27539Q6.16211 2.57812 5.89355 2.61719Q5.625 2.65625 5.27344 2.30469L4.10156 1.14258Q3.75 0.791016 3.79395 0.522461Q3.83789 0.253906 4.14062-0.0195312L15.6152-10.8203L14.6387-11.7871L3.04688-0.898438Q2.30469-0.214844 2.25098 0.498047Q2.19727 1.21094 2.8418 1.86523ZM9.25781-16.3281Q8.94531-16.0254 8.90625-15.6348Q8.86719-15.2441 9.04297-14.9512Q9.21875-14.6777 9.55566-14.541Q9.89258-14.4043 10.3809-14.5215Q11.4746-14.7754 12.5977-14.7314Q13.7207-14.6875 14.7949-13.9844L14.209-12.5293Q13.9551-11.9043 14.0674-11.4404Q14.1797-10.9766 14.5801-10.5664L16.875-8.25195Q17.2363-7.88086 17.5781-7.82227Q17.9199-7.76367 18.3398-7.8418L19.4043-8.03711L20.0684-7.36328L20.0293-6.80664Q20-6.43555 20.1221-6.12305Q20.2441-5.81055 20.6055-5.44922L21.3672-4.70703Q21.7285-4.3457 22.1533-4.33105Q22.5781-4.31641 22.9297-4.66797L25.8398-7.58789Q26.1914-7.93945 26.1816-8.35449Q26.1719-8.76953 25.8105-9.13086L25.0391-9.89258Q24.6875-10.2539 24.3799-10.3857Q24.0723-10.5176 23.7109-10.4883L23.1348-10.4395L22.4902-11.0742L22.7344-12.1973Q22.832-12.6172 22.6953-12.9834Q22.5586-13.3496 22.1191-13.7891L19.9219-15.9766Q18.6719-17.2168 17.2607-17.8369Q15.8496-18.457 14.4189-18.4814Q12.9883-18.5059 11.665-17.959Q10.3418-17.4121 9.25781-16.3281ZM10.752-15.957Q11.6602-16.6211 12.7002-16.9043Q13.7402-17.1875 14.8047-17.085Q15.8691-16.9824 16.8701-16.5137Q17.8711-16.0449 18.7012-15.2051L21.1328-12.793Q21.3086-12.6172 21.3525-12.4512Q21.3965-12.2852 21.3379-12.0312L21.0156-10.5469L22.5195-9.0625L23.5059-9.12109Q23.6914-9.13086 23.7891-9.09668Q23.8867-9.0625 24.0332-8.91602L24.6094-8.33984L22.168-5.89844L21.5918-6.47461Q21.4453-6.62109 21.4062-6.71875Q21.3672-6.81641 21.377-7.01172L21.4453-7.98828L19.9512-9.47266L18.4277-9.21875Q18.1836-9.16992 18.042-9.2041Q17.9004-9.23828 17.7148-9.41406L15.7129-11.416Q15.5176-11.5918 15.4932-11.7529Q15.4688-11.9141 15.5859-12.1875L16.4648-14.2773Q15.293-15.3711 13.8281-15.791Q12.3633-16.2109 10.8398-15.7617Q10.7227-15.7324 10.6885-15.8057Q10.6543-15.8789 10.752-15.957Z"/>
  </g>
  <text style="stroke:none;fill:black;font-family:sans-serif;font-size:13;font-weight:bold;" transform="matrix(1 0 0 1 1289 1953)">Exporting</text>
  <text style="stroke:none;fill:black;font-family:sans-serif;font-size:13;" transform="matrix(1 0 0 1 1289 1971)">Symbols should be outlined when exporting to ensure the</text>
  <text style="stroke:none;fill:black;font-family:sans-serif;font-size:13;" transform="matrix(1 0 0 1 1289 1989)">design is preserved when submitting to Xcode.</text>
  <text id="template-version" style="stroke:none;fill:black;font-family:sans-serif;font-size:13;text-anchor:end;" transform="matrix(1 0 0 1 3036 1933)">Template v.3.0</text>
  <text style="stroke:none;fill:black;font-family:sans-serif;font-size:13;text-anchor:end;" transform="matrix(1 0 0 1 3036 1951)">Requires Xcode 13 or greater</text>
  <text id="descriptive-name" style="stroke:none;fill:black;font-family:sans-serif;font-size:13;text-anchor:end;" transform="matrix(1 0 0 1 3036 1969)">Generated from magnifyingglass.circle.fill</text>
  <text style="stroke:none;fill:black;font-family:sans-serif;font-size:13;text-anchor:end;" transform="matrix(1 0 0 1 3036 1987)">Typeset at 100 points</text>
  <text style="stroke:none;fill:black;font-family:sans-serif;font-size:13;" transform="matrix(1 0 0 1 263 726)">Small</text>
  <text style="stroke:none;fill:black;font-family:sans-serif;font-size:13;" transform="matrix(1 0 0 1 263 1156)">Medium</text>
  <text style="stroke:none;fill:black;font-family:sans-serif;font-size:13;" transform="matrix(1 0 0 1 263 1586)">Large</text>
 </g>
 <g id="Guides">
  <g id="H-reference" style="fill:#27AAE1;stroke:none;" transform="matrix(1 0 0 1 339 696)">
   <path d="M0.993347 0L3.6377 0L29.3282-67.1326L30.0301-67.1326L30.0301-70.459L28.1227-70.459ZM11.6882-24.4797L46.9818-24.4797L46.2311-26.7288L12.4382-26.7288ZM55.1193 0L57.7637 0L30.6381-70.459L29.4327-70.459L29.4327-67.1326Z"/>
  </g>
  <line id="Baseline-S" style="fill:none;stroke:#27AAE1;opacity:1;stroke-width:0.5;" x1="263" x2="3036" y1="696" y2="696"/>
  <line id="Capline-S" style="fill:none;stroke:#27AAE1;opacity:1;stroke-width:0.5;" x1="263" x2="3036" y1="625.541" y2="625.541"/>
  <g id="H-reference" style="fill:#27AAE1;stroke:none;" transform="matrix(1 0 0 1 339 1126)">
   <path d="M0.993347 0L3.6377 0L29.3282-67.1326L30.0301-67.1326L30.0301-70.459L28.1227-70.459ZM11.6882-24.4797L46.9818-24.4797L46.2311-26.7288L12.4382-26.7288ZM55.1193 0L57.7637 0L30.6381-70.459L29.4327-70.459L29.4327-67.1326Z"/>
  </g>
  <line id="Baseline-M" style="fill:none;stroke:#27AAE1;opacity:1;stroke-width:0.5;" x1="263" x2="3036" y1="1126" y2="1126"/>
  <line id="Capline-M" style="fill:none;stroke:#27AAE1;opacity:1;stroke-width:0.5;" x1="263" x2="3036" y1="1055.54" y2="1055.54"/>
  <g id="H-reference" style="fill:#27AAE1;stroke:none;" transform="matrix(1 0 0 1 339 1556)">
   <path d="M0.993347 0L3.6377 0L29.3282-67.1326L30.0301-67.1326L30.0301-70.459L28.1227-70.459ZM11.6882-24.4797L46.9818-24.4797L46.2311-26.7288L12.4382-26.7288ZM55.1193 0L57.7637 0L30.6381-70.459L29.4327-70.459L29.4327-67.1326Z"/>
  </g>
  <line id="Baseline-L" style="fill:none;stroke:#27AAE1;opacity:1;stroke-width:0.5;" x1="263" x2="3036" y1="1556" y2="1556"/>
  <line id="Capline-L" style="fill:none;stroke:#27AAE1;opacity:1;stroke-width:0.5;" x1="263" x2="3036" y1="1485.54" y2="1485.54"/>
  <line id="left-margin-Ultralight-S" style="fill:none;stroke:#00AEEF;stroke-width:0.5;opacity:1.0;" x1="515.649" x2="515.649" y1="600.785" y2="720.121"/>
  <line id="right-margin-Ultralight-S" style="fill:none;stroke:#00AEEF;stroke-width:0.5;opacity:1.0;" x1="603.773" x2="603.773" y1="600.785" y2="720.121"/>
  <line id="left-margin-Thin-S" style="fill:none;stroke:#00AEEF;stroke-width:0.5;opacity:1.0;" x1="811.863" x2="811.863" y1="600.785" y2="720.121"/>
  <line id="right-margin-Thin-S" style="fill:none;stroke:#00AEEF;stroke-width:0.5;opacity:1.0;" x1="900.982" x2="900.982" y1="600.785" y2="720.121"/>
  <line id="left-margin-Light-S" style="fill:none;stroke:#00AEEF;stroke-width:0.5;opacity:1.0;" x1="1107.6" x2="1107.6" y1="600.785" y2="720.121"/>
  <line id="right-margin-Light-S" style="fill:none;stroke:#00AEEF;stroke-width:0.5;opacity:1.0;" x1="1198.66" x2="1198.66" y1="600.785" y2="720.121"/>
  <line id="left-margin-Regular-S" style="fill:none;stroke:#00AEEF;stroke-width:0.5;opacity:1.0;" x1="1403.58" x2="1403.58" y1="600.785" y2="720.121"/>
  <line id="right-margin-Regular-S" style="fill:none;stroke:#00AEEF;stroke-width:0.5;opacity:1.0;" x1="1496.11" x2="1496.11" y1="600.785" y2="720.121"/>
  <line id="left-margin-Medium-S" style="fill:none;stroke:#00AEEF;stroke-width:0.5;opacity:1.0;" x1="1699.83" x2="1699.83" y1="600.785" y2="720.121"/>
  <line id="right-margin-Medium-S" style="fill:none;stroke:#00AEEF;stroke-width:0.5;opacity:1.0;" x1="1793.28" x2="1793.28" y1="600.785" y2="720.121"/>
  <line id="left-margin-Semibold-S" style="fill:none;stroke:#00AEEF;stroke-width:0.5;opacity:1.0;" x1="1996.19" x2="1996.19" y1="600.785" y2="720.121"/>
  <line id="right-margin-Semibold-S" style="fill:none;stroke:#00AEEF;stroke-width:0.5;opacity:1.0;" x1="2090.35" x2="2090.35" y1="600.785" y2="720.121"/>
  <line id="left-margin-Bold-S" style="fill:none;stroke:#00AEEF;stroke-width:0.5;opacity:1.0;" x1="2292.43" x2="2292.43" y1="600.785" y2="720.121"/>
  <line id="right-margin-Bold-S" style="fill:none;stroke:#00AEEF;stroke-width:0.5;opacity:1.0;" x1="2387.52" x2="2387.52" y1="600.785" y2="720.121"/>
  <line id="left-margin-Heavy-S" style="fill:none;stroke:#00AEEF;stroke-width:0.5;opacity:1.0;" x1="2588.47" x2="2588.47" y1="600.785" y2="720.121"/>
  <line id="right-margin-Heavy-S" style="fill:none;stroke:#00AEEF;stroke-width:0.5;opacity:1.0;" x1="2684.91" x2="2684.91" y1="600.785" y2="720.121"/>
  <line id="left-margin-Black-S" style="fill:none;stroke:#00AEEF;stroke-width:0.5;opacity:1.0;" x1="2884.57" x2="2884.57" y1="600.785" y2="720.121"/>
  <line id="right-margin-Black-S" style="fill:none;stroke:#00AEEF;stroke-width:0.5;opacity:1.0;" x1="2982.23" x2="2982.23" y1="600.785" y2="720.121"/>
  <line id="left-margin-Ultralight-M" style="fill:none;stroke:#00AEEF;stroke-width:0.5;opacity:1.0;" x1="503.641" x2="503.641" y1="1030.79" y2="1150.12"/>
  <line id="right-margin-Ultralight-M" style="fill:none;stroke:#00AEEF;stroke-width:0.5;opacity:1.0;" x1="615.781" x2="615.781" y1="1030.79" y2="1150.12"/>
  <line id="left-margin-Thin-M" style="fill:none;stroke:#00AEEF;stroke-width:0.5;opacity:1.0;" x1="799.793" x2="799.793" y1="1030.79" y2="1150.12"/>
  <line id="right-margin-Thin-M" style="fill:none;stroke:#00AEEF;stroke-width:0.5;opacity:1.0;" x1="913.051" x2="913.051" y1="1030.79" y2="1150.12"/>
  <line id="left-margin-Light-M" style="fill:none;stroke:#00AEEF;stroke-width:0.5;opacity:1.0;" x1="1095.41" x2="1095.41" y1="1030.79" y2="1150.12"/>
  <line id="right-margin-Light-M" style="fill:none;stroke:#00AEEF;stroke-width:0.5;opacity:1.0;" x1="1210.85" x2="1210.85" y1="1030.79" y2="1150.12"/>
  <line id="left-margin-Regular-M" style="fill:none;stroke:#00AEEF;stroke-width:0.5;opacity:1.0;" x1="1391.3" x2="1391.3" y1="1030.79" y2="1150.12"/>
  <line id="right-margin-Regular-M" style="fill:none;stroke:#00AEEF;stroke-width:0.5;opacity:1.0;" x1="1508.39" x2="1508.39" y1="1030.79" y2="1150.12"/>
  <line id="left-margin-Medium-M" style="fill:none;stroke:#00AEEF;stroke-width:0.5;opacity:1.0;" x1="1687.37" x2="1687.37" y1="1030.79" y2="1150.12"/>
  <line id="right-margin-Medium-M" style="fill:none;stroke:#00AEEF;stroke-width:0.5;opacity:1.0;" x1="1805.74" x2="1805.74" y1="1030.79" y2="1150.12"/>
  <line id="left-margin-Semibold-M" style="fill:none;stroke:#00AEEF;stroke-width:0.5;opacity:1.0;" x1="1983.6" x2="1983.6" y1="1030.79" y2="1150.12"/>
  <line id="right-margin-Semibold-M" style="fill:none;stroke:#00AEEF;stroke-width:0.5;opacity:1.0;" x1="2102.94" x2="2102.94" y1="1030.79" y2="1150.12"/>
  <line id="left-margin-Bold-M" style="fill:none;stroke:#00AEEF;stroke-width:0.5;opacity:1.0;" x1="2279.66" x2="2279.66" y1="1030.79" y2="1150.12"/>
  <line id="right-margin-Bold-M" style="fill:none;stroke:#00AEEF;stroke-width:0.5;opacity:1.0;" x1="2400.29" x2="2400.29" y1="1030.79" y2="1150.12"/>
  <line id="left-margin-Heavy-M" style="fill:none;stroke:#00AEEF;stroke-width:0.5;opacity:1.0;" x1="2575.44" x2="2575.44" y1="1030.79" y2="1150.12"/>
  <line id="right-margin-Heavy-M" style="fill:none;stroke:#00AEEF;stroke-width:0.5;opacity:1.0;" x1="2697.94" x2="2697.94" y1="1030.79" y2="1150.12"/>
  <line id="left-margin-Black-M" style="fill:none;stroke:#00AEEF;stroke-width:0.5;opacity:1.0;" x1="2871.32" x2="2871.32" y1="1030.79" y2="1150.12"/>
  <line id="right-margin-Black-M" style="fill:none;stroke:#00AEEF;stroke-width:0.5;opacity:1.0;" x1="2995.48" x2="2995.48" y1="1030.79" y2="1150.12"/>
  <line id="left-margin-Ultralight-L" style="fill:none;stroke:#00AEEF;stroke-width:0.5;opacity:1.0;" x1="487.603" x2="487.603" y1="1460.79" y2="1580.12"/>
  <line id="right-margin-Ultralight-L" style="fill:none;stroke:#00AEEF;stroke-width:0.5;opacity:1.0;" x1="631.819" x2="631.819" y1="1460.79" y2="1580.12"/>
  <line id="left-margin-Thin-L" style="fill:none;stroke:#00AEEF;stroke-width:0.5;opacity:1.0;" x1="783.689" x2="783.689" y1="1460.79" y2="1580.12"/>
  <line id="right-margin-Thin-L" style="fill:none;stroke:#00AEEF;stroke-width:0.5;opacity:1.0;" x1="929.156" x2="929.156" y1="1460.79" y2="1580.12"/>
  <line id="left-margin-Light-L" style="fill:none;stroke:#00AEEF;stroke-width:0.5;opacity:1.0;" x1="1079.18" x2="1079.18" y1="1460.79" y2="1580.12"/>
  <line id="right-margin-Light-L" style="fill:none;stroke:#00AEEF;stroke-width:0.5;opacity:1.0;" x1="1227.09" x2="1227.09" y1="1460.79" y2="1580.12"/>
  <line id="left-margin-Regular-L" style="fill:none;stroke:#00AEEF;stroke-width:0.5;opacity:1.0;" x1="1374.97" x2="1374.97" y1="1460.79" y2="1580.12"/>
  <line id="right-margin-Regular-L" style="fill:none;stroke:#00AEEF;stroke-width:0.5;opacity:1.0;" x1="1524.72" x2="1524.72" y1="1460.79" y2="1580.12"/>
  <line id="left-margin-Medium-L" style="fill:none;stroke:#00AEEF;stroke-width:0.5;opacity:1.0;" x1="1670.87" x2="1670.87" y1="1460.79" y2="1580.12"/>
  <line id="right-margin-Medium-L" style="fill:none;stroke:#00AEEF;stroke-width:0.5;opacity:1.0;" x1="1822.24" x2="1822.24" y1="1460.79" y2="1580.12"/>
  <line id="left-margin-Semibold-L" style="fill:none;stroke:#00AEEF;stroke-width:0.5;opacity:1.0;" x1="1966.97" x2="1966.97" y1="1460.79" y2="1580.12"/>
  <line id="right-margin-Semibold-L" style="fill:none;stroke:#00AEEF;stroke-width:0.5;opacity:1.0;" x1="2119.57" x2="2119.57" y1="1460.79" y2="1580.12"/>
  <line id="left-margin-Bold-L" style="fill:none;stroke:#00AEEF;stroke-width:0.5;opacity:1.0;" x1="2262.87" x2="2262.87" y1="1460.79" y2="1580.12"/>
  <line id="right-margin-Bold-L" style="fill:none;stroke:#00AEEF;stroke-width:0.5;opacity:1.0;" x1="2417.09" x2="2417.09" y1="1460.79" y2="1580.12"/>
  <line id="left-margin-Heavy-L" style="fill:none;stroke:#00AEEF;stroke-width:0.5;opacity:1.0;" x1="2558.4" x2="2558.4" y1="1460.79" y2="1580.12"/>
  <line id="right-margin-Heavy-L" style="fill:none;stroke:#00AEEF;stroke-width:0.5;opacity:1.0;" x1="2714.98" x2="2714.98" y1="1460.79" y2="1580.12"/>
  <line id="left-margin-Black-L" style="fill:none;stroke:#00AEEF;stroke-width:0.5;opacity:1.0;" x1="2854.05" x2="2854.05" y1="1460.79" y2="1580.12"/>
  <line id="right-margin-Black-L" style="fill:none;stroke:#00AEEF;stroke-width:0.5;opacity:1.0;" x1="3012.75" x2="3012.75" y1="1460.79" y2="1580.12"/>
 </g>
 <g id="Symbols">
  <g id="Black-L" transform="matrix(1 0 0 1 2854.05 1556)">
   <path class="multicolor-0:tintColor hierarchical-0:tertiary SFSymbolsPreview007AFF" d="M79.3457 32.8613Q90.5762 32.8613 100.757 29.3945Q110.938 25.9277 119.458 19.6777Q127.979 13.4277 134.229 4.90723Q140.479-3.61328 143.945-13.7939Q147.412-23.9746 147.412-35.2051Q147.412-46.4355 143.945-56.6162Q140.479-66.7969 134.204-75.3174Q127.93-83.8379 119.434-90.1123Q110.938-96.3867 100.732-99.8291Q90.5273-103.271 79.2969-103.271Q68.1152-103.271 57.9102-99.8291Q47.7051-96.3867 39.209-90.1123Q30.7129-83.8379 24.4385-75.3174Q18.1641-66.7969 14.7217-56.6162Q11.2793-46.4355 11.2793-35.2051Q11.2793-23.9746 14.7217-13.7939Q18.1641-3.61328 24.4385 4.90723Q30.7129 13.4277 39.2334 19.6777Q47.7539 25.9277 57.9346 29.3945Q68.1152 32.8613 79.3457 32.8613Z"/>
   <path class="multicolor-1:white hierarchical-1:primary SFSymbolsPreviewFFFFFF" d="M73.3887-13.3301Q67.627-13.3301 62.5244-15.5273Q57.4219-17.7246 53.54-21.6064Q49.6582-25.4883 47.4609-30.5664Q45.2637-35.6445 45.2637-41.4551Q45.2637-47.2168 47.4609-52.3193Q49.6582-57.4219 53.54-61.3281Q57.4219-65.2344 62.5244-67.4316Q67.627-69.6289 73.3887-69.6289Q79.1504-69.6289 84.2529-67.4316Q89.3555-65.2344 93.2129-61.3281Q97.0703-57.4219 99.2676-52.3193Q101.465-47.2168 101.465-41.4551Q101.465-37.9395 100.61-34.668Q99.7559-31.3965 98.1934-28.4668L110.84-15.8691Q112.207-14.5508 112.793-12.9639Q113.379-11.377 113.379-9.66797Q113.379-5.9082 110.889-3.39355Q108.398-0.878906 104.736-0.878906Q101.074-0.878906 98.3398-3.56445L85.5469-16.2598Q82.8125-14.8438 79.7363-14.0869Q76.6602-13.3301 73.3887-13.3301ZM73.3887-26.3184Q77.5391-26.3184 80.9814-28.3447Q84.4238-30.3711 86.4502-33.8135Q88.4766-37.2559 88.4766-41.4551Q88.4766-45.6543 86.4502-49.0967Q84.4238-52.5391 80.9814-54.5654Q77.5391-56.5918 73.3887-56.5918Q69.2383-56.5918 65.7959-54.541Q62.3535-52.4902 60.3027-49.0723Q58.252-45.6543 58.252-41.4551Q58.252-37.2559 60.3027-33.8135Q62.3535-30.3711 65.7959-28.3447Q69.2383-26.3184 73.3887-26.3184Z"/>
  </g>
  <g id="Heavy-L" transform="matrix(1 0 0 1 2558.4 1556)">
   <path class="multicolor-0:tintColor hierarchical-0:tertiary SFSymbolsPreview007AFF" d="M78.2715 31.7871Q89.3555 31.7871 99.3652 28.3691Q109.375 24.9512 117.749 18.7988Q126.123 12.6465 132.3 4.24805Q138.477-4.15039 141.895-14.1602Q145.312-24.1699 145.312-35.2051Q145.312-46.2402 141.895-56.2744Q138.477-66.3086 132.3-74.6826Q126.123-83.0566 117.749-89.2578Q109.375-95.459 99.3408-98.8525Q89.3066-102.246 78.2227-102.246Q67.2363-102.246 57.2021-98.8525Q47.168-95.459 38.7939-89.2578Q30.4199-83.0566 24.2432-74.6826Q18.0664-66.3086 14.6729-56.2744Q11.2793-46.2402 11.2793-35.2051Q11.2793-24.1699 14.6729-14.1602Q18.0664-4.15039 24.2432 4.24805Q30.4199 12.6465 38.8184 18.7988Q47.2168 24.9512 57.2266 28.3691Q67.2363 31.7871 78.2715 31.7871Z"/>
   <path class="multicolor-1:white hierarchical-1:primary SFSymbolsPreviewFFFFFF" d="M72.0703-14.0137Q66.3574-14.0137 61.3281-16.1865Q56.2988-18.3594 52.4658-22.168Q48.6328-25.9766 46.46-31.0059Q44.2871-36.0352 44.2871-41.748Q44.2871-47.4609 46.46-52.4902Q48.6328-57.5195 52.4658-61.377Q56.2988-65.2344 61.3281-67.4072Q66.3574-69.5801 72.0703-69.5801Q77.7344-69.5801 82.7637-67.4072Q87.793-65.2344 91.626-61.377Q95.459-57.5195 97.6074-52.4902Q99.7559-47.4609 99.7559-41.748Q99.7559-38.0859 98.8037-34.6436Q97.8516-31.2012 96.0938-28.2227L109.863-14.4531Q111.084-13.2812 111.646-11.8652Q112.207-10.4492 112.207-8.88672Q112.207-5.51758 109.985-3.27148Q107.764-1.02539 104.492-1.02539Q101.123-1.02539 98.6328-3.51562L84.7656-17.2852Q81.9824-15.7227 78.7354-14.8682Q75.4883-14.0137 72.0703-14.0137ZM72.0703-25.7324Q76.4648-25.7324 80.1025-27.8809Q83.7402-30.0293 85.8887-33.6914Q88.0371-37.3535 88.0371-41.748Q88.0371-46.1914 85.8887-49.8535Q83.7402-53.5156 80.1025-55.6641Q76.4648-57.8125 72.0703-57.8125Q67.6758-57.8125 64.0137-55.6396Q60.3516-53.4668 58.1787-49.8291Q56.0059-46.1914 56.0059-41.748Q56.0059-37.3535 58.1787-33.6914Q60.3516-30.0293 64.0137-27.8809Q67.6758-25.7324 72.0703-25.7324Z"/>
  </g>
  <g id="Bold-L" transform="matrix(1 0 0 1 2262.87 1556)">
   <path class="multicolor-0:tintColor hierarchical-0:tertiary SFSymbolsPreview007AFF" d="M77.0996 30.6152Q87.9395 30.6152 97.7783 27.2461Q107.617 23.877 115.869 17.8223Q124.121 11.7676 130.176 3.51562Q136.23-4.73633 139.6-14.5752Q142.969-24.4141 142.969-35.2539Q142.969-46.0938 139.6-55.9326Q136.23-65.7715 130.151-73.999Q124.072-82.2266 115.845-88.3057Q107.617-94.3848 97.7539-97.7295Q87.8906-101.074 77.0508-101.074Q66.2598-101.074 56.3965-97.7295Q46.5332-94.3848 38.3301-88.3057Q30.127-82.2266 24.0479-73.999Q17.9688-65.7715 14.624-55.9326Q11.2793-46.0938 11.2793-35.2539Q11.2793-24.4141 14.624-14.5752Q17.9688-4.73633 24.0479 3.51562Q30.127 11.7676 38.3545 17.8223Q46.582 23.877 56.4209 27.2461Q66.2598 30.6152 77.0996 30.6152Z"/>
   <path class="multicolor-1:white hierarchical-1:primary SFSymbolsPreviewFFFFFF" d="M70.6055-14.7461Q64.9902-14.7461 60.0098-16.8945Q55.0293-19.043 51.2695-22.8027Q47.5098-26.5625 45.3613-31.5186Q43.2129-36.4746 43.2129-42.0898Q43.2129-47.7539 45.3613-52.71Q47.5098-57.666 51.2695-61.4502Q55.0293-65.2344 60.0098-67.3828Q64.9902-69.5312 70.6055-69.5312Q76.2207-69.5312 81.1768-67.3828Q86.1328-65.2344 89.8926-61.4502Q93.6523-57.666 95.7764-52.71Q97.9004-47.7539 97.9004-42.0898Q97.9004-38.2324 96.8262-34.6436Q95.752-31.0547 93.7988-27.9785L108.838-12.9395Q109.863-11.9141 110.376-10.6689Q110.889-9.42383 110.889-8.05664Q110.889-5.12695 109.009-3.17383Q107.129-1.2207 104.248-1.2207Q101.221-1.2207 99.0234-3.4668L83.9844-18.457Q81.0547-16.6992 77.6611-15.7227Q74.2676-14.7461 70.6055-14.7461ZM70.6055-25.0977Q75.293-25.0977 79.1504-27.3926Q83.0078-29.6875 85.3027-33.5693Q87.5977-37.4512 87.5977-42.1387Q87.5977-46.8262 85.3027-50.708Q83.0078-54.5898 79.1504-56.8848Q75.293-59.1797 70.6055-59.1797Q65.918-59.1797 62.0361-56.8604Q58.1543-54.541 55.8594-50.6836Q53.5645-46.8262 53.5645-42.1387Q53.5645-37.4512 55.8594-33.5693Q58.1543-29.6875 62.0361-27.3926Q65.918-25.0977 70.6055-25.0977Z"/>
  </g>
  <g id="Semibold-L" transform="matrix(1 0 0 1 1966.97 1556)">
   <path class="multicolor-0:tintColor hierarchical-0:tertiary SFSymbolsPreview007AFF" d="M76.2695 29.7852Q86.9629 29.7852 96.6797 26.4648Q106.396 23.1445 114.551 17.1631Q122.705 11.1816 128.687 3.02734Q134.668-5.12695 137.988-14.8438Q141.309-24.5605 141.309-35.2539Q141.309-45.9473 137.988-55.6641Q134.668-65.3809 128.662-73.5107Q122.656-81.6406 114.526-87.6465Q106.396-93.6523 96.6553-96.9727Q86.9141-100.293 76.2207-100.293Q65.5273-100.293 55.8105-96.9727Q46.0938-93.6523 37.9883-87.6465Q29.8828-81.6406 23.877-73.5107Q17.8711-65.3809 14.5752-55.6641Q11.2793-45.9473 11.2793-35.2539Q11.2793-24.5605 14.5996-14.8438Q17.9199-5.12695 23.9014 3.02734Q29.8828 11.1816 38.0127 17.1631Q46.1426 23.1445 55.8594 26.4648Q65.5762 29.7852 76.2695 29.7852Z"/>
   <path class="multicolor-1:white hierarchical-1:primary SFSymbolsPreviewFFFFFF" d="M69.5801-15.2832Q64.0137-15.2832 59.082-17.3828Q54.1504-19.4824 50.4395-23.2178Q46.7285-26.9531 44.6045-31.8604Q42.4805-36.7676 42.4805-42.334Q42.4805-47.9004 44.6045-52.8076Q46.7285-57.7148 50.4395-61.4746Q54.1504-65.2344 59.082-67.3584Q64.0137-69.4824 69.5801-69.4824Q75.1465-69.4824 80.0537-67.3584Q84.9609-65.2344 88.6719-61.499Q92.3828-57.7637 94.5068-52.832Q96.6309-47.9004 96.6309-42.334Q96.6309-38.3301 95.459-34.6191Q94.2871-30.9082 92.2363-27.7832L108.105-11.8164Q109.033-10.9375 109.521-9.81445Q110.01-8.69141 110.01-7.4707Q110.01-4.78516 108.325-3.07617Q106.641-1.36719 104.053-1.36719Q101.27-1.36719 99.2676-3.41797L83.3984-19.2383Q80.4199-17.3828 76.9043-16.333Q73.3887-15.2832 69.5801-15.2832ZM69.5801-24.6094Q74.4629-24.6094 78.4668-27.0264Q82.4707-29.4434 84.8633-33.4717Q87.2559-37.5 87.2559-42.334Q87.2559-47.2656 84.8633-51.2939Q82.4707-55.3223 78.4668-57.7148Q74.4629-60.1074 69.5801-60.1074Q64.7461-60.1074 60.6934-57.6904Q56.6406-55.2734 54.248-51.2451Q51.8555-47.2168 51.8555-42.334Q51.8555-37.5 54.248-33.4717Q56.6406-29.4434 60.6934-27.0264Q64.7461-24.6094 69.5801-24.6094Z"/>
  </g>
  <g id="Medium-L" transform="matrix(1 0 0 1 1670.87 1556)">
   <path class="multicolor-0:tintColor hierarchical-0:tertiary SFSymbolsPreview007AFF" d="M75.6836 29.1504Q86.2305 29.1504 95.8496 25.8545Q105.469 22.5586 113.55 16.626Q121.631 10.6934 127.563 2.63672Q133.496-5.41992 136.792-15.0635Q140.088-24.707 140.088-35.2539Q140.088-45.8496 136.792-55.4688Q133.496-65.0879 127.539-73.1445Q121.582-81.2012 113.525-87.1582Q105.469-93.1152 95.8252-96.3867Q86.1816-99.6582 75.6348-99.6582Q65.0391-99.6582 55.4199-96.3867Q45.8008-93.1152 37.7441-87.1582Q29.6875-81.2012 23.7549-73.1445Q17.8223-65.0879 14.5508-55.4688Q11.2793-45.8496 11.2793-35.2539Q11.2793-24.707 14.5508-15.0635Q17.8223-5.41992 23.7549 2.63672Q29.6875 10.6934 37.7686 16.626Q45.8496 22.5586 55.4688 25.8545Q65.0879 29.1504 75.6836 29.1504Z"/>
   <path class="multicolor-1:white hierarchical-1:primary SFSymbolsPreviewFFFFFF" d="M68.7988-15.6738Q63.2324-15.6738 58.374-17.749Q53.5156-19.8242 49.8047-23.5352Q46.0938-27.2461 43.9941-32.1045Q41.8945-36.9629 41.8945-42.4805Q41.8945-48.0469 43.9941-52.9053Q46.0938-57.7637 49.8047-61.499Q53.5156-65.2344 58.374-67.334Q63.2324-69.4336 68.7988-69.4336Q74.3164-69.4336 79.1748-67.334Q84.0332-65.2344 87.7197-61.5234Q91.4062-57.8125 93.5059-52.9297Q95.6055-48.0469 95.6055-42.4805Q95.6055-38.3789 94.3848-34.5947Q93.1641-30.8105 90.9668-27.6367L107.52-11.0352Q108.35-10.2051 108.813-9.17969Q109.277-8.1543 109.277-7.03125Q109.277-4.58984 107.764-3.00293Q106.25-1.41602 103.906-1.41602Q101.318-1.41602 99.4141-3.41797L82.959-19.873Q79.8828-17.8711 76.2939-16.7725Q72.7051-15.6738 68.7988-15.6738ZM68.7988-24.2676Q73.8281-24.2676 77.9541-26.7578Q82.0801-29.248 84.5459-33.3984Q87.0117-37.5488 87.0117-42.5293Q87.0117-47.5586 84.5459-51.709Q82.0801-55.8594 77.9541-58.3252Q73.8281-60.791 68.7988-60.791Q63.7695-60.791 59.6191-58.3252Q55.4688-55.8594 53.0029-51.709Q50.5371-47.5586 50.5371-42.5293Q50.5371-37.5488 53.0029-33.3984Q55.4688-29.248 59.6191-26.7578Q63.7695-24.2676 68.7988-24.2676Z"/>
  </g>
  <g id="Regular-L" transform="matrix(1 0 0 1 1374.97 1556)">
   <path class="multicolor-0:tintColor hierarchical-0:tertiary SFSymbolsPreview007AFF" d="M74.8535 28.3203Q85.3027 28.3203 94.7998 25.0732Q104.297 21.8262 112.256 15.9668Q120.215 10.1074 126.099 2.14844Q131.982-5.81055 135.229-15.332Q138.477-24.8535 138.477-35.2539Q138.477-45.7031 135.229-55.2002Q131.982-64.6973 126.099-72.6562Q120.215-80.6152 112.256-86.499Q104.297-92.3828 94.7754-95.6299Q85.2539-98.877 74.8047-98.877Q64.3555-98.877 54.8584-95.6299Q45.3613-92.3828 37.4268-86.499Q29.4922-80.6152 23.6084-72.6562Q17.7246-64.6973 14.502-55.2002Q11.2793-45.7031 11.2793-35.2539Q11.2793-24.8535 14.5264-15.332Q17.7734-5.81055 23.6328 2.14844Q29.4922 10.1074 37.4512 15.9668Q45.4102 21.8262 54.9072 25.0732Q64.4043 28.3203 74.8535 28.3203Z"/>
   <path class="multicolor-1:white hierarchical-1:primary SFSymbolsPreviewFFFFFF" d="M67.7734-16.1621Q62.3047-16.1621 57.4707-18.2373Q52.6367-20.3125 48.9746-23.9746Q45.3125-27.6367 43.2373-32.4463Q41.1621-37.2559 41.1621-42.7246Q41.1621-48.2422 43.2373-53.0518Q45.3125-57.8613 48.9746-61.5479Q52.6367-65.2344 57.4707-67.3096Q62.3047-69.3848 67.7734-69.3848Q73.2422-69.3848 78.0518-67.3096Q82.8613-65.2344 86.5234-61.5723Q90.1855-57.9102 92.2607-53.0762Q94.3359-48.2422 94.3359-42.7246Q94.3359-38.4766 93.0176-34.5703Q91.6992-30.6641 89.4043-27.4414L106.787-9.96094Q107.52-9.22852 107.959-8.3252Q108.398-7.42188 108.398-6.44531Q108.398-4.29688 107.104-2.92969Q105.811-1.5625 103.711-1.5625Q101.367-1.5625 99.6582-3.36914L82.373-20.6543Q79.248-18.5547 75.5371-17.3584Q71.8262-16.1621 67.7734-16.1621ZM67.7734-23.8281Q72.998-23.8281 77.2705-26.416Q81.543-29.0039 84.1064-33.3008Q86.6699-37.5977 86.6699-42.7734Q86.6699-47.998 84.1064-52.2949Q81.543-56.5918 77.2705-59.1553Q72.998-61.7188 67.7734-61.7188Q62.5977-61.7188 58.2764-59.1553Q53.9551-56.5918 51.3916-52.2705Q48.8281-47.9492 48.8281-42.7734Q48.8281-37.5977 51.3916-33.3008Q53.9551-29.0039 58.2764-26.416Q62.5977-23.8281 67.7734-23.8281Z"/>
  </g>
  <g id="Light-L" transform="matrix(1 0 0 1 1079.18 1556)">
   <path class="multicolor-0:tintColor hierarchical-0:tertiary SFSymbolsPreview007AFF" d="M73.9258 27.3926Q84.2285 27.3926 93.6035 24.1943Q102.979 20.9961 110.815 15.2344Q118.652 9.47266 124.438 1.63574Q130.225-6.20117 133.423-15.5762Q136.621-24.9512 136.621-35.2539Q136.621-45.5566 133.423-54.9316Q130.225-64.3066 124.438-72.1436Q118.652-79.9805 110.815-85.7666Q102.979-91.5527 93.6035-94.751Q84.2285-97.9492 73.877-97.9492Q63.5742-97.9492 54.2236-94.751Q44.873-91.5527 37.0361-85.7666Q29.1992-79.9805 23.4131-72.1436Q17.627-64.3066 14.4531-54.9316Q11.2793-45.5566 11.2793-35.2539Q11.2793-24.9512 14.4775-15.5762Q17.6758-6.20117 23.4375 1.63574Q29.1992 9.47266 37.0361 15.2344Q44.873 20.9961 54.248 24.1943Q63.623 27.3926 73.9258 27.3926Z"/>
   <path class="multicolor-1:white hierarchical-1:primary SFSymbolsPreviewFFFFFF" d="M66.748-16.7969Q61.377-16.7969 56.665-18.8232Q51.9531-20.8496 48.3643-24.4385Q44.7754-28.0273 42.749-32.7148Q40.7227-37.4023 40.7227-42.7734Q40.7227-48.1445 42.749-52.8564Q44.7754-57.5684 48.3643-61.1572Q51.9531-64.7461 56.665-66.7969Q61.377-68.8477 66.748-68.8477Q72.0703-68.8477 76.7822-66.7969Q81.4941-64.7461 85.083-61.1572Q88.6719-57.5684 90.6982-52.8564Q92.7246-48.1445 92.7246-42.7734Q92.7246-38.3789 91.2842-34.375Q89.8438-30.3711 87.3535-27.1484L105.664-8.74023Q106.299-8.05664 106.665-7.34863Q107.031-6.64062 107.031-5.81055Q107.031-4.10156 106.006-3.00293Q104.98-1.9043 103.271-1.9043Q101.367-1.9043 99.9512-3.4668L81.7871-21.6797Q78.6133-19.4336 74.7803-18.1152Q70.9473-16.7969 66.748-16.7969ZM66.748-22.8027Q72.2656-22.8027 76.8066-25.5371Q81.3477-28.2715 84.0576-32.8125Q86.7676-37.3535 86.7676-42.8223Q86.7676-48.3398 84.0576-52.8809Q81.3477-57.4219 76.8066-60.1562Q72.2656-62.8906 66.748-62.8906Q61.2793-62.8906 56.7139-60.1562Q52.1484-57.4219 49.4385-52.8564Q46.7285-48.291 46.7285-42.8223Q46.7285-37.3535 49.4385-32.8125Q52.1484-28.2715 56.7139-25.5371Q61.2793-22.8027 66.748-22.8027Z"/>
  </g>
  <g id="Thin-L" transform="matrix(1 0 0 1 783.689 1556)">
   <path class="multicolor-0:tintColor hierarchical-0:tertiary SFSymbolsPreview007AFF" d="M72.7051 26.1719Q82.8613 26.1719 92.041 23.0469Q101.221 19.9219 108.911 14.2822Q116.602 8.64258 122.266 0.952148Q127.93-6.73828 131.055-15.9424Q134.18-25.1465 134.18-35.2539Q134.18-45.4102 131.055-54.5898Q127.93-63.7695 122.29-71.46Q116.65-79.1504 108.936-84.8145Q101.221-90.4785 92.0166-93.6035Q82.8125-96.7285 72.7051-96.7285Q62.5488-96.7285 53.3691-93.6035Q44.1895-90.4785 36.499-84.8145Q28.8086-79.1504 23.1689-71.46Q17.5293-63.7695 14.4043-54.5898Q11.2793-45.4102 11.2793-35.2539Q11.2793-25.1465 14.4043-15.9424Q17.5293-6.73828 23.1689 0.952148Q28.8086 8.64258 36.5234 14.2822Q44.2383 19.9219 53.418 23.0469Q62.5977 26.1719 72.7051 26.1719Z"/>
   <path class="multicolor-1:white hierarchical-1:primary SFSymbolsPreviewFFFFFF" d="M65.3809-17.6758Q60.1562-17.6758 55.5908-19.6289Q51.0254-21.582 47.5586-25.0488Q44.0918-28.5156 42.1143-33.0566Q40.1367-37.5977 40.1367-42.8223Q40.1367-48.0469 42.1143-52.6123Q44.0918-57.1777 47.5586-60.6689Q51.0254-64.1602 55.5908-66.1377Q60.1562-68.1152 65.3809-68.1152Q70.5566-68.1152 75.1221-66.1377Q79.6875-64.1602 83.1543-60.6689Q86.6211-57.1777 88.5986-52.6123Q90.5762-48.0469 90.5762-42.8223Q90.5762-38.2324 89.0137-34.1309Q87.4512-30.0293 84.668-26.7578L104.199-7.08008Q104.688-6.54297 104.98-6.0791Q105.273-5.61523 105.273-4.93164Q105.273-3.85742 104.59-3.125Q103.906-2.39258 102.686-2.39258Q101.416-2.39258 100.342-3.56445L80.957-23.0957Q77.7344-20.5566 73.7549-19.1162Q69.7754-17.6758 65.3809-17.6758ZM65.4297-21.4844Q71.3379-21.4844 76.2207-24.3896Q81.1035-27.2949 83.96-32.1533Q86.8164-37.0117 86.8164-42.8711Q86.8164-48.8281 83.96-53.6865Q81.1035-58.5449 76.2207-61.4746Q71.3379-64.4043 65.4297-64.4043Q59.5215-64.4043 54.6387-61.4746Q49.7559-58.5449 46.8506-53.6621Q43.9453-48.7793 43.9453-42.8711Q43.9453-37.0117 46.8506-32.1533Q49.7559-27.2949 54.6387-24.3896Q59.5215-21.4844 65.4297-21.4844Z"/>
  </g>
  <g id="Ultralight-L" transform="matrix(1 0 0 1 487.603 1556)">
   <path class="multicolor-0:tintColor hierarchical-0:tertiary SFSymbolsPreview007AFF" d="M72.0703 25.5371Q82.1289 25.5371 91.2354 22.4609Q100.342 19.3848 107.935 13.7939Q115.527 8.20312 121.143 0.585938Q126.758-7.03125 129.858-16.1133Q132.959-25.1953 132.959-35.2539Q132.959-45.3125 129.858-54.4189Q126.758-63.5254 121.167-71.1182Q115.576-78.7109 107.959-84.3262Q100.342-89.9414 91.2354-93.0176Q82.1289-96.0938 72.0703-96.0938Q62.0605-96.0938 52.9541-93.0176Q43.8477-89.9414 36.2305-84.3262Q28.6133-78.7109 23.0225-71.1182Q17.4316-63.5254 14.3555-54.4189Q11.2793-45.3125 11.2793-35.2539Q11.2793-25.1953 14.3555-16.1133Q17.4316-7.03125 23.0225 0.585938Q28.6133 8.20312 36.2305 13.7939Q43.8477 19.3848 52.9541 22.4609Q62.0605 25.5371 72.0703 25.5371Z"/>
   <path class="multicolor-1:white hierarchical-1:primary SFSymbolsPreviewFFFFFF" d="M64.6973-18.1152Q59.5215-18.1152 55.0293-20.0195Q50.5371-21.9238 47.1191-25.3418Q43.7012-28.7598 41.7725-33.2275Q39.8438-37.6953 39.8438-42.8711Q39.8438-47.9492 41.7725-52.4414Q43.7012-56.9336 47.1191-60.376Q50.5371-63.8184 55.0293-65.7959Q59.5215-67.7734 64.6973-67.7734Q69.7754-67.7734 74.2676-65.7959Q78.7598-63.8184 82.1777-60.376Q85.5957-56.9336 87.5244-52.4414Q89.4531-47.9492 89.4531-42.8711Q89.4531-38.1348 87.8174-33.9844Q86.1816-29.834 83.3008-26.5625L103.467-6.25Q103.906-5.76172 104.126-5.44434Q104.346-5.12695 104.346-4.49219Q104.346-3.75977 103.857-3.19824Q103.369-2.63672 102.393-2.63672Q101.416-2.63672 100.586-3.61328L80.5664-23.7793Q77.2949-21.1426 73.2422-19.6289Q69.1895-18.1152 64.6973-18.1152ZM64.7461-20.8008Q70.8496-20.8008 75.9033-23.7793Q80.957-26.7578 83.9355-31.7871Q86.9141-36.8164 86.9141-42.9199Q86.9141-49.0234 83.9355-54.0771Q80.957-59.1309 75.9033-62.1582Q70.8496-65.1855 64.7461-65.1855Q58.6426-65.1855 53.5889-62.1582Q48.5352-59.1309 45.5322-54.0771Q42.5293-49.0234 42.5293-42.9199Q42.5293-36.8164 45.5322-31.7871Q48.5352-26.7578 53.5889-23.7793Q58.6426-20.8008 64.7461-20.8008Z"/>
  </g>
  <g id="Black-M" transform="matrix(1 0 0 1 2871.32 1126)">
   <path class="multicolor-0:tintColor hierarchical-0:tertiary SFSymbolsPreview007AFF" d="M62.0605 18.1152Q73.0957 18.1152 82.7637 13.9648Q92.4316 9.81445 99.7559 2.46582Q107.08-4.88281 111.255-14.5264Q115.43-24.1699 115.43-35.2051Q115.43-46.2402 111.255-55.8838Q107.08-65.5273 99.7559-72.876Q92.4316-80.2246 82.7637-84.375Q73.0957-88.5254 62.0605-88.5254Q51.0742-88.5254 41.4062-84.375Q31.7383-80.2246 24.3896-72.876Q17.041-65.5273 12.8906-55.8838Q8.74023-46.2402 8.74023-35.2051Q8.74023-24.1699 12.8906-14.5264Q17.041-4.88281 24.3896 2.46582Q31.7383 9.81445 41.4062 13.9648Q51.0742 18.1152 62.0605 18.1152Z"/>
   <path class="multicolor-1:white hierarchical-1:primary SFSymbolsPreviewFFFFFF" d="M57.6172-17.9199Q51.6602-17.9199 46.6797-20.874Q41.6992-23.8281 38.7207-28.8086Q35.7422-33.7891 35.7422-39.7949Q35.7422-45.8008 38.7207-50.7812Q41.6992-55.7617 46.6797-58.7646Q51.6602-61.7676 57.6172-61.7676Q63.623-61.7676 68.6035-58.7646Q73.584-55.7617 76.5625-50.7812Q79.541-45.8008 79.541-39.7949Q79.541-37.1582 78.9307-34.7412Q78.3203-32.3242 77.1973-30.127L86.3281-20.9961Q87.4512-19.873 87.915-18.5791Q88.3789-17.2852 88.3789-15.8691Q88.3789-12.793 86.3037-10.6934Q84.2285-8.59375 81.2012-8.59375Q78.2227-8.59375 76.0254-10.7422L66.6992-19.9707Q64.6484-18.9453 62.3535-18.4326Q60.0586-17.9199 57.6172-17.9199ZM57.6172-28.4668Q60.7422-28.4668 63.3301-29.9805Q65.918-31.4941 67.4316-34.0576Q68.9453-36.6211 68.9453-39.7949Q68.9453-42.9688 67.4316-45.5322Q65.918-48.0957 63.3301-49.6094Q60.7422-51.123 57.6172-51.123Q54.541-51.123 51.9531-49.6094Q49.3652-48.0957 47.8271-45.5322Q46.2891-42.9688 46.2891-39.7949Q46.2891-36.6211 47.8271-34.0576Q49.3652-31.4941 51.9531-29.9805Q54.541-28.4668 57.6172-28.4668Z"/>
  </g>
  <g id="Heavy-M" transform="matrix(1 0 0 1 2575.44 1126)">
   <path class="multicolor-0:tintColor hierarchical-0:tertiary SFSymbolsPreview007AFF" d="M61.2305 17.2852Q72.0703 17.2852 81.5918 13.1836Q91.1133 9.08203 98.3154 1.85547Q105.518-5.37109 109.644-14.8682Q113.77-24.3652 113.77-35.2051Q113.77-46.0449 109.644-55.542Q105.518-65.0391 98.3154-72.29Q91.1133-79.541 81.5918-83.6182Q72.0703-87.6953 61.2305-87.6953Q50.4395-87.6953 40.918-83.6182Q31.3965-79.541 24.1699-72.29Q16.9434-65.0391 12.8418-55.542Q8.74023-46.0449 8.74023-35.2051Q8.74023-24.3652 12.8418-14.8682Q16.9434-5.37109 24.1699 1.85547Q31.3965 9.08203 40.918 13.1836Q50.4395 17.2852 61.2305 17.2852Z"/>
   <path class="multicolor-1:white hierarchical-1:primary SFSymbolsPreviewFFFFFF" d="M56.5918-18.4082Q50.6348-18.4082 45.7275-21.3379Q40.8203-24.2676 37.8662-29.1992Q34.9121-34.1309 34.9121-40.0879Q34.9121-46.0449 37.8662-50.9766Q40.8203-55.9082 45.7275-58.8623Q50.6348-61.8164 56.5918-61.8164Q62.5-61.8164 67.4316-58.8623Q72.3633-55.9082 75.3174-50.9766Q78.2715-46.0449 78.2715-40.0879Q78.2715-37.3047 77.5635-34.7656Q76.8555-32.2266 75.6348-29.9316L85.6445-19.9219Q86.6699-18.8965 87.1094-17.7246Q87.5488-16.5527 87.5488-15.2344Q87.5488-12.4512 85.6934-10.5713Q83.8379-8.69141 81.1035-8.69141Q78.3203-8.69141 76.2695-10.6934L66.1133-20.752Q64.0137-19.6289 61.5967-19.0186Q59.1797-18.4082 56.5918-18.4082ZM56.5918-28.125Q59.8633-28.125 62.5977-29.7363Q65.332-31.3477 66.9189-34.0576Q68.5059-36.7676 68.5059-40.0879Q68.5059-43.4082 66.9189-46.1426Q65.332-48.877 62.5977-50.4639Q59.8633-52.0508 56.5918-52.0508Q53.3203-52.0508 50.5859-50.4395Q47.8516-48.8281 46.2158-46.1182Q44.5801-43.4082 44.5801-40.0879Q44.5801-36.7676 46.2158-34.0576Q47.8516-31.3477 50.5859-29.7363Q53.3203-28.125 56.5918-28.125Z"/>
  </g>
  <g id="Bold-M" transform="matrix(1 0 0 1 2279.66 1126)">
   <path class="multicolor-0:tintColor hierarchical-0:tertiary SFSymbolsPreview007AFF" d="M60.3027 16.3574Q70.9473 16.3574 80.2734 12.3291Q89.5996 8.30078 96.7041 1.17188Q103.809-5.95703 107.861-15.2832Q111.914-24.6094 111.914-35.2539Q111.914-45.8496 107.861-55.1758Q103.809-64.502 96.7041-71.6309Q89.5996-78.7598 80.249-82.7881Q70.8984-86.8164 60.3027-86.8164Q49.707-86.8164 40.3564-82.7881Q31.0059-78.7598 23.9014-71.6309Q16.7969-64.502 12.7686-55.1758Q8.74023-45.8496 8.74023-35.2539Q8.74023-24.6094 12.7686-15.2832Q16.7969-5.95703 23.9258 1.17188Q31.0547 8.30078 40.3809 12.3291Q49.707 16.3574 60.3027 16.3574Z"/>
   <path class="multicolor-1:white hierarchical-1:primary SFSymbolsPreviewFFFFFF" d="M55.4199-18.9941Q49.5605-18.9941 44.6777-21.8994Q39.7949-24.8047 36.8896-29.6631Q33.9844-34.5215 33.9844-40.4297Q33.9844-46.2891 36.8896-51.1719Q39.7949-56.0547 44.6777-58.9844Q49.5605-61.9141 55.4199-61.9141Q61.2793-61.9141 66.1621-58.9844Q71.0449-56.0547 73.9502-51.1963Q76.8555-46.3379 76.8555-40.4297Q76.8555-37.5 76.0742-34.79Q75.293-32.0801 73.877-29.7852L84.9121-18.7012Q85.791-17.8223 86.2061-16.7725Q86.6211-15.7227 86.6211-14.5996Q86.6211-12.1094 85.0098-10.4492Q83.3984-8.78906 80.957-8.78906Q78.4668-8.78906 76.6113-10.6445L65.4785-21.6797Q63.2812-20.4102 60.7178-19.7021Q58.1543-18.9941 55.4199-18.9941ZM55.4199-27.7344Q58.8867-27.7344 61.7676-29.4434Q64.6484-31.1523 66.3574-34.0332Q68.0664-36.9141 68.0664-40.4297Q68.0664-43.9453 66.3574-46.8262Q64.6484-49.707 61.7676-51.416Q58.8867-53.125 55.4199-53.125Q51.9531-53.125 49.0479-51.416Q46.1426-49.707 44.4336-46.8262Q42.7246-43.9453 42.7246-40.4297Q42.7246-36.9141 44.4336-34.0332Q46.1426-31.1523 49.0479-29.4434Q51.9531-27.7344 55.4199-27.7344Z"/>
  </g>
  <g id="Semibold-M" transform="matrix(1 0 0 1 1983.6 1126)">
   <path class="multicolor-0:tintColor hierarchical-0:tertiary SFSymbolsPreview007AFF" d="M59.668 15.6738Q70.1172 15.6738 79.3457 11.6943Q88.5742 7.71484 95.6055 0.683594Q102.637-6.34766 106.616-15.5518Q110.596-24.7559 110.596-35.2539Q110.596-45.7031 106.616-54.9072Q102.637-64.1113 95.6055-71.1426Q88.5742-78.1738 79.3457-82.1777Q70.1172-86.1816 59.6191-86.1816Q49.1699-86.1816 39.9658-82.1777Q30.7617-78.1738 23.7305-71.1426Q16.6992-64.1113 12.7197-54.9072Q8.74023-45.7031 8.74023-35.2539Q8.74023-24.7559 12.7197-15.5518Q16.6992-6.34766 23.7305 0.683594Q30.7617 7.71484 39.9902 11.6943Q49.2188 15.6738 59.668 15.6738Z"/>
   <path class="multicolor-1:white hierarchical-1:primary SFSymbolsPreviewFFFFFF" d="M54.541-19.3848Q48.7305-19.3848 43.8965-22.2656Q39.0625-25.1465 36.1816-29.9561Q33.3008-34.7656 33.3008-40.625Q33.3008-46.4844 36.1816-51.3184Q39.0625-56.1523 43.8965-59.0332Q48.7305-61.9141 54.541-61.9141Q60.4004-61.9141 65.21-59.0332Q70.0195-56.1523 72.9004-51.3184Q75.7812-46.4844 75.7812-40.625Q75.7812-37.5977 74.9512-34.79Q74.1211-31.9824 72.6074-29.6387L84.3262-17.8223Q85.1074-17.041 85.5225-16.0889Q85.9375-15.1367 85.9375-14.1113Q85.9375-11.8164 84.4971-10.3271Q83.0566-8.83789 80.8105-8.83789Q78.4668-8.83789 76.7578-10.5957L64.9902-22.2656Q62.6953-20.8984 60.0586-20.1416Q57.4219-19.3848 54.541-19.3848ZM54.541-27.4414Q58.1543-27.4414 61.1572-29.2236Q64.1602-31.0059 65.9424-34.0088Q67.7246-37.0117 67.7246-40.625Q67.7246-44.2871 65.9424-47.29Q64.1602-50.293 61.1572-52.0752Q58.1543-53.8574 54.541-53.8574Q50.9277-53.8574 47.9248-52.0508Q44.9219-50.2441 43.1396-47.2656Q41.3574-44.2871 41.3574-40.625Q41.3574-37.0117 43.1396-34.0088Q44.9219-31.0059 47.9248-29.2236Q50.9277-27.4414 54.541-27.4414Z"/>
  </g>
  <g id="Medium-M" transform="matrix(1 0 0 1 1687.37 1126)">
   <path class="multicolor-0:tintColor hierarchical-0:tertiary SFSymbolsPreview007AFF" d="M59.1797 15.1855Q69.5312 15.1855 78.6621 11.2305Q87.793 7.27539 94.751 0.317383Q101.709-6.64062 105.664-15.7715Q109.619-24.9023 109.619-35.2539Q109.619-45.6055 105.664-54.7363Q101.709-63.8672 94.751-70.8252Q87.793-77.7832 78.6377-81.7383Q69.4824-85.6934 59.1309-85.6934Q48.7793-85.6934 39.6484-81.7383Q30.5176-77.7832 23.584-70.8252Q16.6504-63.8672 12.6953-54.7363Q8.74023-45.6055 8.74023-35.2539Q8.74023-24.9023 12.6953-15.7715Q16.6504-6.64062 23.6084 0.317383Q30.5664 7.27539 39.6973 11.2305Q48.8281 15.1855 59.1797 15.1855Z"/>
   <path class="multicolor-1:white hierarchical-1:primary SFSymbolsPreviewFFFFFF" d="M53.9062-19.6777Q48.1445-19.6777 43.335-22.5586Q38.5254-25.4395 35.6689-30.2246Q32.8125-35.0098 32.8125-40.8203Q32.8125-46.582 35.6689-51.416Q38.5254-56.25 43.335-59.1064Q48.1445-61.9629 53.9062-61.9629Q59.7168-61.9629 64.5264-59.1064Q69.3359-56.25 72.1924-51.4404Q75.0488-46.6309 75.0488-40.8203Q75.0488-37.6953 74.1699-34.8145Q73.291-31.9336 71.6797-29.541L83.9355-17.1875Q84.6191-16.4551 85.0342-15.5762Q85.4492-14.6973 85.4492-13.7695Q85.4492-11.6211 84.1309-10.2539Q82.8125-8.88672 80.7617-8.88672Q78.5156-8.88672 76.9043-10.5469L64.6484-22.7539Q62.3047-21.2891 59.5947-20.4834Q56.8848-19.6777 53.9062-19.6777ZM53.9062-27.2461Q57.666-27.2461 60.7178-29.1016Q63.7695-30.957 65.625-34.0332Q67.4805-37.1094 67.4805-40.8203Q67.4805-44.5801 65.625-47.6562Q63.7695-50.7324 60.7178-52.5635Q57.666-54.3945 53.9062-54.3945Q50.1953-54.3945 47.1191-52.5391Q44.043-50.6836 42.1875-47.6074Q40.332-44.5312 40.332-40.8203Q40.332-37.1094 42.1875-34.0332Q44.043-30.957 47.1191-29.1016Q50.1953-27.2461 53.9062-27.2461Z"/>
  </g>
  <g id="Regular-M" transform="matrix(1 0 0 1 1391.3 1126)">
   <path class="multicolor-0:tintColor hierarchical-0:tertiary SFSymbolsPreview007AFF" d="M58.5449 14.5508Q68.75 14.5508 77.7588 10.6445Q86.7676 6.73828 93.6523-0.146484Q100.537-7.03125 104.443-16.04Q108.35-25.0488 108.35-35.2539Q108.35-45.459 104.443-54.4678Q100.537-63.4766 93.6523-70.3613Q86.7676-77.2461 77.7344-81.1523Q68.7012-85.0586 58.4961-85.0586Q48.291-85.0586 39.2822-81.1523Q30.2734-77.2461 23.4131-70.3613Q16.5527-63.4766 12.6465-54.4678Q8.74023-45.459 8.74023-35.2539Q8.74023-25.0488 12.6465-16.04Q16.5527-7.03125 23.4375-0.146484Q30.3223 6.73828 39.3311 10.6445Q48.3398 14.5508 58.5449 14.5508Z"/>
   <path class="multicolor-1:white hierarchical-1:primary SFSymbolsPreviewFFFFFF" d="M53.125-20.0684Q47.3633-20.0684 42.6025-22.9248Q37.8418-25.7812 35.0098-30.5176Q32.1777-35.2539 32.1777-41.0156Q32.1777-46.7773 35.0098-51.5625Q37.8418-56.3477 42.6025-59.1797Q47.3633-62.0117 53.125-62.0117Q58.8867-62.0117 63.6475-59.1797Q68.4082-56.3477 71.2402-51.5869Q74.0723-46.8262 74.0723-41.0156Q74.0723-37.793 73.1201-34.8145Q72.168-31.8359 70.459-29.3945L83.3984-16.3574Q84.0332-15.7227 84.4238-14.917Q84.8145-14.1113 84.8145-13.2812Q84.8145-11.377 83.667-10.1562Q82.5195-8.93555 80.6641-8.93555Q78.6133-8.93555 77.0996-10.498L64.209-23.3398Q61.8164-21.8262 59.0088-20.9473Q56.2012-20.0684 53.125-20.0684ZM53.125-26.9531Q56.9824-26.9531 60.1562-28.8818Q63.3301-30.8105 65.2344-34.0088Q67.1387-37.207 67.1387-41.0156Q67.1387-44.9219 65.2344-48.1201Q63.3301-51.3184 60.1562-53.2227Q56.9824-55.127 53.125-55.127Q49.2676-55.127 46.0693-53.1982Q42.8711-51.2695 40.9668-48.0713Q39.0625-44.873 39.0625-41.0156Q39.0625-37.207 40.9668-34.0088Q42.8711-30.8105 46.0693-28.8818Q49.2676-26.9531 53.125-26.9531Z"/>
  </g>
  <g id="Light-M" transform="matrix(1 0 0 1 1095.41 1126)">
   <path class="multicolor-0:tintColor hierarchical-0:tertiary SFSymbolsPreview007AFF" d="M57.7148 13.7207Q67.7734 13.7207 76.6357 9.8877Q85.498 6.05469 92.2607-0.708008Q99.0234-7.4707 102.856-16.333Q106.689-25.1953 106.689-35.2539Q106.689-45.3125 102.856-54.1748Q99.0234-63.0371 92.2607-69.7998Q85.498-76.5625 76.6113-80.3955Q67.7246-84.2285 57.666-84.2285Q47.6074-84.2285 38.7451-80.3955Q29.8828-76.5625 23.1445-69.7998Q16.4062-63.0371 12.5732-54.1748Q8.74023-45.3125 8.74023-35.2539Q8.74023-25.1953 12.5732-16.333Q16.4062-7.4707 23.1689-0.708008Q29.9316 6.05469 38.7939 9.8877Q47.6562 13.7207 57.7148 13.7207Z"/>
   <path class="multicolor-1:white hierarchical-1:primary SFSymbolsPreviewFFFFFF" d="M52.1973-20.6543Q46.582-20.6543 41.9434-23.4375Q37.3047-26.2207 34.5459-30.835Q31.7871-35.4492 31.7871-41.0645Q31.7871-46.6797 34.5459-51.3428Q37.3047-56.0059 41.9434-58.7646Q46.582-61.5234 52.1973-61.5234Q57.8125-61.5234 62.4512-58.7646Q67.0898-56.0059 69.8486-51.3672Q72.6074-46.7285 72.6074-41.0645Q72.6074-37.6953 71.5576-34.6436Q70.5078-31.5918 68.6523-29.1016L82.4219-15.2344Q82.959-14.6973 83.2764-14.0625Q83.5938-13.4277 83.5938-12.6953Q83.5938-11.2305 82.6904-10.2539Q81.7871-9.27734 80.2734-9.27734Q78.6133-9.27734 77.3926-10.5957L63.6719-24.2676Q61.2305-22.6074 58.3252-21.6309Q55.4199-20.6543 52.1973-20.6543ZM52.1973-26.0254Q56.3477-26.0254 59.7412-28.0762Q63.1348-30.127 65.1855-33.5449Q67.2363-36.9629 67.2363-41.0645Q67.2363-45.2637 65.1855-48.6572Q63.1348-52.0508 59.7412-54.1016Q56.3477-56.1523 52.1973-56.1523Q48.0957-56.1523 44.6777-54.1016Q41.2598-52.0508 39.209-48.6328Q37.1582-45.2148 37.1582-41.0645Q37.1582-36.9629 39.209-33.5449Q41.2598-30.127 44.6777-28.0762Q48.0957-26.0254 52.1973-26.0254Z"/>
  </g>
  <g id="Thin-M" transform="matrix(1 0 0 1 799.793 1126)">
   <path class="multicolor-0:tintColor hierarchical-0:tertiary SFSymbolsPreview007AFF" d="M56.5918 12.5977Q66.5039 12.5977 75.1709 8.88672Q83.8379 5.17578 90.4297-1.44043Q97.0215-8.05664 100.781-16.7236Q104.541-25.3906 104.541-35.2539Q104.541-45.1172 100.781-53.7842Q97.0215-62.4512 90.4297-69.0674Q83.8379-75.6836 75.1709-79.3945Q66.5039-83.1055 56.5918-83.1055Q46.7285-83.1055 38.0615-79.3945Q29.3945-75.6836 22.8271-69.0674Q16.2598-62.4512 12.5-53.7842Q8.74023-45.1172 8.74023-35.2539Q8.74023-25.3906 12.4756-16.7236Q16.2109-8.05664 22.8027-1.44043Q29.3945 5.17578 38.0859 8.88672Q46.7773 12.5977 56.5918 12.5977Z"/>
   <path class="multicolor-1:white hierarchical-1:primary SFSymbolsPreviewFFFFFF" d="M50.9766-21.4355Q45.5566-21.4355 41.0889-24.0967Q36.6211-26.7578 33.9355-31.2256Q31.25-35.6934 31.25-41.0645Q31.25-46.5332 33.9355-51.0254Q36.6211-55.5176 41.0889-58.1787Q45.5566-60.8398 50.9766-60.8398Q56.3965-60.8398 60.8643-58.1787Q65.332-55.5176 68.0176-51.0254Q70.7031-46.5332 70.7031-41.0645Q70.7031-37.5977 69.5068-34.4238Q68.3105-31.25 66.2109-28.7598L81.1035-13.7695Q81.4941-13.3301 81.7383-12.9395Q81.9824-12.5488 81.9824-11.9629Q81.9824-10.9863 81.3721-10.3516Q80.7617-9.7168 79.7363-9.7168Q78.6133-9.7168 77.7344-10.6934L62.9395-25.5371Q60.4492-23.6328 57.3975-22.5342Q54.3457-21.4355 50.9766-21.4355ZM51.0254-24.8535Q55.5176-24.8535 59.2041-27.0508Q62.8906-29.248 65.0879-32.959Q67.2852-36.6699 67.2852-41.1621Q67.2852-45.6543 65.0879-49.3652Q62.8906-53.0762 59.2041-55.2734Q55.5176-57.4707 51.0254-57.4707Q46.5332-57.4707 42.8223-55.2734Q39.1113-53.0762 36.8896-49.3652Q34.668-45.6543 34.668-41.1621Q34.668-36.6699 36.8896-32.959Q39.1113-29.248 42.8223-27.0508Q46.5332-24.8535 51.0254-24.8535Z"/>
  </g>
  <g id="Ultralight-M" transform="matrix(1 0 0 1 503.641 1126)">
   <path class="multicolor-0:tintColor hierarchical-0:tertiary SFSymbolsPreview007AFF" d="M56.0547 12.0605Q65.8203 12.0605 74.3896 8.37402Q82.959 4.6875 89.4775-1.83105Q95.9961-8.34961 99.707-16.9189Q103.418-25.4883 103.418-35.2539Q103.418-45.0195 99.707-53.5889Q95.9961-62.1582 89.4775-68.6768Q82.959-75.1953 74.3896-78.8818Q65.8203-82.5684 56.0547-82.5684Q46.2891-82.5684 37.7197-78.8818Q29.1504-75.1953 22.6562-68.6768Q16.1621-62.1582 12.4512-53.5889Q8.74023-45.0195 8.74023-35.2539Q8.74023-25.4883 12.4268-16.9189Q16.1133-8.34961 22.6318-1.83105Q29.1504 4.6875 37.7197 8.37402Q46.2891 12.0605 56.0547 12.0605Z"/>
   <path class="multicolor-1:white hierarchical-1:primary SFSymbolsPreviewFFFFFF" d="M50.293-21.8262Q45.0195-21.8262 40.625-24.4385Q36.2305-27.0508 33.5938-31.4209Q30.957-35.791 30.957-41.1133Q30.957-46.4355 33.5938-50.8545Q36.2305-55.2734 40.625-57.8857Q45.0195-60.498 50.293-60.498Q55.6152-60.498 60.0098-57.8857Q64.4043-55.2734 67.041-50.8789Q69.6777-46.4844 69.6777-41.1133Q69.6777-37.5 68.4326-34.3018Q67.1875-31.1035 64.9902-28.5645L80.4199-12.9883Q80.7129-12.6465 80.9326-12.3535Q81.1523-12.0605 81.1523-11.5723Q81.1523-10.8887 80.7129-10.4004Q80.2734-9.91211 79.4434-9.91211Q78.5645-9.91211 77.8809-10.7422L62.5488-26.1719Q60.0098-24.1211 56.9092-22.9736Q53.8086-21.8262 50.293-21.8262ZM50.3418-24.2188Q55.0781-24.2188 58.9111-26.5137Q62.7441-28.8086 65.0391-32.666Q67.334-36.5234 67.334-41.2109Q67.334-45.8984 65.0391-49.7314Q62.7441-53.5645 58.9111-55.8594Q55.0781-58.1543 50.3418-58.1543Q45.752-58.1543 41.8701-55.8594Q37.9883-53.5645 35.6689-49.707Q33.3496-45.8496 33.3496-41.2109Q33.3496-36.5234 35.6689-32.666Q37.9883-28.8086 41.8701-26.5137Q45.752-24.2188 50.3418-24.2188Z"/>
  </g>
  <g id="Black-S" transform="matrix(1 0 0 1 2884.57 696)">
   <path class="multicolor-0:tintColor hierarchical-0:tertiary SFSymbolsPreview007AFF" d="M48.8281 6.78711Q57.5195 6.78711 65.1123 3.51562Q72.7051 0.244141 78.4912-5.54199Q84.2773-11.3281 87.5488-18.9209Q90.8203-26.5137 90.8203-35.2051Q90.8203-43.8965 87.5488-51.4893Q84.2773-59.082 78.4912-64.8682Q72.7051-70.6543 65.1123-73.9258Q57.5195-77.1973 48.8281-77.1973Q40.1367-77.1973 32.5439-73.9258Q24.9512-70.6543 19.165-64.8682Q13.3789-59.082 10.1074-51.4893Q6.83594-43.8965 6.83594-35.2051Q6.83594-26.5137 10.1074-18.9209Q13.3789-11.3281 19.165-5.54199Q24.9512 0.244141 32.5439 3.51562Q40.1367 6.78711 48.8281 6.78711Z"/>
   <path class="multicolor-1:white hierarchical-1:primary SFSymbolsPreviewFFFFFF" d="M45.4102-21.5332Q40.7227-21.5332 36.8164-23.877Q32.9102-26.2207 30.5664-30.127Q28.2227-34.0332 28.2227-38.7207Q28.2227-43.457 30.5664-47.3633Q32.9102-51.2695 36.8164-53.6133Q40.7227-55.957 45.4102-55.957Q50.1465-55.957 54.0283-53.6133Q57.9102-51.2695 60.2539-47.3633Q62.5977-43.457 62.5977-38.7207Q62.5977-36.7188 62.1338-34.8389Q61.6699-32.959 60.8398-31.25L67.7734-24.3652Q68.7012-23.4375 69.0674-22.3877Q69.4336-21.3379 69.4336-20.2148Q69.4336-17.7246 67.749-16.04Q66.0645-14.3555 63.623-14.3555Q61.2793-14.3555 59.4727-16.0645L52.3926-23.0957Q50.8301-22.3145 49.0479-21.9238Q47.2656-21.5332 45.4102-21.5332ZM45.4102-29.9805Q47.8516-29.9805 49.8291-31.1523Q51.8066-32.3242 52.9785-34.3018Q54.1504-36.2793 54.1504-38.7207Q54.1504-41.1621 52.9785-43.1396Q51.8066-45.1172 49.8291-46.2891Q47.8516-47.4609 45.4102-47.4609Q43.0176-47.4609 41.04-46.2891Q39.0625-45.1172 37.8662-43.1396Q36.6699-41.1621 36.6699-38.7207Q36.6699-36.2793 37.8662-34.3018Q39.0625-32.3242 41.04-31.1523Q43.0176-29.9805 45.4102-29.9805Z"/>
  </g>
  <g id="Heavy-S" transform="matrix(1 0 0 1 2588.47 696)">
   <path class="multicolor-0:tintColor hierarchical-0:tertiary SFSymbolsPreview007AFF" d="M48.1934 6.15234Q56.7871 6.15234 64.2578 2.92969Q71.7285-0.292969 77.4414-6.00586Q83.1543-11.7188 86.377-19.1895Q89.5996-26.6602 89.5996-35.2051Q89.5996-43.75 86.377-51.2451Q83.1543-58.7402 77.4414-64.4531Q71.7285-70.166 64.2334-73.3887Q56.7383-76.6113 48.1934-76.6113Q39.6484-76.6113 32.1777-73.3887Q24.707-70.166 18.9941-64.4531Q13.2812-58.7402 10.0586-51.2451Q6.83594-43.75 6.83594-35.2051Q6.83594-26.6602 10.0586-19.1895Q13.2812-11.7188 18.9941-6.00586Q24.707-0.292969 32.2021 2.92969Q39.6973 6.15234 48.1934 6.15234Z"/>
   <path class="multicolor-1:white hierarchical-1:primary SFSymbolsPreviewFFFFFF" d="M44.5801-21.9238Q39.9414-21.9238 36.0596-24.2432Q32.1777-26.5625 29.8584-30.4443Q27.5391-34.3262 27.5391-38.9648Q27.5391-43.6523 29.8584-47.5342Q32.1777-51.416 36.0596-53.7354Q39.9414-56.0547 44.5801-56.0547Q49.3164-56.0547 53.1738-53.7354Q57.0312-51.416 59.3506-47.5342Q61.6699-43.6523 61.6699-38.9648Q61.6699-36.8652 61.1572-34.8877Q60.6445-32.9102 59.7168-31.1523L67.2852-23.5352Q68.1152-22.7539 68.4814-21.7773Q68.8477-20.8008 68.8477-19.7754Q68.8477-17.4805 67.3096-15.918Q65.7715-14.3555 63.5742-14.3555Q61.3281-14.3555 59.6191-16.0156L51.9531-23.6328Q50.293-22.8027 48.4375-22.3633Q46.582-21.9238 44.5801-21.9238ZM44.5801-29.7852Q47.168-29.7852 49.2432-31.0303Q51.3184-32.2754 52.5391-34.3506Q53.7598-36.4258 53.7598-38.9648Q53.7598-41.5039 52.5391-43.5791Q51.3184-45.6543 49.2432-46.8994Q47.168-48.1445 44.5801-48.1445Q42.0898-48.1445 40.0146-46.8994Q37.9395-45.6543 36.6943-43.5791Q35.4492-41.5039 35.4492-38.9648Q35.4492-36.4258 36.6943-34.3506Q37.9395-32.2754 40.0146-31.0303Q42.0898-29.7852 44.5801-29.7852Z"/>
  </g>
  <g id="Bold-S" transform="matrix(1 0 0 1 2292.43 696)">
   <path class="multicolor-0:tintColor hierarchical-0:tertiary SFSymbolsPreview007AFF" d="M47.5586 5.46875Q55.957 5.46875 63.3057 2.29492Q70.6543-0.878906 76.2695-6.51855Q81.8848-12.1582 85.083-19.5068Q88.2812-26.8555 88.2812-35.2539Q88.2812-43.6035 85.083-50.9766Q81.8848-58.3496 76.2695-63.9648Q70.6543-69.5801 63.2812-72.7539Q55.9082-75.9277 47.5098-75.9277Q39.1602-75.9277 31.7871-72.7539Q24.4141-69.5801 18.8232-63.9648Q13.2324-58.3496 10.0342-50.9766Q6.83594-43.6035 6.83594-35.2539Q6.83594-26.8555 10.0342-19.5068Q13.2324-12.1582 18.8477-6.51855Q24.4629-0.878906 31.8115 2.29492Q39.1602 5.46875 47.5586 5.46875Z"/>
   <path class="multicolor-1:white hierarchical-1:primary SFSymbolsPreviewFFFFFF" d="M43.75-22.3145Q39.1113-22.3145 35.2783-24.6338Q31.4453-26.9531 29.126-30.7861Q26.8066-34.6191 26.8066-39.2578Q26.8066-43.8965 29.126-47.7539Q31.4453-51.6113 35.2783-53.9062Q39.1113-56.2012 43.75-56.2012Q48.3887-56.2012 52.2217-53.9062Q56.0547-51.6113 58.374-47.7783Q60.6934-43.9453 60.6934-39.2578Q60.6934-37.0117 60.1074-34.9365Q59.5215-32.8613 58.4473-31.0059L66.7969-22.6562Q67.5293-21.9727 67.8711-21.0938Q68.2129-20.2148 68.2129-19.2871Q68.2129-17.1875 66.8701-15.7959Q65.5273-14.4043 63.5254-14.4043Q61.4258-14.4043 59.8633-15.9668L51.5137-24.2676Q49.7559-23.3398 47.8027-22.8271Q45.8496-22.3145 43.75-22.3145ZM43.75-29.5898Q46.3867-29.5898 48.584-30.9082Q50.7812-32.2266 52.0752-34.3994Q53.3691-36.5723 53.3691-39.2578Q53.3691-41.9434 52.0752-44.1162Q50.7812-46.2891 48.584-47.583Q46.3867-48.877 43.75-48.877Q41.1133-48.877 38.916-47.583Q36.7188-46.2891 35.4004-44.0918Q34.082-41.8945 34.082-39.2578Q34.082-36.5723 35.4004-34.3994Q36.7188-32.2266 38.916-30.9082Q41.1133-29.5898 43.75-29.5898Z"/>
  </g>
  <g id="Semibold-S" transform="matrix(1 0 0 1 1996.19 696)">
   <path class="multicolor-0:tintColor hierarchical-0:tertiary SFSymbolsPreview007AFF" d="M47.0703 4.98047Q55.3711 4.98047 62.6465 1.85547Q69.9219-1.26953 75.4639-6.86035Q81.0059-12.4512 84.1553-19.7266Q87.3047-27.002 87.3047-35.2539Q87.3047-43.5059 84.1553-50.7812Q81.0059-58.0566 75.4395-63.623Q69.873-69.1895 62.5977-72.3389Q55.3223-75.4883 47.0215-75.4883Q38.7695-75.4883 31.4941-72.3389Q24.2188-69.1895 18.6768-63.623Q13.1348-58.0566 9.98535-50.7812Q6.83594-43.5059 6.83594-35.2539Q6.83594-27.002 9.98535-19.7266Q13.1348-12.4512 18.7012-6.86035Q24.2676-1.26953 31.543 1.85547Q38.8184 4.98047 47.0703 4.98047Z"/>
   <path class="multicolor-1:white hierarchical-1:primary SFSymbolsPreviewFFFFFF" d="M43.0664-22.6074Q38.5254-22.6074 34.6924-24.9023Q30.8594-27.1973 28.5645-31.0059Q26.2695-34.8145 26.2695-39.4043Q26.2695-44.043 28.5645-47.9004Q30.8594-51.7578 34.6924-54.0283Q38.5254-56.2988 43.0664-56.2988Q47.7051-56.2988 51.5381-54.0283Q55.3711-51.7578 57.666-47.9248Q59.9609-44.0918 59.9609-39.4043Q59.9609-37.1094 59.3262-34.9609Q58.6914-32.8125 57.5684-30.9082L66.4062-22.0215Q67.0898-21.3867 67.4072-20.5811Q67.7246-19.7754 67.7246-18.8965Q67.7246-16.9434 66.5283-15.6738Q65.332-14.4043 63.4277-14.4043Q61.4746-14.4043 59.9609-15.918L51.123-24.707Q49.3652-23.7305 47.3145-23.1689Q45.2637-22.6074 43.0664-22.6074ZM43.0664-29.4434Q45.8496-29.4434 48.0957-30.8105Q50.3418-32.1777 51.6846-34.4238Q53.0273-36.6699 53.0273-39.4043Q53.0273-42.1875 51.6846-44.458Q50.3418-46.7285 48.0957-48.0713Q45.8496-49.4141 43.0664-49.4141Q40.3809-49.4141 38.1104-48.0469Q35.8398-46.6797 34.4727-44.4092Q33.1055-42.1387 33.1055-39.4043Q33.1055-36.6699 34.4727-34.4238Q35.8398-32.1777 38.1104-30.8105Q40.3809-29.4434 43.0664-29.4434Z"/>
  </g>
  <g id="Medium-S" transform="matrix(1 0 0 1 1699.83 696)">
   <path class="multicolor-0:tintColor hierarchical-0:tertiary SFSymbolsPreview007AFF" d="M46.7285 4.63867Q54.9316 4.63867 62.1338 1.51367Q69.3359-1.61133 74.8535-7.12891Q80.3711-12.6465 83.4961-19.8486Q86.6211-27.0508 86.6211-35.2539Q86.6211-43.4082 83.4961-50.6348Q80.3711-57.8613 74.8291-63.3789Q69.2871-68.8965 62.085-71.9971Q54.8828-75.0977 46.6797-75.0977Q38.4766-75.0977 31.2744-71.9971Q24.0723-68.8965 18.5791-63.3789Q13.0859-57.8613 9.96094-50.6348Q6.83594-43.4082 6.83594-35.2539Q6.83594-27.0508 9.96094-19.8486Q13.0859-12.6465 18.6035-7.12891Q24.1211-1.61133 31.3232 1.51367Q38.5254 4.63867 46.7285 4.63867Z"/>
   <path class="multicolor-1:white hierarchical-1:primary SFSymbolsPreviewFFFFFF" d="M42.627-22.8027Q38.0371-22.8027 34.2529-25.0977Q30.4688-27.3926 28.1738-31.2012Q25.8789-35.0098 25.8789-39.5508Q25.8789-44.1895 28.1738-47.998Q30.4688-51.8066 34.2529-54.0771Q38.0371-56.3477 42.627-56.3477Q47.2656-56.3477 51.0498-54.0771Q54.834-51.8066 57.1289-48.0225Q59.4238-44.2383 59.4238-39.5508Q59.4238-37.1582 58.7646-34.9609Q58.1055-32.7637 56.8848-30.8594L66.1621-21.582Q66.748-20.9961 67.0898-20.2148Q67.4316-19.4336 67.4316-18.6523Q67.4316-16.7969 66.3086-15.625Q65.1855-14.4531 63.3789-14.4531Q61.4746-14.4531 60.1074-15.8691L50.8789-25Q49.0234-23.9746 46.9482-23.3887Q44.873-22.8027 42.627-22.8027ZM42.627-29.3457Q45.4102-29.3457 47.7295-30.7373Q50.0488-32.1289 51.4404-34.4482Q52.832-36.7676 52.832-39.5508Q52.832-42.3828 51.4404-44.7021Q50.0488-47.0215 47.7295-48.4131Q45.4102-49.8047 42.627-49.8047Q39.8438-49.8047 37.5244-48.4131Q35.2051-47.0215 33.8135-44.7021Q32.4219-42.3828 32.4219-39.5508Q32.4219-36.7676 33.8135-34.4482Q35.2051-32.1289 37.5244-30.7373Q39.8438-29.3457 42.627-29.3457Z"/>
  </g>
  <g id="Regular-S" transform="matrix(1 0 0 1 1403.58 696)">
   <path class="multicolor-0:tintColor hierarchical-0:tertiary SFSymbolsPreview007AFF" d="M46.2402 4.15039Q54.3457 4.15039 61.4746 1.07422Q68.6035-2.00195 74.0479-7.4707Q79.4922-12.9395 82.5928-20.0684Q85.6934-27.1973 85.6934-35.2539Q85.6934-43.3105 82.5928-50.4395Q79.4922-57.5684 74.0234-63.0371Q68.5547-68.5059 61.4258-71.582Q54.2969-74.6582 46.1914-74.6582Q38.1348-74.6582 31.0059-71.582Q23.877-68.5059 18.457-63.0371Q13.0371-57.5684 9.93652-50.4395Q6.83594-43.3105 6.83594-35.2539Q6.83594-27.1973 9.93652-20.0684Q13.0371-12.9395 18.4814-7.4707Q23.9258-2.00195 31.0547 1.07422Q38.1836 4.15039 46.2402 4.15039Z"/>
   <path class="multicolor-1:white hierarchical-1:primary SFSymbolsPreviewFFFFFF" d="M42.041-23.0957Q37.5-23.0957 33.7158-25.3662Q29.9316-27.6367 27.6611-31.4209Q25.3906-35.2051 25.3906-39.7461Q25.3906-44.3359 27.6611-48.1445Q29.9316-51.9531 33.7158-54.1992Q37.5-56.4453 42.041-56.4453Q46.6309-56.4453 50.415-54.1992Q54.1992-51.9531 56.4697-48.1689Q58.7402-44.3848 58.7402-39.7461Q58.7402-37.2559 58.0322-34.9854Q57.3242-32.7148 56.0547-30.7617L65.8203-20.9473Q66.3574-20.459 66.6748-19.751Q66.9922-19.043 66.9922-18.3105Q66.9922-16.6016 65.9912-15.5273Q64.9902-14.4531 63.3789-14.4531Q61.5723-14.4531 60.2539-15.8203L50.5859-25.4395Q48.6816-24.3652 46.5332-23.7305Q44.3848-23.0957 42.041-23.0957ZM42.041-29.1992Q44.9219-29.1992 47.3145-30.6396Q49.707-32.0801 51.123-34.4727Q52.5391-36.8652 52.5391-39.7461Q52.5391-42.6758 51.123-45.0684Q49.707-47.4609 47.3145-48.877Q44.9219-50.293 42.041-50.293Q39.1602-50.293 36.7676-48.8525Q34.375-47.4121 32.9346-45.0195Q31.4941-42.627 31.4941-39.7461Q31.4941-36.8652 32.9346-34.4727Q34.375-32.0801 36.7676-30.6396Q39.1602-29.1992 42.041-29.1992Z"/>
  </g>
  <g id="Light-S" transform="matrix(1 0 0 1 1107.6 696)">
   <path class="multicolor-0:tintColor hierarchical-0:tertiary SFSymbolsPreview007AFF" d="M45.5078 3.41797Q53.4668 3.41797 60.4736 0.415039Q67.4805-2.58789 72.8271-7.95898Q78.1738-13.3301 81.2012-20.3125Q84.2285-27.2949 84.2285-35.2539Q84.2285-43.2129 81.2012-50.1953Q78.1738-57.1777 72.8027-62.5488Q67.4316-67.9199 60.4492-70.9229Q53.4668-73.9258 45.459-73.9258Q37.5488-73.9258 30.542-70.9229Q23.5352-67.9199 18.2129-62.5488Q12.8906-57.1777 9.86328-50.1953Q6.83594-43.2129 6.83594-35.2539Q6.83594-27.2949 9.86328-20.3125Q12.8906-13.3301 18.2373-7.95898Q23.584-2.58789 30.5908 0.415039Q37.5977 3.41797 45.5078 3.41797Z"/>
   <path class="multicolor-1:white hierarchical-1:primary SFSymbolsPreviewFFFFFF" d="M41.2109-23.6328Q36.8164-23.6328 33.1299-25.8057Q29.4434-27.9785 27.2461-31.665Q25.0488-35.3516 25.0488-39.7949Q25.0488-44.2383 27.2461-47.9248Q29.4434-51.6113 33.1299-53.8086Q36.8164-56.0059 41.2109-56.0059Q45.7031-56.0059 49.3896-53.8086Q53.0762-51.6113 55.2734-47.9492Q57.4707-44.2871 57.4707-39.7949Q57.4707-37.1582 56.665-34.8145Q55.8594-32.4707 54.4434-30.5176L64.9414-19.9707Q65.3809-19.5312 65.6494-18.9697Q65.918-18.4082 65.918-17.7734Q65.918-16.4551 65.1367-15.6006Q64.3555-14.7461 63.0371-14.7461Q61.5723-14.7461 60.498-15.8691L50.0977-26.2695Q48.1934-25.0488 45.9473-24.3408Q43.7012-23.6328 41.2109-23.6328ZM41.2598-28.418Q44.3848-28.418 46.9727-29.9561Q49.5605-31.4941 51.0986-34.082Q52.6367-36.6699 52.6367-39.7949Q52.6367-42.9688 51.0986-45.5566Q49.5605-48.1445 46.9727-49.6826Q44.3848-51.2207 41.2598-51.2207Q38.1348-51.2207 35.5469-49.6582Q32.959-48.0957 31.3965-45.5078Q29.834-42.9199 29.834-39.7949Q29.834-36.6699 31.3965-34.082Q32.959-31.4941 35.5469-29.9561Q38.1348-28.418 41.2598-28.418Z"/>
  </g>
  <g id="Thin-S" transform="matrix(1 0 0 1 811.863 696)">
   <path class="multicolor-0:tintColor hierarchical-0:tertiary SFSymbolsPreview007AFF" d="M44.5312 2.44141Q52.3438 2.44141 59.1553-0.488281Q65.9668-3.41797 71.1914-8.64258Q76.416-13.8672 79.3457-20.6787Q82.2754-27.4902 82.2754-35.2539Q82.2754-43.0176 79.3457-49.8291Q76.416-56.6406 71.1914-61.8652Q65.9668-67.0898 59.1553-70.0195Q52.3438-72.9492 44.5312-72.9492Q36.7676-72.9492 29.9316-70.0195Q23.0957-67.0898 17.9199-61.8652Q12.7441-56.6406 9.79004-49.8291Q6.83594-43.0176 6.83594-35.2539Q6.83594-27.4902 9.79004-20.6787Q12.7441-13.8672 17.9199-8.64258Q23.0957-3.41797 29.9316-0.488281Q36.7676 2.44141 44.5312 2.44141Z"/>
   <path class="multicolor-1:white hierarchical-1:primary SFSymbolsPreviewFFFFFF" d="M40.1367-24.2676Q35.8398-24.2676 32.3242-26.3672Q28.8086-28.4668 26.6846-32.0068Q24.5605-35.5469 24.5605-39.7949Q24.5605-44.0918 26.6846-47.6562Q28.8086-51.2207 32.3242-53.3203Q35.8398-55.4199 40.1367-55.4199Q44.4336-55.4199 47.9736-53.3203Q51.5137-51.2207 53.6133-47.6562Q55.7129-44.0918 55.7129-39.7949Q55.7129-37.0605 54.8096-34.6191Q53.9062-32.1777 52.2949-30.2246L63.7695-18.7012Q64.0625-18.3594 64.2822-17.9688Q64.502-17.5781 64.502-17.1387Q64.502-16.3086 63.9893-15.7227Q63.4766-15.1367 62.5488-15.1367Q61.5723-15.1367 60.791-15.9668L49.4629-27.3926Q47.4609-25.9277 45.0928-25.0977Q42.7246-24.2676 40.1367-24.2676ZM40.1367-27.3438Q43.6523-27.3438 46.4844-29.0527Q49.3164-30.7617 51.001-33.5938Q52.6855-36.4258 52.6855-39.8438Q52.6855-43.3105 51.001-46.167Q49.3164-49.0234 46.4844-50.708Q43.6523-52.3926 40.1367-52.3926Q36.7676-52.3926 33.8867-50.6836Q31.0059-48.9746 29.2969-46.1426Q27.5879-43.3105 27.5879-39.8438Q27.5879-36.4258 29.2969-33.5938Q31.0059-30.7617 33.8867-29.0527Q36.7676-27.3438 40.1367-27.3438Z"/>
  </g>
  <g id="Ultralight-S" transform="matrix(1 0 0 1 515.649 696)">
   <path class="multicolor-0:tintColor hierarchical-0:tertiary SFSymbolsPreview007AFF" d="M44.043 1.95312Q51.7578 1.95312 58.4717-0.927734Q65.1855-3.80859 70.3369-8.95996Q75.4883-14.1113 78.3936-20.8252Q81.2988-27.5391 81.2988-35.2539Q81.2988-42.9688 78.3936-49.6826Q75.4883-56.3965 70.3369-61.5479Q65.1855-66.6992 58.4717-69.5801Q51.7578-72.4609 44.043-72.4609Q36.377-72.4609 29.6387-69.5801Q22.9004-66.6992 17.7734-61.5479Q12.6465-56.3965 9.74121-49.6826Q6.83594-42.9688 6.83594-35.2539Q6.83594-27.5391 9.74121-20.8252Q12.6465-14.1113 17.7734-8.95996Q22.9004-3.80859 29.6387-0.927734Q36.377 1.95312 44.043 1.95312Z"/>
   <path class="multicolor-1:white hierarchical-1:primary SFSymbolsPreviewFFFFFF" d="M39.5508-24.6582Q35.4004-24.6582 31.9336-26.6846Q28.4668-28.7109 26.3916-32.1777Q24.3164-35.6445 24.3164-39.8438Q24.3164-43.9941 26.3916-47.4854Q28.4668-50.9766 31.9336-53.0518Q35.4004-55.127 39.5508-55.127Q43.7988-55.127 47.2656-53.0518Q50.7324-50.9766 52.7832-47.5098Q54.834-44.043 54.834-39.8438Q54.834-37.0117 53.8818-34.5215Q52.9297-32.0312 51.2207-30.0781L63.1348-18.0176Q63.4277-17.7246 63.5986-17.4561Q63.7695-17.1875 63.7695-16.748Q63.7695-16.2109 63.3789-15.7715Q62.9883-15.332 62.3047-15.332Q61.5234-15.332 60.9375-16.0156L49.1211-27.9297Q47.1191-26.416 44.7021-25.5371Q42.2852-24.6582 39.5508-24.6582ZM39.5996-26.8066Q43.2617-26.8066 46.2158-28.5889Q49.1699-30.3711 50.9521-33.3252Q52.7344-36.2793 52.7344-39.8926Q52.7344-43.5059 50.9521-46.4844Q49.1699-49.4629 46.2158-51.2451Q43.2617-53.0273 39.5996-53.0273Q36.0352-53.0273 33.0322-51.2451Q30.0293-49.4629 28.2471-46.4844Q26.4648-43.5059 26.4648-39.8926Q26.4648-36.2793 28.2471-33.3252Q30.0293-30.3711 33.0322-28.5889Q36.0352-26.8066 39.5996-26.8066Z"/>
  </g>
 </g>
</svg>
